<svg width="1920" height="1146" viewBox="0 0 1920 1146" fill="none" xmlns="http://www.w3.org/2000/svg">
<g opacity="0.3">
<g clip-path="url(#clip0)">
<path d="M810.56 257.74L940.04 294.95L1071.71 455.95L960.67 464.58L751.23 446.61L708.54 288.41L810.56 257.74Z" fill="url(#paint0_linear)"/>
<path opacity="0.5" d="M938.91 295.99L810.56 261.54L708.54 288.41L810.56 257.74L940.04 294.95L1071.71 455.95L1069.25 456.73L938.91 295.99Z" fill="url(#paint1_linear)"/>
<path d="M708.54 288.41L612.25 360.01L612.42 467H751.23V446.61L708.54 288.41Z" fill="url(#paint2_linear)"/>
<path d="M960.67 464.58V467H751.23V446.61L960.67 464.58Z" fill="url(#paint3_linear)"/>
<path d="M1071.71 455.95L1125.86 467H960.67V464.58L1071.71 455.95Z" fill="url(#paint4_linear)"/>
<path opacity="0.1" d="M960.67 464.58L751.23 446.61L721.25 335.5L773.06 433.33L960.67 464.58Z" fill="#10278F"/>
<path d="M1026.48 400.64L1139.11 359.68L1336.54 436.43L1357.62 446.57L1139.11 438.98L1071.71 455.95L1026.48 400.64Z" fill="url(#paint5_linear)"/>
<path opacity="0.5" d="M1139.11 359.68L1336.54 436.43L1336.86 437.79L1143.86 362.76L1026.48 400.64L1139.11 359.68Z" fill="url(#paint6_linear)"/>
<path d="M1125.86 467L1139.11 438.98L1357.62 446.57L1372.95 467H1125.86Z" fill="url(#paint7_linear)"/>
<path d="M1139.11 438.98L1071.71 455.95L1125.86 467L1139.11 438.98Z" fill="url(#paint8_linear)"/>
<path d="M448.94 468.67L481.05 395.48L583.08 302.69L415.4 355.83L423.38 420.54L448.94 468.67Z" fill="url(#paint9_linear)"/>
<path d="M423.38 420.54L345.18 349.81L583.08 302.69L415.4 355.83L423.38 420.54Z" fill="url(#paint10_linear)"/>
<path d="M174.26 213.66L288.03 246.36L403.72 387.82L306.16 419.14L122.13 379.62L84.62 240.61L174.26 213.66Z" fill="url(#paint11_linear)"/>
<path d="M84.62 240.61L0 303.52L0.16 467.6H122.13V379.62L84.62 240.61Z" fill="url(#paint12_linear)"/>
<path d="M306.16 419.14V467.6H122.13V379.62L306.16 419.14Z" fill="url(#paint13_linear)"/>
<path d="M403.72 387.82L451.3 467.6H306.16V419.14L403.72 387.82Z" fill="url(#paint14_linear)"/>
<path opacity="0.1" d="M403.72 387.82L306.16 419.14L371.83 449.65L351.98 423.61L403.72 387.82Z" fill="#10278F"/>
<path opacity="0.1" d="M306.16 419.14L122.13 379.62L95.78 281.99L141.3 367.95L306.16 419.14Z" fill="#10278F"/>
<path d="M136.81 224.92L71.28 179.16L0.160004 61L19.59 235.83L84.62 240.61L136.81 224.92Z" fill="url(#paint15_linear)"/>
<path d="M84.62 240.61L0 303.52L0.16 61L19.59 235.83L84.62 240.61Z" fill="url(#paint16_linear)"/>
<path d="M1721.63 178.74L1592.16 215.95L1460.49 376.95L1571.52 412.58L1780.96 367.61L1823.65 209.41L1721.63 178.74Z" fill="url(#paint17_linear)"/>
<path opacity="0.5" d="M1593.29 216.99L1721.63 182.54L1823.65 209.41L1721.63 178.74L1592.16 215.95L1460.49 376.95L1462.95 377.73L1593.29 216.99Z" fill="url(#paint18_linear)"/>
<path d="M1823.65 209.41L1919.95 281.01L1919.77 467.73H1780.96V367.61L1823.65 209.41Z" fill="url(#paint19_linear)"/>
<path d="M1571.52 412.58V467.73H1780.96V367.61L1571.52 412.58Z" fill="url(#paint20_linear)"/>
<path d="M1460.49 376.95L1406.34 467.73H1571.52V412.58L1460.49 376.95Z" fill="url(#paint21_linear)"/>
<path opacity="0.1" d="M1460.49 376.95L1571.52 412.58L1496.78 447.3L1519.37 417.67L1460.49 376.95Z" fill="#10278F"/>
<path opacity="0.1" d="M1571.52 412.58L1780.96 367.61L1810.94 256.5L1759.14 354.33L1571.52 412.58Z" fill="#10278F"/>
<path d="M1505.72 321.64L1393.08 280.68L1195.66 357.43L1174.57 447.3L1393.08 439.71L1460.49 376.95L1505.72 321.64Z" fill="url(#paint22_linear)"/>
<path opacity="0.5" d="M1393.08 280.68L1195.66 357.43L1195.34 358.79L1388.34 283.76L1505.72 321.64L1393.08 280.68Z" fill="url(#paint23_linear)"/>
<path d="M1406.34 467.73L1393.08 439.71L1174.57 447.3L1159.25 467.73H1406.34Z" fill="url(#paint24_linear)"/>
<path d="M1393.08 439.71L1460.49 376.95L1406.34 467.73L1393.08 439.71Z" fill="url(#paint25_linear)"/>
<path opacity="0.1" d="M1174.57 447.3L1393.08 439.71L1406.34 467.73L1383.29 456.34L1174.57 447.3Z" fill="#10278F"/>
<path opacity="0.1" d="M1472.87 367.61L1228.26 445.44L1393.08 439.71L1472.87 367.61Z" fill="#10278F"/>
<path d="M1764.26 191.55L1838.83 139.48L1919.77 5L1897.65 203.96L1823.65 209.41L1764.26 191.55Z" fill="url(#paint26_linear)"/>
<path opacity="0.5" d="M1838.83 148.49L1919.77 5L1838.83 139.48L1764.26 191.55L1838.83 148.49Z" fill="url(#paint27_linear)"/>
<path d="M1823.65 209.41L1919.95 281.01L1919.77 5L1897.65 203.96L1823.65 209.41Z" fill="url(#paint28_linear)"/>
<path opacity="0.1" d="M1838.83 139.48L1889.11 197.31L1831.72 193.49L1866.82 190.01L1823.65 173.26L1847.37 170.74L1838.83 139.48Z" fill="#10278F"/>
<path d="M659.86 297.82L575.22 251L449.05 309.04L464.94 340.39L594.13 423.85L696.11 365.18L659.86 297.82Z" fill="url(#paint29_linear)"/>
<path opacity="0.1" d="M464.94 340.39L594.13 423.85L665.75 382.65L589.79 406.03L464.94 340.39Z" fill="#10278F"/>
<path d="M594.09 423.92V467H696.04V363.61L594.09 423.92Z" fill="url(#paint30_linear)"/>
<path d="M464.84 339.91V467H594.09V423.92L464.84 339.91Z" fill="url(#paint31_linear)"/>
<path d="M449.05 309.04V467H464.84V339.91L449.05 309.04Z" fill="url(#paint32_linear)"/>
</g>
<rect y="353" width="1920" height="116" fill="url(#paint33_linear)"/>
<rect y="467" width="1920" height="679" fill="url(#paint34_linear)"/>
<g style="mix-blend-mode:overlay">
<rect x="2" width="1918" height="1146" fill="white"/>
</g>
</g>
<defs>
<linearGradient id="paint0_linear" x1="1071.71" y1="361.161" x2="708.543" y2="361.161" gradientUnits="userSpaceOnUse">
<stop stop-color="#2B43E8"/>
<stop offset="0.0996" stop-color="#334AEC"/>
<stop offset="0.3914" stop-color="#4759F7"/>
<stop offset="0.6893" stop-color="#5263FD"/>
<stop offset="1" stop-color="#5666FF"/>
</linearGradient>
<linearGradient id="paint1_linear" x1="1071.71" y1="357.238" x2="708.543" y2="357.238" gradientUnits="userSpaceOnUse">
<stop stop-color="#394CFF"/>
<stop offset="0.0851" stop-color="#4852FF"/>
<stop offset="0.2476" stop-color="#6F62FF"/>
<stop offset="0.4023" stop-color="#9974FF"/>
<stop offset="0.4965" stop-color="#A37FFD"/>
<stop offset="0.6642" stop-color="#BD9EF6"/>
<stop offset="0.8841" stop-color="#E7CEEB"/>
<stop offset="1" stop-color="#FFEBE5"/>
</linearGradient>
<linearGradient id="paint2_linear" x1="613.352" y1="518.415" x2="707.487" y2="374.004" gradientUnits="userSpaceOnUse">
<stop stop-color="#5666FF"/>
<stop offset="0.9917" stop-color="#2B43E8"/>
<stop offset="1" stop-color="#2B43E8"/>
</linearGradient>
<linearGradient id="paint3_linear" x1="796.997" y1="500.887" x2="930.129" y2="401.339" gradientUnits="userSpaceOnUse">
<stop stop-color="#2B43E8"/>
<stop offset="0.00834185" stop-color="#2B43E8"/>
<stop offset="1" stop-color="#5666FF"/>
</linearGradient>
<linearGradient id="paint4_linear" x1="1073.95" y1="510.081" x2="1022.53" y2="437.886" gradientUnits="userSpaceOnUse">
<stop stop-color="#5666FF"/>
<stop offset="0.3678" stop-color="#3E53F2"/>
<stop offset="0.7103" stop-color="#3047EB"/>
<stop offset="1" stop-color="#2B43E8"/>
</linearGradient>
<linearGradient id="paint5_linear" x1="1357.62" y1="407.813" x2="1026.48" y2="407.813" gradientUnits="userSpaceOnUse">
<stop stop-color="#2B43E8"/>
<stop offset="0.0996" stop-color="#334AEC"/>
<stop offset="0.3914" stop-color="#4759F7"/>
<stop offset="0.6893" stop-color="#5263FD"/>
<stop offset="1" stop-color="#5666FF"/>
</linearGradient>
<linearGradient id="paint6_linear" x1="1336.86" y1="398.736" x2="1026.48" y2="398.736" gradientUnits="userSpaceOnUse">
<stop stop-color="#394CFF"/>
<stop offset="0.0851" stop-color="#4852FF"/>
<stop offset="0.2476" stop-color="#6F62FF"/>
<stop offset="0.4023" stop-color="#9974FF"/>
<stop offset="0.4965" stop-color="#A37FFD"/>
<stop offset="0.6642" stop-color="#BD9EF6"/>
<stop offset="0.8841" stop-color="#E7CEEB"/>
<stop offset="1" stop-color="#FFEBE5"/>
</linearGradient>
<linearGradient id="paint7_linear" x1="1250.55" y1="446.33" x2="1247.94" y2="493.346" gradientUnits="userSpaceOnUse">
<stop stop-color="#2B43E8"/>
<stop offset="0.0996" stop-color="#334AEC"/>
<stop offset="0.3914" stop-color="#4759F7"/>
<stop offset="0.6893" stop-color="#5263FD"/>
<stop offset="1" stop-color="#5666FF"/>
</linearGradient>
<linearGradient id="paint8_linear" x1="1090.03" y1="472.481" x2="1159.46" y2="385.165" gradientUnits="userSpaceOnUse">
<stop stop-color="#2B43E8"/>
<stop offset="0.0996" stop-color="#334AEC"/>
<stop offset="0.3914" stop-color="#4759F7"/>
<stop offset="0.6893" stop-color="#5263FD"/>
<stop offset="1" stop-color="#5666FF"/>
</linearGradient>
<linearGradient id="paint9_linear" x1="417.338" y1="428.219" x2="555.504" y2="280.923" gradientUnits="userSpaceOnUse">
<stop stop-color="#2B43E8"/>
<stop offset="0.1276" stop-color="#3B50F1"/>
<stop offset="0.3067" stop-color="#4A5CF9"/>
<stop offset="0.5159" stop-color="#5364FE"/>
<stop offset="0.8241" stop-color="#5666FF"/>
</linearGradient>
<linearGradient id="paint10_linear" x1="480.727" y1="409.198" x2="464.236" y2="326.208" gradientUnits="userSpaceOnUse">
<stop stop-color="#5666FF"/>
<stop offset="0.9917" stop-color="#2B43E8"/>
<stop offset="1" stop-color="#2B43E8"/>
</linearGradient>
<linearGradient id="paint11_linear" x1="403.723" y1="316.4" x2="84.6153" y2="316.4" gradientUnits="userSpaceOnUse">
<stop stop-color="#2B43E8"/>
<stop offset="0.0996" stop-color="#334AEC"/>
<stop offset="0.3914" stop-color="#4759F7"/>
<stop offset="0.6893" stop-color="#5263FD"/>
<stop offset="1" stop-color="#5666FF"/>
</linearGradient>
<linearGradient id="paint12_linear" x1="54.0384" y1="446.05" x2="70.7715" y2="301.956" gradientUnits="userSpaceOnUse">
<stop stop-color="#5361EA"/>
<stop offset="1" stop-color="#2B43E8"/>
</linearGradient>
<linearGradient id="paint13_linear" x1="217.964" y1="391.914" x2="210.694" y2="452.183" gradientUnits="userSpaceOnUse">
<stop stop-color="#2B43E8"/>
<stop offset="1" stop-color="#5361EA"/>
</linearGradient>
<linearGradient id="paint14_linear" x1="378.581" y1="462.266" x2="376.462" y2="387.015" gradientUnits="userSpaceOnUse">
<stop stop-color="#5361EA"/>
<stop offset="0.3418" stop-color="#3E51E9"/>
<stop offset="0.6981" stop-color="#3047E8"/>
<stop offset="1" stop-color="#2B43E8"/>
</linearGradient>
<linearGradient id="paint15_linear" x1="90.916" y1="248.144" x2="-26.6281" y2="83.9156" gradientUnits="userSpaceOnUse">
<stop stop-color="#2B43E8"/>
<stop offset="0.1276" stop-color="#3B50F1"/>
<stop offset="0.3067" stop-color="#4A5CF9"/>
<stop offset="0.5159" stop-color="#5364FE"/>
<stop offset="0.8241" stop-color="#5666FF"/>
</linearGradient>
<linearGradient id="paint16_linear" x1="84.6153" y1="182.262" x2="0" y2="182.262" gradientUnits="userSpaceOnUse">
<stop stop-color="#5666FF"/>
<stop offset="0.9917" stop-color="#2B43E8"/>
<stop offset="1" stop-color="#2B43E8"/>
</linearGradient>
<linearGradient id="paint17_linear" x1="1460.49" y1="295.661" x2="1823.65" y2="295.661" gradientUnits="userSpaceOnUse">
<stop stop-color="#2B43E8"/>
<stop offset="0.0996" stop-color="#334AEC"/>
<stop offset="0.3914" stop-color="#4759F7"/>
<stop offset="0.6893" stop-color="#5263FD"/>
<stop offset="1" stop-color="#5666FF"/>
</linearGradient>
<linearGradient id="paint18_linear" x1="1460.49" y1="278.238" x2="1823.65" y2="278.238" gradientUnits="userSpaceOnUse">
<stop stop-color="#394CFF"/>
<stop offset="0.0851" stop-color="#4852FF"/>
<stop offset="0.2476" stop-color="#6F62FF"/>
<stop offset="0.4023" stop-color="#9974FF"/>
<stop offset="0.4965" stop-color="#A37FFD"/>
<stop offset="0.6642" stop-color="#BD9EF6"/>
<stop offset="0.8841" stop-color="#E7CEEB"/>
<stop offset="1" stop-color="#FFEBE5"/>
</linearGradient>
<linearGradient id="paint19_linear" x1="1944.76" y1="519.045" x2="1819.52" y2="326.906" gradientUnits="userSpaceOnUse">
<stop stop-color="#5666FF"/>
<stop offset="0.9917" stop-color="#2B43E8"/>
<stop offset="1" stop-color="#2B43E8"/>
</linearGradient>
<linearGradient id="paint20_linear" x1="1751.87" y1="474.222" x2="1593.89" y2="356.092" gradientUnits="userSpaceOnUse">
<stop stop-color="#2B43FF"/>
<stop offset="0.00834185" stop-color="#2B43FF"/>
<stop offset="1" stop-color="#5666FF"/>
</linearGradient>
<linearGradient id="paint21_linear" x1="1453.49" y1="510.107" x2="1527.5" y2="406.21" gradientUnits="userSpaceOnUse">
<stop stop-color="#5666FF"/>
<stop offset="0.3678" stop-color="#3E53F2"/>
<stop offset="0.7103" stop-color="#3047EB"/>
<stop offset="1" stop-color="#2B43E8"/>
</linearGradient>
<linearGradient id="paint22_linear" x1="1174.57" y1="363.991" x2="1505.72" y2="363.991" gradientUnits="userSpaceOnUse">
<stop stop-color="#2B43E8"/>
<stop offset="0.0996" stop-color="#334AEC"/>
<stop offset="0.3914" stop-color="#4759F7"/>
<stop offset="0.6893" stop-color="#5263FD"/>
<stop offset="1" stop-color="#5666FF"/>
</linearGradient>
<linearGradient id="paint23_linear" x1="1195.34" y1="319.736" x2="1505.72" y2="319.736" gradientUnits="userSpaceOnUse">
<stop stop-color="#394CFF"/>
<stop offset="0.0851" stop-color="#4852FF"/>
<stop offset="0.2476" stop-color="#6F62FF"/>
<stop offset="0.4023" stop-color="#9974FF"/>
<stop offset="0.4965" stop-color="#A37FFD"/>
<stop offset="0.6642" stop-color="#BD9EF6"/>
<stop offset="0.8841" stop-color="#E7CEEB"/>
<stop offset="1" stop-color="#FFEBE5"/>
</linearGradient>
<linearGradient id="paint24_linear" x1="1281.64" y1="447.063" x2="1284.26" y2="494.079" gradientUnits="userSpaceOnUse">
<stop stop-color="#2B43E8"/>
<stop offset="0.0996" stop-color="#334AEC"/>
<stop offset="0.3914" stop-color="#4759F7"/>
<stop offset="0.6893" stop-color="#5263FD"/>
<stop offset="1" stop-color="#5666FF"/>
</linearGradient>
<linearGradient id="paint25_linear" x1="1445.68" y1="437.773" x2="1398.72" y2="378.717" gradientUnits="userSpaceOnUse">
<stop stop-color="#2B43E8"/>
<stop offset="0.0996" stop-color="#334AEC"/>
<stop offset="0.3914" stop-color="#4759F7"/>
<stop offset="0.6893" stop-color="#5263FD"/>
<stop offset="1" stop-color="#5666FF"/>
</linearGradient>
<linearGradient id="paint26_linear" x1="1816.48" y1="217.982" x2="1950.25" y2="31.0794" gradientUnits="userSpaceOnUse">
<stop stop-color="#2B43E8"/>
<stop offset="0.1276" stop-color="#3B50F1"/>
<stop offset="0.3067" stop-color="#4A5CF9"/>
<stop offset="0.5159" stop-color="#5364FE"/>
<stop offset="0.8241" stop-color="#5666FF"/>
</linearGradient>
<linearGradient id="paint27_linear" x1="1764.26" y1="98.2774" x2="1919.77" y2="98.2774" gradientUnits="userSpaceOnUse">
<stop stop-color="#394CFF"/>
<stop offset="0.0851" stop-color="#4852FF"/>
<stop offset="0.2476" stop-color="#6F62FF"/>
<stop offset="0.4023" stop-color="#9974FF"/>
<stop offset="0.4965" stop-color="#A37FFD"/>
<stop offset="0.6642" stop-color="#BD9EF6"/>
<stop offset="0.8841" stop-color="#E7CEEB"/>
<stop offset="1" stop-color="#FFEBE5"/>
</linearGradient>
<linearGradient id="paint28_linear" x1="1823.65" y1="143.003" x2="1919.95" y2="143.003" gradientUnits="userSpaceOnUse">
<stop stop-color="#5666FF"/>
<stop offset="0.9917" stop-color="#2B43E8"/>
<stop offset="1" stop-color="#2B43E8"/>
</linearGradient>
<linearGradient id="paint29_linear" x1="500.658" y1="257.39" x2="652.329" y2="408.975" gradientUnits="userSpaceOnUse">
<stop stop-color="#2B43E8"/>
<stop offset="0.0996" stop-color="#334AEC"/>
<stop offset="0.3914" stop-color="#4759F7"/>
<stop offset="0.6893" stop-color="#5263FD"/>
<stop offset="1" stop-color="#5666FF"/>
</linearGradient>
<linearGradient id="paint30_linear" x1="694.472" y1="491.097" x2="651.728" y2="425.524" gradientUnits="userSpaceOnUse">
<stop stop-color="#5666FF"/>
<stop offset="0.9917" stop-color="#2B43E8"/>
<stop offset="1" stop-color="#2B43E8"/>
</linearGradient>
<linearGradient id="paint31_linear" x1="529.465" y1="458.376" x2="529.465" y2="385.799" gradientUnits="userSpaceOnUse">
<stop stop-color="#5666FF"/>
<stop offset="0.5646" stop-color="#3B50F1"/>
<stop offset="1" stop-color="#2B43E8"/>
</linearGradient>
<linearGradient id="paint32_linear" x1="506.102" y1="475.544" x2="440.446" y2="374.823" gradientUnits="userSpaceOnUse">
<stop stop-color="#5666FF"/>
<stop offset="0.9917" stop-color="#2B43E8"/>
<stop offset="1" stop-color="#2B43E8"/>
</linearGradient>
<linearGradient id="paint33_linear" x1="960" y1="353" x2="960" y2="469" gradientUnits="userSpaceOnUse">
<stop stop-color="#5767FF" stop-opacity="0"/>
<stop offset="1" stop-color="#5767FF"/>
</linearGradient>
<linearGradient id="paint34_linear" x1="960" y1="467" x2="960" y2="1146" gradientUnits="userSpaceOnUse">
<stop stop-color="#5767FF"/>
<stop offset="1" stop-color="#5767FF" stop-opacity="0"/>
</linearGradient>
<clipPath id="clip0">
<rect width="1919.95" height="463.67" fill="white" transform="translate(0 5)"/>
</clipPath>
</defs>
</svg>
