<svg width="525" height="449" viewBox="0 0 525 449" fill="none" xmlns="http://www.w3.org/2000/svg">
<rect x="56.6364" y="118" width="98.3462" height="188.825" rx="2" transform="rotate(17.4541 56.6364 118)" fill="#4F4F4F"/>
<rect x="58.2181" y="124.683" width="91.3214" height="177.023" transform="rotate(17.4541 58.2181 124.683)" fill="white"/>
<rect x="58.2181" y="124.683" width="91.3214" height="5.90077" transform="rotate(17.4541 58.2181 124.683)" fill="#FFEC00"/>
<rect x="56.4474" y="130.312" width="91.3214" height="68.8423" transform="rotate(17.4541 56.4474 130.312)" fill="url(#paint0_linear)"/>
<circle cx="46.5996" cy="222.061" r="5.90077" transform="rotate(17.4541 46.5996 222.061)" fill="#C4C4C4"/>
<circle cx="38.9289" cy="246.453" r="5.90077" transform="rotate(17.4541 38.9289 246.453)" fill="#C4C4C4"/>
<circle cx="31.2594" cy="270.846" r="5.90077" transform="rotate(17.4541 31.2594 270.846)" fill="#C4C4C4"/>
<rect x="62.7897" y="223.028" width="43.2723" height="7.86769" transform="rotate(17.4541 62.7897 223.028)" fill="#C4C4C4"/>
<rect x="55.1196" y="247.421" width="43.2723" height="7.86769" transform="rotate(17.4541 55.1196 247.421)" fill="#C4C4C4"/>
<rect x="47.4509" y="271.813" width="43.2723" height="7.86769" transform="rotate(17.4541 47.4509 271.813)" fill="#C4C4C4"/>
<circle cx="89.387" cy="177.782" r="23.6031" transform="rotate(17.4541 89.387 177.782)" fill="#FFFF8B"/>
<circle cx="91.0864" cy="172.378" r="7.49711" transform="rotate(17.4541 91.0864 172.378)" fill="#FFFF8B" stroke="#BDBDBD" stroke-width="2"/>
<path d="M94.7125 192.322C98.1468 180.442 79.9595 174.254 75.7987 186.375" stroke="#BDBDBD" stroke-width="2"/>
<rect x="176.687" y="224.729" width="23.5527" height="18.8422" transform="rotate(17.4356 176.687 224.729)" fill="#E0E0E0"/>
<rect x="392.405" y="292.478" width="23.5527" height="18.8422" transform="rotate(17.4356 392.405 292.478)" fill="#E0E0E0"/>
<rect x="213.996" y="74.4895" width="268.501" height="163.937" rx="1" transform="rotate(17.4356 213.996 74.4895)" fill="#E0E0E0"/>
<rect width="255.725" height="150.727" transform="matrix(0.954561 0.298014 -0.302198 0.953245 217.697 83.1617)" fill="white"/>
<rect width="255.725" height="14.7051" transform="matrix(0.954562 0.298014 -0.302198 0.953245 214.363 93.6752)" fill="#BDBDBD"/>
<rect width="164.394" height="7.35255" rx="0.5" transform="matrix(0.954562 0.298014 -0.302198 0.953245 230.689 102.624)" fill="white"/>
<ellipse rx="1.8266" ry="1.83814" transform="matrix(0.954562 0.298014 -0.302198 0.953245 221.261 90.0519)" fill="#EB5757"/>
<ellipse rx="1.8266" ry="1.83814" transform="matrix(0.954562 0.298014 -0.302198 0.953245 235.209 94.4067)" fill="#6FCF97"/>
<ellipse rx="1.8266" ry="1.83814" transform="matrix(0.954562 0.298014 -0.302198 0.953245 228.235 92.2283)" fill="#F2C94C"/>
<rect width="29.2257" height="11.0288" rx="2" transform="matrix(0.954562 0.298014 -0.302198 0.953245 222.756 215.643)" fill="url(#paint1_linear)"/>
<rect width="29.2257" height="11.0288" rx="2" transform="matrix(0.954562 0.298014 -0.302198 0.953245 222.756 215.643)" stroke="white"/>
<rect width="47.4917" height="29.4102" transform="matrix(0.954562 0.298014 -0.302198 0.953245 233.866 180.598)" fill="url(#paint2_linear)"/>
<rect width="54.7981" height="14.7051" transform="matrix(0.954562 0.298014 -0.302198 0.953245 240.532 159.573)" fill="url(#paint3_linear)"/>
<rect width="84.0238" height="14.7051" rx="2" transform="matrix(0.954562 0.298014 -0.302198 0.953245 287.778 143.514)" fill="url(#paint4_linear)"/>
<rect width="54.7981" height="55.1441" rx="2" transform="matrix(0.954562 0.298014 -0.302198 0.953245 346.414 200.331)" fill="url(#paint5_linear)"/>
<rect x="163.465" y="235.388" width="268.501" height="127.185" rx="1" transform="rotate(17.4356 163.465 235.388)" fill="url(#paint6_linear)"/>
<rect x="169.631" y="247.2" width="9.4211" height="9.4211" transform="rotate(17.4356 169.631 247.2)" fill="url(#paint7_linear)"/>
<rect x="183.112" y="251.433" width="9.4211" height="9.4211" transform="rotate(17.4356 183.112 251.433)" fill="url(#paint8_linear)"/>
<rect x="196.595" y="255.669" width="9.4211" height="9.4211" transform="rotate(17.4356 196.595 255.669)" fill="url(#paint9_linear)"/>
<rect x="210.077" y="259.902" width="9.4211" height="9.4211" transform="rotate(17.4356 210.077 259.902)" fill="url(#paint10_linear)"/>
<rect x="223.56" y="264.138" width="9.4211" height="9.4211" transform="rotate(17.4356 223.56 264.138)" fill="url(#paint11_linear)"/>
<rect x="237.041" y="268.371" width="9.4211" height="9.4211" transform="rotate(17.4356 237.041 268.371)" fill="url(#paint12_linear)"/>
<rect x="250.525" y="272.605" width="9.4211" height="9.4211" transform="rotate(17.4356 250.525 272.605)" fill="url(#paint13_linear)"/>
<rect x="264.007" y="276.84" width="9.4211" height="9.4211" transform="rotate(17.4356 264.007 276.84)" fill="url(#paint14_linear)"/>
<rect x="277.489" y="281.074" width="9.4211" height="9.4211" transform="rotate(17.4356 277.489 281.074)" fill="url(#paint15_linear)"/>
<rect x="290.972" y="285.309" width="9.4211" height="9.4211" transform="rotate(17.4356 290.972 285.309)" fill="url(#paint16_linear)"/>
<rect x="304.453" y="289.543" width="9.4211" height="9.4211" transform="rotate(17.4356 304.453 289.543)" fill="url(#paint17_linear)"/>
<rect x="317.937" y="293.778" width="9.4211" height="9.4211" transform="rotate(17.4356 317.937 293.778)" fill="url(#paint18_linear)"/>
<rect x="331.418" y="298.012" width="9.4211" height="9.4211" transform="rotate(17.4356 331.418 298.012)" fill="url(#paint19_linear)"/>
<rect x="344.901" y="302.245" width="9.4211" height="9.4211" transform="rotate(17.4356 344.901 302.245)" fill="url(#paint20_linear)"/>
<rect x="358.384" y="306.481" width="9.4211" height="9.4211" transform="rotate(17.4356 358.384 306.481)" fill="url(#paint21_linear)"/>
<rect x="371.865" y="310.714" width="9.4211" height="9.4211" transform="rotate(17.4356 371.865 310.714)" fill="url(#paint22_linear)"/>
<rect x="165.396" y="260.681" width="14.1316" height="9.4211" transform="rotate(17.4356 165.396 260.681)" fill="url(#paint23_linear)"/>
<rect x="183.372" y="266.329" width="9.4211" height="9.4211" transform="rotate(17.4356 183.372 266.329)" fill="url(#paint24_linear)"/>
<rect x="196.855" y="270.562" width="9.4211" height="9.4211" transform="rotate(17.4356 196.855 270.562)" fill="url(#paint25_linear)"/>
<rect x="210.337" y="274.796" width="9.4211" height="9.4211" transform="rotate(17.4356 210.337 274.796)" fill="url(#paint26_linear)"/>
<rect x="223.82" y="279.031" width="9.4211" height="9.4211" transform="rotate(17.4356 223.82 279.031)" fill="url(#paint27_linear)"/>
<rect x="237.302" y="283.265" width="9.4211" height="9.4211" transform="rotate(17.4356 237.302 283.265)" fill="url(#paint28_linear)"/>
<rect x="250.784" y="287.5" width="9.4211" height="9.4211" transform="rotate(17.4356 250.784 287.5)" fill="url(#paint29_linear)"/>
<rect x="264.266" y="291.734" width="9.4211" height="9.4211" transform="rotate(17.4356 264.266 291.734)" fill="url(#paint30_linear)"/>
<rect x="277.749" y="295.969" width="9.4211" height="9.4211" transform="rotate(17.4356 277.749 295.969)" fill="url(#paint31_linear)"/>
<rect x="291.231" y="300.202" width="9.4211" height="9.4211" transform="rotate(17.4356 291.231 300.202)" fill="url(#paint32_linear)"/>
<rect x="304.713" y="304.436" width="9.4211" height="9.4211" transform="rotate(17.4356 304.713 304.436)" fill="url(#paint33_linear)"/>
<rect x="318.197" y="308.671" width="9.4211" height="9.4211" transform="rotate(17.4356 318.197 308.671)" fill="url(#paint34_linear)"/>
<rect x="331.678" y="312.905" width="9.4211" height="9.4211" transform="rotate(17.4356 331.678 312.905)" fill="url(#paint35_linear)"/>
<rect x="345.161" y="317.14" width="9.4211" height="9.4211" transform="rotate(17.4356 345.161 317.14)" fill="url(#paint36_linear)"/>
<rect x="358.643" y="321.374" width="9.4211" height="9.4211" transform="rotate(17.4356 358.643 321.374)" fill="url(#paint37_linear)"/>
<rect x="161.162" y="274.165" width="18.8422" height="9.4211" transform="rotate(17.4356 161.162 274.165)" fill="url(#paint38_linear)"/>
<rect x="183.632" y="281.222" width="9.4211" height="9.4211" transform="rotate(17.4356 183.632 281.222)" fill="url(#paint39_linear)"/>
<rect x="197.115" y="285.455" width="9.4211" height="9.4211" transform="rotate(17.4356 197.115 285.455)" fill="url(#paint40_linear)"/>
<rect x="210.596" y="289.691" width="9.4211" height="9.4211" transform="rotate(17.4356 210.596 289.691)" fill="url(#paint41_linear)"/>
<rect x="224.079" y="293.924" width="9.4211" height="9.4211" transform="rotate(17.4356 224.079 293.924)" fill="url(#paint42_linear)"/>
<rect x="237.562" y="298.16" width="9.4211" height="9.4211" transform="rotate(17.4356 237.562 298.16)" fill="url(#paint43_linear)"/>
<rect x="251.043" y="302.393" width="9.4211" height="9.4211" transform="rotate(17.4356 251.043 302.393)" fill="url(#paint44_linear)"/>
<rect x="264.527" y="306.627" width="9.4211" height="9.4211" transform="rotate(17.4356 264.527 306.627)" fill="url(#paint45_linear)"/>
<rect x="278.008" y="310.862" width="9.4211" height="9.4211" transform="rotate(17.4356 278.008 310.862)" fill="url(#paint46_linear)"/>
<rect x="291.491" y="315.096" width="9.4211" height="9.4211" transform="rotate(17.4356 291.491 315.096)" fill="url(#paint47_linear)"/>
<rect x="304.974" y="319.331" width="9.4211" height="9.4211" transform="rotate(17.4356 304.974 319.331)" fill="url(#paint48_linear)"/>
<rect x="318.455" y="323.565" width="9.4211" height="9.4211" transform="rotate(17.4356 318.455 323.565)" fill="url(#paint49_linear)"/>
<rect x="331.938" y="327.8" width="9.4211" height="9.4211" transform="rotate(17.4356 331.938 327.8)" fill="url(#paint50_linear)"/>
<rect x="345.42" y="332.034" width="9.4211" height="9.4211" transform="rotate(17.4356 345.42 332.034)" fill="url(#paint51_linear)"/>
<rect x="156.927" y="287.646" width="23.5527" height="9.4211" transform="rotate(17.4356 156.927 287.646)" fill="url(#paint52_linear)"/>
<rect x="183.892" y="296.115" width="9.4211" height="9.4211" transform="rotate(17.4356 183.892 296.115)" fill="url(#paint53_linear)"/>
<rect x="197.375" y="300.35" width="9.4211" height="9.4211" transform="rotate(17.4356 197.375 300.35)" fill="url(#paint54_linear)"/>
<rect x="210.857" y="304.584" width="9.4211" height="9.4211" transform="rotate(17.4356 210.857 304.584)" fill="url(#paint55_linear)"/>
<rect x="224.339" y="308.819" width="9.4211" height="9.4211" transform="rotate(17.4356 224.339 308.819)" fill="url(#paint56_linear)"/>
<rect x="237.821" y="313.053" width="9.4211" height="9.4211" transform="rotate(17.4356 237.821 313.053)" fill="url(#paint57_linear)"/>
<rect x="251.304" y="317.286" width="9.4211" height="9.4211" transform="rotate(17.4356 251.304 317.286)" fill="url(#paint58_linear)"/>
<rect x="264.786" y="321.522" width="9.4211" height="9.4211" transform="rotate(17.4356 264.786 321.522)" fill="url(#paint59_linear)"/>
<rect x="278.268" y="325.755" width="9.4211" height="9.4211" transform="rotate(17.4356 278.268 325.755)" fill="url(#paint60_linear)"/>
<rect x="291.752" y="329.991" width="9.4211" height="9.4211" transform="rotate(17.4356 291.752 329.991)" fill="url(#paint61_linear)"/>
<rect x="305.233" y="334.224" width="9.4211" height="9.4211" transform="rotate(17.4356 305.233 334.224)" fill="url(#paint62_linear)"/>
<rect x="318.715" y="338.458" width="9.4211" height="9.4211" transform="rotate(17.4356 318.715 338.458)" fill="url(#paint63_linear)"/>
<rect x="332.198" y="342.693" width="9.4211" height="9.4211" transform="rotate(17.4356 332.198 342.693)" fill="url(#paint64_linear)"/>
<rect x="314.481" y="351.941" width="9.4211" height="9.4211" transform="rotate(17.4356 314.481 351.941)" fill="url(#paint65_linear)"/>
<rect x="327.963" y="356.175" width="9.4211" height="9.4211" transform="rotate(17.4356 327.963 356.175)" fill="url(#paint66_linear)"/>
<rect x="341.446" y="360.41" width="9.4211" height="9.4211" transform="rotate(17.4356 341.446 360.41)" fill="url(#paint67_linear)"/>
<rect x="152.693" y="301.129" width="9.4211" height="9.4211" transform="rotate(17.4356 152.693 301.129)" fill="url(#paint68_linear)"/>
<rect x="166.175" y="305.363" width="9.4211" height="9.4211" transform="rotate(17.4356 166.175 305.363)" fill="url(#paint69_linear)"/>
<rect x="179.657" y="309.598" width="9.4211" height="9.4211" transform="rotate(17.4356 179.657 309.598)" fill="url(#paint70_linear)"/>
<rect x="193.141" y="313.832" width="9.4211" height="9.4211" transform="rotate(17.4356 193.141 313.832)" fill="url(#paint71_linear)"/>
<rect x="206.622" y="318.067" width="9.4211" height="9.4211" transform="rotate(17.4356 206.622 318.067)" fill="url(#paint72_linear)"/>
<path d="M220.105 322.301L229.093 325.124L226.271 334.112L217.282 331.289L220.105 322.301Z" fill="url(#paint73_linear)"/>
<rect x="355.011" y="364.8" width="9.1711" height="9.1711" transform="rotate(17.4356 355.011 364.8)" fill="url(#paint74_linear)" stroke="white" stroke-width="0.25"/>
<rect x="385.348" y="314.95" width="9.4211" height="9.4211" transform="rotate(17.4356 385.348 314.95)" fill="url(#paint75_linear)"/>
<rect x="372.125" y="325.607" width="9.4211" height="9.4211" transform="rotate(17.4356 372.125 325.607)" fill="url(#paint76_linear)"/>
<rect x="358.903" y="336.267" width="28.2633" height="9.4211" transform="rotate(17.4356 358.903 336.267)" fill="url(#paint77_linear)"/>
<rect x="345.68" y="346.927" width="37.6844" height="9.4211" transform="rotate(17.4356 345.68 346.927)" fill="url(#paint78_linear)"/>
<rect x="368.492" y="369.036" width="9.1711" height="4.46055" transform="rotate(17.4356 368.492 369.036)" fill="url(#paint79_linear)" stroke="white" stroke-width="0.25"/>
<rect x="367.081" y="373.53" width="9.1711" height="4.46055" transform="rotate(17.4356 367.081 373.53)" fill="url(#paint80_linear)" stroke="white" stroke-width="0.25"/>
<rect x="398.83" y="319.183" width="9.4211" height="9.4211" transform="rotate(17.4356 398.83 319.183)" fill="url(#paint81_linear)"/>
<rect x="385.608" y="329.843" width="18.8422" height="9.4211" transform="rotate(17.4356 385.608 329.843)" fill="url(#paint82_linear)"/>
<rect x="390.361" y="346.148" width="9.4211" height="9.4211" transform="rotate(17.4356 390.361 346.148)" fill="url(#paint83_linear)"/>
<rect x="386.126" y="359.631" width="9.4211" height="9.4211" transform="rotate(17.4356 386.126 359.631)" fill="url(#paint84_linear)"/>
<rect x="381.975" y="373.269" width="9.1711" height="9.1711" transform="rotate(17.4356 381.975 373.269)" fill="url(#paint85_linear)" stroke="white" stroke-width="0.25"/>
<rect x="233.587" y="326.534" width="80.0793" height="9.4211" transform="rotate(17.4356 233.587 326.534)" fill="url(#paint86_linear)"/>
<rect x="227.941" y="344.511" width="80.0793" height="32.9738" transform="rotate(17.4356 227.941 344.511)" fill="url(#paint87_linear)"/>
<defs>
<linearGradient id="paint0_linear" x1="57.8349" y1="129.549" x2="147.26" y2="198.921" gradientUnits="userSpaceOnUse">
<stop stop-color="#FFEE58" stop-opacity="0.37"/>
<stop offset="1" stop-color="#FFE500"/>
</linearGradient>
<linearGradient id="paint1_linear" x1="14.6128" y1="0" x2="14.6128" y2="11.0288" gradientUnits="userSpaceOnUse">
<stop stop-color="#00FFD1" stop-opacity="0.84"/>
<stop offset="1" stop-color="#07DDEB"/>
</linearGradient>
<linearGradient id="paint2_linear" x1="0.725645" y1="0.194851" x2="48.3965" y2="29.1047" gradientUnits="userSpaceOnUse">
<stop stop-color="#C4C4C4"/>
<stop offset="1" stop-color="#C4C4C4" stop-opacity="0.34"/>
</linearGradient>
<linearGradient id="paint3_linear" x1="0.575375" y1="0.268337" x2="57.4142" y2="13.5327" gradientUnits="userSpaceOnUse">
<stop stop-color="#828282"/>
<stop offset="1" stop-color="#D1D1D1"/>
</linearGradient>
<linearGradient id="paint4_linear" x1="1.27653" y1="-0.163102" x2="12.1098" y2="36.0363" gradientUnits="userSpaceOnUse">
<stop stop-color="#FFEE58" stop-opacity="0.37"/>
<stop offset="1" stop-color="#FFE500"/>
</linearGradient>
<linearGradient id="paint5_linear" x1="0.935185" y1="-0.639468" x2="55.6685" y2="57.1045" gradientUnits="userSpaceOnUse">
<stop stop-color="#FF8760" stop-opacity="0.85"/>
<stop offset="1" stop-color="#FF3F00"/>
</linearGradient>
<linearGradient id="paint6_linear" x1="297.715" y1="235.388" x2="297.715" y2="362.573" gradientUnits="userSpaceOnUse">
<stop stop-color="#E0E0E0"/>
<stop offset="1" stop-color="#E1E0E0"/>
</linearGradient>
<linearGradient id="paint7_linear" x1="174.341" y1="247.2" x2="174.341" y2="256.621" gradientUnits="userSpaceOnUse">
<stop stop-color="#C4C4C4" stop-opacity="0.76"/>
<stop offset="1" stop-color="#C4C4C4"/>
</linearGradient>
<linearGradient id="paint8_linear" x1="187.822" y1="251.433" x2="187.822" y2="260.855" gradientUnits="userSpaceOnUse">
<stop stop-color="#C4C4C4" stop-opacity="0.76"/>
<stop offset="1" stop-color="#C4C4C4"/>
</linearGradient>
<linearGradient id="paint9_linear" x1="201.306" y1="255.669" x2="201.306" y2="265.09" gradientUnits="userSpaceOnUse">
<stop stop-color="#C4C4C4" stop-opacity="0.76"/>
<stop offset="1" stop-color="#C4C4C4"/>
</linearGradient>
<linearGradient id="paint10_linear" x1="214.787" y1="259.902" x2="214.787" y2="269.324" gradientUnits="userSpaceOnUse">
<stop stop-color="#C4C4C4" stop-opacity="0.76"/>
<stop offset="1" stop-color="#C4C4C4"/>
</linearGradient>
<linearGradient id="paint11_linear" x1="228.27" y1="264.138" x2="228.27" y2="273.559" gradientUnits="userSpaceOnUse">
<stop stop-color="#C4C4C4" stop-opacity="0.76"/>
<stop offset="1" stop-color="#C4C4C4"/>
</linearGradient>
<linearGradient id="paint12_linear" x1="241.752" y1="268.371" x2="241.752" y2="277.792" gradientUnits="userSpaceOnUse">
<stop stop-color="#C4C4C4" stop-opacity="0.76"/>
<stop offset="1" stop-color="#C4C4C4"/>
</linearGradient>
<linearGradient id="paint13_linear" x1="255.235" y1="272.605" x2="255.235" y2="282.026" gradientUnits="userSpaceOnUse">
<stop stop-color="#C4C4C4" stop-opacity="0.76"/>
<stop offset="1" stop-color="#C4C4C4"/>
</linearGradient>
<linearGradient id="paint14_linear" x1="268.718" y1="276.84" x2="268.718" y2="286.261" gradientUnits="userSpaceOnUse">
<stop stop-color="#C4C4C4" stop-opacity="0.76"/>
<stop offset="1" stop-color="#C4C4C4"/>
</linearGradient>
<linearGradient id="paint15_linear" x1="282.199" y1="281.074" x2="282.199" y2="290.495" gradientUnits="userSpaceOnUse">
<stop stop-color="#C4C4C4" stop-opacity="0.76"/>
<stop offset="1" stop-color="#C4C4C4"/>
</linearGradient>
<linearGradient id="paint16_linear" x1="295.682" y1="285.309" x2="295.682" y2="294.73" gradientUnits="userSpaceOnUse">
<stop stop-color="#C4C4C4" stop-opacity="0.76"/>
<stop offset="1" stop-color="#C4C4C4"/>
</linearGradient>
<linearGradient id="paint17_linear" x1="309.164" y1="289.543" x2="309.164" y2="298.964" gradientUnits="userSpaceOnUse">
<stop stop-color="#C4C4C4" stop-opacity="0.76"/>
<stop offset="1" stop-color="#C4C4C4"/>
</linearGradient>
<linearGradient id="paint18_linear" x1="322.647" y1="293.778" x2="322.647" y2="303.199" gradientUnits="userSpaceOnUse">
<stop stop-color="#C4C4C4" stop-opacity="0.76"/>
<stop offset="1" stop-color="#C4C4C4"/>
</linearGradient>
<linearGradient id="paint19_linear" x1="336.129" y1="298.012" x2="336.129" y2="307.433" gradientUnits="userSpaceOnUse">
<stop stop-color="#C4C4C4" stop-opacity="0.76"/>
<stop offset="1" stop-color="#C4C4C4"/>
</linearGradient>
<linearGradient id="paint20_linear" x1="349.611" y1="302.245" x2="349.611" y2="311.666" gradientUnits="userSpaceOnUse">
<stop stop-color="#C4C4C4" stop-opacity="0.76"/>
<stop offset="1" stop-color="#C4C4C4"/>
</linearGradient>
<linearGradient id="paint21_linear" x1="363.094" y1="306.481" x2="363.094" y2="315.902" gradientUnits="userSpaceOnUse">
<stop stop-color="#C4C4C4" stop-opacity="0.76"/>
<stop offset="1" stop-color="#C4C4C4"/>
</linearGradient>
<linearGradient id="paint22_linear" x1="376.576" y1="310.714" x2="376.576" y2="320.135" gradientUnits="userSpaceOnUse">
<stop stop-color="#C4C4C4" stop-opacity="0.76"/>
<stop offset="1" stop-color="#C4C4C4"/>
</linearGradient>
<linearGradient id="paint23_linear" x1="172.462" y1="260.681" x2="172.462" y2="270.102" gradientUnits="userSpaceOnUse">
<stop stop-color="#C4C4C4" stop-opacity="0.76"/>
<stop offset="1" stop-color="#C4C4C4"/>
</linearGradient>
<linearGradient id="paint24_linear" x1="188.083" y1="266.329" x2="188.083" y2="275.75" gradientUnits="userSpaceOnUse">
<stop stop-color="#C4C4C4" stop-opacity="0.76"/>
<stop offset="1" stop-color="#C4C4C4"/>
</linearGradient>
<linearGradient id="paint25_linear" x1="201.565" y1="270.562" x2="201.565" y2="279.983" gradientUnits="userSpaceOnUse">
<stop stop-color="#C4C4C4" stop-opacity="0.76"/>
<stop offset="1" stop-color="#C4C4C4"/>
</linearGradient>
<linearGradient id="paint26_linear" x1="215.047" y1="274.796" x2="215.047" y2="284.217" gradientUnits="userSpaceOnUse">
<stop stop-color="#C4C4C4" stop-opacity="0.76"/>
<stop offset="1" stop-color="#C4C4C4"/>
</linearGradient>
<linearGradient id="paint27_linear" x1="228.531" y1="279.031" x2="228.531" y2="288.452" gradientUnits="userSpaceOnUse">
<stop stop-color="#C4C4C4" stop-opacity="0.76"/>
<stop offset="1" stop-color="#C4C4C4"/>
</linearGradient>
<linearGradient id="paint28_linear" x1="242.012" y1="283.265" x2="242.012" y2="292.686" gradientUnits="userSpaceOnUse">
<stop stop-color="#C4C4C4" stop-opacity="0.76"/>
<stop offset="1" stop-color="#C4C4C4"/>
</linearGradient>
<linearGradient id="paint29_linear" x1="255.495" y1="287.5" x2="255.495" y2="296.921" gradientUnits="userSpaceOnUse">
<stop stop-color="#C4C4C4" stop-opacity="0.76"/>
<stop offset="1" stop-color="#C4C4C4"/>
</linearGradient>
<linearGradient id="paint30_linear" x1="268.977" y1="291.734" x2="268.977" y2="301.155" gradientUnits="userSpaceOnUse">
<stop stop-color="#C4C4C4" stop-opacity="0.76"/>
<stop offset="1" stop-color="#C4C4C4"/>
</linearGradient>
<linearGradient id="paint31_linear" x1="282.459" y1="295.969" x2="282.459" y2="305.39" gradientUnits="userSpaceOnUse">
<stop stop-color="#C4C4C4" stop-opacity="0.76"/>
<stop offset="1" stop-color="#C4C4C4"/>
</linearGradient>
<linearGradient id="paint32_linear" x1="295.941" y1="300.202" x2="295.941" y2="309.624" gradientUnits="userSpaceOnUse">
<stop stop-color="#C4C4C4" stop-opacity="0.76"/>
<stop offset="1" stop-color="#C4C4C4"/>
</linearGradient>
<linearGradient id="paint33_linear" x1="309.424" y1="304.436" x2="309.424" y2="313.857" gradientUnits="userSpaceOnUse">
<stop stop-color="#C4C4C4" stop-opacity="0.76"/>
<stop offset="1" stop-color="#C4C4C4"/>
</linearGradient>
<linearGradient id="paint34_linear" x1="322.907" y1="308.671" x2="322.907" y2="318.092" gradientUnits="userSpaceOnUse">
<stop stop-color="#C4C4C4" stop-opacity="0.76"/>
<stop offset="1" stop-color="#C4C4C4"/>
</linearGradient>
<linearGradient id="paint35_linear" x1="336.389" y1="312.905" x2="336.389" y2="322.326" gradientUnits="userSpaceOnUse">
<stop stop-color="#C4C4C4" stop-opacity="0.76"/>
<stop offset="1" stop-color="#C4C4C4"/>
</linearGradient>
<linearGradient id="paint36_linear" x1="349.871" y1="317.14" x2="349.871" y2="326.561" gradientUnits="userSpaceOnUse">
<stop stop-color="#C4C4C4" stop-opacity="0.76"/>
<stop offset="1" stop-color="#C4C4C4"/>
</linearGradient>
<linearGradient id="paint37_linear" x1="363.353" y1="321.374" x2="363.353" y2="330.795" gradientUnits="userSpaceOnUse">
<stop stop-color="#C4C4C4" stop-opacity="0.76"/>
<stop offset="1" stop-color="#C4C4C4"/>
</linearGradient>
<linearGradient id="paint38_linear" x1="170.583" y1="274.165" x2="170.583" y2="283.586" gradientUnits="userSpaceOnUse">
<stop stop-color="#C4C4C4" stop-opacity="0.76"/>
<stop offset="1" stop-color="#C4C4C4"/>
</linearGradient>
<linearGradient id="paint39_linear" x1="188.342" y1="281.222" x2="188.342" y2="290.643" gradientUnits="userSpaceOnUse">
<stop stop-color="#C4C4C4" stop-opacity="0.76"/>
<stop offset="1" stop-color="#C4C4C4"/>
</linearGradient>
<linearGradient id="paint40_linear" x1="201.825" y1="285.455" x2="201.825" y2="294.876" gradientUnits="userSpaceOnUse">
<stop stop-color="#C4C4C4" stop-opacity="0.76"/>
<stop offset="1" stop-color="#C4C4C4"/>
</linearGradient>
<linearGradient id="paint41_linear" x1="215.307" y1="289.691" x2="215.307" y2="299.112" gradientUnits="userSpaceOnUse">
<stop stop-color="#C4C4C4" stop-opacity="0.76"/>
<stop offset="1" stop-color="#C4C4C4"/>
</linearGradient>
<linearGradient id="paint42_linear" x1="228.79" y1="293.924" x2="228.79" y2="303.345" gradientUnits="userSpaceOnUse">
<stop stop-color="#C4C4C4" stop-opacity="0.76"/>
<stop offset="1" stop-color="#C4C4C4"/>
</linearGradient>
<linearGradient id="paint43_linear" x1="242.272" y1="298.16" x2="242.272" y2="307.581" gradientUnits="userSpaceOnUse">
<stop stop-color="#C4C4C4" stop-opacity="0.76"/>
<stop offset="1" stop-color="#C4C4C4"/>
</linearGradient>
<linearGradient id="paint44_linear" x1="255.754" y1="302.393" x2="255.754" y2="311.814" gradientUnits="userSpaceOnUse">
<stop stop-color="#C4C4C4" stop-opacity="0.76"/>
<stop offset="1" stop-color="#C4C4C4"/>
</linearGradient>
<linearGradient id="paint45_linear" x1="269.237" y1="306.627" x2="269.237" y2="316.048" gradientUnits="userSpaceOnUse">
<stop stop-color="#C4C4C4" stop-opacity="0.76"/>
<stop offset="1" stop-color="#C4C4C4"/>
</linearGradient>
<linearGradient id="paint46_linear" x1="282.719" y1="310.862" x2="282.719" y2="320.283" gradientUnits="userSpaceOnUse">
<stop stop-color="#C4C4C4" stop-opacity="0.76"/>
<stop offset="1" stop-color="#C4C4C4"/>
</linearGradient>
<linearGradient id="paint47_linear" x1="296.202" y1="315.096" x2="296.202" y2="324.517" gradientUnits="userSpaceOnUse">
<stop stop-color="#C4C4C4" stop-opacity="0.76"/>
<stop offset="1" stop-color="#C4C4C4"/>
</linearGradient>
<linearGradient id="paint48_linear" x1="309.684" y1="319.331" x2="309.684" y2="328.752" gradientUnits="userSpaceOnUse">
<stop stop-color="#C4C4C4" stop-opacity="0.76"/>
<stop offset="1" stop-color="#C4C4C4"/>
</linearGradient>
<linearGradient id="paint49_linear" x1="323.166" y1="323.565" x2="323.166" y2="332.986" gradientUnits="userSpaceOnUse">
<stop stop-color="#C4C4C4" stop-opacity="0.76"/>
<stop offset="1" stop-color="#C4C4C4"/>
</linearGradient>
<linearGradient id="paint50_linear" x1="336.649" y1="327.8" x2="336.649" y2="337.221" gradientUnits="userSpaceOnUse">
<stop stop-color="#C4C4C4" stop-opacity="0.76"/>
<stop offset="1" stop-color="#C4C4C4"/>
</linearGradient>
<linearGradient id="paint51_linear" x1="350.13" y1="332.034" x2="350.13" y2="341.455" gradientUnits="userSpaceOnUse">
<stop stop-color="#C4C4C4" stop-opacity="0.76"/>
<stop offset="1" stop-color="#C4C4C4"/>
</linearGradient>
<linearGradient id="paint52_linear" x1="168.704" y1="287.646" x2="168.704" y2="297.067" gradientUnits="userSpaceOnUse">
<stop stop-color="#C4C4C4" stop-opacity="0.76"/>
<stop offset="1" stop-color="#C4C4C4"/>
</linearGradient>
<linearGradient id="paint53_linear" x1="188.602" y1="296.115" x2="188.602" y2="305.536" gradientUnits="userSpaceOnUse">
<stop stop-color="#C4C4C4" stop-opacity="0.76"/>
<stop offset="1" stop-color="#C4C4C4"/>
</linearGradient>
<linearGradient id="paint54_linear" x1="202.086" y1="300.35" x2="202.086" y2="309.771" gradientUnits="userSpaceOnUse">
<stop stop-color="#C4C4C4" stop-opacity="0.76"/>
<stop offset="1" stop-color="#C4C4C4"/>
</linearGradient>
<linearGradient id="paint55_linear" x1="215.567" y1="304.584" x2="215.567" y2="314.005" gradientUnits="userSpaceOnUse">
<stop stop-color="#C4C4C4" stop-opacity="0.76"/>
<stop offset="1" stop-color="#C4C4C4"/>
</linearGradient>
<linearGradient id="paint56_linear" x1="229.049" y1="308.819" x2="229.049" y2="318.24" gradientUnits="userSpaceOnUse">
<stop stop-color="#C4C4C4" stop-opacity="0.76"/>
<stop offset="1" stop-color="#C4C4C4"/>
</linearGradient>
<linearGradient id="paint57_linear" x1="242.532" y1="313.053" x2="242.532" y2="322.474" gradientUnits="userSpaceOnUse">
<stop stop-color="#C4C4C4" stop-opacity="0.76"/>
<stop offset="1" stop-color="#C4C4C4"/>
</linearGradient>
<linearGradient id="paint58_linear" x1="256.014" y1="317.286" x2="256.014" y2="326.708" gradientUnits="userSpaceOnUse">
<stop stop-color="#C4C4C4" stop-opacity="0.76"/>
<stop offset="1" stop-color="#C4C4C4"/>
</linearGradient>
<linearGradient id="paint59_linear" x1="269.496" y1="321.522" x2="269.496" y2="330.943" gradientUnits="userSpaceOnUse">
<stop stop-color="#C4C4C4" stop-opacity="0.76"/>
<stop offset="1" stop-color="#C4C4C4"/>
</linearGradient>
<linearGradient id="paint60_linear" x1="282.979" y1="325.755" x2="282.979" y2="335.176" gradientUnits="userSpaceOnUse">
<stop stop-color="#C4C4C4" stop-opacity="0.76"/>
<stop offset="1" stop-color="#C4C4C4"/>
</linearGradient>
<linearGradient id="paint61_linear" x1="296.462" y1="329.991" x2="296.462" y2="339.412" gradientUnits="userSpaceOnUse">
<stop stop-color="#C4C4C4" stop-opacity="0.76"/>
<stop offset="1" stop-color="#C4C4C4"/>
</linearGradient>
<linearGradient id="paint62_linear" x1="309.944" y1="334.224" x2="309.944" y2="343.645" gradientUnits="userSpaceOnUse">
<stop stop-color="#C4C4C4" stop-opacity="0.76"/>
<stop offset="1" stop-color="#C4C4C4"/>
</linearGradient>
<linearGradient id="paint63_linear" x1="323.426" y1="338.458" x2="323.426" y2="347.879" gradientUnits="userSpaceOnUse">
<stop stop-color="#C4C4C4" stop-opacity="0.76"/>
<stop offset="1" stop-color="#C4C4C4"/>
</linearGradient>
<linearGradient id="paint64_linear" x1="336.908" y1="342.693" x2="336.908" y2="352.114" gradientUnits="userSpaceOnUse">
<stop stop-color="#C4C4C4" stop-opacity="0.76"/>
<stop offset="1" stop-color="#C4C4C4"/>
</linearGradient>
<linearGradient id="paint65_linear" x1="319.191" y1="351.941" x2="319.191" y2="361.362" gradientUnits="userSpaceOnUse">
<stop stop-color="#C4C4C4" stop-opacity="0.76"/>
<stop offset="1" stop-color="#C4C4C4"/>
</linearGradient>
<linearGradient id="paint66_linear" x1="332.674" y1="356.175" x2="332.674" y2="365.596" gradientUnits="userSpaceOnUse">
<stop stop-color="#C4C4C4" stop-opacity="0.76"/>
<stop offset="1" stop-color="#C4C4C4"/>
</linearGradient>
<linearGradient id="paint67_linear" x1="346.156" y1="360.41" x2="346.156" y2="369.831" gradientUnits="userSpaceOnUse">
<stop stop-color="#C4C4C4" stop-opacity="0.76"/>
<stop offset="1" stop-color="#C4C4C4"/>
</linearGradient>
<linearGradient id="paint68_linear" x1="157.403" y1="301.129" x2="157.403" y2="310.55" gradientUnits="userSpaceOnUse">
<stop stop-color="#C4C4C4" stop-opacity="0.76"/>
<stop offset="1" stop-color="#C4C4C4"/>
</linearGradient>
<linearGradient id="paint69_linear" x1="170.885" y1="305.363" x2="170.885" y2="314.784" gradientUnits="userSpaceOnUse">
<stop stop-color="#C4C4C4" stop-opacity="0.76"/>
<stop offset="1" stop-color="#C4C4C4"/>
</linearGradient>
<linearGradient id="paint70_linear" x1="184.368" y1="309.598" x2="184.368" y2="319.019" gradientUnits="userSpaceOnUse">
<stop stop-color="#C4C4C4" stop-opacity="0.76"/>
<stop offset="1" stop-color="#C4C4C4"/>
</linearGradient>
<linearGradient id="paint71_linear" x1="197.851" y1="313.832" x2="197.851" y2="323.253" gradientUnits="userSpaceOnUse">
<stop stop-color="#C4C4C4" stop-opacity="0.76"/>
<stop offset="1" stop-color="#C4C4C4"/>
</linearGradient>
<linearGradient id="paint72_linear" x1="211.333" y1="318.067" x2="211.333" y2="327.488" gradientUnits="userSpaceOnUse">
<stop stop-color="#C4C4C4" stop-opacity="0.76"/>
<stop offset="1" stop-color="#C4C4C4"/>
</linearGradient>
<linearGradient id="paint73_linear" x1="224.599" y1="323.712" x2="221.776" y2="332.7" gradientUnits="userSpaceOnUse">
<stop stop-color="#C4C4C4" stop-opacity="0.76"/>
<stop offset="1" stop-color="#C4C4C4"/>
</linearGradient>
<linearGradient id="paint74_linear" x1="359.64" y1="364.644" x2="359.64" y2="374.065" gradientUnits="userSpaceOnUse">
<stop stop-color="#C4C4C4" stop-opacity="0.76"/>
<stop offset="1" stop-color="#C4C4C4"/>
</linearGradient>
<linearGradient id="paint75_linear" x1="390.059" y1="314.95" x2="390.059" y2="324.371" gradientUnits="userSpaceOnUse">
<stop stop-color="#C4C4C4" stop-opacity="0.76"/>
<stop offset="1" stop-color="#C4C4C4"/>
</linearGradient>
<linearGradient id="paint76_linear" x1="376.836" y1="325.607" x2="376.836" y2="335.029" gradientUnits="userSpaceOnUse">
<stop stop-color="#C4C4C4" stop-opacity="0.76"/>
<stop offset="1" stop-color="#C4C4C4"/>
</linearGradient>
<linearGradient id="paint77_linear" x1="373.035" y1="336.267" x2="373.035" y2="345.688" gradientUnits="userSpaceOnUse">
<stop stop-color="#C4C4C4" stop-opacity="0.76"/>
<stop offset="1" stop-color="#C4C4C4"/>
</linearGradient>
<linearGradient id="paint78_linear" x1="364.522" y1="346.927" x2="364.522" y2="356.348" gradientUnits="userSpaceOnUse">
<stop stop-color="#C4C4C4" stop-opacity="0.76"/>
<stop offset="1" stop-color="#C4C4C4"/>
</linearGradient>
<linearGradient id="paint79_linear" x1="373.121" y1="368.879" x2="373.121" y2="373.59" gradientUnits="userSpaceOnUse">
<stop stop-color="#C4C4C4" stop-opacity="0.76"/>
<stop offset="1" stop-color="#C4C4C4"/>
</linearGradient>
<linearGradient id="paint80_linear" x1="371.71" y1="373.373" x2="371.71" y2="378.083" gradientUnits="userSpaceOnUse">
<stop stop-color="#C4C4C4" stop-opacity="0.76"/>
<stop offset="1" stop-color="#C4C4C4"/>
</linearGradient>
<linearGradient id="paint81_linear" x1="403.54" y1="319.183" x2="403.54" y2="328.604" gradientUnits="userSpaceOnUse">
<stop stop-color="#C4C4C4" stop-opacity="0.76"/>
<stop offset="1" stop-color="#C4C4C4"/>
</linearGradient>
<linearGradient id="paint82_linear" x1="395.029" y1="329.843" x2="395.029" y2="339.264" gradientUnits="userSpaceOnUse">
<stop stop-color="#C4C4C4" stop-opacity="0.76"/>
<stop offset="1" stop-color="#C4C4C4"/>
</linearGradient>
<linearGradient id="paint83_linear" x1="395.071" y1="346.148" x2="395.071" y2="355.569" gradientUnits="userSpaceOnUse">
<stop stop-color="#C4C4C4" stop-opacity="0.76"/>
<stop offset="1" stop-color="#C4C4C4"/>
</linearGradient>
<linearGradient id="paint84_linear" x1="390.837" y1="359.631" x2="390.837" y2="369.052" gradientUnits="userSpaceOnUse">
<stop stop-color="#C4C4C4" stop-opacity="0.76"/>
<stop offset="1" stop-color="#C4C4C4"/>
</linearGradient>
<linearGradient id="paint85_linear" x1="386.604" y1="373.113" x2="386.604" y2="382.534" gradientUnits="userSpaceOnUse">
<stop stop-color="#C4C4C4" stop-opacity="0.76"/>
<stop offset="1" stop-color="#C4C4C4"/>
</linearGradient>
<linearGradient id="paint86_linear" x1="273.627" y1="326.534" x2="273.627" y2="335.955" gradientUnits="userSpaceOnUse">
<stop stop-color="#C4C4C4" stop-opacity="0.76"/>
<stop offset="1" stop-color="#C4C4C4"/>
</linearGradient>
<linearGradient id="paint87_linear" x1="267.981" y1="344.511" x2="267.981" y2="377.485" gradientUnits="userSpaceOnUse">
<stop stop-color="#C4C4C4" stop-opacity="0.76"/>
<stop offset="1" stop-color="#C4C4C4"/>
</linearGradient>
</defs>
</svg>
