<svg width="353" height="425" viewBox="0 0 353 425" fill="none" xmlns="http://www.w3.org/2000/svg">
<rect x="130" width="11" height="119" fill="#725A48"/>
<rect x="138" y="55" width="23" height="7" fill="#725A48"/>
<g filter="url(#filter0_d)">
<circle cx="176.5" cy="244.5" r="136.5" fill="url(#paint0_linear)"/>
</g>
<path d="M161 78.3455L180.053 111.345H141.947L161 78.3455Z" fill="#D6D6D6"/>
<path d="M193 78.3455L212.053 111.345H173.947L193 78.3455Z" fill="#D6D6D6"/>
<path d="M180.41 8.90975C178.85 6.36342 175.15 6.36341 173.59 8.90975L161.733 28.2552C161.322 28.926 161.135 29.645 161.137 30.3454H161V111.345H193V30.3454H192.863C192.865 29.645 192.678 28.926 192.267 28.2552L180.41 8.90975Z" fill="url(#paint1_linear)"/>
<rect x="175" y="80.3455" width="4" height="19" rx="1" fill="#A5A5A5"/>
<path d="M173.591 14.9013C175.152 12.3574 178.848 12.3574 180.409 14.9013L186.262 24.4386C187.897 27.1038 185.979 30.5306 182.852 30.5306H171.148C168.021 30.5306 166.103 27.1038 167.738 24.4386L173.591 14.9013Z" fill="#D8D8D8"/>
<defs>
<filter id="filter0_d" x="0" y="72" width="353" height="353" filterUnits="userSpaceOnUse" color-interpolation-filters="sRGB">
<feFlood flood-opacity="0" result="BackgroundImageFix"/>
<feColorMatrix in="SourceAlpha" type="matrix" values="0 0 0 0 0 0 0 0 0 0 0 0 0 0 0 0 0 0 127 0"/>
<feOffset dy="4"/>
<feGaussianBlur stdDeviation="20"/>
<feColorMatrix type="matrix" values="0 0 0 0 0.0117647 0 0 0 0 0.737255 0 0 0 0 0.690196 0 0 0 0.6 0"/>
<feBlend mode="normal" in2="BackgroundImageFix" result="effect1_dropShadow"/>
<feBlend mode="normal" in="SourceGraphic" in2="effect1_dropShadow" result="shape"/>
</filter>
<linearGradient id="paint0_linear" x1="176.5" y1="108" x2="176.5" y2="381" gradientUnits="userSpaceOnUse">
<stop stop-color="#03FF77"/>
<stop offset="1" stop-color="#037AE7"/>
</linearGradient>
<linearGradient id="paint1_linear" x1="177" y1="7" x2="177" y2="111.345" gradientUnits="userSpaceOnUse">
<stop stop-color="#989898"/>
<stop offset="1" stop-color="white"/>
</linearGradient>
</defs>
</svg>
