<svg width="322" height="295" viewBox="0 0 322 295" fill="none" xmlns="http://www.w3.org/2000/svg">
<path d="M85.1081 135.006C80.5036 164.685 160.48 237.277 213 235C298.5 209 147.5 76.0001 243 108.5" stroke="white" stroke-width="2"/>
<path d="M52.338 130.676L52.6369 168.78L19.4885 149.987L52.338 130.676Z" fill="#D6D6D6"/>
<path d="M80.1755 146.458L80.4743 184.562L47.3259 165.769L80.1755 146.458Z" fill="#D6D6D6"/>
<path d="M103.469 79.8455C103.367 76.8607 100.149 75.0361 97.5351 76.4815L77.6796 87.4627C76.991 87.8436 76.4745 88.3772 76.1303 88.9872L76.0113 88.9197L36.0627 159.383L63.9001 175.165L103.849 104.702L103.73 104.634C104.076 104.026 104.269 103.309 104.242 102.522L103.469 79.8455Z" fill="url(#paint0_linear)"/>
<rect x="63.5305" y="139.32" width="4" height="19" rx="1" transform="rotate(29.5507 63.5305 139.32)" fill="#A5A5A5"/>
<path d="M94.5811 81.6941C97.1937 80.251 100.409 82.0741 100.513 85.057L100.9 96.24C101.008 99.3651 97.65 101.4 94.9298 99.8581L84.7475 94.0854C82.0273 92.5432 82.0491 88.6163 84.7863 87.1044L94.5811 81.6941Z" fill="#D8D8D8"/>
<path d="M246.698 97.9879C247.09 97.9861 247.447 98.2138 247.611 98.5702L248.148 99.7383C248.473 100.446 247.901 101.237 247.127 101.15L236.557 99.9571C236.018 99.8962 235.635 99.4031 235.709 98.8657C235.775 98.3903 236.181 98.0356 236.661 98.0334L246.698 97.9879Z" fill="url(#paint1_linear)"/>
<path d="M258.101 109.462C258.082 109.124 257.894 108.819 257.6 108.65L256.616 108.085C255.885 107.666 254.994 108.283 255.131 109.114L256.7 118.672C256.788 119.208 257.304 119.564 257.837 119.456C258.304 119.362 258.63 118.939 258.604 118.463L258.101 109.462Z" fill="url(#paint2_linear)"/>
<path d="M245.745 98.2062C247.103 97.3678 248.866 97.6167 249.939 98.7984L257.372 106.989C258.454 108.181 258.551 109.969 257.603 111.271L245.745 98.2062Z" fill="url(#paint3_linear)"/>
<path d="M240.347 109.342C240.812 108.925 241.541 109.031 241.868 109.564L242.934 111.305C243.215 111.762 243.084 112.36 242.637 112.658L233.725 118.615C233.262 118.925 232.635 118.796 232.331 118.329L232.062 117.914C231.793 117.501 231.866 116.954 232.232 116.625L240.347 109.342Z" fill="url(#paint4_linear)"/>
<path d="M229.926 115.255C230.343 114.894 230.975 114.939 231.337 115.356L234.013 118.442L232.772 119.518C232.355 119.88 231.723 119.835 231.362 119.417L229.341 117.087C228.979 116.669 229.024 116.038 229.441 115.676L229.926 115.255Z" fill="url(#paint5_linear)"/>
<path d="M246.501 114.695C246.796 114.145 246.519 113.462 245.924 113.271L243.904 112.624C243.391 112.46 242.841 112.731 242.658 113.237L239.021 123.322C238.832 123.845 239.107 124.421 239.632 124.605L240.146 124.784C240.611 124.947 241.125 124.746 241.357 124.312L246.501 114.695Z" fill="url(#paint6_linear)"/>
<path d="M243.147 126.185C243.399 125.693 243.204 125.091 242.712 124.84L239.125 123.006L238.378 124.469C238.126 124.96 238.321 125.563 238.813 125.814L241.509 127.192C242.001 127.444 242.604 127.249 242.855 126.757L243.147 126.185Z" fill="url(#paint7_linear)"/>
<path d="M247.831 100.881C248.224 100.429 248.923 100.422 249.326 100.865L254.883 106.986C255.282 107.426 255.212 108.115 254.733 108.465L250.818 111.331L246.692 114.852C246.289 115.197 245.686 115.166 245.32 114.781L240.776 110.017C240.407 109.631 240.407 109.024 240.775 108.638L244.371 104.857L247.831 100.881Z" fill="url(#paint8_linear)"/>
<g filter="url(#filter0_i)">
<path d="M262.402 104.06C259.895 106.335 257.467 105.493 254.208 101.903C250.95 98.3131 250.346 95.815 252.854 93.5394C255.361 91.2637 259.263 90.7679 262.521 94.3581C265.78 97.9482 264.909 101.784 262.402 104.06Z" fill="#F2F2F2"/>
</g>
<path d="M262.1 104.334C259.102 106.698 255.941 106.878 252.683 103.288C249.424 99.6976 249.908 96.5694 252.551 93.8136C255.372 91.2535 259.264 91.3022 262.256 94.5988C265.248 97.8954 264.921 101.774 262.1 104.334Z" fill="#F2F2F2"/>
<g filter="url(#filter1_d)">
<path d="M261.801 104.07C259.426 106.225 256.493 105.842 253.501 102.545C250.509 99.2486 250.411 96.2919 252.785 94.1366C255.16 91.9813 258.956 92.2956 261.593 95.2007C264.23 98.1058 264.176 101.914 261.801 104.07Z" fill="#F2F2F2"/>
</g>
<path d="M261.855 104.02C259.413 106.237 256.336 105.27 253.7 102.365C251.063 99.4595 250.398 96.3035 252.84 94.087C255.282 91.8705 258.956 92.2956 261.593 95.2007C264.23 98.1058 264.298 101.804 261.855 104.02Z" fill="black"/>
<g filter="url(#filter2_df)">
<path d="M254.835 96.006C255.127 91.2396 255.604 90.3708 256.374 90.788C257.143 91.2053 257.791 91.1884 259.335 95.4321C260.879 99.6759 258.216 97.3455 257.442 98.4151C256.667 99.4847 254.542 100.772 254.835 96.006Z" fill="url(#paint9_radial)"/>
</g>
<g opacity="0.8" filter="url(#filter3_d)">
<path d="M253.806 102.147C257.194 100.979 257.351 97.1371 258.895 97.9562C260.439 98.7753 259.793 100.777 261.249 102.724C262.706 104.672 260.323 104.154 258.313 104.782C256.302 105.409 250.417 103.314 253.806 102.147Z" fill="url(#paint10_radial)"/>
</g>
<mask id="mask0" mask-type="alpha" maskUnits="userSpaceOnUse" x="248" y="91" width="17" height="17">
<g opacity="0.4">
<ellipse rx="0.0831229" ry="0.0432207" transform="matrix(-0.804424 0.594056 -0.313993 -0.949425 257.369 105.706)" fill="white" fill-opacity="0.43"/>
<ellipse rx="0.0831229" ry="0.0432207" transform="matrix(-0.804424 0.594056 -0.313993 -0.949425 258.602 105.408)" fill="white"/>
<ellipse rx="0.0831229" ry="0.0432207" transform="matrix(-0.804424 0.594056 -0.313993 -0.949425 258.382 103.988)" fill="white" fill-opacity="0.43"/>
<ellipse rx="0.0415615" ry="0.0216104" transform="matrix(-0.804424 0.594056 -0.313993 -0.949425 255.598 105.508)" fill="white"/>
<ellipse rx="0.0415615" ry="0.0216104" transform="matrix(-0.804424 0.594056 -0.313993 -0.949425 258.518 104.526)" fill="white"/>
<ellipse rx="0.0415615" ry="0.0216104" transform="matrix(-0.804424 0.594056 -0.313993 -0.949425 256.635 106.631)" fill="white" fill-opacity="0.43"/>
<ellipse rx="0.0415615" ry="0.0216104" transform="matrix(-0.804424 0.594056 -0.313993 -0.949425 257.071 104.931)" fill="#FFF2C9"/>
<ellipse rx="0.0415615" ry="0.0216104" transform="matrix(-0.804424 0.594056 -0.313993 -0.949425 257.547 106.621)" fill="white" fill-opacity="0.43"/>
<ellipse rx="0.0415615" ry="0.0216104" transform="matrix(-0.804424 0.594056 -0.313993 -0.949425 259.658 104.45)" fill="white"/>
<ellipse rx="0.0406659" ry="0.0844022" transform="matrix(-0.765078 -0.643937 0.719444 -0.69455 256.778 103.579)" fill="white" fill-opacity="0.43"/>
<ellipse rx="0.0406659" ry="0.0844022" transform="matrix(-0.765078 -0.643937 0.719444 -0.69455 256.547 104.702)" fill="white"/>
<ellipse rx="0.0406659" ry="0.0844022" transform="matrix(-0.765078 -0.643937 0.719444 -0.69455 258.523 102.963)" fill="white" fill-opacity="0.43"/>
<ellipse rx="0.0406659" ry="0.0844022" transform="matrix(-0.765078 -0.643937 0.719444 -0.69455 254.725 104.156)" fill="white"/>
<ellipse rx="0.0203329" ry="0.0422011" transform="matrix(-0.765078 -0.643937 0.719444 -0.69455 257.931 101.313)" fill="white"/>
<ellipse rx="0.0203329" ry="0.0422011" transform="matrix(-0.765078 -0.643937 0.719444 -0.69455 257.748 103.683)" fill="white"/>
<ellipse rx="0.0203329" ry="0.0422011" transform="matrix(-0.765078 -0.643937 0.719444 -0.69455 255.933 103.692)" fill="white" fill-opacity="0.43"/>
<ellipse rx="0.0203329" ry="0.0422011" transform="matrix(-0.765078 -0.643937 0.719444 -0.69455 257.946 102.423)" fill="white"/>
<ellipse rx="0.0203329" ry="0.0422011" transform="matrix(-0.765078 -0.643937 0.719444 -0.69455 256.412 102.668)" fill="white"/>
<ellipse rx="0.0203329" ry="0.0422011" transform="matrix(-0.765078 -0.643937 0.719444 -0.69455 255.486 104.742)" fill="white" fill-opacity="0.43"/>
<ellipse rx="0.0203329" ry="0.0422011" transform="matrix(-0.765078 -0.643937 0.719444 -0.69455 257.273 104.929)" fill="white"/>
<ellipse rx="0.0808001" ry="0.0474215" transform="matrix(0.617621 -0.786476 0.981156 0.193214 253.567 102.041)" fill="white" fill-opacity="0.43"/>
<ellipse rx="0.0808001" ry="0.0474215" transform="matrix(0.617621 -0.786476 0.981156 0.193214 253.503 103.422)" fill="white" fill-opacity="0.43"/>
<ellipse rx="0.0808001" ry="0.0474215" transform="matrix(0.617621 -0.786476 0.981156 0.193214 253.838 100.26)" fill="white"/>
<ellipse rx="0.0404" ry="0.0237108" transform="matrix(0.617621 -0.786476 0.981156 0.193214 255.963 101.008)" fill="white"/>
<ellipse rx="0.0404" ry="0.0237108" transform="matrix(0.617621 -0.786476 0.981156 0.193214 252.947 103.276)" fill="white"/>
<ellipse rx="0.0404" ry="0.0237108" transform="matrix(0.617621 -0.786476 0.981156 0.193214 253.842 101.178)" fill="white" fill-opacity="0.43"/>
<ellipse rx="0.0404" ry="0.0237108" transform="matrix(0.617621 -0.786476 0.981156 0.193214 254.5 102.188)" fill="white"/>
<ellipse rx="0.0404" ry="0.0237108" transform="matrix(0.617621 -0.786476 0.981156 0.193214 254.946 100.661)" fill="white"/>
<ellipse rx="0.0404" ry="0.0237108" transform="matrix(0.617621 -0.786476 0.981156 0.193214 252.688 101.758)" fill="white" fill-opacity="0.43"/>
<ellipse rx="0.0588611" ry="0.0728891" transform="matrix(0.989943 -0.141467 -0.486983 0.873411 255.836 102.586)" fill="white" fill-opacity="0.43"/>
<ellipse rx="0.0588611" ry="0.0728891" transform="matrix(0.989943 -0.141467 -0.486983 0.873411 255.33 101.955)" fill="white"/>
<ellipse rx="0.0588611" ry="0.0728891" transform="matrix(0.989943 -0.141467 -0.486983 0.873411 254.055 103.954)" fill="white" fill-opacity="0.43"/>
<ellipse rx="0.0588611" ry="0.0728891" transform="matrix(0.989943 -0.141467 -0.486983 0.873411 258.038 101.041)" fill="white"/>
<ellipse rx="0.0294305" ry="0.0364446" transform="matrix(0.989943 -0.141467 -0.486983 0.873411 255.984 104.294)" fill="white"/>
<ellipse rx="0.0294305" ry="0.0364446" transform="matrix(0.989943 -0.141467 -0.486983 0.873411 254.527 103.154)" fill="white"/>
<ellipse rx="0.0294305" ry="0.0364446" transform="matrix(0.989943 -0.141467 -0.486983 0.873411 256.831 102.005)" fill="white" fill-opacity="0.43"/>
<ellipse rx="0.0294305" ry="0.0364446" transform="matrix(0.989943 -0.141467 -0.486983 0.873411 255.173 103.824)" fill="white"/>
<ellipse rx="0.0294305" ry="0.0364446" transform="matrix(0.989943 -0.141467 -0.486983 0.873411 256.952 102.749)" fill="white"/>
<ellipse rx="0.0294305" ry="0.0364446" transform="matrix(0.989943 -0.141467 -0.486983 0.873411 256.651 101.269)" fill="white" fill-opacity="0.43"/>
<ellipse rx="0.0294305" ry="0.0364446" transform="matrix(0.989943 -0.141467 -0.486983 0.873411 254.244 102.316)" fill="white"/>
<ellipse rx="0.0423453" ry="0.0835723" transform="matrix(-0.884991 -0.465608 0.682238 -0.73113 252.74 101.853)" fill="white" fill-opacity="0.43"/>
<ellipse rx="0.0211727" ry="0.0417861" transform="matrix(-0.884991 -0.465608 0.682238 -0.73113 251.859 100.433)" fill="white"/>
<ellipse rx="0.0211727" ry="0.0417861" transform="matrix(-0.884991 -0.465608 0.682238 -0.73113 252.038 101.438)" fill="white"/>
<ellipse rx="0.0782425" ry="0.0515322" transform="matrix(0.572416 -0.819963 0.998827 0.0484197 253.858 99.5983)" fill="white" fill-opacity="0.43"/>
<ellipse rx="0.0782425" ry="0.0515322" transform="matrix(0.572416 -0.819963 0.998827 0.0484197 252.524 100.595)" fill="white"/>
<ellipse rx="0.0782425" ry="0.0515322" transform="matrix(0.572416 -0.819963 0.998827 0.0484197 253.985 100.865)" fill="white" fill-opacity="0.43"/>
<ellipse rx="0.0782425" ry="0.0515322" transform="matrix(0.572416 -0.819963 0.998827 0.0484197 253.897 97.942)" fill="white"/>
<ellipse rx="0.0391212" ry="0.0257661" transform="matrix(0.572416 -0.819963 0.998827 0.0484197 256.295 98.3569)" fill="white"/>
<ellipse rx="0.0391212" ry="0.0257661" transform="matrix(0.572416 -0.819963 0.998827 0.0484197 253.364 100.801)" fill="white"/>
<ellipse rx="0.0391212" ry="0.0257661" transform="matrix(0.572416 -0.819963 0.998827 0.0484197 254.032 98.7778)" fill="white" fill-opacity="0.43"/>
<ellipse rx="0.0391212" ry="0.0257661" transform="matrix(0.572416 -0.819963 0.998827 0.0484197 254.884 99.6149)" fill="white"/>
<ellipse rx="0.0391212" ry="0.0257661" transform="matrix(0.572416 -0.819963 0.998827 0.0484197 255.149 98.1686)" fill="white"/>
<ellipse rx="0.0391212" ry="0.0257661" transform="matrix(0.572416 -0.819963 0.998827 0.0484197 252.87 99.4511)" fill="white" fill-opacity="0.43"/>
<ellipse rx="0.0391212" ry="0.0257661" transform="matrix(0.572416 -0.819963 0.998827 0.0484197 251.965 101.662)" fill="white"/>
<ellipse rx="0.0820894" ry="0.0451528" transform="matrix(0.82374 -0.566967 0.201428 0.979503 257.257 97.8834)" fill="white" fill-opacity="0.43"/>
<ellipse rx="0.0820894" ry="0.0451528" transform="matrix(0.82374 -0.566967 0.201428 0.979503 256.066 98.0973)" fill="white"/>
<ellipse rx="0.0820894" ry="0.0451528" transform="matrix(0.82374 -0.566967 0.201428 0.979503 256.145 99.608)" fill="white" fill-opacity="0.43"/>
<ellipse rx="0.0820894" ry="0.0451528" transform="matrix(0.82374 -0.566967 0.201428 0.979503 258.757 95.7911)" fill="white"/>
<ellipse rx="0.0410447" ry="0.0225764" transform="matrix(0.82374 -0.566967 0.201428 0.979503 258.912 98.234)" fill="white"/>
<ellipse rx="0.0410447" ry="0.0225764" transform="matrix(0.82374 -0.566967 0.201428 0.979503 256.065 99.0318)" fill="white"/>
<ellipse rx="0.0410447" ry="0.0225764" transform="matrix(0.82374 -0.566967 0.201428 0.979503 258.034 96.97)" fill="white" fill-opacity="0.43"/>
<ellipse rx="0.0410447" ry="0.0225764" transform="matrix(0.82374 -0.566967 0.201428 0.979503 257.469 98.7225)" fill="white"/>
<ellipse rx="0.0410447" ry="0.0225764" transform="matrix(0.82374 -0.566967 0.201428 0.979503 258.829 97.0794)" fill="white"/>
<ellipse rx="0.0410447" ry="0.0225764" transform="matrix(0.82374 -0.566967 0.201428 0.979503 257.172 96.9068)" fill="white" fill-opacity="0.43"/>
<ellipse rx="0.0410447" ry="0.0225764" transform="matrix(0.82374 -0.566967 0.201428 0.979503 254.982 99.0201)" fill="white"/>
<ellipse rx="0.0403844" ry="0.0845373" transform="matrix(0.668729 0.743506 -0.741176 0.67131 257.623 100.166)" fill="white" fill-opacity="0.43"/>
<ellipse rx="0.0403844" ry="0.0845373" transform="matrix(0.668729 0.743506 -0.741176 0.67131 257.943 99.005)" fill="white"/>
<ellipse rx="0.0403844" ry="0.0845373" transform="matrix(0.668729 0.743506 -0.741176 0.67131 255.919 100.674)" fill="white" fill-opacity="0.43"/>
<ellipse rx="0.0403844" ry="0.0845373" transform="matrix(0.668729 0.743506 -0.741176 0.67131 259.614 99.7252)" fill="white"/>
<ellipse rx="0.0201922" ry="0.0422686" transform="matrix(0.668729 0.743506 -0.741176 0.67131 256.328 102.456)" fill="white"/>
<ellipse rx="0.0201922" ry="0.0422686" transform="matrix(0.668729 0.743506 -0.741176 0.67131 256.716 99.9797)" fill="white"/>
<ellipse rx="0.0201922" ry="0.0422686" transform="matrix(0.668729 0.743506 -0.741176 0.67131 258.431 100.116)" fill="white" fill-opacity="0.43"/>
<ellipse rx="0.0201922" ry="0.0422686" transform="matrix(0.668729 0.743506 -0.741176 0.67131 256.415 101.288)" fill="white"/>
<ellipse rx="0.0201922" ry="0.0422686" transform="matrix(0.668729 0.743506 -0.741176 0.67131 257.886 101.154)" fill="#FFF2C9"/>
<ellipse rx="0.0201922" ry="0.0422686" transform="matrix(0.668729 0.743506 -0.741176 0.67131 258.948 99.048)" fill="white" fill-opacity="0.43"/>
<ellipse rx="0.0201922" ry="0.0422686" transform="matrix(0.668729 0.743506 -0.741176 0.67131 257.278 98.7082)" fill="white"/>
<ellipse cx="257.723" cy="94.6231" rx="0.0403841" ry="0.0845374" transform="rotate(47.7728 257.723 94.6231)" fill="white" fill-opacity="0.43"/>
<ellipse cx="258.04" cy="93.4627" rx="0.0403841" ry="0.0845374" transform="rotate(47.7728 258.04 93.4627)" fill="white"/>
<ellipse cx="256.018" cy="95.1343" rx="0.0403841" ry="0.0845374" transform="rotate(47.7728 256.018 95.1343)" fill="white" fill-opacity="0.43"/>
<ellipse cx="259.717" cy="94.1775" rx="0.0403841" ry="0.0845374" transform="rotate(47.7728 259.717 94.1775)" fill="white"/>
<ellipse cx="256.433" cy="96.912" rx="0.0201921" ry="0.0422687" transform="rotate(47.7728 256.433 96.912)" fill="white"/>
<ellipse cx="256.814" cy="94.4391" rx="0.0201921" ry="0.0422687" transform="rotate(47.7728 256.814 94.4391)" fill="white"/>
<ellipse cx="258.532" cy="94.5707" rx="0.0201921" ry="0.0422687" transform="rotate(47.7728 258.532 94.5707)" fill="white" fill-opacity="0.43"/>
<ellipse cx="256.516" cy="95.7458" rx="0.0201921" ry="0.0422687" transform="rotate(47.7728 256.516 95.7458)" fill="white"/>
<ellipse cx="257.99" cy="95.6083" rx="0.0201921" ry="0.0422687" transform="rotate(47.7728 257.99 95.6083)" fill="white"/>
<ellipse cx="259.047" cy="93.5031" rx="0.0201921" ry="0.0422687" transform="rotate(47.7728 259.047 93.5031)" fill="white" fill-opacity="0.43"/>
<ellipse cx="257.374" cy="93.1681" rx="0.0201921" ry="0.0422687" transform="rotate(47.7728 257.374 93.1681)" fill="white"/>
<ellipse rx="0.0821271" ry="0.0450842" transform="matrix(-0.644751 0.764392 -0.954382 -0.298589 254.544 97.4351)" fill="white" fill-opacity="0.43"/>
<ellipse rx="0.0821271" ry="0.0450842" transform="matrix(-0.644751 0.764392 -0.954382 -0.298589 255.908 96.5923)" fill="white"/>
<ellipse rx="0.0821271" ry="0.0450842" transform="matrix(-0.644751 0.764392 -0.954382 -0.298589 254.733 95.9866)" fill="white" fill-opacity="0.43"/>
<ellipse rx="0.0821271" ry="0.0450842" transform="matrix(-0.644751 0.764392 -0.954382 -0.298589 254.124 99.2874)" fill="white"/>
<ellipse rx="0.0410636" ry="0.0225421" transform="matrix(-0.644751 0.764392 -0.954382 -0.298589 252.189 98.325)" fill="white"/>
<ellipse rx="0.0410636" ry="0.0225421" transform="matrix(-0.644751 0.764392 -0.954382 -0.298589 255.244 96.1863)" fill="white"/>
<ellipse rx="0.0410636" ry="0.0225421" transform="matrix(-0.644751 0.764392 -0.954382 -0.298589 254.205 98.3208)" fill="white" fill-opacity="0.43"/>
<ellipse rx="0.0410636" ry="0.0225421" transform="matrix(-0.644751 0.764392 -0.954382 -0.298589 253.679 97.2041)" fill="white"/>
<ellipse rx="0.0410636" ry="0.0225421" transform="matrix(-0.644751 0.764392 -0.954382 -0.298589 253.116 98.7737)" fill="white"/>
<ellipse rx="0.0410636" ry="0.0225421" transform="matrix(-0.644751 0.764392 -0.954382 -0.298589 255.347 97.8054)" fill="white" fill-opacity="0.43"/>
<ellipse rx="0.0410636" ry="0.0225421" transform="matrix(-0.644751 0.764392 -0.954382 -0.298589 256.631 95.5093)" fill="white"/>
<ellipse rx="0.0560232" ry="0.0750923" transform="matrix(-0.997168 0.0752097 0.521643 -0.853164 252.438 101.459)" fill="white" fill-opacity="0.43"/>
<ellipse rx="0.0280116" ry="0.0375462" transform="matrix(-0.997168 0.0752097 0.521643 -0.853164 251.368 101.509)" fill="white"/>
<ellipse rx="0.0646467" ry="0.0678105" transform="matrix(0.350241 -0.93666 0.949159 -0.314798 252.674 99.5346)" fill="white" fill-opacity="0.43"/>
<ellipse rx="0.0646467" ry="0.0678105" transform="matrix(0.350241 -0.93666 0.949159 -0.314798 251.539 100.76)" fill="white"/>
<ellipse rx="0.0646467" ry="0.0678105" transform="matrix(0.350241 -0.93666 0.949159 -0.314798 253.467 100.279)" fill="white" fill-opacity="0.43"/>
<ellipse rx="0.0646467" ry="0.0678105" transform="matrix(0.350241 -0.93666 0.949159 -0.314798 251.888 98.4691)" fill="white"/>
<ellipse rx="0.0323233" ry="0.0339052" transform="matrix(0.350241 -0.93666 0.949159 -0.314798 255.037 97.6636)" fill="white"/>
<ellipse rx="0.0323233" ry="0.0339052" transform="matrix(0.350241 -0.93666 0.949159 -0.314798 252.673 100.516)" fill="white"/>
<ellipse rx="0.0323233" ry="0.0339052" transform="matrix(0.350241 -0.93666 0.949159 -0.314798 252.474 98.9378)" fill="white" fill-opacity="0.43"/>
<ellipse rx="0.0323233" ry="0.0339052" transform="matrix(0.350241 -0.93666 0.949159 -0.314798 253.94 99.0882)" fill="white"/>
<ellipse rx="0.0323233" ry="0.0339052" transform="matrix(0.350241 -0.93666 0.949159 -0.314798 253.537 98.0548)" fill="white"/>
<ellipse rx="0.0323233" ry="0.0339052" transform="matrix(0.350241 -0.93666 0.949159 -0.314798 251.388 99.8814)" fill="white" fill-opacity="0.43"/>
<ellipse rx="0.0831517" ry="0.0431652" transform="matrix(0.669803 -0.742539 0.913039 0.407873 250.481 99.8289)" fill="white" fill-opacity="0.43"/>
<ellipse rx="0.0831517" ry="0.0431652" transform="matrix(0.669803 -0.742539 0.913039 0.407873 251.046 97.9158)" fill="white"/>
<ellipse rx="0.0415759" ry="0.0215826" transform="matrix(0.669803 -0.742539 0.913039 0.407873 252.785 99.0827)" fill="white"/>
<ellipse rx="0.0415759" ry="0.0215826" transform="matrix(0.669803 -0.742539 0.913039 0.407873 250.881 98.9252)" fill="white" fill-opacity="0.43"/>
<ellipse rx="0.0415759" ry="0.0215826" transform="matrix(0.669803 -0.742539 0.913039 0.407873 251.277 100.142)" fill="white"/>
<ellipse rx="0.0415759" ry="0.0215826" transform="matrix(0.669803 -0.742539 0.913039 0.407873 251.951 98.5368)" fill="white"/>
<ellipse rx="0.0415759" ry="0.0215826" transform="matrix(0.669803 -0.742539 0.913039 0.407873 249.756 99.3756)" fill="white" fill-opacity="0.43"/>
<ellipse rx="0.0838508" ry="0.0417911" transform="matrix(-0.691821 0.72207 -0.859469 -0.511188 262.019 97.7513)" fill="white" fill-opacity="0.43"/>
<ellipse rx="0.0838508" ry="0.0417911" transform="matrix(-0.691821 0.72207 -0.859469 -0.511188 263.378 97.0389)" fill="white"/>
<ellipse rx="0.0838508" ry="0.0417911" transform="matrix(-0.691821 0.72207 -0.859469 -0.511188 262.438 96.1949)" fill="white" fill-opacity="0.43"/>
<ellipse rx="0.0838508" ry="0.0417911" transform="matrix(-0.691821 0.72207 -0.859469 -0.511188 261.323 99.7135)" fill="white"/>
<ellipse rx="0.0419254" ry="0.0208955" transform="matrix(-0.691821 0.72207 -0.859469 -0.511188 259.77 98.3621)" fill="white"/>
<ellipse rx="0.0419254" ry="0.0208955" transform="matrix(-0.691821 0.72207 -0.859469 -0.511188 262.858 96.4922)" fill="#FFF2C9"/>
<ellipse rx="0.0419254" ry="0.0208955" transform="matrix(-0.691821 0.72207 -0.859469 -0.511188 261.563 98.6683)" fill="white" fill-opacity="0.43"/>
<ellipse rx="0.0419254" ry="0.0208955" transform="matrix(-0.691821 0.72207 -0.859469 -0.511188 261.289 97.3651)" fill="white"/>
<ellipse rx="0.0419254" ry="0.0208955" transform="matrix(-0.691821 0.72207 -0.859469 -0.511188 260.516 98.9959)" fill="white"/>
<ellipse rx="0.0419254" ry="0.0208955" transform="matrix(-0.691821 0.72207 -0.859469 -0.511188 262.668 98.2801)" fill="white" fill-opacity="0.43"/>
<ellipse rx="0.0504183" ry="0.0789648" transform="matrix(-0.996473 -0.083916 0.584617 -0.81131 260.293 96.5972)" fill="white" fill-opacity="0.43"/>
<ellipse rx="0.0504183" ry="0.0789648" transform="matrix(-0.996473 -0.083916 0.584617 -0.81131 260.543 97.4337)" fill="white"/>
<ellipse rx="0.0504183" ry="0.0789648" transform="matrix(-0.996473 -0.083916 0.584617 -0.81131 262.125 95.4605)" fill="white" fill-opacity="0.43"/>
<ellipse rx="0.0504183" ry="0.0789648" transform="matrix(-0.996473 -0.083916 0.584617 -0.81131 258.068 97.837)" fill="white"/>
<ellipse rx="0.0252092" ry="0.0394824" transform="matrix(-0.996473 -0.083916 0.584617 -0.81131 260.625 94.6206)" fill="white"/>
<ellipse rx="0.0252092" ry="0.0394824" transform="matrix(-0.996473 -0.083916 0.584617 -0.81131 261.523 96.2593)" fill="white"/>
<ellipse rx="0.0252092" ry="0.0394824" transform="matrix(-0.996473 -0.083916 0.584617 -0.81131 259.319 97.0249)" fill="white" fill-opacity="0.43"/>
<ellipse rx="0.0252092" ry="0.0394824" transform="matrix(-0.996473 -0.083916 0.584617 -0.81131 261.168 95.346)" fill="white"/>
<ellipse rx="0.0252092" ry="0.0394824" transform="matrix(-0.996473 -0.083916 0.584617 -0.81131 259.417 96.1497)" fill="white"/>
<ellipse rx="0.0252092" ry="0.0394824" transform="matrix(-0.996473 -0.083916 0.584617 -0.81131 259.272 97.9043)" fill="white" fill-opacity="0.43"/>
<ellipse rx="0.0252092" ry="0.0394824" transform="matrix(-0.996473 -0.083916 0.584617 -0.81131 261.534 97.2793)" fill="white"/>
<ellipse rx="0.0698723" ry="0.0624124" transform="matrix(0.438952 -0.89851 0.976523 -0.215415 255.659 96.9274)" fill="white" fill-opacity="0.43"/>
<ellipse rx="0.0698723" ry="0.0624124" transform="matrix(0.438952 -0.89851 0.976523 -0.215415 254.437 98.0932)" fill="white"/>
<ellipse rx="0.0698723" ry="0.0624124" transform="matrix(0.438952 -0.89851 0.976523 -0.215415 256.235 97.8649)" fill="white" fill-opacity="0.43"/>
<ellipse rx="0.0698723" ry="0.0624124" transform="matrix(0.438952 -0.89851 0.976523 -0.215415 255.146 95.6403)" fill="white"/>
<ellipse rx="0.0349362" ry="0.0312062" transform="matrix(0.438952 -0.89851 0.976523 -0.215415 258.086 95.2439)" fill="white"/>
<ellipse rx="0.0349362" ry="0.0312062" transform="matrix(0.438952 -0.89851 0.976523 -0.215415 255.488 98.0017)" fill="white"/>
<ellipse rx="0.0349362" ry="0.0312062" transform="matrix(0.438952 -0.89851 0.976523 -0.215415 255.586 96.2436)" fill="white" fill-opacity="0.43"/>
<ellipse rx="0.0349362" ry="0.0312062" transform="matrix(0.438952 -0.89851 0.976523 -0.215415 256.863 96.634)" fill="white"/>
<ellipse rx="0.0349362" ry="0.0312062" transform="matrix(0.438952 -0.89851 0.976523 -0.215415 256.685 95.4409)" fill="white"/>
<ellipse rx="0.0349362" ry="0.0312062" transform="matrix(0.438952 -0.89851 0.976523 -0.215415 254.456 97.1089)" fill="white" fill-opacity="0.43"/>
<ellipse rx="0.0349362" ry="0.0312062" transform="matrix(0.438952 -0.89851 0.976523 -0.215415 254.145 99.0822)" fill="white"/>
<ellipse rx="0.0733304" ry="0.0583105" transform="matrix(0.913167 -0.407586 -0.2244 0.974497 258.678 96.337)" fill="white" fill-opacity="0.43"/>
<ellipse rx="0.0733304" ry="0.0583105" transform="matrix(0.913167 -0.407586 -0.2244 0.974497 257.764 96.1334)" fill="white"/>
<ellipse rx="0.0733304" ry="0.0583105" transform="matrix(0.913167 -0.407586 -0.2244 0.974497 257.157 97.9845)" fill="white" fill-opacity="0.43"/>
<ellipse rx="0.0733304" ry="0.0583105" transform="matrix(0.913167 -0.407586 -0.2244 0.974497 260.627 94.3966)" fill="white"/>
<ellipse rx="0.0366652" ry="0.0291552" transform="matrix(0.913167 -0.407586 -0.2244 0.974497 259.665 97.4004)" fill="white"/>
<ellipse rx="0.0366652" ry="0.0291552" transform="matrix(0.913167 -0.407586 -0.2244 0.974497 257.354 97.2593)" fill="white"/>
<ellipse rx="0.0366652" ry="0.0291552" transform="matrix(0.913167 -0.407586 -0.2244 0.974497 259.613 95.5371)" fill="white" fill-opacity="0.43"/>
<ellipse rx="0.0366652" ry="0.0291552" transform="matrix(0.913167 -0.407586 -0.2244 0.974497 258.456 97.43)" fill="white"/>
<ellipse rx="0.0366652" ry="0.0291552" transform="matrix(0.913167 -0.407586 -0.2244 0.974497 260.113 95.9771)" fill="white"/>
<ellipse rx="0.0366652" ry="0.0291552" transform="matrix(0.913167 -0.407586 -0.2244 0.974497 259.047 95.1272)" fill="white" fill-opacity="0.43"/>
<ellipse rx="0.0366652" ry="0.0291552" transform="matrix(0.913167 -0.407586 -0.2244 0.974497 256.613 96.8252)" fill="white"/>
<ellipse rx="0.0549891" ry="0.0758528" transform="matrix(-0.998796 0.0490604 0.533679 -0.845687 252.752 98.42)" fill="white" fill-opacity="0.43"/>
<ellipse rx="0.0549891" ry="0.0758528" transform="matrix(-0.998796 0.0490604 0.533679 -0.845687 253.145 99.1468)" fill="white"/>
<ellipse rx="0.0549891" ry="0.0758528" transform="matrix(-0.998796 0.0490604 0.533679 -0.845687 254.565 97.15)" fill="white" fill-opacity="0.43"/>
<ellipse rx="0.0549891" ry="0.0758528" transform="matrix(-0.998796 0.0490604 0.533679 -0.845687 250.529 99.8345)" fill="white"/>
<ellipse rx="0.0274945" ry="0.0379264" transform="matrix(-0.998796 0.0490604 0.533679 -0.845687 252.82 96.583)" fill="white"/>
<ellipse rx="0.0274945" ry="0.0379264" transform="matrix(-0.998796 0.0490604 0.533679 -0.845687 254.031 97.9532)" fill="white"/>
<ellipse rx="0.0274945" ry="0.0379264" transform="matrix(-0.998796 0.0490604 0.533679 -0.845687 251.762 98.9349)" fill="white" fill-opacity="0.43"/>
<ellipse rx="0.0274945" ry="0.0379264" transform="matrix(-0.998796 0.0490604 0.533679 -0.845687 253.514 97.1707)" fill="white"/>
<ellipse rx="0.0274945" ry="0.0379264" transform="matrix(-0.998796 0.0490604 0.533679 -0.845687 251.739 98.128)" fill="white"/>
<ellipse rx="0.0274945" ry="0.0379264" transform="matrix(-0.998796 0.0490604 0.533679 -0.845687 251.84 99.7391)" fill="white" fill-opacity="0.43"/>
<ellipse rx="0.0274945" ry="0.0379264" transform="matrix(-0.998796 0.0490604 0.533679 -0.845687 254.193 98.8777)" fill="white"/>
<ellipse rx="0.065646" ry="0.0668435" transform="matrix(0.36799 -0.92983 0.954613 -0.297848 254.858 95.1959)" fill="white" fill-opacity="0.43"/>
<ellipse rx="0.065646" ry="0.0668435" transform="matrix(0.36799 -0.92983 0.954613 -0.297848 253.706 96.4115)" fill="white"/>
<ellipse rx="0.065646" ry="0.0668435" transform="matrix(0.36799 -0.92983 0.954613 -0.297848 255.611 95.9774)" fill="white" fill-opacity="0.43"/>
<ellipse rx="0.065646" ry="0.0668435" transform="matrix(0.36799 -0.92983 0.954613 -0.297848 254.122 94.088)" fill="white"/>
<ellipse rx="0.032823" ry="0.0334217" transform="matrix(0.36799 -0.92983 0.954613 -0.297848 257.236 93.3572)" fill="white"/>
<ellipse rx="0.032823" ry="0.0334217" transform="matrix(0.36799 -0.92983 0.954613 -0.297848 254.826 96.1959)" fill="white"/>
<ellipse rx="0.032823" ry="0.0334217" transform="matrix(0.36799 -0.92983 0.954613 -0.297848 254.681 94.5823)" fill="white" fill-opacity="0.43"/>
<ellipse rx="0.032823" ry="0.0334217" transform="matrix(0.36799 -0.92983 0.954613 -0.297848 256.114 94.7772)" fill="white"/>
<ellipse rx="0.032823" ry="0.0334217" transform="matrix(0.36799 -0.92983 0.954613 -0.297848 255.753 93.7132)" fill="white"/>
<ellipse rx="0.032823" ry="0.0334217" transform="matrix(0.36799 -0.92983 0.954613 -0.297848 253.586 95.5125)" fill="white" fill-opacity="0.43"/>
<ellipse rx="0.032823" ry="0.0334217" transform="matrix(0.36799 -0.92983 0.954613 -0.297848 253.531 97.3489)" fill="white"/>
<ellipse rx="0.0843353" ry="0.0408046" transform="matrix(0.714642 -0.69949 0.783774 0.621046 258.183 92.6421)" fill="white" fill-opacity="0.43"/>
<ellipse rx="0.0843353" ry="0.0408046" transform="matrix(0.714642 -0.69949 0.783774 0.621046 256.835 93.2818)" fill="#FFF2C9"/>
<ellipse rx="0.0843353" ry="0.0408046" transform="matrix(0.714642 -0.69949 0.783774 0.621046 257.646 94.2444)" fill="white" fill-opacity="0.43"/>
<ellipse rx="0.0421676" ry="0.0204023" transform="matrix(0.714642 -0.69949 0.783774 0.621046 257.276 93.8982)" fill="white"/>
<ellipse rx="0.0421676" ry="0.0204023" transform="matrix(0.714642 -0.69949 0.783774 0.621046 258.837 93.1067)" fill="white"/>
<ellipse rx="0.0421676" ry="0.0204023" transform="matrix(0.714642 -0.69949 0.783774 0.621046 257.618 92.0342)" fill="white" fill-opacity="0.43"/>
<ellipse rx="0.0421676" ry="0.0204023" transform="matrix(0.714642 -0.69949 0.783774 0.621046 255.953 94.344)" fill="white"/>
<ellipse rx="0.047818" ry="0.080566" transform="matrix(0.984145 0.177365 -0.613192 0.789934 259.708 93.9938)" fill="white" fill-opacity="0.43"/>
<ellipse rx="0.047818" ry="0.080566" transform="matrix(0.984145 0.177365 -0.613192 0.789934 259.548 93.0943)" fill="white"/>
<ellipse rx="0.047818" ry="0.080566" transform="matrix(0.984145 0.177365 -0.613192 0.789934 257.875 95.0418)" fill="white" fill-opacity="0.43"/>
<ellipse rx="0.023909" ry="0.040283" transform="matrix(0.984145 0.177365 -0.613192 0.789934 259.215 96.0451)" fill="white"/>
<ellipse rx="0.023909" ry="0.040283" transform="matrix(0.984145 0.177365 -0.613192 0.789934 258.516 94.2504)" fill="white"/>
<ellipse rx="0.023909" ry="0.040283" transform="matrix(0.984145 0.177365 -0.613192 0.789934 260.667 93.6225)" fill="white" fill-opacity="0.43"/>
<ellipse rx="0.023909" ry="0.040283" transform="matrix(0.984145 0.177365 -0.613192 0.789934 258.768 95.2389)" fill="white"/>
<ellipse rx="0.023909" ry="0.040283" transform="matrix(0.984145 0.177365 -0.613192 0.789934 260.495 94.5346)" fill="white"/>
<ellipse rx="0.023909" ry="0.040283" transform="matrix(0.984145 0.177365 -0.613192 0.789934 258.598 93.1772)" fill="white"/>
<ellipse cx="254.588" cy="94.1875" rx="0.0403841" ry="0.0845374" transform="rotate(47.7728 254.588 94.1875)" fill="white" fill-opacity="0.43"/>
<ellipse cx="254.905" cy="93.0274" rx="0.0403841" ry="0.0845374" transform="rotate(47.7728 254.905 93.0274)" fill="white"/>
<ellipse cx="252.883" cy="94.699" rx="0.0403841" ry="0.0845374" transform="rotate(47.7728 252.883 94.699)" fill="white" fill-opacity="0.43"/>
<ellipse cx="256.581" cy="93.742" rx="0.0403841" ry="0.0845374" transform="rotate(47.7728 256.581 93.742)" fill="white"/>
<ellipse cx="253.298" cy="96.4767" rx="0.0201921" ry="0.0422687" transform="rotate(47.7728 253.298 96.4767)" fill="white"/>
<ellipse cx="253.679" cy="94.0036" rx="0.0201921" ry="0.0422687" transform="rotate(47.7728 253.679 94.0036)" fill="white"/>
<ellipse cx="255.397" cy="94.1352" rx="0.0201921" ry="0.0422687" transform="rotate(47.7728 255.397 94.1352)" fill="white" fill-opacity="0.43"/>
<ellipse cx="253.381" cy="95.3104" rx="0.0201921" ry="0.0422687" transform="rotate(47.7728 253.381 95.3104)" fill="white"/>
<ellipse cx="254.855" cy="95.173" rx="0.0201921" ry="0.0422687" transform="rotate(47.7728 254.855 95.173)" fill="white"/>
<ellipse cx="255.912" cy="93.0678" rx="0.0201921" ry="0.0422687" transform="rotate(47.7728 255.912 93.0678)" fill="white" fill-opacity="0.43"/>
<ellipse rx="0.0821271" ry="0.0450842" transform="matrix(-0.644751 0.764392 -0.954382 -0.298589 251.409 96.9998)" fill="white" fill-opacity="0.43"/>
<ellipse rx="0.0821271" ry="0.0450842" transform="matrix(-0.644751 0.764392 -0.954382 -0.298589 252.773 96.1567)" fill="white"/>
<ellipse rx="0.0821271" ry="0.0450842" transform="matrix(-0.644751 0.764392 -0.954382 -0.298589 251.598 95.5513)" fill="white" fill-opacity="0.43"/>
<ellipse rx="0.0821271" ry="0.0450842" transform="matrix(-0.644751 0.764392 -0.954382 -0.298589 250.989 98.8518)" fill="white"/>
<ellipse rx="0.0410636" ry="0.0225421" transform="matrix(-0.644751 0.764392 -0.954382 -0.298589 249.054 97.8896)" fill="white"/>
<ellipse rx="0.0410636" ry="0.0225421" transform="matrix(-0.644751 0.764392 -0.954382 -0.298589 252.109 95.7507)" fill="white"/>
<ellipse rx="0.0410636" ry="0.0225421" transform="matrix(-0.644751 0.764392 -0.954382 -0.298589 251.07 97.8855)" fill="white" fill-opacity="0.43"/>
<ellipse rx="0.0410636" ry="0.0225421" transform="matrix(-0.644751 0.764392 -0.954382 -0.298589 250.544 96.7686)" fill="white"/>
<ellipse rx="0.0410636" ry="0.0225421" transform="matrix(-0.644751 0.764392 -0.954382 -0.298589 249.981 98.3381)" fill="white"/>
<ellipse rx="0.0410636" ry="0.0225421" transform="matrix(-0.644751 0.764392 -0.954382 -0.298589 252.212 97.3699)" fill="white" fill-opacity="0.43"/>
<ellipse rx="0.0410636" ry="0.0225421" transform="matrix(-0.644751 0.764392 -0.954382 -0.298589 253.496 95.074)" fill="white"/>
<ellipse rx="0.0646467" ry="0.0678105" transform="matrix(0.350241 -0.93666 0.949159 -0.314798 249.539 99.0993)" fill="white" fill-opacity="0.43"/>
<ellipse rx="0.0646467" ry="0.0678105" transform="matrix(0.350241 -0.93666 0.949159 -0.314798 250.331 99.8441)" fill="white" fill-opacity="0.43"/>
<ellipse rx="0.0646467" ry="0.0678105" transform="matrix(0.350241 -0.93666 0.949159 -0.314798 248.753 98.0336)" fill="white"/>
<ellipse rx="0.0323233" ry="0.0339052" transform="matrix(0.350241 -0.93666 0.949159 -0.314798 251.902 97.2281)" fill="white"/>
<ellipse rx="0.0323233" ry="0.0339052" transform="matrix(0.350241 -0.93666 0.949159 -0.314798 249.339 98.5025)" fill="white" fill-opacity="0.43"/>
<ellipse rx="0.0323233" ry="0.0339052" transform="matrix(0.350241 -0.93666 0.949159 -0.314798 250.805 98.6527)" fill="white"/>
<ellipse rx="0.0323233" ry="0.0339052" transform="matrix(0.350241 -0.93666 0.949159 -0.314798 250.402 97.6195)" fill="white"/>
<ellipse rx="0.0415759" ry="0.0215826" transform="matrix(0.669803 -0.742539 0.913039 0.407873 249.65 98.6474)" fill="white"/>
<ellipse rx="0.0415759" ry="0.0215826" transform="matrix(0.669803 -0.742539 0.913039 0.407873 248.816 98.1012)" fill="white"/>
<ellipse rx="0.0643499" ry="0.0680922" transform="matrix(-0.344882 0.938646 -0.947525 0.319681 256.223 104.857)" fill="white"/>
<ellipse rx="0.0321749" ry="0.0340461" transform="matrix(-0.344882 0.938646 -0.947525 0.319681 255.085 105.109)" fill="white"/>
<ellipse rx="0.0321749" ry="0.0340461" transform="matrix(-0.344882 0.938646 -0.947525 0.319681 256.383 105.729)" fill="white" fill-opacity="0.43"/>
<ellipse rx="0.0321749" ry="0.0340461" transform="matrix(-0.344882 0.938646 -0.947525 0.319681 256.364 103.936)" fill="white"/>
<ellipse rx="0.0609268" ry="0.0711715" transform="matrix(0.982642 -0.18551 -0.459802 0.888021 258.016 104.295)" fill="white" fill-opacity="0.43"/>
<ellipse rx="0.0609268" ry="0.0711715" transform="matrix(0.982642 -0.18551 -0.459802 0.888021 257.45 103.717)" fill="white"/>
<ellipse rx="0.0609268" ry="0.0711715" transform="matrix(0.982642 -0.18551 -0.459802 0.888021 256.256 105.71)" fill="white" fill-opacity="0.43"/>
<ellipse rx="0.0609268" ry="0.0711715" transform="matrix(0.982642 -0.18551 -0.459802 0.888021 260.2 102.685)" fill="white"/>
<ellipse rx="0.0304634" ry="0.0355857" transform="matrix(0.982642 -0.18551 -0.459802 0.888021 258.278 105.928)" fill="white"/>
<ellipse rx="0.0304634" ry="0.0355857" transform="matrix(0.982642 -0.18551 -0.459802 0.888021 256.695 104.915)" fill="white"/>
<ellipse rx="0.0304634" ry="0.0355857" transform="matrix(0.982642 -0.18551 -0.459802 0.888021 259.009 103.679)" fill="white" fill-opacity="0.43"/>
<ellipse rx="0.0304634" ry="0.0355857" transform="matrix(0.982642 -0.18551 -0.459802 0.888021 257.407 105.522)" fill="white"/>
<ellipse rx="0.0304634" ry="0.0355857" transform="matrix(0.982642 -0.18551 -0.459802 0.888021 259.183 104.388)" fill="white"/>
<ellipse rx="0.0304634" ry="0.0355857" transform="matrix(0.982642 -0.18551 -0.459802 0.888021 258.776 102.982)" fill="white" fill-opacity="0.43"/>
<ellipse rx="0.0304634" ry="0.0355857" transform="matrix(0.982642 -0.18551 -0.459802 0.888021 256.348 104.125)" fill="white"/>
<ellipse rx="0.0598109" ry="0.0721118" transform="matrix(-0.256705 0.96649 -0.921892 0.387446 257.336 106.223)" fill="white"/>
<ellipse rx="0.0299054" ry="0.0360559" transform="matrix(-0.256705 0.96649 -0.921892 0.387446 256.144 106.595)" fill="white"/>
<ellipse rx="0.0299054" ry="0.0360559" transform="matrix(-0.256705 0.96649 -0.921892 0.387446 257.632 106.997)" fill="white" fill-opacity="0.43"/>
<ellipse rx="0.0299054" ry="0.0360559" transform="matrix(-0.256705 0.96649 -0.921892 0.387446 257.356 105.367)" fill="white"/>
<ellipse rx="0.0784792" ry="0.0511709" transform="matrix(0.869057 -0.494712 -0.0370655 0.999313 259.617 94.4288)" fill="white" fill-opacity="0.43"/>
<ellipse rx="0.0784792" ry="0.0511709" transform="matrix(0.869057 -0.494712 -0.0370655 0.999313 258.549 94.4364)" fill="white"/>
<ellipse rx="0.0784792" ry="0.0511709" transform="matrix(0.869057 -0.494712 -0.0370655 0.999313 258.286 96.138)" fill="white" fill-opacity="0.43"/>
<ellipse rx="0.0392396" ry="0.0255854" transform="matrix(0.869057 -0.494712 -0.0370655 0.999313 260.96 95.1414)" fill="white"/>
<ellipse rx="0.0392396" ry="0.0255854" transform="matrix(0.869057 -0.494712 -0.0370655 0.999313 258.343 95.4795)" fill="white"/>
<ellipse rx="0.0392396" ry="0.0255854" transform="matrix(0.869057 -0.494712 -0.0370655 0.999313 260.484 93.5601)" fill="white" fill-opacity="0.43"/>
<ellipse rx="0.0392396" ry="0.0255854" transform="matrix(0.869057 -0.494712 -0.0370655 0.999313 259.615 95.4065)" fill="white"/>
<ellipse rx="0.0392396" ry="0.0255854" transform="matrix(0.869057 -0.494712 -0.0370655 0.999313 259.759 93.3223)" fill="white" fill-opacity="0.43"/>
<ellipse rx="0.0392396" ry="0.0255854" transform="matrix(0.869057 -0.494712 -0.0370655 0.999313 257.417 95.2559)" fill="white"/>
<ellipse rx="0.0421579" ry="0.083667" transform="matrix(0.393274 0.919421 -0.791044 0.611759 259.43 97.0482)" fill="white" fill-opacity="0.43"/>
<ellipse rx="0.0421579" ry="0.083667" transform="matrix(0.393274 0.919421 -0.791044 0.611759 259.959 95.8141)" fill="white"/>
<ellipse rx="0.0421579" ry="0.083667" transform="matrix(0.393274 0.919421 -0.791044 0.611759 257.858 97.2843)" fill="white" fill-opacity="0.43"/>
<ellipse rx="0.0421579" ry="0.083667" transform="matrix(0.393274 0.919421 -0.791044 0.611759 261.235 96.9425)" fill="white"/>
<ellipse rx="0.0210789" ry="0.0418335" transform="matrix(0.393274 0.919421 -0.791044 0.611759 257.818 99.3528)" fill="white"/>
<ellipse rx="0.0210789" ry="0.0418335" transform="matrix(0.393274 0.919421 -0.791044 0.611759 258.694 96.6639)" fill="white"/>
<ellipse rx="0.0210789" ry="0.0418335" transform="matrix(0.393274 0.919421 -0.791044 0.611759 260.134 97.149)" fill="white" fill-opacity="0.43"/>
<ellipse rx="0.0210789" ry="0.0418335" transform="matrix(0.393274 0.919421 -0.791044 0.611759 258.148 98.0657)" fill="white"/>
<ellipse rx="0.0210789" ry="0.0418335" transform="matrix(0.393274 0.919421 -0.791044 0.611759 259.44 98.202)" fill="white"/>
<ellipse rx="0.0210789" ry="0.0418335" transform="matrix(0.393274 0.919421 -0.791044 0.611759 260.812 96.0572)" fill="white" fill-opacity="0.43"/>
<ellipse rx="0.0210789" ry="0.0418335" transform="matrix(0.393274 0.919421 -0.791044 0.611759 259.454 95.3536)" fill="white"/>
<ellipse rx="0.0841197" ry="0.0412471" transform="matrix(-0.702931 0.711258 -0.82531 -0.564679 261.5 99.7033)" fill="white" fill-opacity="0.43"/>
<ellipse rx="0.0841197" ry="0.0412471" transform="matrix(-0.702931 0.711258 -0.82531 -0.564679 262.854 99.0256)" fill="white"/>
<ellipse rx="0.0841197" ry="0.0412471" transform="matrix(-0.702931 0.711258 -0.82531 -0.564679 261.977 98.1239)" fill="white" fill-opacity="0.43"/>
<ellipse rx="0.0841197" ry="0.0412471" transform="matrix(-0.702931 0.711258 -0.82531 -0.564679 260.737 101.688)" fill="white"/>
<ellipse rx="0.0420599" ry="0.0206236" transform="matrix(-0.702931 0.711258 -0.82531 -0.564679 259.283 100.243)" fill="white"/>
<ellipse rx="0.0420599" ry="0.0206236" transform="matrix(-0.702931 0.711258 -0.82531 -0.564679 262.373 98.445)" fill="white"/>
<ellipse rx="0.0420599" ry="0.0206236" transform="matrix(-0.702931 0.711258 -0.82531 -0.564679 261.016 100.626)" fill="white" fill-opacity="0.43"/>
<ellipse rx="0.0420599" ry="0.0206236" transform="matrix(-0.702931 0.711258 -0.82531 -0.564679 260.807 99.279)" fill="white"/>
<ellipse rx="0.0420599" ry="0.0206236" transform="matrix(-0.702931 0.711258 -0.82531 -0.564679 259.982 100.921)" fill="white"/>
<ellipse rx="0.0420599" ry="0.0206236" transform="matrix(-0.702931 0.711258 -0.82531 -0.564679 262.109 100.27)" fill="white" fill-opacity="0.43"/>
<ellipse rx="0.0420599" ry="0.0206236" transform="matrix(-0.702931 0.711258 -0.82531 -0.564679 263.711 97.9567)" fill="white"/>
<ellipse rx="0.0491391" ry="0.0797671" transform="matrix(-0.991798 -0.127815 0.598613 -0.801038 259.87 98.4535)" fill="#FFF2C9"/>
<ellipse rx="0.0491391" ry="0.0797671" transform="matrix(-0.991798 -0.127815 0.598613 -0.801038 260.077 99.3207)" fill="white"/>
<ellipse rx="0.0491391" ry="0.0797671" transform="matrix(-0.991798 -0.127815 0.598613 -0.801038 261.704 97.3588)" fill="white" fill-opacity="0.43"/>
<ellipse rx="0.0491391" ry="0.0797671" transform="matrix(-0.991798 -0.127815 0.598613 -0.801038 257.649 99.6383)" fill="white"/>
<ellipse rx="0.0245696" ry="0.0398836" transform="matrix(-0.991798 -0.127815 0.598613 -0.801038 260.28 96.4398)" fill="white"/>
<ellipse rx="0.0245696" ry="0.0398836" transform="matrix(-0.991798 -0.127815 0.598613 -0.801038 261.082 98.1544)" fill="white"/>
<ellipse rx="0.0245696" ry="0.0398836" transform="matrix(-0.991798 -0.127815 0.598613 -0.801038 258.903 98.8541)" fill="white" fill-opacity="0.43"/>
<ellipse rx="0.0245696" ry="0.0398836" transform="matrix(-0.991798 -0.127815 0.598613 -0.801038 260.777 97.2044)" fill="white"/>
<ellipse rx="0.0245696" ry="0.0398836" transform="matrix(-0.991798 -0.127815 0.598613 -0.801038 259.036 97.9608)" fill="white"/>
<ellipse rx="0.0245696" ry="0.0398836" transform="matrix(-0.991798 -0.127815 0.598613 -0.801038 258.818 99.754)" fill="white" fill-opacity="0.43"/>
<ellipse rx="0.0245696" ry="0.0398836" transform="matrix(-0.991798 -0.127815 0.598613 -0.801038 261.048 99.2008)" fill="white"/>
<ellipse rx="0.0405951" ry="0.0844363" transform="matrix(0.581733 0.81338 -0.758111 0.652126 263.762 99.727)" fill="white" fill-opacity="0.43"/>
<ellipse rx="0.0405951" ry="0.0844363" transform="matrix(0.581733 0.81338 -0.758111 0.652126 264.152 98.538)" fill="white"/>
<ellipse rx="0.0405951" ry="0.0844363" transform="matrix(0.581733 0.81338 -0.758111 0.652126 262.097 100.146)" fill="white" fill-opacity="0.43"/>
<ellipse rx="0.0202975" ry="0.0422182" transform="matrix(0.581733 0.81338 -0.758111 0.652126 262.358 102.028)" fill="white"/>
<ellipse rx="0.0202975" ry="0.0422182" transform="matrix(0.581733 0.81338 -0.758111 0.652126 262.909 99.474)" fill="white"/>
<ellipse rx="0.0202975" ry="0.0422182" transform="matrix(0.581733 0.81338 -0.758111 0.652126 264.537 99.7269)" fill="white" fill-opacity="0.43"/>
<ellipse rx="0.0202975" ry="0.0422182" transform="matrix(0.581733 0.81338 -0.758111 0.652126 262.526 100.817)" fill="white"/>
<ellipse rx="0.0202975" ry="0.0422182" transform="matrix(0.581733 0.81338 -0.758111 0.652126 263.941 100.773)" fill="white"/>
<ellipse rx="0.0202975" ry="0.0422182" transform="matrix(0.581733 0.81338 -0.758111 0.652126 263.539 98.1859)" fill="white"/>
<ellipse rx="0.0830033" ry="0.04345" transform="matrix(-0.665804 0.746127 -0.920924 -0.389741 260.517 102.447)" fill="white" fill-opacity="0.43"/>
<ellipse rx="0.0830033" ry="0.04345" transform="matrix(-0.665804 0.746127 -0.920924 -0.389741 261.881 101.659)" fill="white"/>
<ellipse rx="0.0830033" ry="0.04345" transform="matrix(-0.665804 0.746127 -0.920924 -0.389741 260.806 100.949)" fill="white" fill-opacity="0.43"/>
<ellipse rx="0.0830033" ry="0.04345" transform="matrix(-0.665804 0.746127 -0.920924 -0.389741 259.975 104.351)" fill="white"/>
<ellipse rx="0.0415017" ry="0.021725" transform="matrix(-0.665804 0.746127 -0.920924 -0.389741 258.203 103.217)" fill="white"/>
<ellipse rx="0.0415017" ry="0.021725" transform="matrix(-0.665804 0.746127 -0.920924 -0.389741 261.279 101.191)" fill="white"/>
<ellipse rx="0.0415017" ry="0.021725" transform="matrix(-0.665804 0.746127 -0.920924 -0.389741 260.126 103.348)" fill="white" fill-opacity="0.43"/>
<ellipse rx="0.0415017" ry="0.021725" transform="matrix(-0.665804 0.746127 -0.920924 -0.389741 259.709 102.148)" fill="white"/>
<ellipse rx="0.0415017" ry="0.021725" transform="matrix(-0.665804 0.746127 -0.920924 -0.389741 259.053 103.747)" fill="white"/>
<ellipse rx="0.0415017" ry="0.021725" transform="matrix(-0.665804 0.746127 -0.920924 -0.389741 261.254 102.887)" fill="white" fill-opacity="0.43"/>
<ellipse rx="0.0415017" ry="0.021725" transform="matrix(-0.665804 0.746127 -0.920924 -0.389741 262.653 100.578)" fill="white"/>
<ellipse rx="0.0765686" ry="0.053988" transform="matrix(-0.887125 0.46153 0.11905 -0.992888 257.295 103.502)" fill="white" fill-opacity="0.43"/>
<ellipse rx="0.0765686" ry="0.053988" transform="matrix(-0.887125 0.46153 0.11905 -0.992888 258.304 103.579)" fill="white"/>
<ellipse rx="0.0765686" ry="0.053988" transform="matrix(-0.887125 0.46153 0.11905 -0.992888 258.707 101.812)" fill="white" fill-opacity="0.43"/>
<ellipse rx="0.0765686" ry="0.053988" transform="matrix(-0.887125 0.46153 0.11905 -0.992888 255.461 105.511)" fill="white"/>
<ellipse rx="0.0382843" ry="0.026994" transform="matrix(-0.887125 0.46153 0.11905 -0.992888 256.092 102.645)" fill="white"/>
<ellipse rx="0.0382843" ry="0.026994" transform="matrix(-0.887125 0.46153 0.11905 -0.992888 258.593 102.499)" fill="white"/>
<ellipse rx="0.0382843" ry="0.026994" transform="matrix(-0.887125 0.46153 0.11905 -0.992888 256.397 104.345)" fill="white" fill-opacity="0.43"/>
<ellipse rx="0.0382843" ry="0.026994" transform="matrix(-0.887125 0.46153 0.11905 -0.992888 257.386 102.474)" fill="white"/>
<ellipse rx="0.0382843" ry="0.026994" transform="matrix(-0.887125 0.46153 0.11905 -0.992888 255.802 104.002)" fill="white"/>
<ellipse rx="0.0382843" ry="0.026994" transform="matrix(-0.887125 0.46153 0.11905 -0.992888 257.061 104.653)" fill="white" fill-opacity="0.43"/>
<ellipse rx="0.0382843" ry="0.026994" transform="matrix(-0.887125 0.46153 0.11905 -0.992888 259.447 102.808)" fill="white"/>
<ellipse rx="0.0437952" ry="0.0828217" transform="matrix(-0.277252 -0.960797 0.810659 -0.585518 257.709 100.763)" fill="white" fill-opacity="0.43"/>
<ellipse rx="0.0437952" ry="0.0828217" transform="matrix(-0.277252 -0.960797 0.810659 -0.585518 257.097 102.018)" fill="white"/>
<ellipse rx="0.0437952" ry="0.0828217" transform="matrix(-0.277252 -0.960797 0.810659 -0.585518 259.215 100.641)" fill="white" fill-opacity="0.43"/>
<ellipse rx="0.0437952" ry="0.0828217" transform="matrix(-0.277252 -0.960797 0.810659 -0.585518 255.995 100.729)" fill="#FFF2C9"/>
<ellipse rx="0.0218976" ry="0.0414108" transform="matrix(-0.277252 -0.960797 0.810659 -0.585518 259.44 98.4696)" fill="white"/>
<ellipse rx="0.0218976" ry="0.0414108" transform="matrix(-0.277252 -0.960797 0.810659 -0.585518 258.37 101.226)" fill="white"/>
<ellipse rx="0.0218976" ry="0.0414108" transform="matrix(-0.277252 -0.960797 0.810659 -0.585518 257.053 100.6)" fill="white" fill-opacity="0.43"/>
<ellipse rx="0.0218976" ry="0.0414108" transform="matrix(-0.277252 -0.960797 0.810659 -0.585518 259.012 99.796)" fill="white"/>
<ellipse rx="0.0218976" ry="0.0414108" transform="matrix(-0.277252 -0.960797 0.810659 -0.585518 257.805 99.5494)" fill="white"/>
<ellipse rx="0.0218976" ry="0.0414108" transform="matrix(-0.277252 -0.960797 0.810659 -0.585518 256.314 101.694)" fill="white" fill-opacity="0.43"/>
<ellipse rx="0.0218976" ry="0.0414108" transform="matrix(-0.277252 -0.960797 0.810659 -0.585518 257.532 102.543)" fill="white"/>
<ellipse rx="0.0311187" ry="0.0350141" transform="matrix(-0.305412 0.95222 -0.935738 0.352695 258.432 91.9722)" fill="white"/>
<ellipse rx="0.0837225" ry="0.0420476" transform="matrix(-0.687228 0.726442 -0.872144 -0.489249 257.505 92.7302)" fill="white" fill-opacity="0.43"/>
<ellipse rx="0.0837225" ry="0.0420476" transform="matrix(-0.687228 0.726442 -0.872144 -0.489249 258.865 92.0041)" fill="white"/>
<ellipse rx="0.0837225" ry="0.0420476" transform="matrix(-0.687228 0.726442 -0.872144 -0.489249 256.836 94.6828)" fill="white"/>
<ellipse rx="0.0418612" ry="0.0210238" transform="matrix(-0.687228 0.726442 -0.872144 -0.489249 255.243 93.3702)" fill="white"/>
<ellipse rx="0.0418612" ry="0.0210238" transform="matrix(-0.687228 0.726442 -0.872144 -0.489249 257.06 93.6449)" fill="white" fill-opacity="0.43"/>
<ellipse rx="0.0418612" ry="0.0210238" transform="matrix(-0.687228 0.726442 -0.872144 -0.489249 256.761 92.3597)" fill="white"/>
<ellipse rx="0.0418612" ry="0.0210238" transform="matrix(-0.687228 0.726442 -0.872144 -0.489249 256.008 93.9855)" fill="white"/>
<ellipse rx="0.0418612" ry="0.0210238" transform="matrix(-0.687228 0.726442 -0.872144 -0.489249 258.17 93.2433)" fill="white" fill-opacity="0.43"/>
<ellipse rx="0.0509515" ry="0.0786219" transform="matrix(-0.997778 -0.0666346 0.578784 -0.815481 256.008 92.4396)" fill="white"/>
<ellipse rx="0.0254757" ry="0.0393109" transform="matrix(-0.997778 -0.0666346 0.578784 -0.815481 254.732 92.925)" fill="white" fill-opacity="0.43"/>
<ellipse rx="0.0254757" ry="0.0393109" transform="matrix(-0.997778 -0.0666346 0.578784 -0.815481 257.006 92.2709)" fill="white"/>
<ellipse rx="0.0681097" ry="0.0643313" transform="matrix(0.947422 -0.319985 -0.344545 0.93877 257.961 105.251)" fill="white"/>
<ellipse rx="0.0340548" ry="0.0321657" transform="matrix(0.947422 -0.319985 -0.344545 0.93877 256.855 106.338)" fill="white" fill-opacity="0.43"/>
<ellipse rx="0.0340548" ry="0.0321657" transform="matrix(0.947422 -0.319985 -0.344545 0.93877 257.212 106.906)" fill="white"/>
<ellipse rx="0.0340548" ry="0.0321657" transform="matrix(0.947422 -0.319985 -0.344545 0.93877 256.433 105.793)" fill="white" fill-opacity="0.43"/>
<ellipse rx="0.0231546" ry="0.0407213" transform="matrix(-0.970639 -0.240541 0.630261 -0.776383 256.991 107.637)" fill="white"/>
<ellipse rx="0.0739795" ry="0.0574846" transform="matrix(0.504128 -0.863629 0.993903 -0.110257 258.769 105.107)" fill="white"/>
<ellipse rx="0.0369898" ry="0.0287423" transform="matrix(0.504128 -0.863629 0.993903 -0.110257 259.074 105.82)" fill="white" fill-opacity="0.43"/>
<ellipse rx="0.0369898" ry="0.0287423" transform="matrix(0.504128 -0.863629 0.993903 -0.110257 260.189 105.099)" fill="white"/>
<ellipse rx="0.0369898" ry="0.0287423" transform="matrix(0.504128 -0.863629 0.993903 -0.110257 257.921 106.606)" fill="white" fill-opacity="0.43"/>
<ellipse rx="0.0692836" ry="0.0630654" transform="matrix(0.940389 -0.3401 -0.321172 0.947021 261.507 101.368)" fill="white" fill-opacity="0.43"/>
<ellipse rx="0.0692836" ry="0.0630654" transform="matrix(0.940389 -0.3401 -0.321172 0.947021 260.708 101.028)" fill="white"/>
<ellipse rx="0.0692836" ry="0.0630654" transform="matrix(0.940389 -0.3401 -0.321172 0.947021 259.884 102.95)" fill="white" fill-opacity="0.43"/>
<ellipse rx="0.0692836" ry="0.0630654" transform="matrix(0.940389 -0.3401 -0.321172 0.947021 263.561 99.5247)" fill="white"/>
<ellipse rx="0.0346418" ry="0.0315327" transform="matrix(0.940389 -0.3401 -0.321172 0.947021 262.245 102.647)" fill="white"/>
<ellipse rx="0.0346418" ry="0.0315327" transform="matrix(0.940389 -0.3401 -0.321172 0.947021 260.17 102.192)" fill="white"/>
<ellipse rx="0.0346418" ry="0.0315327" transform="matrix(0.940389 -0.3401 -0.321172 0.947021 262.473 100.626)" fill="white" fill-opacity="0.43"/>
<ellipse rx="0.0346418" ry="0.0315327" transform="matrix(0.940389 -0.3401 -0.321172 0.947021 261.145 102.521)" fill="white"/>
<ellipse rx="0.0346418" ry="0.0315327" transform="matrix(0.940389 -0.3401 -0.321172 0.947021 262.862 101.166)" fill="white"/>
<ellipse rx="0.0346418" ry="0.0315327" transform="matrix(0.940389 -0.3401 -0.321172 0.947021 262.02 100.108)" fill="white" fill-opacity="0.43"/>
<ellipse rx="0.0346418" ry="0.0315327" transform="matrix(0.940389 -0.3401 -0.321172 0.947021 259.562 101.626)" fill="white"/>
<ellipse rx="0.0511853" ry="0.0784699" transform="matrix(-0.0375182 0.999296 -0.869152 0.494544 260.403 104.398)" fill="white" fill-opacity="0.43"/>
<ellipse rx="0.0511853" ry="0.0784699" transform="matrix(-0.0375182 0.999296 -0.869152 0.494544 261.252 103.114)" fill="white"/>
<ellipse rx="0.0511853" ry="0.0784699" transform="matrix(-0.0375182 0.999296 -0.869152 0.494544 259.143 104.164)" fill="white" fill-opacity="0.43"/>
<ellipse rx="0.0255926" ry="0.0392349" transform="matrix(-0.0375182 0.999296 -0.869152 0.494544 258.351 106.592)" fill="white"/>
<ellipse rx="0.0255926" ry="0.0392349" transform="matrix(-0.0375182 0.999296 -0.869152 0.494544 259.995 103.704)" fill="white"/>
<ellipse rx="0.0255926" ry="0.0392349" transform="matrix(-0.0375182 0.999296 -0.869152 0.494544 259.072 105.18)" fill="white"/>
<ellipse rx="0.0255926" ry="0.0392349" transform="matrix(-0.0375182 0.999296 -0.869152 0.494544 261.798 103.679)" fill="white" fill-opacity="0.43"/>
<ellipse rx="0.0255926" ry="0.0392349" transform="matrix(-0.0375182 0.999296 -0.869152 0.494544 261.045 102.406)" fill="white"/>
<ellipse rx="0.0700316" ry="0.0622336" transform="matrix(0.441526 -0.897248 0.977294 -0.211887 261.328 99.3336)" fill="white" fill-opacity="0.43"/>
<ellipse rx="0.0700316" ry="0.0622336" transform="matrix(0.441526 -0.897248 0.977294 -0.211887 260.104 100.497)" fill="white"/>
<ellipse rx="0.0700316" ry="0.0622336" transform="matrix(0.441526 -0.897248 0.977294 -0.211887 261.896 100.277)" fill="white" fill-opacity="0.43"/>
<ellipse rx="0.0700316" ry="0.0622336" transform="matrix(0.441526 -0.897248 0.977294 -0.211887 260.824 98.0397)" fill="white"/>
<ellipse rx="0.0350158" ry="0.0311168" transform="matrix(0.441526 -0.897248 0.977294 -0.211887 263.756 97.6566)" fill="white"/>
<ellipse rx="0.0350158" ry="0.0311168" transform="matrix(0.441526 -0.897248 0.977294 -0.211887 261.152 100.41)" fill="white"/>
<ellipse rx="0.0350158" ry="0.0311168" transform="matrix(0.441526 -0.897248 0.977294 -0.211887 261.259 98.647)" fill="white" fill-opacity="0.43"/>
<ellipse rx="0.0350158" ry="0.0311168" transform="matrix(0.441526 -0.897248 0.977294 -0.211887 262.53 99.0452)" fill="white"/>
<ellipse rx="0.0350158" ry="0.0311168" transform="matrix(0.441526 -0.897248 0.977294 -0.211887 262.358 97.8475)" fill="white"/>
<ellipse rx="0.0350158" ry="0.0311168" transform="matrix(0.441526 -0.897248 0.977294 -0.211887 260.128 99.5098)" fill="white" fill-opacity="0.43"/>
<ellipse rx="0.0350158" ry="0.0311168" transform="matrix(0.441526 -0.897248 0.977294 -0.211887 259.806 101.488)" fill="white"/>
<ellipse rx="0.0731857" ry="0.0584919" transform="matrix(0.914229 -0.405197 -0.228406 0.973566 264.34 98.7563)" fill="white" fill-opacity="0.43"/>
<ellipse rx="0.0731857" ry="0.0584919" transform="matrix(0.914229 -0.405197 -0.228406 0.973566 263.43 98.5473)" fill="white"/>
<ellipse rx="0.0731857" ry="0.0584919" transform="matrix(0.914229 -0.405197 -0.228406 0.973566 262.815 100.402)" fill="white" fill-opacity="0.43"/>
<ellipse rx="0.0365929" ry="0.0292459" transform="matrix(0.914229 -0.405197 -0.228406 0.973566 263.015 99.675)" fill="white"/>
<ellipse rx="0.0365929" ry="0.0292459" transform="matrix(0.914229 -0.405197 -0.228406 0.973566 264.113 99.8518)" fill="white"/>
<ellipse rx="0.0365929" ry="0.0292459" transform="matrix(0.914229 -0.405197 -0.228406 0.973566 262.279 99.2358)" fill="white"/>
<ellipse rx="0.044178" ry="0.0826181" transform="matrix(0.937957 0.346752 -0.656094 0.754679 263.866 101.166)" fill="white" fill-opacity="0.43"/>
<ellipse rx="0.022089" ry="0.0413091" transform="matrix(0.937957 0.346752 -0.656094 0.754679 264.565 100.394)" fill="white"/>
<ellipse rx="0.0761567" ry="0.0545675" transform="matrix(-0.538514 0.842616 -0.999276 0.0380438 262.65 102.202)" fill="white" fill-opacity="0.43"/>
<ellipse rx="0.0380783" ry="0.0272837" transform="matrix(-0.538514 0.842616 -0.999276 0.0380438 260.457 104.759)" fill="white"/>
<ellipse rx="0.0380783" ry="0.0272837" transform="matrix(-0.538514 0.842616 -0.999276 0.0380438 263.311 102.208)" fill="white"/>
<ellipse rx="0.0380783" ry="0.0272837" transform="matrix(-0.538514 0.842616 -0.999276 0.0380438 261.823 103.455)" fill="white"/>
<ellipse rx="0.0735941" ry="0.0579773" transform="matrix(-0.49807 0.867137 -0.992577 0.121616 261.47 94.8919)" fill="white"/>
<ellipse rx="0.036797" ry="0.0289886" transform="matrix(-0.49807 0.867137 -0.992577 0.121616 258.728 94.9607)" fill="white"/>
<ellipse rx="0.036797" ry="0.0289886" transform="matrix(-0.49807 0.867137 -0.992577 0.121616 261.151 94.1895)" fill="white" fill-opacity="0.43"/>
<ellipse rx="0.036797" ry="0.0289886" transform="matrix(-0.49807 0.867137 -0.992577 0.121616 260.037 93.614)" fill="white"/>
<ellipse rx="0.036797" ry="0.0289886" transform="matrix(-0.49807 0.867137 -0.992577 0.121616 260.036 94.9192)" fill="white"/>
<ellipse rx="0.0695783" ry="0.0627401" transform="matrix(-0.938566 0.345099 0.315027 -0.949083 258.338 93.7128)" fill="white" fill-opacity="0.43"/>
<ellipse rx="0.0695783" ry="0.0627401" transform="matrix(-0.938566 0.345099 0.315027 -0.949083 259.145 94.0433)" fill="white"/>
<ellipse rx="0.0695783" ry="0.0627401" transform="matrix(-0.938566 0.345099 0.315027 -0.949083 256.29 95.5636)" fill="white"/>
<ellipse rx="0.0347891" ry="0.03137" transform="matrix(-0.938566 0.345099 0.315027 -0.949083 257.582 92.4485)" fill="white"/>
<ellipse rx="0.0347891" ry="0.03137" transform="matrix(-0.938566 0.345099 0.315027 -0.949083 259.674 92.8816)" fill="white"/>
<ellipse rx="0.0347891" ry="0.03137" transform="matrix(-0.938566 0.345099 0.315027 -0.949083 257.373 94.4595)" fill="white" fill-opacity="0.43"/>
<ellipse rx="0.0347891" ry="0.03137" transform="matrix(-0.938566 0.345099 0.315027 -0.949083 258.69 92.5638)" fill="white"/>
<ellipse rx="0.0347891" ry="0.03137" transform="matrix(-0.938566 0.345099 0.315027 -0.949083 256.977 93.9256)" fill="white"/>
<ellipse rx="0.0347891" ry="0.03137" transform="matrix(-0.938566 0.345099 0.315027 -0.949083 257.834 94.9695)" fill="white" fill-opacity="0.43"/>
<ellipse rx="0.0347891" ry="0.03137" transform="matrix(-0.938566 0.345099 0.315027 -0.949083 260.292 93.4385)" fill="white"/>
<ellipse rx="0.050726" ry="0.0787675" transform="matrix(0.0228458 -0.999739 0.866086 -0.499894 252.741 96.325)" fill="white" fill-opacity="0.43"/>
<ellipse rx="0.050726" ry="0.0787675" transform="matrix(0.0228458 -0.999739 0.866086 -0.499894 251.904 97.6089)" fill="white"/>
<ellipse rx="0.050726" ry="0.0787675" transform="matrix(0.0228458 -0.999739 0.866086 -0.499894 254.015 96.5403)" fill="white" fill-opacity="0.43"/>
<ellipse rx="0.050726" ry="0.0787675" transform="matrix(0.0228458 -0.999739 0.866086 -0.499894 251.337 95.884)" fill="white"/>
<ellipse rx="0.025363" ry="0.0393837" transform="matrix(0.0228458 -0.999739 0.866086 -0.499894 254.777 94.1237)" fill="white"/>
<ellipse rx="0.025363" ry="0.0393837" transform="matrix(0.0228458 -0.999739 0.866086 -0.499894 253.163 97.0072)" fill="white"/>
<ellipse rx="0.025363" ry="0.0393837" transform="matrix(0.0228458 -0.999739 0.866086 -0.499894 252.244 95.9865)" fill="white" fill-opacity="0.43"/>
<ellipse rx="0.025363" ry="0.0393837" transform="matrix(0.0228458 -0.999739 0.866086 -0.499894 254.072 95.5319)" fill="white"/>
<ellipse rx="0.025363" ry="0.0393837" transform="matrix(0.0228458 -0.999739 0.866086 -0.499894 253.142 94.9674)" fill="white"/>
<ellipse rx="0.025363" ry="0.0393837" transform="matrix(0.0228458 -0.999739 0.866086 -0.499894 251.344 97.056)" fill="white" fill-opacity="0.43"/>
<ellipse rx="0.025363" ry="0.0393837" transform="matrix(0.0228458 -0.999739 0.866086 -0.499894 252.123 98.3077)" fill="white"/>
<ellipse rx="0.0837779" ry="0.0419371" transform="matrix(0.78781 -0.615918 0.412391 0.911007 256.164 94.4163)" fill="white" fill-opacity="0.43"/>
<ellipse rx="0.0837779" ry="0.0419371" transform="matrix(0.78781 -0.615918 0.412391 0.911007 254.901 94.7835)" fill="white"/>
<ellipse rx="0.0837779" ry="0.0419371" transform="matrix(0.78781 -0.615918 0.412391 0.911007 255.239 96.1226)" fill="white" fill-opacity="0.43"/>
<ellipse rx="0.0837779" ry="0.0419371" transform="matrix(0.78781 -0.615918 0.412391 0.911007 257.451 92.324)" fill="white"/>
<ellipse rx="0.0418889" ry="0.0209685" transform="matrix(0.78781 -0.615918 0.412391 0.911007 258.027 94.4855)" fill="white"/>
<ellipse rx="0.0418889" ry="0.0209685" transform="matrix(0.78781 -0.615918 0.412391 0.911007 255.056 95.6193)" fill="white"/>
<ellipse rx="0.0418889" ry="0.0209685" transform="matrix(0.78781 -0.615918 0.412391 0.911007 256.859 93.4848)" fill="white" fill-opacity="0.43"/>
<ellipse rx="0.0418889" ry="0.0209685" transform="matrix(0.78781 -0.615918 0.412391 0.911007 256.534 95.1356)" fill="white"/>
<ellipse rx="0.0418889" ry="0.0209685" transform="matrix(0.78781 -0.615918 0.412391 0.911007 257.744 93.4655)" fill="white"/>
<ellipse rx="0.0418889" ry="0.0209685" transform="matrix(0.78781 -0.615918 0.412391 0.911007 255.909 93.5558)" fill="white" fill-opacity="0.43"/>
<ellipse rx="0.0418889" ry="0.0209685" transform="matrix(0.78781 -0.615918 0.412391 0.911007 253.872 95.7687)" fill="white"/>
<ellipse rx="0.0735769" ry="0.057999" transform="matrix(-0.911338 0.411658 0.217454 -0.97607 249.99 98.6729)" fill="white" fill-opacity="0.43"/>
<ellipse rx="0.0735769" ry="0.057999" transform="matrix(-0.911338 0.411658 0.217454 -0.97607 250.912 98.8675)" fill="white"/>
<ellipse rx="0.0735769" ry="0.057999" transform="matrix(-0.911338 0.411658 0.217454 -0.97607 251.504 97.0218)" fill="white" fill-opacity="0.43"/>
<ellipse rx="0.0367885" ry="0.0289995" transform="matrix(-0.911338 0.411658 0.217454 -0.97607 251.313 97.7447)" fill="white"/>
<ellipse rx="0.0367885" ry="0.0289995" transform="matrix(-0.911338 0.411658 0.217454 -0.97607 250.203 97.584)" fill="white"/>
<ellipse rx="0.0367885" ry="0.0289995" transform="matrix(-0.911338 0.411658 0.217454 -0.97607 252.063 98.1697)" fill="white"/>
<ellipse rx="0.0467174" ry="0.0812092" transform="matrix(-0.127394 -0.991852 0.836964 -0.547257 249.993 97.0647)" fill="white"/>
<ellipse rx="0.0467174" ry="0.0812092" transform="matrix(-0.127394 -0.991852 0.836964 -0.547257 252.118 95.826)" fill="white" fill-opacity="0.43"/>
<ellipse rx="0.0233587" ry="0.0406046" transform="matrix(-0.127394 -0.991852 0.836964 -0.547257 251.266 96.3584)" fill="white"/>
<ellipse rx="0.0233587" ry="0.0406046" transform="matrix(-0.127394 -0.991852 0.836964 -0.547257 250.329 97.6736)" fill="#FFF2C9"/>
<ellipse rx="0.0758063" ry="0.0550533" transform="matrix(0.53294 -0.846153 0.998713 -0.0507185 253.635 93.8032)" fill="white" fill-opacity="0.43"/>
<ellipse rx="0.0669041" ry="0.0655842" transform="matrix(0.954278 -0.298921 -0.366905 0.930259 256.064 92.5837)" fill="white" fill-opacity="0.43"/>
<ellipse rx="0.0669041" ry="0.0655842" transform="matrix(0.954278 -0.298921 -0.366905 0.930259 255.331 92.1716)" fill="white"/>
<ellipse rx="0.0669041" ry="0.0655842" transform="matrix(0.954278 -0.298921 -0.366905 0.930259 254.394 94.1228)" fill="white" fill-opacity="0.43"/>
<ellipse rx="0.0334521" ry="0.0327921" transform="matrix(0.954278 -0.298921 -0.366905 0.930259 256.663 93.9736)" fill="white"/>
<ellipse rx="0.0334521" ry="0.0327921" transform="matrix(0.954278 -0.298921 -0.366905 0.930259 254.726 93.3503)" fill="white"/>
<ellipse rx="0.0334521" ry="0.0327921" transform="matrix(0.954278 -0.298921 -0.366905 0.930259 257.042 91.8762)" fill="white" fill-opacity="0.43"/>
<ellipse rx="0.0334521" ry="0.0327921" transform="matrix(0.954278 -0.298921 -0.366905 0.930259 255.627 93.7634)" fill="white"/>
<ellipse rx="0.0334521" ry="0.0327921" transform="matrix(0.954278 -0.298921 -0.366905 0.930259 257.368 92.4692)" fill="white"/>
<ellipse rx="0.0394318" ry="0.0252882" transform="matrix(-0.865078 0.501637 0.0179718 -0.999838 264.038 101.141)" fill="white"/>
<ellipse rx="0.0418654" ry="0.0838137" transform="matrix(-0.41887 -0.908046 0.786712 -0.61732 263.724 99.3661)" fill="white"/>
<ellipse rx="0.0209327" ry="0.0419069" transform="matrix(-0.41887 -0.908046 0.786712 -0.61732 264.169 100.233)" fill="white" fill-opacity="0.43"/>
<ellipse rx="0.0840063" ry="0.0414775" transform="matrix(0.697939 -0.716157 0.841282 0.540597 263.402 96.6422)" fill="white" fill-opacity="0.43"/>
<ellipse rx="0.0840063" ry="0.0414775" transform="matrix(0.697939 -0.716157 0.841282 0.540597 262.045 97.3358)" fill="white"/>
<ellipse rx="0.0840063" ry="0.0414775" transform="matrix(0.697939 -0.716157 0.841282 0.540597 262.951 98.2113)" fill="white" fill-opacity="0.43"/>
<ellipse rx="0.0420032" ry="0.0207388" transform="matrix(0.697939 -0.716157 0.841282 0.540597 262.544 97.9011)" fill="white"/>
<ellipse rx="0.0420032" ry="0.0207388" transform="matrix(0.697939 -0.716157 0.841282 0.540597 262.774 96.0925)" fill="white" fill-opacity="0.43"/>
<ellipse rx="0.0420032" ry="0.0207388" transform="matrix(0.697939 -0.716157 0.841282 0.540597 261.2 98.4069)" fill="white"/>
<ellipse rx="0.0497116" ry="0.0794116" transform="matrix(0.994181 0.107719 -0.592344 0.805685 263.242 98.9629)" fill="white" fill-opacity="0.43"/>
<ellipse rx="0.0248558" ry="0.0397058" transform="matrix(0.994181 0.107719 -0.592344 0.805685 264.7 99.8462)" fill="white"/>
<ellipse rx="0.0248558" ry="0.0397058" transform="matrix(0.994181 0.107719 -0.592344 0.805685 263.855 98.1658)" fill="white"/>
<ellipse rx="0.0248558" ry="0.0397058" transform="matrix(0.994181 0.107719 -0.592344 0.805685 264.182 99.0991)" fill="white"/>
<ellipse rx="0.0248558" ry="0.0397058" transform="matrix(0.994181 0.107719 -0.592344 0.805685 263.868 97.1311)" fill="white"/>
<ellipse rx="0.0404998" ry="0.084482" transform="matrix(-0.605925 -0.795522 0.753574 -0.657363 261.113 96.6583)" fill="white" fill-opacity="0.43"/>
<ellipse rx="0.0404998" ry="0.084482" transform="matrix(-0.605925 -0.795522 0.753574 -0.657363 260.742 97.8402)" fill="white"/>
<ellipse rx="0.0404998" ry="0.084482" transform="matrix(-0.605925 -0.795522 0.753574 -0.657363 262.789 96.2152)" fill="white" fill-opacity="0.43"/>
<ellipse rx="0.0404998" ry="0.084482" transform="matrix(-0.605925 -0.795522 0.753574 -0.657363 259.162 97.0189)" fill="white"/>
<ellipse rx="0.0202499" ry="0.042241" transform="matrix(-0.605925 -0.795522 0.753574 -0.657363 261.981 96.8934)" fill="white"/>
<ellipse rx="0.0202499" ry="0.042241" transform="matrix(-0.605925 -0.795522 0.753574 -0.657363 260.329 96.6719)" fill="white" fill-opacity="0.43"/>
<ellipse rx="0.0202499" ry="0.042241" transform="matrix(-0.605925 -0.795522 0.753574 -0.657363 262.342 95.5592)" fill="white"/>
<ellipse rx="0.0202499" ry="0.042241" transform="matrix(-0.605925 -0.795522 0.753574 -0.657363 260.911 95.628)" fill="white"/>
<ellipse rx="0.0202499" ry="0.042241" transform="matrix(-0.605925 -0.795522 0.753574 -0.657363 259.771 97.7484)" fill="white" fill-opacity="0.43"/>
<ellipse rx="0.0202499" ry="0.042241" transform="matrix(-0.605925 -0.795522 0.753574 -0.657363 261.369 98.1776)" fill="white"/>
<ellipse rx="0.0491391" ry="0.0797671" transform="matrix(-0.991798 -0.127815 0.598613 -0.801038 263.951 97.6452)" fill="white" fill-opacity="0.43"/>
<ellipse rx="0.0350158" ry="0.0311168" transform="matrix(0.441526 -0.897248 0.977294 -0.211887 264.606 98.1336)" fill="white"/>
<ellipse rx="0.0840063" ry="0.0414775" transform="matrix(0.697939 -0.716157 0.841282 0.540597 264.292 97.6219)" fill="white"/>
<ellipse rx="0.0202499" ry="0.042241" transform="matrix(-0.605925 -0.795522 0.753574 -0.657363 263.617 98.4637)" fill="white"/>
<ellipse rx="0.041397" ry="0.0219238" transform="matrix(0.66042 -0.750896 0.930727 0.365716 262.218 95.7977)" fill="white"/>
<ellipse opacity="0.5" rx="0.396334" ry="0.68221" transform="matrix(0.992776 -0.119982 0.0480367 0.998845 261.926 99.4893)" fill="#FFDDC1"/>
</g>
</mask>
<g mask="url(#mask0)">
<ellipse cx="257.592" cy="98.96" rx="7.10527" ry="5.79185" transform="rotate(50.9975 257.592 98.96)" fill="#C4C4C4"/>
</g>
<defs>
<filter id="filter0_i" x="251.307" y="91.7473" width="13.3329" height="19.5767" filterUnits="userSpaceOnUse" color-interpolation-filters="sRGB">
<feFlood flood-opacity="0" result="BackgroundImageFix"/>
<feBlend mode="normal" in="SourceGraphic" in2="BackgroundImageFix" result="shape"/>
<feColorMatrix in="SourceAlpha" type="matrix" values="0 0 0 0 0 0 0 0 0 0 0 0 0 0 0 0 0 0 127 0" result="hardAlpha"/>
<feOffset dy="6"/>
<feGaussianBlur stdDeviation="4"/>
<feComposite in2="hardAlpha" operator="arithmetic" k2="-1" k3="1"/>
<feColorMatrix type="matrix" values="0 0 0 0 0 0 0 0 0 0 0 0 0 0 0 0 0 0 0.5 0"/>
<feBlend mode="normal" in2="shape" result="effect1_innerShadow"/>
</filter>
<filter id="filter1_d" x="245.119" y="88.7358" width="24.4576" height="24.679" filterUnits="userSpaceOnUse" color-interpolation-filters="sRGB">
<feFlood flood-opacity="0" result="BackgroundImageFix"/>
<feColorMatrix in="SourceAlpha" type="matrix" values="0 0 0 0 0 0 0 0 0 0 0 0 0 0 0 0 0 0 127 0"/>
<feOffset dy="2"/>
<feGaussianBlur stdDeviation="3"/>
<feColorMatrix type="matrix" values="0 0 0 0 0 0 0 0 0 0 0 0 0 0 0 0 0 0 0.4 0"/>
<feBlend mode="normal" in2="BackgroundImageFix" result="effect1_dropShadow"/>
<feBlend mode="normal" in="SourceGraphic" in2="effect1_dropShadow" result="shape"/>
</filter>
<filter id="filter2_df" x="84.8071" y="0.695557" width="205.001" height="208.724" filterUnits="userSpaceOnUse" color-interpolation-filters="sRGB">
<feFlood flood-opacity="0" result="BackgroundImageFix"/>
<feColorMatrix in="SourceAlpha" type="matrix" values="0 0 0 0 0 0 0 0 0 0 0 0 0 0 0 0 0 0 127 0"/>
<feOffset dx="-70" dy="10"/>
<feGaussianBlur stdDeviation="50"/>
<feColorMatrix type="matrix" values="0 0 0 0 0.52549 0 0 0 0 0.45098 0 0 0 0 0.537255 0 0 0 1 0"/>
<feBlend mode="normal" in2="BackgroundImageFix" result="effect1_dropShadow"/>
<feBlend mode="normal" in="SourceGraphic" in2="effect1_dropShadow" result="shape"/>
<feGaussianBlur stdDeviation="2" result="effect2_foregroundBlur"/>
</filter>
<filter id="filter3_d" x="212.775" y="57.8428" width="108.923" height="107.054" filterUnits="userSpaceOnUse" color-interpolation-filters="sRGB">
<feFlood flood-opacity="0" result="BackgroundImageFix"/>
<feColorMatrix in="SourceAlpha" type="matrix" values="0 0 0 0 0 0 0 0 0 0 0 0 0 0 0 0 0 0 127 0"/>
<feOffset dx="10" dy="10"/>
<feGaussianBlur stdDeviation="25"/>
<feColorMatrix type="matrix" values="0 0 0 0 0.568627 0 0 0 0 0.596078 0 0 0 0 0.72549 0 0 0 0.4 0"/>
<feBlend mode="normal" in2="BackgroundImageFix" result="effect1_dropShadow"/>
<feBlend mode="normal" in="SourceGraphic" in2="effect1_dropShadow" result="shape"/>
</filter>
<linearGradient id="paint0_linear" x1="101.444" y1="76.5022" x2="49.9814" y2="167.274" gradientUnits="userSpaceOnUse">
<stop stop-color="#989898"/>
<stop offset="1" stop-color="white"/>
</linearGradient>
<linearGradient id="paint1_linear" x1="249.006" y1="99.7316" x2="235.653" y2="98.7591" gradientUnits="userSpaceOnUse">
<stop stop-color="white"/>
<stop offset="1" stop-color="#7E7E7E"/>
</linearGradient>
<linearGradient id="paint2_linear" x1="256.266" y1="106.827" x2="258.069" y2="119.482" gradientUnits="userSpaceOnUse">
<stop stop-color="white"/>
<stop offset="1" stop-color="#7E7E7E"/>
</linearGradient>
<linearGradient id="paint3_linear" x1="253.679" y1="102.919" x2="251.674" y2="104.739" gradientUnits="userSpaceOnUse">
<stop stop-color="white"/>
<stop offset="1" stop-color="#7E7E7E"/>
</linearGradient>
<linearGradient id="paint4_linear" x1="242.508" y1="110.203" x2="232.094" y2="118.142" gradientUnits="userSpaceOnUse">
<stop stop-color="white"/>
<stop offset="1" stop-color="#7E7E7E"/>
</linearGradient>
<linearGradient id="paint5_linear" x1="232.347" y1="116.521" x2="230.351" y2="118.252" gradientUnits="userSpaceOnUse">
<stop stop-color="white"/>
<stop offset="1" stop-color="#7E7E7E"/>
</linearGradient>
<linearGradient id="paint6_linear" x1="245.111" y1="112.788" x2="239.897" y2="124.801" gradientUnits="userSpaceOnUse">
<stop stop-color="white"/>
<stop offset="1" stop-color="#7E7E7E"/>
</linearGradient>
<linearGradient id="paint7_linear" x1="241.364" y1="124.15" x2="240.161" y2="126.503" gradientUnits="userSpaceOnUse">
<stop stop-color="white"/>
<stop offset="1" stop-color="#7E7E7E"/>
</linearGradient>
<linearGradient id="paint8_linear" x1="252.1" y1="103.921" x2="242.841" y2="112.327" gradientUnits="userSpaceOnUse">
<stop stop-color="white"/>
<stop offset="1" stop-color="#7E7E7E"/>
</linearGradient>
<radialGradient id="paint9_radial" cx="0" cy="0" r="1" gradientUnits="userSpaceOnUse" gradientTransform="translate(256.871 94.8575) rotate(-92.8657) scale(2.88135 1.65146)">
<stop offset="0.110497" stop-color="#FFAB91" stop-opacity="0.7"/>
<stop offset="0.375691" stop-color="#8A7B99" stop-opacity="0.5"/>
<stop offset="0.618785" stop-color="#80DEEA" stop-opacity="0.2"/>
<stop offset="1" stop-color="#80DEEA" stop-opacity="0"/>
</radialGradient>
<radialGradient id="paint10_radial" cx="0" cy="0" r="1" gradientUnits="userSpaceOnUse" gradientTransform="translate(258.199 102.215) rotate(-67.7093) scale(1.9845 3.01662)">
<stop stop-color="#6F79A8" stop-opacity="0.7"/>
<stop offset="0.502762" stop-color="#AF4448" stop-opacity="0.3"/>
<stop offset="1" stop-color="#AF4448" stop-opacity="0"/>
</radialGradient>
</defs>
</svg>
