<svg width="106" height="151" viewBox="0 0 106 151" fill="none" xmlns="http://www.w3.org/2000/svg">
<g filter="url(#filter0_d)">
<path d="M68.2564 127L58.8189 101.5H77.6939L68.2564 127Z" fill="url(#paint0_linear)"/>
<path d="M59.1026 120.897L53.8176 101.282H64.3875L59.1026 120.897Z" fill="url(#paint1_linear)"/>
<path d="M66.0769 113.923L61.5469 102.808H70.6069L66.0769 113.923Z" fill="url(#paint2_linear)"/>
<path d="M75.2308 117.41L65.7933 101.064H84.6682L75.2308 117.41Z" fill="url(#paint3_linear)"/>
<path d="M79.5897 120.897L73.9273 103.244H85.2522L79.5897 120.897Z" fill="url(#paint4_linear)"/>
</g>
<g filter="url(#filter1_d)">
<path d="M37.8026 126.868L47.2036 101.467H28.4017L37.8026 126.868Z" fill="url(#paint5_linear)"/>
<path d="M46.921 120.79L52.1856 101.25H41.6565L46.921 120.79Z" fill="url(#paint6_linear)"/>
<path d="M39.9737 113.842L44.4861 102.77H35.4612L39.9737 113.842Z" fill="url(#paint7_linear)"/>
<path d="M30.8553 117.316L40.2562 101.033H21.4543L30.8553 117.316Z" fill="url(#paint8_linear)"/>
<path d="M26.5132 120.79L32.1537 103.204H20.8726L26.5132 120.79Z" fill="url(#paint9_linear)"/>
</g>
<path d="M37 71.3455L56.0526 104.345H17.9474L37 71.3455Z" fill="#D6D6D6"/>
<path d="M69 71.3455L88.0526 104.345H49.9474L69 71.3455Z" fill="#D6D6D6"/>
<path d="M56.4104 1.90975C54.8497 -0.636581 51.1502 -0.636587 49.5896 1.90975L37.7327 21.2552C37.3215 21.926 37.1354 22.645 37.1368 23.3454H37V104.345H69V23.3454H68.8631C68.8646 22.645 68.6784 21.926 68.2673 21.2552L56.4104 1.90975Z" fill="url(#paint10_linear)"/>
<rect x="51" y="73.3455" width="4" height="19" rx="1" fill="#A5A5A5"/>
<path d="M49.5907 7.90134C51.1517 5.35742 54.8482 5.35743 56.4093 7.90134L62.2617 17.4386C63.8972 20.1038 61.9794 23.5306 58.8524 23.5306H47.1476C44.0206 23.5306 42.1028 20.1038 43.7383 17.4386L49.5907 7.90134Z" fill="#D8D8D8"/>
<defs>
<filter id="filter0_d" x="33.8176" y="85.064" width="71.4346" height="65.936" filterUnits="userSpaceOnUse" color-interpolation-filters="sRGB">
<feFlood flood-opacity="0" result="BackgroundImageFix"/>
<feColorMatrix in="SourceAlpha" type="matrix" values="0 0 0 0 0 0 0 0 0 0 0 0 0 0 0 0 0 0 127 0"/>
<feOffset dy="4"/>
<feGaussianBlur stdDeviation="10"/>
<feColorMatrix type="matrix" values="0 0 0 0 0.882353 0 0 0 0 0.423529 0 0 0 0 0.0392157 0 0 0 0.8 0"/>
<feBlend mode="normal" in2="BackgroundImageFix" result="effect1_dropShadow"/>
<feBlend mode="normal" in="SourceGraphic" in2="effect1_dropShadow" result="shape"/>
</filter>
<filter id="filter1_d" x="0.872597" y="85.0327" width="71.313" height="65.8356" filterUnits="userSpaceOnUse" color-interpolation-filters="sRGB">
<feFlood flood-opacity="0" result="BackgroundImageFix"/>
<feColorMatrix in="SourceAlpha" type="matrix" values="0 0 0 0 0 0 0 0 0 0 0 0 0 0 0 0 0 0 127 0"/>
<feOffset dy="4"/>
<feGaussianBlur stdDeviation="10"/>
<feColorMatrix type="matrix" values="0 0 0 0 0.882353 0 0 0 0 0.423529 0 0 0 0 0.0392157 0 0 0 0.8 0"/>
<feBlend mode="normal" in2="BackgroundImageFix" result="effect1_dropShadow"/>
<feBlend mode="normal" in="SourceGraphic" in2="effect1_dropShadow" result="shape"/>
</filter>
<linearGradient id="paint0_linear" x1="79.1538" y1="133.538" x2="61.282" y2="93" gradientUnits="userSpaceOnUse">
<stop stop-color="#FF0000"/>
<stop offset="1" stop-color="#FFF500" stop-opacity="0.43"/>
</linearGradient>
<linearGradient id="paint1_linear" x1="65.2051" y1="125.927" x2="48.7027" y2="98.6764" gradientUnits="userSpaceOnUse">
<stop stop-color="#FF0000"/>
<stop offset="1" stop-color="#FFF500" stop-opacity="0.43"/>
</linearGradient>
<linearGradient id="paint2_linear" x1="71.3077" y1="116.773" x2="64.0254" y2="98.5836" gradientUnits="userSpaceOnUse">
<stop stop-color="#FF0000"/>
<stop offset="1" stop-color="#FFF500" stop-opacity="0.43"/>
</linearGradient>
<linearGradient id="paint3_linear" x1="86.1282" y1="121.601" x2="78.0058" y2="92.8601" gradientUnits="userSpaceOnUse">
<stop stop-color="#FF0000"/>
<stop offset="1" stop-color="#FFF500" stop-opacity="0.43"/>
</linearGradient>
<linearGradient id="paint4_linear" x1="86.1282" y1="125.424" x2="72.5823" y2="98.7949" gradientUnits="userSpaceOnUse">
<stop stop-color="#FF0000"/>
<stop offset="1" stop-color="#FFF500" stop-opacity="0.43"/>
</linearGradient>
<linearGradient id="paint5_linear" x1="26.9474" y1="133.382" x2="44.75" y2="93" gradientUnits="userSpaceOnUse">
<stop stop-color="#FF0000"/>
<stop offset="1" stop-color="#FFF500" stop-opacity="0.43"/>
</linearGradient>
<linearGradient id="paint6_linear" x1="40.8421" y1="125.8" x2="57.2806" y2="98.6544" gradientUnits="userSpaceOnUse">
<stop stop-color="#FF0000"/>
<stop offset="1" stop-color="#FFF500" stop-opacity="0.43"/>
</linearGradient>
<linearGradient id="paint7_linear" x1="34.7632" y1="116.681" x2="42.0172" y2="98.562" gradientUnits="userSpaceOnUse">
<stop stop-color="#FF0000"/>
<stop offset="1" stop-color="#FFF500" stop-opacity="0.43"/>
</linearGradient>
<linearGradient id="paint8_linear" x1="20" y1="121.491" x2="28.091" y2="92.8606" gradientUnits="userSpaceOnUse">
<stop stop-color="#FF0000"/>
<stop offset="1" stop-color="#FFF500" stop-opacity="0.43"/>
</linearGradient>
<linearGradient id="paint9_linear" x1="20" y1="125.299" x2="33.4934" y2="98.7725" gradientUnits="userSpaceOnUse">
<stop stop-color="#FF0000"/>
<stop offset="1" stop-color="#FFF500" stop-opacity="0.43"/>
</linearGradient>
<linearGradient id="paint10_linear" x1="53" y1="0" x2="53" y2="104.345" gradientUnits="userSpaceOnUse">
<stop stop-color="#989898"/>
<stop offset="1" stop-color="white"/>
</linearGradient>
</defs>
</svg>
