<svg width="1893" height="1037" viewBox="0 0 1893 1037" fill="none" xmlns="http://www.w3.org/2000/svg">
<g opacity="0.4">
<ellipse rx="5.32575" ry="5.7673" transform="matrix(-0.225323 0.974284 -0.981648 -0.1907 1659.7 656.818)" fill="white" fill-opacity="0.43"/>
<ellipse rx="5.32575" ry="5.7673" transform="matrix(-0.225323 0.974284 -0.981648 -0.1907 1746.83 586.996)" fill="white"/>
<ellipse rx="5.32575" ry="5.7673" transform="matrix(-0.225323 0.974284 -0.981648 -0.1907 1574.93 537.336)" fill="white" fill-opacity="0.43"/>
<ellipse rx="2.66287" ry="2.88365" transform="matrix(-0.225323 0.974284 -0.981648 -0.1907 1468.08 730.744)" fill="white"/>
<ellipse rx="2.66287" ry="2.88365" transform="matrix(-0.225323 0.974284 -0.981648 -0.1907 1645.1 553.678)" fill="white"/>
<ellipse rx="2.66287" ry="2.88365" transform="matrix(-0.225323 0.974284 -0.981648 -0.1907 1687.16 729.927)" fill="white" fill-opacity="0.43"/>
<ellipse rx="2.66287" ry="2.88365" transform="matrix(-0.225323 0.974284 -0.981648 -0.1907 1548.7 637.967)" fill="#FFF2C9"/>
<ellipse rx="2.66287" ry="2.88365" transform="matrix(-0.225323 0.974284 -0.981648 -0.1907 1773.95 687.149)" fill="white" fill-opacity="0.43"/>
<ellipse rx="2.66287" ry="2.88365" transform="matrix(-0.225323 0.974284 -0.981648 -0.1907 1746.82 497.532)" fill="white"/>
<ellipse rx="5.78533" ry="5.30616" transform="matrix(-0.998259 0.05899 -0.0701761 -0.997535 1377.08 594.625)" fill="white" fill-opacity="0.43"/>
<ellipse rx="5.78533" ry="5.30616" transform="matrix(-0.998259 0.05899 -0.0701761 -0.997535 1473.95 652.682)" fill="white"/>
<ellipse rx="5.78533" ry="5.30616" transform="matrix(-0.998259 0.05899 -0.0701761 -0.997535 1479.73 487.574)" fill="white" fill-opacity="0.43"/>
<ellipse rx="5.78533" ry="5.30616" transform="matrix(-0.998259 0.05899 -0.0701761 -0.997535 1240.51 714.313)" fill="white"/>
<ellipse rx="2.89266" ry="2.65308" transform="matrix(-0.998259 0.05899 -0.0701761 -0.997535 1481.5 553.907)" fill="white"/>
<ellipse rx="2.89266" ry="2.65308" transform="matrix(-0.998259 0.05899 -0.0701761 -0.997535 1307.68 638.591)" fill="white" fill-opacity="0.43"/>
<ellipse rx="2.89266" ry="2.65308" transform="matrix(-0.998259 0.05899 -0.0701761 -0.997535 1366.93 491.581)" fill="white"/>
<ellipse rx="2.89266" ry="2.65308" transform="matrix(-0.998259 0.05899 -0.0701761 -0.997535 1245.09 573.192)" fill="white"/>
<ellipse rx="2.89266" ry="2.65308" transform="matrix(-0.998259 0.05899 -0.0701761 -0.997535 1376.05 703.645)" fill="white" fill-opacity="0.43"/>
<ellipse rx="2.89266" ry="2.65308" transform="matrix(-0.998259 0.05899 -0.0701761 -0.997535 1567.94 628.527)" fill="white"/>
<ellipse rx="5.36037" ry="5.73514" transform="matrix(-0.361364 -0.932425 0.950883 -0.309551 904.595 678.895)" fill="white" fill-opacity="0.43"/>
<ellipse rx="5.36037" ry="5.73514" transform="matrix(-0.361364 -0.932425 0.950883 -0.309551 1045.01 740.126)" fill="white" fill-opacity="0.43"/>
<ellipse rx="5.36037" ry="5.73514" transform="matrix(-0.361364 -0.932425 0.950883 -0.309551 741.649 591.223)" fill="white"/>
<ellipse rx="2.68018" ry="2.86757" transform="matrix(-0.361364 -0.932425 0.950883 -0.309551 1025.76 524.062)" fill="white"/>
<ellipse rx="2.68018" ry="2.86757" transform="matrix(-0.361364 -0.932425 0.950883 -0.309551 975.876 759.819)" fill="white"/>
<ellipse rx="2.68018" ry="2.86757" transform="matrix(-0.361364 -0.932425 0.950883 -0.309551 839.482 629.733)" fill="white" fill-opacity="0.43"/>
<ellipse rx="2.68018" ry="2.86757" transform="matrix(-0.361364 -0.932425 0.950883 -0.309551 1009.97 641.775)" fill="white"/>
<ellipse rx="2.68018" ry="2.86757" transform="matrix(-0.361364 -0.932425 0.950883 -0.309551 891.006 556.671)" fill="white"/>
<ellipse rx="2.68018" ry="2.86757" transform="matrix(-0.361364 -0.932425 0.950883 -0.309551 789.896 707.789)" fill="white" fill-opacity="0.43"/>
<ellipse rx="5.63121" ry="5.46944" transform="matrix(0.83967 -0.543097 0.610097 0.792327 1180.99 596.486)" fill="white" fill-opacity="0.43"/>
<ellipse rx="5.63121" ry="5.46944" transform="matrix(0.83967 -0.543097 0.610097 0.792327 1065.29 593.415)" fill="white"/>
<ellipse rx="5.63121" ry="5.46944" transform="matrix(0.83967 -0.543097 0.610097 0.792327 1154.55 736.931)" fill="white" fill-opacity="0.43"/>
<ellipse rx="2.81561" ry="2.73472" transform="matrix(0.83967 -0.543097 0.610097 0.792327 1376.36 661.631)" fill="white"/>
<ellipse rx="2.81561" ry="2.73472" transform="matrix(0.83967 -0.543097 0.610097 0.792327 1115.2 681.232)" fill="white"/>
<ellipse rx="2.81561" ry="2.73472" transform="matrix(0.83967 -0.543097 0.610097 0.792327 1215.06 525.756)" fill="white" fill-opacity="0.43"/>
<ellipse rx="2.81561" ry="2.73472" transform="matrix(0.83967 -0.543097 0.610097 0.792327 1248.42 679.461)" fill="white"/>
<ellipse rx="2.81561" ry="2.73472" transform="matrix(0.83967 -0.543097 0.610097 0.792327 1305.73 551.508)" fill="white"/>
<ellipse rx="2.81561" ry="2.73472" transform="matrix(0.83967 -0.543097 0.610097 0.792327 1119.67 503.06)" fill="white" fill-opacity="0.43"/>
<ellipse rx="2.81561" ry="2.73472" transform="matrix(0.83967 -0.543097 0.610097 0.792327 998.951 659.045)" fill="white"/>
<ellipse rx="5.77361" ry="5.31891" transform="matrix(-0.987509 0.157563 -0.186613 -0.982434 805.048 709.395)" fill="white" fill-opacity="0.43"/>
<ellipse rx="2.8868" ry="2.65945" transform="matrix(-0.987509 0.157563 -0.186613 -0.982434 569.417 690.46)" fill="white"/>
<ellipse rx="2.8868" ry="2.65945" transform="matrix(-0.987509 0.157563 -0.186613 -0.982434 693.37 724.52)" fill="white"/>
<ellipse rx="5.3971" ry="5.70058" transform="matrix(-0.462175 -0.886789 0.916062 -0.401038 673.412 562.397)" fill="white" fill-opacity="0.43"/>
<ellipse rx="5.3971" ry="5.70058" transform="matrix(-0.462175 -0.886789 0.916062 -0.401038 650.659 666.407)" fill="white"/>
<ellipse rx="5.3971" ry="5.70058" transform="matrix(-0.462175 -0.886789 0.916062 -0.401038 820.027 609.896)" fill="white" fill-opacity="0.43"/>
<ellipse rx="2.69855" ry="2.85029" transform="matrix(-0.462175 -0.886789 0.916062 -0.401038 753.502 636.08)" fill="white"/>
<ellipse rx="2.69855" ry="2.85029" transform="matrix(-0.462175 -0.886789 0.916062 -0.401038 603.066 519.717)" fill="white" fill-opacity="0.43"/>
<ellipse rx="2.69855" ry="2.85029" transform="matrix(-0.462175 -0.886789 0.916062 -0.401038 562.618 602.084)" fill="white" fill-opacity="0.43"/>
<ellipse rx="2.69855" ry="2.85029" transform="matrix(-0.462175 -0.886789 0.916062 -0.401038 710.092 737.376)" fill="white"/>
<ellipse rx="2.67065" ry="2.87645" transform="matrix(0.294646 -0.955607 0.968059 0.250725 720.336 485.772)" fill="white"/>
<ellipse rx="5.78724" ry="5.30407" transform="matrix(0.999998 0.00197257 -0.00234832 0.999997 986.106 511.985)" fill="white" fill-opacity="0.43"/>
<ellipse rx="2.89362" ry="2.65204" transform="matrix(0.999998 0.00197257 -0.00234832 0.999997 1214.57 568.128)" fill="white"/>
<ellipse rx="2.89362" ry="2.65204" transform="matrix(0.999998 0.00197257 -0.00234832 0.999997 1098.95 514.858)" fill="white"/>
<ellipse rx="2.67065" ry="2.87645" transform="matrix(0.294646 -0.955607 0.968059 0.250725 842.787 919.321)" fill="white"/>
<ellipse rx="5.78724" ry="5.30407" transform="matrix(0.999998 0.00197257 -0.00234832 0.999997 918.434 909.195)" fill="white"/>
<ellipse rx="2.89362" ry="2.65204" transform="matrix(0.999998 0.00197257 -0.00234832 0.999997 822.9 927.569)" fill="white"/>
<ellipse rx="5.34073" ry="5.75343" transform="matrix(0.292432 0.956286 -0.968557 0.248792 666.026 536.921)" fill="white"/>
<ellipse rx="2.67037" ry="2.87671" transform="matrix(0.292432 0.956286 -0.968557 0.248792 377.585 586.223)" fill="white"/>
<ellipse rx="2.67037" ry="2.87671" transform="matrix(0.292432 0.956286 -0.968557 0.248792 571.276 492.402)" fill="white" fill-opacity="0.43"/>
<ellipse rx="2.67037" ry="2.87671" transform="matrix(0.292432 0.956286 -0.968557 0.248792 402.075 469.765)" fill="white"/>
<ellipse rx="2.67037" ry="2.87671" transform="matrix(0.292432 0.956286 -0.968557 0.248792 514.446 562.084)" fill="white"/>
<ellipse rx="5.65927" ry="5.44041" transform="matrix(-0.871714 0.490014 -0.55616 -0.831075 734.118 706.85)" fill="white" fill-opacity="0.43"/>
<ellipse rx="2.82963" ry="2.7202" transform="matrix(-0.871714 0.490014 -0.55616 -0.831075 636.404 758.664)" fill="white"/>
<ellipse rx="5.56922" ry="5.53255" transform="matrix(-0.762191 -0.647352 0.711005 -0.703187 552.6 614.722)" fill="white" fill-opacity="0.43"/>
<ellipse rx="5.56922" ry="5.53255" transform="matrix(-0.762191 -0.647352 0.711005 -0.703187 573.314 719.092)" fill="white"/>
<ellipse rx="5.56922" ry="5.53255" transform="matrix(-0.762191 -0.647352 0.711005 -0.703187 707.99 609.305)" fill="white" fill-opacity="0.43"/>
<ellipse rx="5.56922" ry="5.53255" transform="matrix(-0.762191 -0.647352 0.711005 -0.703187 363.874 606.29)" fill="white"/>
<ellipse rx="2.78461" ry="2.76627" transform="matrix(-0.762191 -0.647352 0.711005 -0.703187 656.7 656.132)" fill="white"/>
<ellipse rx="2.78461" ry="2.76627" transform="matrix(-0.762191 -0.647352 0.711005 -0.703187 470.041 598.836)" fill="white" fill-opacity="0.43"/>
<ellipse rx="2.78461" ry="2.76627" transform="matrix(-0.762191 -0.647352 0.711005 -0.703187 627.188 537.059)" fill="white"/>
<ellipse rx="2.78461" ry="2.76627" transform="matrix(-0.762191 -0.647352 0.711005 -0.703187 478.727 512.208)" fill="white"/>
<ellipse rx="2.78461" ry="2.76627" transform="matrix(-0.762191 -0.647352 0.711005 -0.703187 465.593 689.069)" fill="white" fill-opacity="0.43"/>
<ellipse rx="5.32531" ry="5.76771" transform="matrix(-0.223053 -0.974806 0.982025 -0.18875 372.63 729.026)" fill="white" fill-opacity="0.43"/>
<ellipse rx="5.32531" ry="5.76771" transform="matrix(-0.223053 -0.974806 0.982025 -0.18875 223.991 622.108)" fill="white"/>
<ellipse rx="2.66265" ry="2.88385" transform="matrix(-0.223053 -0.974806 0.982025 -0.18875 515.369 590.492)" fill="white"/>
<ellipse rx="2.66265" ry="2.88385" transform="matrix(-0.223053 -0.974806 0.982025 -0.18875 315.304 672.301)" fill="white" fill-opacity="0.43"/>
<ellipse rx="2.66265" ry="2.88385" transform="matrix(-0.223053 -0.974806 0.982025 -0.18875 482.485 705.202)" fill="white"/>
<ellipse rx="2.66265" ry="2.88385" transform="matrix(-0.223053 -0.974806 0.982025 -0.18875 377.058 606.239)" fill="white"/>
<ellipse rx="2.66265" ry="2.88385" transform="matrix(-0.223053 -0.974806 0.982025 -0.18875 254.74 743.557)" fill="white" fill-opacity="0.43"/>
<ellipse rx="5.50757" ry="5.59393" transform="matrix(-0.673274 -0.739393 0.794293 -0.607535 569.495 472.021)" fill="white"/>
<ellipse rx="2.75378" ry="2.79697" transform="matrix(-0.673274 -0.739393 0.794293 -0.607535 646.232 527.319)" fill="white"/>
<ellipse rx="5.66911" ry="5.43015" transform="matrix(-0.882574 0.470172 -0.535579 -0.844485 441.847 564.104)" fill="white" fill-opacity="0.43"/>
<ellipse rx="5.66911" ry="5.43015" transform="matrix(-0.882574 0.470172 -0.535579 -0.844485 556.801 576.485)" fill="white"/>
<ellipse rx="5.66911" ry="5.43015" transform="matrix(-0.882574 0.470172 -0.535579 -0.844485 377.837 727.039)" fill="white"/>
<ellipse rx="2.83456" ry="2.71507" transform="matrix(-0.882574 0.470172 -0.535579 -0.844485 253.487 483.468)" fill="white"/>
<ellipse rx="2.83456" ry="2.71507" transform="matrix(-0.882574 0.470172 -0.535579 -0.844485 401.116 631.814)" fill="white" fill-opacity="0.43"/>
<ellipse rx="2.83456" ry="2.71507" transform="matrix(-0.882574 0.470172 -0.535579 -0.844485 382.635 476.016)" fill="white"/>
<ellipse rx="2.83456" ry="2.71507" transform="matrix(-0.882574 0.470172 -0.535579 -0.844485 313.275 598.854)" fill="white"/>
<ellipse rx="2.83456" ry="2.71507" transform="matrix(-0.882574 0.470172 -0.535579 -0.844485 493.959 662.106)" fill="white" fill-opacity="0.43"/>
<ellipse rx="2.83456" ry="2.71507" transform="matrix(-0.882574 0.470172 -0.535579 -0.844485 629.181 516.454)" fill="white"/>
<ellipse rx="2.77893" ry="2.77199" transform="matrix(-0.746805 -0.665043 0.727442 -0.686169 403.183 482.759)" fill="white"/>
<ellipse cx="288.228" cy="456.779" rx="2.89362" ry="2.65203" fill="white"/>
<ellipse rx="5.34073" ry="5.75343" transform="matrix(0.292432 0.956286 -0.968557 0.248792 161.806 566.596)" fill="white" fill-opacity="0.43"/>
<ellipse rx="5.34073" ry="5.75343" transform="matrix(0.292432 0.956286 -0.968557 0.248792 203.684 467.703)" fill="white"/>
<ellipse rx="5.34073" ry="5.75343" transform="matrix(0.292432 0.956286 -0.968557 0.248792 26.2539 496.754)" fill="white" fill-opacity="0.43"/>
<ellipse rx="5.34073" ry="5.75343" transform="matrix(0.292432 0.956286 -0.968557 0.248792 317.872 664.217)" fill="white"/>
<ellipse rx="2.67037" ry="2.87671" transform="matrix(0.292432 0.956286 -0.968557 0.248792 29.4341 713.521)" fill="white"/>
<ellipse rx="2.67037" ry="2.87671" transform="matrix(0.292432 0.956286 -0.968557 0.248792 96.6882 481.414)" fill="white"/>
<ellipse rx="2.67037" ry="2.87671" transform="matrix(0.292432 0.956286 -0.968557 0.248792 223.122 619.699)" fill="white" fill-opacity="0.43"/>
<ellipse rx="2.67037" ry="2.87671" transform="matrix(0.292432 0.956286 -0.968557 0.248792 53.9214 597.061)" fill="white"/>
<ellipse rx="2.67037" ry="2.87671" transform="matrix(0.292432 0.956286 -0.968557 0.248792 166.292 689.382)" fill="white"/>
<ellipse rx="2.67037" ry="2.87671" transform="matrix(0.292432 0.956286 -0.968557 0.248792 278.383 544.912)" fill="white" fill-opacity="0.43"/>
<ellipse rx="5.56922" ry="5.53255" transform="matrix(-0.762191 -0.647352 0.711005 -0.703187 204.449 742.02)" fill="white" fill-opacity="0.43"/>
<ellipse rx="5.56922" ry="5.53255" transform="matrix(-0.762191 -0.647352 0.711005 -0.703187 359.841 736.603)" fill="white" fill-opacity="0.43"/>
<ellipse rx="5.56922" ry="5.53255" transform="matrix(-0.762191 -0.647352 0.711005 -0.703187 15.7233 733.587)" fill="white"/>
<ellipse rx="2.78461" ry="2.76627" transform="matrix(-0.762191 -0.647352 0.711005 -0.703187 233.474 553.346)" fill="white"/>
<ellipse rx="2.78461" ry="2.76627" transform="matrix(-0.762191 -0.647352 0.711005 -0.703187 121.887 726.133)" fill="white" fill-opacity="0.43"/>
<ellipse rx="2.78461" ry="2.76627" transform="matrix(-0.762191 -0.647352 0.711005 -0.703187 279.031 664.355)" fill="white"/>
<ellipse rx="2.78461" ry="2.76627" transform="matrix(-0.762191 -0.647352 0.711005 -0.703187 130.579 639.505)" fill="white"/>
<ellipse rx="2.66265" ry="2.88385" transform="matrix(-0.223053 -0.974806 0.982025 -0.18875 167.218 717.791)" fill="white"/>
<ellipse rx="2.66265" ry="2.88385" transform="matrix(-0.223053 -0.974806 0.982025 -0.18875 28.9044 733.535)" fill="white"/>
<ellipse rx="5.57256" ry="5.52919" transform="matrix(0.766632 0.642087 -0.706074 0.708138 1459.22 674.25)" fill="white"/>
<ellipse rx="2.78628" ry="2.76459" transform="matrix(0.766632 0.642087 -0.706074 0.708138 1376.31 737.739)" fill="white"/>
<ellipse rx="2.78628" ry="2.76459" transform="matrix(0.766632 0.642087 -0.706074 0.708138 1567.16 703.586)" fill="white" fill-opacity="0.43"/>
<ellipse rx="2.78628" ry="2.76459" transform="matrix(0.766632 0.642087 -0.706074 0.708138 1375.07 628.915)" fill="white"/>
<ellipse rx="5.60982" ry="5.49138" transform="matrix(0.814056 -0.580786 0.647361 0.762183 1572.19 567.267)" fill="white" fill-opacity="0.43"/>
<ellipse rx="5.60982" ry="5.49138" transform="matrix(0.814056 -0.580786 0.647361 0.762183 1456.47 569.17)" fill="white"/>
<ellipse rx="5.60982" ry="5.49138" transform="matrix(0.814056 -0.580786 0.647361 0.762183 1552.97 708.695)" fill="white" fill-opacity="0.43"/>
<ellipse rx="2.80491" ry="2.74569" transform="matrix(0.814056 -0.580786 0.647361 0.762183 1770.68 623.946)" fill="white"/>
<ellipse rx="2.80491" ry="2.74569" transform="matrix(0.814056 -0.580786 0.647361 0.762183 1510.81 654.746)" fill="white"/>
<ellipse rx="2.80491" ry="2.74569" transform="matrix(0.814056 -0.580786 0.647361 0.762183 1602.61 495.149)" fill="white" fill-opacity="0.43"/>
<ellipse rx="2.80491" ry="2.74569" transform="matrix(0.814056 -0.580786 0.647361 0.762183 1643.79 647.253)" fill="white"/>
<ellipse rx="2.80491" ry="2.74569" transform="matrix(0.814056 -0.580786 0.647361 0.762183 1694.49 516.979)" fill="white"/>
<ellipse rx="2.80491" ry="2.74569" transform="matrix(0.814056 -0.580786 0.647361 0.762183 1506.17 476.578)" fill="white" fill-opacity="0.43"/>
<ellipse rx="2.80491" ry="2.74569" transform="matrix(0.814056 -0.580786 0.647361 0.762183 1393.56 637.578)" fill="white"/>
<ellipse rx="5.62148" ry="5.47945" transform="matrix(0.828149 0.560507 -0.627419 0.778682 1711.29 680.159)" fill="white"/>
<ellipse rx="2.81074" ry="2.73972" transform="matrix(0.828149 0.560507 -0.627419 0.778682 1636.05 751.218)" fill="white"/>
<ellipse rx="2.81074" ry="2.73972" transform="matrix(0.828149 0.560507 -0.627419 0.778682 1821.98 699.033)" fill="white" fill-opacity="0.43"/>
<ellipse rx="2.81074" ry="2.73972" transform="matrix(0.828149 0.560507 -0.627419 0.778682 1622.45 643.105)" fill="white"/>
<ellipse rx="5.32756" ry="5.76563" transform="matrix(0.234494 0.972118 -0.980083 0.198586 1766.91 478.592)" fill="white"/>
<ellipse rx="2.66378" ry="2.88281" transform="matrix(0.234494 0.972118 -0.980083 0.198586 1475.92 513.107)" fill="white"/>
<ellipse rx="2.66378" ry="2.88281" transform="matrix(0.234494 0.972118 -0.980083 0.198586 1614.03 495.984)" fill="white"/>
<ellipse rx="5.42038" ry="5.67845" transform="matrix(-0.515104 0.857128 -0.892705 -0.450642 1418.57 567.321)" fill="white" fill-opacity="0.43"/>
<ellipse rx="5.42038" ry="5.67845" transform="matrix(-0.515104 0.857128 -0.892705 -0.450642 1524.07 523.694)" fill="white"/>
<ellipse rx="5.42038" ry="5.67845" transform="matrix(-0.515104 0.857128 -0.892705 -0.450642 1455.22 737.208)" fill="white"/>
<ellipse rx="2.71019" ry="2.83923" transform="matrix(-0.515104 0.857128 -0.892705 -0.450642 1211.79 587.073)" fill="white"/>
<ellipse rx="2.71019" ry="2.83923" transform="matrix(-0.515104 0.857128 -0.892705 -0.450642 1437.27 464.738)" fill="white"/>
<ellipse rx="2.71019" ry="2.83923" transform="matrix(-0.515104 0.857128 -0.892705 -0.450642 1421.69 644.587)" fill="white" fill-opacity="0.43"/>
<ellipse rx="2.71019" ry="2.83923" transform="matrix(-0.515104 0.857128 -0.892705 -0.450642 1318.33 519.745)" fill="white"/>
<ellipse rx="2.71019" ry="2.83923" transform="matrix(-0.515104 0.857128 -0.892705 -0.450642 1327.87 657.781)" fill="white"/>
<ellipse rx="2.71019" ry="2.83923" transform="matrix(-0.515104 0.857128 -0.892705 -0.450642 1518.3 626.748)" fill="white" fill-opacity="0.43"/>
<ellipse rx="5.76309" ry="5.3303" transform="matrix(-0.977703 -0.209992 0.247724 -0.96883 1242.14 513.938)" fill="white"/>
<ellipse rx="5.76309" ry="5.3303" transform="matrix(-0.977703 -0.209992 0.247724 -0.96883 999.232 510.796)" fill="#FFF2C9"/>
<ellipse rx="5.63121" ry="5.46944" transform="matrix(0.83967 -0.543097 0.610097 0.792327 1837.07 939.665)" fill="white"/>
<ellipse rx="2.88155" ry="2.66515" transform="matrix(-0.977703 -0.209992 0.247724 -0.96883 1888.59 932.067)" fill="white"/>
<ellipse rx="2.88155" ry="2.66515" transform="matrix(-0.977703 -0.209992 0.247724 -0.96883 1087.49 456.207)" fill="white" fill-opacity="0.43"/>
<ellipse rx="2.88155" ry="2.66515" transform="matrix(-0.977703 -0.209992 0.247724 -0.96883 1132.3 536.652)" fill="white" fill-opacity="0.43"/>
<ellipse rx="2.88155" ry="2.66515" transform="matrix(-0.977703 -0.209992 0.247724 -0.96883 1339.73 515.83)" fill="white"/>
<ellipse rx="5.52898" ry="5.57277" transform="matrix(0.705764 -0.708447 0.766908 0.641757 1668.37 610.134)" fill="white"/>
<ellipse rx="2.76449" ry="2.78639" transform="matrix(0.705764 -0.708447 0.766908 0.641757 1677.28 707.375)" fill="white" fill-opacity="0.43"/>
<ellipse rx="2.76449" ry="2.78639" transform="matrix(0.705764 -0.708447 0.766908 0.641757 1771.87 714.697)" fill="white"/>
<ellipse rx="2.76449" ry="2.78639" transform="matrix(0.705764 -0.708447 0.766908 0.641757 1578.8 703.97)" fill="white" fill-opacity="0.43"/>
<ellipse rx="2.87198" ry="2.67545" transform="matrix(-0.959474 0.281796 -0.330052 -0.943963 1828.25 755.806)" fill="white"/>
<ellipse rx="5.4552" ry="5.64501" transform="matrix(-0.584369 -0.811488 0.85564 -0.517572 1730.95 566.551)" fill="white"/>
<ellipse rx="2.7276" ry="2.8225" transform="matrix(-0.584369 -0.811488 0.85564 -0.517572 1836 582.445)" fill="white" fill-opacity="0.43"/>
<ellipse rx="2.7276" ry="2.8225" transform="matrix(-0.584369 -0.811488 0.85564 -0.517572 1866.91 500.195)" fill="white"/>
<ellipse rx="2.7276" ry="2.8225" transform="matrix(-0.584369 -0.811488 0.85564 -0.517572 1808.28 669.122)" fill="white" fill-opacity="0.43"/>
<ellipse rx="5.70362" ry="5.3939" transform="matrix(0.919199 0.393793 -0.454338 0.890829 1813.05 460.736)" fill="white" fill-opacity="0.43"/>
<ellipse rx="5.70362" ry="5.3939" transform="matrix(0.919199 0.393793 -0.454338 0.890829 1666.88 509.358)" fill="white" fill-opacity="0.43"/>
<ellipse rx="2.85181" ry="2.69695" transform="matrix(0.919199 0.393793 -0.454338 0.890829 1848.24 648.53)" fill="white"/>
<ellipse rx="2.85181" ry="2.69695" transform="matrix(0.919199 0.393793 -0.454338 0.890829 1767.89 555.559)" fill="white"/>
<ellipse rx="5.31465" ry="5.77753" transform="matrix(0.157654 0.987494 -0.991127 0.132916 915.448 813.151)" fill="white"/>
<ellipse rx="2.65732" ry="2.88877" transform="matrix(0.157654 0.987494 -0.991127 0.132916 827.672 757.915)" fill="white" fill-opacity="0.43"/>
<ellipse rx="5.31052" ry="5.78133" transform="matrix(0.123159 0.992387 -0.99461 0.103684 931.424 804.479)" fill="white" fill-opacity="0.43"/>
<ellipse rx="2.65526" ry="2.89066" transform="matrix(0.123159 0.992387 -0.99461 0.103684 775.202 930.201)" fill="white"/>
<ellipse rx="2.65526" ry="2.89066" transform="matrix(0.123159 0.992387 -0.99461 0.103684 982.727 865.861)" fill="white" fill-opacity="0.43"/>
<ellipse rx="2.65526" ry="2.89066" transform="matrix(0.123159 0.992387 -0.99461 0.103684 819.627 818.803)" fill="white"/>
<ellipse rx="2.65526" ry="2.89066" transform="matrix(0.123159 0.992387 -0.99461 0.103684 914.518 956.353)" fill="white"/>
<ellipse rx="2.86054" ry="2.68769" transform="matrix(-0.936942 0.349485 -0.405844 -0.913942 834.617 804.265)" fill="white"/>
<ellipse rx="5.32756" ry="5.76563" transform="matrix(0.234494 0.972118 -0.980083 0.198586 996.785 889.214)" fill="white" fill-opacity="0.43"/>
<ellipse rx="5.51479" ry="5.58681" transform="matrix(0.684448 -0.729062 0.785221 0.619216 995.736 897.168)" fill="white"/>
<ellipse rx="5.5056" ry="5.59587" transform="matrix(-0.670192 -0.742188 0.796735 -0.604329 875.684 796.87)" fill="white" fill-opacity="0.43"/>
<ellipse rx="5.5056" ry="5.59587" transform="matrix(-0.901022 0.433773 -0.355204 -0.934789 854.933 895.706)" fill="white"/>
<ellipse rx="2.7528" ry="2.79793" transform="matrix(-0.670192 -0.742188 0.796735 -0.604329 972.924 850.486)" fill="white"/>
<ellipse rx="2.7528" ry="2.79793" transform="matrix(-0.670192 -0.742188 0.796735 -0.604329 796.12 771.159)" fill="white" fill-opacity="0.43"/>
<ellipse rx="2.7528" ry="2.79793" transform="matrix(-0.670192 -0.742188 0.796735 -0.604329 878.074 1032.61)" fill="white" fill-opacity="0.43"/>
<ellipse rx="2.7528" ry="2.79793" transform="matrix(-0.670192 -0.742188 0.796735 -0.604329 778.756 860.068)" fill="white" fill-opacity="0.43"/>
<ellipse rx="2.7328" ry="2.81747" transform="matrix(0.603271 -0.797536 0.844036 0.536287 956.888 748.57)" fill="white"/>
<ellipse rx="2.71301" ry="2.83654" transform="matrix(0.527025 0.84985 -0.886886 0.461988 1856.58 473.398)" fill="white"/>
<ellipse rx="5.7076" ry="5.38968" transform="matrix(-0.923293 -0.384096 0.443806 -0.896123 218.454 476.271)" fill="white" fill-opacity="0.43"/>
<ellipse rx="5.7076" ry="5.38968" transform="matrix(-0.923293 -0.384096 0.443806 -0.896123 274.067 569.305)" fill="white"/>
<ellipse rx="5.7076" ry="5.38968" transform="matrix(-0.923293 -0.384096 0.443806 -0.896123 36.474 522.89)" fill="white"/>
<ellipse rx="2.8538" ry="2.69484" transform="matrix(-0.923293 -0.384096 0.443806 -0.896123 331.493 485.432)" fill="white"/>
<ellipse rx="2.8538" ry="2.69484" transform="matrix(-0.923293 -0.384096 0.443806 -0.896123 134.638 485.091)" fill="white" fill-opacity="0.43"/>
<ellipse rx="2.8538" ry="2.69484" transform="matrix(-0.923293 -0.384096 0.443806 -0.896123 161.511 571.994)" fill="white" fill-opacity="0.43"/>
<ellipse rx="2.8538" ry="2.69484" transform="matrix(-0.923293 -0.384096 0.443806 -0.896123 369.392 588.571)" fill="white"/>
<ellipse rx="5.46049" ry="5.63989" transform="matrix(-0.594074 0.804411 -0.849769 -0.527155 202.716 703.058)" fill="white" fill-opacity="0.43"/>
<ellipse rx="5.46049" ry="5.63989" transform="matrix(-0.594074 0.804411 -0.849769 -0.527155 312.131 668.452)" fill="white"/>
<ellipse rx="5.46049" ry="5.63989" transform="matrix(-0.594074 0.804411 -0.849769 -0.527155 173.29 563.11)" fill="white" fill-opacity="0.43"/>
<ellipse rx="2.73024" ry="2.81995" transform="matrix(-0.594074 0.804411 -0.849769 -0.527155 231.581 602.47)" fill="white"/>
<ellipse rx="2.73024" ry="2.81995" transform="matrix(-0.594074 0.804411 -0.849769 -0.527155 107.636 647.277)" fill="white"/>
<ellipse rx="2.73024" ry="2.81995" transform="matrix(-0.594074 0.804411 -0.849769 -0.527155 348.88 585.572)" fill="white"/>
<ellipse rx="5.74075" ry="5.35435" transform="matrix(-0.95636 -0.29219 0.341814 -0.939768 32.3507 635.108)" fill="white"/>
<ellipse rx="5.74075" ry="5.35435" transform="matrix(-0.95636 -0.29219 0.341814 -0.939768 105.556 484.153)" fill="white" fill-opacity="0.43"/>
<ellipse rx="2.87038" ry="2.67718" transform="matrix(-0.95636 -0.29219 0.341814 -0.939768 79.9322 546.213)" fill="white"/>
<ellipse rx="2.87038" ry="2.67718" transform="matrix(-0.95636 -0.29219 0.341814 -0.939768 129.342 645.174)" fill="#FFF2C9"/>
<ellipse rx="5.32575" ry="5.7673" transform="matrix(-0.225323 0.974284 -0.981648 -0.1907 1738.83 877.996)" fill="white"/>
<ellipse rx="5.32575" ry="5.7673" transform="matrix(-0.225323 0.974284 -0.981648 -0.1907 1566.93 828.336)" fill="white" fill-opacity="0.43"/>
<ellipse rx="2.66287" ry="2.88365" transform="matrix(-0.225323 0.974284 -0.981648 -0.1907 1637.1 844.678)" fill="white"/>
<ellipse rx="2.66287" ry="2.88365" transform="matrix(-0.225323 0.974284 -0.981648 -0.1907 1738.82 788.532)" fill="white"/>
<ellipse rx="5.78533" ry="5.30616" transform="matrix(-0.998259 0.05899 -0.0701761 -0.997535 1369.08 885.625)" fill="white" fill-opacity="0.43"/>
<ellipse rx="5.78533" ry="5.30616" transform="matrix(-0.998259 0.05899 -0.0701761 -0.997535 1471.73 778.573)" fill="white" fill-opacity="0.43"/>
<ellipse rx="2.89266" ry="2.65308" transform="matrix(-0.998259 0.05899 -0.0701761 -0.997535 1473.5 844.907)" fill="white"/>
<ellipse rx="2.89266" ry="2.65308" transform="matrix(-0.998259 0.05899 -0.0701761 -0.997535 1299.68 929.59)" fill="white" fill-opacity="0.43"/>
<ellipse rx="2.89266" ry="2.65308" transform="matrix(-0.998259 0.05899 -0.0701761 -0.997535 1358.93 782.58)" fill="white"/>
<ellipse rx="5.36037" ry="5.73514" transform="matrix(-0.361364 -0.932425 0.950883 -0.309551 733.649 882.223)" fill="white"/>
<ellipse rx="2.68018" ry="2.86757" transform="matrix(-0.361364 -0.932425 0.950883 -0.309551 1017.76 815.062)" fill="white"/>
<ellipse rx="2.68018" ry="2.86757" transform="matrix(-0.996479 0.08384 -0.0289252 -0.999582 858.087 978.471)" fill="white" fill-opacity="0.43"/>
<ellipse rx="2.68018" ry="2.86757" transform="matrix(-0.361364 -0.932425 0.950883 -0.309551 1001.97 932.775)" fill="white"/>
<ellipse rx="2.68018" ry="2.86757" transform="matrix(-0.361364 -0.932425 0.950883 -0.309551 883.006 847.67)" fill="white"/>
<ellipse rx="5.63121" ry="5.46944" transform="matrix(0.83967 -0.543097 0.610097 0.792327 1057.29 884.415)" fill="white"/>
<ellipse rx="2.81561" ry="2.73472" transform="matrix(0.83967 -0.543097 0.610097 0.792327 1368.36 952.631)" fill="white"/>
<ellipse rx="2.81561" ry="2.73472" transform="matrix(0.83967 -0.543097 0.610097 0.792327 1207.06 816.755)" fill="white" fill-opacity="0.43"/>
<ellipse rx="2.81561" ry="2.73472" transform="matrix(0.83967 -0.543097 0.610097 0.792327 1111.67 794.06)" fill="white" fill-opacity="0.43"/>
<ellipse rx="5.3971" ry="5.70058" transform="matrix(-0.462175 -0.886789 0.916062 -0.401038 665.412 853.396)" fill="white" fill-opacity="0.43"/>
<ellipse rx="5.3971" ry="5.70058" transform="matrix(-0.981115 0.193428 -0.126518 -0.991964 833.57 991.544)" fill="white" fill-opacity="0.43"/>
<ellipse rx="2.69855" ry="2.85029" transform="matrix(-0.462175 -0.886789 0.916062 -0.401038 745.502 927.08)" fill="white"/>
<ellipse rx="2.69855" ry="2.85029" transform="matrix(-0.462175 -0.886789 0.916062 -0.401038 595.066 810.717)" fill="white" fill-opacity="0.43"/>
<ellipse rx="2.69855" ry="2.85029" transform="matrix(-0.462175 -0.886789 0.916062 -0.401038 554.618 893.084)" fill="white" fill-opacity="0.43"/>
<ellipse rx="2.67065" ry="2.87645" transform="matrix(0.294646 -0.955607 0.968059 0.250725 712.336 776.772)" fill="white"/>
<ellipse rx="5.78724" ry="5.30407" transform="matrix(0.999998 0.00197257 -0.00234832 0.999997 948.106 992.985)" fill="white" fill-opacity="0.43"/>
<ellipse rx="2.89362" ry="2.65204" transform="matrix(0.999998 0.00197257 -0.00234832 0.999997 1090.95 805.858)" fill="white"/>
<ellipse rx="5.34073" ry="5.75343" transform="matrix(0.292432 0.956286 -0.968557 0.248792 658.026 827.92)" fill="white"/>
<ellipse rx="2.67037" ry="2.87671" transform="matrix(0.292432 0.956286 -0.968557 0.248792 563.276 783.402)" fill="white" fill-opacity="0.43"/>
<ellipse rx="2.67037" ry="2.87671" transform="matrix(0.292432 0.956286 -0.968557 0.248792 394.075 760.764)" fill="white"/>
<ellipse rx="2.67037" ry="2.87671" transform="matrix(0.292432 0.956286 -0.968557 0.248792 506.446 853.084)" fill="white"/>
<ellipse rx="5.56922" ry="5.53255" transform="matrix(-0.762191 -0.647352 0.711005 -0.703187 544.6 905.722)" fill="white" fill-opacity="0.43"/>
<ellipse rx="5.56922" ry="5.53255" transform="matrix(-0.762191 -0.647352 0.711005 -0.703187 699.99 900.305)" fill="white" fill-opacity="0.43"/>
<ellipse rx="2.78461" ry="2.76627" transform="matrix(-0.762191 -0.647352 0.711005 -0.703187 462.041 889.836)" fill="white" fill-opacity="0.43"/>
<ellipse rx="2.78461" ry="2.76627" transform="matrix(-0.762191 -0.647352 0.711005 -0.703187 619.188 828.058)" fill="white"/>
<ellipse rx="2.78461" ry="2.76627" transform="matrix(-0.762191 -0.647352 0.711005 -0.703187 470.727 803.207)" fill="white"/>
<ellipse rx="2.66265" ry="2.88385" transform="matrix(-0.223053 -0.974806 0.982025 -0.18875 507.369 881.492)" fill="white"/>
<ellipse rx="5.50757" ry="5.59393" transform="matrix(-0.673274 -0.739393 0.794293 -0.607535 561.495 763.021)" fill="white"/>
<ellipse rx="2.75378" ry="2.79697" transform="matrix(-0.673274 -0.739393 0.794293 -0.607535 638.232 818.319)" fill="white"/>
<ellipse rx="5.66911" ry="5.43015" transform="matrix(-0.882574 0.470172 -0.535579 -0.844485 433.847 855.104)" fill="white" fill-opacity="0.43"/>
<ellipse rx="5.66911" ry="5.43015" transform="matrix(-0.882574 0.470172 -0.535579 -0.844485 548.801 867.484)" fill="white"/>
<ellipse rx="2.83456" ry="2.71507" transform="matrix(-0.882574 0.470172 -0.535579 -0.844485 245.487 774.467)" fill="white"/>
<ellipse rx="2.83456" ry="2.71507" transform="matrix(-0.882574 0.470172 -0.535579 -0.844485 374.635 767.016)" fill="white"/>
<ellipse rx="2.83456" ry="2.71507" transform="matrix(-0.882574 0.470172 -0.535579 -0.844485 485.959 953.106)" fill="white" fill-opacity="0.43"/>
<ellipse rx="2.83456" ry="2.71507" transform="matrix(-0.882574 0.470172 -0.535579 -0.844485 621.181 807.454)" fill="white"/>
<ellipse rx="2.77893" ry="2.77199" transform="matrix(-0.746805 -0.665043 0.727442 -0.686169 395.183 773.759)" fill="white"/>
<ellipse rx="5.34073" ry="5.75343" transform="matrix(0.292432 0.956286 -0.968557 0.248792 153.806 857.596)" fill="white" fill-opacity="0.43"/>
<ellipse rx="5.34073" ry="5.75343" transform="matrix(0.292432 0.956286 -0.968557 0.248792 195.684 758.702)" fill="white"/>
<ellipse rx="5.34073" ry="5.75343" transform="matrix(0.292432 0.956286 -0.968557 0.248792 18.2539 787.754)" fill="white" fill-opacity="0.43"/>
<ellipse rx="2.67037" ry="2.87671" transform="matrix(0.292432 0.956286 -0.968557 0.248792 88.6882 772.414)" fill="white"/>
<ellipse rx="2.67037" ry="2.87671" transform="matrix(0.292432 0.956286 -0.968557 0.248792 45.9214 888.061)" fill="white"/>
<ellipse rx="2.67037" ry="2.87671" transform="matrix(0.292432 0.956286 -0.968557 0.248792 270.383 835.912)" fill="white" fill-opacity="0.43"/>
<ellipse rx="2.78461" ry="2.76627" transform="matrix(-0.762191 -0.647352 0.711005 -0.703187 225.474 844.346)" fill="white"/>
<ellipse rx="2.78461" ry="2.76627" transform="matrix(-0.762191 -0.647352 0.711005 -0.703187 122.579 930.505)" fill="white"/>
<ellipse rx="2.78628" ry="2.76459" transform="matrix(0.766632 0.642087 -0.706074 0.708138 1367.07 919.915)" fill="white"/>
<ellipse rx="5.60982" ry="5.49138" transform="matrix(0.814056 -0.580786 0.647361 0.762183 1564.19 858.266)" fill="white" fill-opacity="0.43"/>
<ellipse rx="5.60982" ry="5.49138" transform="matrix(0.814056 -0.580786 0.647361 0.762183 1448.47 860.17)" fill="white"/>
<ellipse rx="2.80491" ry="2.74569" transform="matrix(0.814056 -0.580786 0.647361 0.762183 1762.68 914.946)" fill="white"/>
<ellipse rx="2.80491" ry="2.74569" transform="matrix(0.814056 -0.580786 0.647361 0.762183 1594.61 786.149)" fill="white" fill-opacity="0.43"/>
<ellipse rx="2.80491" ry="2.74569" transform="matrix(0.814056 -0.580786 0.647361 0.762183 1686.49 807.979)" fill="white"/>
<ellipse rx="2.80491" ry="2.74569" transform="matrix(0.814056 -0.580786 0.647361 0.762183 1498.17 767.578)" fill="white" fill-opacity="0.43"/>
<ellipse rx="2.80491" ry="2.74569" transform="matrix(0.814056 -0.580786 0.647361 0.762183 1385.56 928.578)" fill="white"/>
<ellipse rx="2.81074" ry="2.73972" transform="matrix(0.828149 0.560507 -0.627419 0.778682 1614.45 934.105)" fill="white"/>
<ellipse rx="5.32756" ry="5.76563" transform="matrix(0.234494 0.972118 -0.980083 0.198586 1758.91 769.592)" fill="white"/>
<ellipse rx="2.66378" ry="2.88281" transform="matrix(0.234494 0.972118 -0.980083 0.198586 1467.92 804.106)" fill="white"/>
<ellipse rx="2.66378" ry="2.88281" transform="matrix(0.234494 0.972118 -0.980083 0.198586 1606.03 786.984)" fill="white"/>
<ellipse rx="5.42038" ry="5.67845" transform="matrix(-0.515104 0.857128 -0.892705 -0.450642 1410.57 858.32)" fill="white" fill-opacity="0.43"/>
<ellipse rx="5.42038" ry="5.67845" transform="matrix(-0.515104 0.857128 -0.892705 -0.450642 1516.07 814.694)" fill="white"/>
<ellipse rx="2.71019" ry="2.83923" transform="matrix(-0.515104 0.857128 -0.892705 -0.450642 1429.27 755.737)" fill="white"/>
<ellipse rx="2.71019" ry="2.83923" transform="matrix(-0.515104 0.857128 -0.892705 -0.450642 1413.69 935.587)" fill="white" fill-opacity="0.43"/>
<ellipse rx="2.71019" ry="2.83923" transform="matrix(-0.515104 0.857128 -0.892705 -0.450642 1310.33 810.745)" fill="white"/>
<ellipse rx="2.71019" ry="2.83923" transform="matrix(-0.515104 0.857128 -0.892705 -0.450642 1510.3 917.748)" fill="white" fill-opacity="0.43"/>
<ellipse rx="5.76309" ry="5.3303" transform="matrix(-0.977703 -0.209992 0.247724 -0.96883 1234.14 804.938)" fill="white"/>
<ellipse rx="5.76309" ry="5.3303" transform="matrix(-0.977703 -0.209992 0.247724 -0.96883 991.232 801.796)" fill="#FFF2C9"/>
<ellipse rx="2.88155" ry="2.66515" transform="matrix(-0.977703 -0.209992 0.247724 -0.96883 1124.3 827.652)" fill="white" fill-opacity="0.43"/>
<ellipse rx="2.88155" ry="2.66515" transform="matrix(-0.977703 -0.209992 0.247724 -0.96883 1331.73 806.83)" fill="white"/>
<ellipse rx="5.52898" ry="5.57277" transform="matrix(0.705764 -0.708447 0.766908 0.641757 1660.37 901.133)" fill="white"/>
<ellipse rx="5.4552" ry="5.64501" transform="matrix(-0.584369 -0.811488 0.85564 -0.517572 1722.95 857.551)" fill="white"/>
<ellipse rx="2.7276" ry="2.8225" transform="matrix(-0.584369 -0.811488 0.85564 -0.517572 1828 873.444)" fill="white" fill-opacity="0.43"/>
<ellipse rx="2.7276" ry="2.8225" transform="matrix(-0.584369 -0.811488 0.85564 -0.517572 1858.91 791.195)" fill="white"/>
<ellipse rx="5.70362" ry="5.3939" transform="matrix(0.919199 0.393793 -0.454338 0.890829 1658.88 800.358)" fill="white" fill-opacity="0.43"/>
<ellipse rx="2.85181" ry="2.69695" transform="matrix(0.919199 0.393793 -0.454338 0.890829 1759.89 846.558)" fill="white"/>
<ellipse rx="2.71301" ry="2.83654" transform="matrix(0.527025 0.84985 -0.886886 0.461988 1848.58 764.398)" fill="white"/>
<ellipse rx="5.7076" ry="5.38968" transform="matrix(-0.923293 -0.384096 0.443806 -0.896123 210.454 767.27)" fill="white" fill-opacity="0.43"/>
<ellipse rx="5.7076" ry="5.38968" transform="matrix(-0.923293 -0.384096 0.443806 -0.896123 28.474 813.89)" fill="white"/>
<ellipse rx="2.8538" ry="2.69484" transform="matrix(-0.923293 -0.384096 0.443806 -0.896123 323.493 776.431)" fill="white"/>
<ellipse rx="2.8538" ry="2.69484" transform="matrix(-0.923293 -0.384096 0.443806 -0.896123 126.638 776.091)" fill="white" fill-opacity="0.43"/>
<ellipse rx="2.8538" ry="2.69484" transform="matrix(-0.923293 -0.384096 0.443806 -0.896123 153.511 862.993)" fill="white" fill-opacity="0.43"/>
<ellipse rx="5.46049" ry="5.63989" transform="matrix(-0.594074 0.804411 -0.849769 -0.527155 165.29 854.11)" fill="white" fill-opacity="0.43"/>
<ellipse rx="2.73024" ry="2.81995" transform="matrix(-0.594074 0.804411 -0.849769 -0.527155 99.6363 938.276)" fill="white"/>
<ellipse rx="5.74075" ry="5.35435" transform="matrix(-0.95636 -0.29219 0.341814 -0.939768 24.3507 926.108)" fill="white"/>
<ellipse rx="5.74075" ry="5.35435" transform="matrix(-0.95636 -0.29219 0.341814 -0.939768 97.5555 775.153)" fill="white" fill-opacity="0.43"/>
<ellipse rx="2.87038" ry="2.67718" transform="matrix(-0.95636 -0.29219 0.341814 -0.939768 71.9322 837.213)" fill="white"/>
<ellipse rx="2.87038" ry="2.67718" transform="matrix(-0.95636 -0.29219 0.341814 -0.939768 121.342 936.174)" fill="#FFF2C9"/>
</g>
<mask id="mask0" mask-type="alpha" maskUnits="userSpaceOnUse" x="1" y="1" width="1874" height="461">
<ellipse rx="2.89266" ry="2.65308" transform="matrix(-0.998259 0.05899 -0.0701761 -0.997535 1247.7 445.477)" fill="white"/>
<ellipse rx="5.63121" ry="5.46944" transform="matrix(0.83967 -0.543097 0.610097 0.792327 1229.12 429.024)" fill="white"/>
<ellipse rx="2.69855" ry="2.85029" transform="matrix(-0.462175 -0.886789 0.916062 -0.401038 776.326 396.842)" fill="white"/>
<ellipse rx="2.69855" ry="2.85029" transform="matrix(-0.462175 -0.886789 0.916062 -0.401038 646.009 442.136)" fill="white"/>
<ellipse rx="5.3413" ry="5.7529" transform="matrix(0.294646 -0.955607 0.968059 0.250725 818.819 332.147)" fill="white" fill-opacity="0.43"/>
<ellipse rx="5.3413" ry="5.7529" transform="matrix(0.294646 -0.955607 0.968059 0.250725 726.81 396.505)" fill="white"/>
<ellipse rx="5.3413" ry="5.7529" transform="matrix(0.294646 -0.955607 0.968059 0.250725 894.73 456.532)" fill="white" fill-opacity="0.43"/>
<ellipse rx="5.3413" ry="5.7529" transform="matrix(0.294646 -0.955607 0.968059 0.250725 741.213 174.253)" fill="white"/>
<ellipse rx="2.67065" ry="2.87645" transform="matrix(0.294646 -0.955607 0.968059 0.250725 1015.37 270.061)" fill="white"/>
<ellipse rx="2.67065" ry="2.87645" transform="matrix(0.294646 -0.955607 0.968059 0.250725 825.906 435.949)" fill="white"/>
<ellipse rx="2.67065" ry="2.87645" transform="matrix(0.294646 -0.955607 0.968059 0.250725 796.724 257.528)" fill="white" fill-opacity="0.43"/>
<ellipse rx="2.67065" ry="2.87645" transform="matrix(0.294646 -0.955607 0.968059 0.250725 928.206 357.721)" fill="white"/>
<ellipse rx="2.67065" ry="2.87645" transform="matrix(0.294646 -0.955607 0.968059 0.250725 884.862 225.237)" fill="white"/>
<ellipse rx="2.67065" ry="2.87645" transform="matrix(0.294646 -0.955607 0.968059 0.250725 707.015 294.922)" fill="white" fill-opacity="0.43"/>
<ellipse rx="5.78724" ry="5.30407" transform="matrix(0.999998 0.00197257 -0.00234832 0.999997 1096.3 411.425)" fill="white" fill-opacity="0.43"/>
<ellipse rx="5.78724" ry="5.30407" transform="matrix(0.999998 0.00197257 -0.00234832 0.999997 1003.85 347.595)" fill="white"/>
<ellipse rx="5.78724" ry="5.30407" transform="matrix(0.999998 0.00197257 -0.00234832 0.999997 1241.24 300.325)" fill="white"/>
<ellipse rx="2.89362" ry="2.65204" transform="matrix(0.999998 0.00197257 -0.00234832 0.999997 989.156 445.691)" fill="white"/>
<ellipse rx="2.89362" ry="2.65204" transform="matrix(0.999998 0.00197257 -0.00234832 0.999997 1168.73 371.787)" fill="white" fill-opacity="0.43"/>
<ellipse rx="2.89362" ry="2.65204" transform="matrix(0.999998 0.00197257 -0.00234832 0.999997 1226.45 440.854)" fill="#FFF2C9"/>
<ellipse rx="2.89362" ry="2.65204" transform="matrix(0.999998 0.00197257 -0.00234832 0.999997 1105.24 302.708)" fill="white" fill-opacity="0.43"/>
<ellipse rx="2.89362" ry="2.65204" transform="matrix(0.999998 0.00197257 -0.00234832 0.999997 908.319 365.969)" fill="white"/>
<ellipse cx="517.738" cy="173.011" rx="5.78725" ry="5.30407" fill="white" fill-opacity="0.43"/>
<ellipse cx="425.145" cy="109.361" rx="5.78725" ry="5.30407" fill="white"/>
<ellipse cx="407.78" cy="273.787" rx="5.78725" ry="5.30407" fill="white" fill-opacity="0.43"/>
<ellipse cx="662.42" cy="61.6239" rx="5.78725" ry="5.30407" fill="white"/>
<ellipse cx="636.377" cy="329.48" rx="2.89362" ry="2.65203" fill="white"/>
<ellipse cx="410.678" cy="207.487" rx="2.89362" ry="2.65203" fill="white"/>
<ellipse cx="590.08" cy="133.229" rx="2.89362" ry="2.65203" fill="white" fill-opacity="0.43"/>
<ellipse cx="520.633" cy="276.439" rx="2.89362" ry="2.65203" fill="white"/>
<ellipse cx="647.953" cy="202.182" rx="2.89362" ry="2.65203" fill="white"/>
<ellipse cx="526.421" cy="64.2756" rx="2.89362" ry="2.65203" fill="white" fill-opacity="0.43"/>
<ellipse cx="329.655" cy="127.924" rx="2.89362" ry="2.65203" fill="white"/>
<ellipse rx="5.34073" ry="5.75343" transform="matrix(0.292432 0.956286 -0.968557 0.248792 509.955 439.297)" fill="white" fill-opacity="0.43"/>
<ellipse rx="5.34073" ry="5.75343" transform="matrix(0.292432 0.956286 -0.968557 0.248792 551.84 340.403)" fill="white"/>
<ellipse rx="5.34073" ry="5.75343" transform="matrix(0.292432 0.956286 -0.968557 0.248792 374.405 369.456)" fill="white" fill-opacity="0.43"/>
<ellipse rx="2.67037" ry="2.87671" transform="matrix(0.292432 0.956286 -0.968557 0.248792 444.842 354.117)" fill="white"/>
<ellipse rx="2.67037" ry="2.87671" transform="matrix(0.292432 0.956286 -0.968557 0.248792 626.539 417.614)" fill="white" fill-opacity="0.43"/>
<ellipse rx="2.67037" ry="2.87671" transform="matrix(0.292432 0.956286 -0.968557 0.248792 506.563 261.144)" fill="white"/>
<ellipse rx="2.78461" ry="2.76627" transform="matrix(-0.762191 -0.647352 0.711005 -0.703187 581.628 426.049)" fill="white"/>
<ellipse rx="5.31465" ry="5.77753" transform="matrix(0.157654 0.987494 -0.991127 0.132916 1263.37 105.372)" fill="white" fill-opacity="0.43"/>
<ellipse rx="5.31465" ry="5.77753" transform="matrix(0.157654 0.987494 -0.991127 0.132916 1404.56 220.451)" fill="white"/>
<ellipse rx="2.65732" ry="2.88877" transform="matrix(0.157654 0.987494 -0.991127 0.132916 1111.62 235.612)" fill="white"/>
<ellipse rx="2.65732" ry="2.88877" transform="matrix(0.157654 0.987494 -0.991127 0.132916 1316.79 165.215)" fill="white" fill-opacity="0.43"/>
<ellipse rx="2.65732" ry="2.88877" transform="matrix(0.157654 0.987494 -0.991127 0.132916 1152.12 122.969)" fill="white"/>
<ellipse rx="2.65732" ry="2.88877" transform="matrix(0.157654 0.987494 -0.991127 0.132916 1250.72 227.677)" fill="white"/>
<ellipse rx="2.65732" ry="2.88877" transform="matrix(0.157654 0.987494 -0.991127 0.132916 1382.01 97.5007)" fill="white" fill-opacity="0.43"/>
<ellipse rx="5.71025" ry="5.38687" transform="matrix(-0.926 0.377524 -0.436642 -0.899635 974.753 136.867)" fill="white" fill-opacity="0.43"/>
<ellipse rx="5.71025" ry="5.38687" transform="matrix(-0.926 0.377524 -0.436642 -0.899635 1087.58 160.528)" fill="white"/>
<ellipse rx="5.71025" ry="5.38687" transform="matrix(-0.926 0.377524 -0.436642 -0.899635 891.959 292.531)" fill="white"/>
<ellipse rx="2.85512" ry="2.69344" transform="matrix(-0.926 0.377524 -0.436642 -0.899635 796.972 38.0976)" fill="white"/>
<ellipse rx="2.85512" ry="2.69344" transform="matrix(-0.926 0.377524 -0.436642 -0.899635 1057.29 65.4858)" fill="white"/>
<ellipse rx="2.85512" ry="2.69344" transform="matrix(-0.926 0.377524 -0.436642 -0.899635 926.301 200.162)" fill="white" fill-opacity="0.43"/>
<ellipse rx="2.85512" ry="2.69344" transform="matrix(-0.926 0.377524 -0.436642 -0.899635 926.246 43.4433)" fill="white"/>
<ellipse rx="2.85512" ry="2.69344" transform="matrix(-0.926 0.377524 -0.436642 -0.899635 842.842 158.717)" fill="white"/>
<ellipse rx="2.85512" ry="2.69344" transform="matrix(-0.926 0.377524 -0.436642 -0.899635 1015.04 239.448)" fill="white" fill-opacity="0.43"/>
<ellipse rx="2.85512" ry="2.69344" transform="matrix(-0.926 0.377524 -0.436642 -0.899635 1166.6 107.997)" fill="white"/>
<ellipse rx="5.50757" ry="5.59393" transform="matrix(-0.673274 -0.739393 0.794293 -0.607535 563.484 366.083)" fill="white" fill-opacity="0.43"/>
<ellipse rx="5.50757" ry="5.59393" transform="matrix(-0.673274 -0.739393 0.794293 -0.607535 718.362 378.883)" fill="white" fill-opacity="0.43"/>
<ellipse rx="5.50757" ry="5.59393" transform="matrix(-0.673274 -0.739393 0.794293 -0.607535 377.475 335.645)" fill="white"/>
<ellipse rx="2.75378" ry="2.79697" transform="matrix(-0.673274 -0.739393 0.794293 -0.607535 618.545 182.346)" fill="white"/>
<ellipse rx="2.75378" ry="2.79697" transform="matrix(-0.673274 -0.739393 0.794293 -0.607535 660.966 419.331)" fill="white"/>
<ellipse rx="2.75378" ry="2.79697" transform="matrix(-0.673274 -0.739393 0.794293 -0.607535 483.811 340.669)" fill="white" fill-opacity="0.43"/>
<ellipse rx="2.75378" ry="2.79697" transform="matrix(-0.673274 -0.739393 0.794293 -0.607535 648.272 297.776)" fill="white"/>
<ellipse rx="2.75378" ry="2.79697" transform="matrix(-0.673274 -0.739393 0.794293 -0.607535 504.49 255.764)" fill="white"/>
<ellipse rx="2.75378" ry="2.79697" transform="matrix(-0.673274 -0.739393 0.794293 -0.607535 466.832 429.644)" fill="white" fill-opacity="0.43"/>
<ellipse rx="5.46371" ry="5.63677" transform="matrix(0.599897 -0.800078 0.846159 0.532931 791.538 200.939)" fill="white" fill-opacity="0.43"/>
<ellipse rx="5.46371" ry="5.63677" transform="matrix(0.599897 -0.800078 0.846159 0.532931 681.863 234.833)" fill="white"/>
<ellipse rx="5.46371" ry="5.63677" transform="matrix(0.599897 -0.800078 0.846159 0.532931 819.886 341.071)" fill="white" fill-opacity="0.43"/>
<ellipse rx="2.73186" ry="2.81839" transform="matrix(0.599897 -0.800078 0.846159 0.532931 999.435 199.944)" fill="white"/>
<ellipse rx="2.73186" ry="2.81839" transform="matrix(0.599897 -0.800078 0.846159 0.532931 761.907 301.336)" fill="white"/>
<ellipse rx="2.73186" ry="2.81839" transform="matrix(0.599897 -0.800078 0.846159 0.532931 796.738 123.766)" fill="white" fill-opacity="0.43"/>
<ellipse rx="2.73186" ry="2.81839" transform="matrix(0.599897 -0.800078 0.846159 0.532931 886.188 257.33)" fill="white"/>
<ellipse rx="2.73186" ry="2.81839" transform="matrix(0.599897 -0.800078 0.846159 0.532931 891.519 119.104)" fill="white"/>
<ellipse rx="2.73186" ry="2.81839" transform="matrix(0.599897 -0.800078 0.846159 0.532931 698.676 132.799)" fill="white" fill-opacity="0.43"/>
<ellipse rx="2.73186" ry="2.81839" transform="matrix(0.599897 -0.800078 0.846159 0.532931 644.475 317.475)" fill="white"/>
<ellipse rx="5.66911" ry="5.43015" transform="matrix(-0.882574 0.470172 -0.535579 -0.844485 481.653 426.332)" fill="white" fill-opacity="0.43"/>
<ellipse rx="5.55785" ry="5.54397" transform="matrix(-0.746805 -0.665043 0.727442 -0.686169 302.565 330.299)" fill="white" fill-opacity="0.43"/>
<ellipse rx="5.55785" ry="5.54397" transform="matrix(-0.746805 -0.665043 0.727442 -0.686169 320.58 435.086)" fill="white"/>
<ellipse rx="5.55785" ry="5.54397" transform="matrix(-0.746805 -0.665043 0.727442 -0.686169 458.057 328.248)" fill="white" fill-opacity="0.43"/>
<ellipse rx="5.55785" ry="5.54397" transform="matrix(-0.746805 -0.665043 0.727442 -0.686169 114.11 317.778)" fill="white"/>
<ellipse rx="2.77893" ry="2.77199" transform="matrix(-0.746805 -0.665043 0.727442 -0.686169 336.453 142.304)" fill="white"/>
<ellipse rx="2.77893" ry="2.77199" transform="matrix(-0.746805 -0.665043 0.727442 -0.686169 405.567 373.951)" fill="white"/>
<ellipse rx="2.77893" ry="2.77199" transform="matrix(-0.746805 -0.665043 0.727442 -0.686169 220.439 312.625)" fill="white" fill-opacity="0.43"/>
<ellipse rx="2.77893" ry="2.77199" transform="matrix(-0.746805 -0.665043 0.727442 -0.686169 379.133 254.269)" fill="white"/>
<ellipse rx="2.77893" ry="2.77199" transform="matrix(-0.746805 -0.665043 0.727442 -0.686169 231.357 226.212)" fill="white"/>
<ellipse rx="2.77893" ry="2.77199" transform="matrix(-0.746805 -0.665043 0.727442 -0.686169 213.665 402.737)" fill="white" fill-opacity="0.43"/>
<ellipse rx="5.30719" ry="5.78438" transform="matrix(-0.0857861 -0.996314 0.997395 -0.0721377 351.826 68.1193)" fill="white" fill-opacity="0.43"/>
<ellipse rx="5.30719" ry="5.78438" transform="matrix(-0.0857861 -0.996314 0.997395 -0.0721377 289.877 157.728)" fill="#FFF2C9"/>
<ellipse rx="5.30719" ry="5.78438" transform="matrix(-0.0857861 -0.996314 0.997395 -0.0721377 470.092 160.655)" fill="white" fill-opacity="0.43"/>
<ellipse rx="2.6536" ry="2.89219" transform="matrix(-0.0857861 -0.996314 0.997395 -0.0721377 397.75 163.229)" fill="white"/>
<ellipse rx="2.6536" ry="2.89219" transform="matrix(-0.0857861 -0.996314 0.997395 -0.0721377 464.102 57.339)" fill="white"/>
<ellipse rx="2.6536" ry="2.89219" transform="matrix(-0.0857861 -0.996314 0.997395 -0.0721377 232.875 68.7418)" fill="white" fill-opacity="0.43"/>
<ellipse rx="2.6536" ry="2.89219" transform="matrix(-0.0857861 -0.996314 0.997395 -0.0721377 317.579 243.514)" fill="white"/>
<ellipse rx="5.73194" ry="5.36379" transform="matrix(0.947739 -0.319047 0.372004 0.928231 642.08 54.2809)" fill="white" fill-opacity="0.43"/>
<ellipse rx="5.73194" ry="5.36379" transform="matrix(0.947739 -0.319047 0.372004 0.928231 531.22 23.7951)" fill="white"/>
<ellipse rx="5.73194" ry="5.36379" transform="matrix(0.947739 -0.319047 0.372004 0.928231 576.78 183.624)" fill="white" fill-opacity="0.43"/>
<ellipse rx="2.86597" ry="2.68189" transform="matrix(0.947739 -0.319047 0.372004 0.928231 812.311 163.667)" fill="white"/>
<ellipse rx="2.86597" ry="2.68189" transform="matrix(0.947739 -0.319047 0.372004 0.928231 554.553 120.474)" fill="white"/>
<ellipse rx="2.86597" ry="2.68189" transform="matrix(0.947739 -0.319047 0.372004 0.928231 683.706 150.453)" fill="white"/>
<ellipse rx="2.86597" ry="2.68189" transform="matrix(0.947739 -0.319047 0.372004 0.928231 775.288 40.5179)" fill="white"/>
<ellipse rx="2.86597" ry="2.68189" transform="matrix(0.947739 -0.319047 0.372004 0.928231 448.571 71.3953)" fill="white"/>
<ellipse cx="169.587" cy="300.308" rx="5.78725" ry="5.30407" fill="white" fill-opacity="0.43"/>
<ellipse cx="76.9906" cy="236.659" rx="5.78725" ry="5.30407" fill="white"/>
<ellipse cx="59.629" cy="401.085" rx="5.78725" ry="5.30407" fill="white" fill-opacity="0.43"/>
<ellipse cx="314.266" cy="188.921" rx="5.78725" ry="5.30407" fill="white"/>
<ellipse cx="62.5208" cy="334.783" rx="2.89362" ry="2.65203" fill="white"/>
<ellipse cx="241.926" cy="260.527" rx="2.89362" ry="2.65203" fill="white" fill-opacity="0.43"/>
<ellipse cx="172.479" cy="403.737" rx="2.89362" ry="2.65203" fill="white"/>
<ellipse cx="299.799" cy="329.48" rx="2.89362" ry="2.65203" fill="white"/>
<ellipse cx="178.27" cy="191.574" rx="2.89362" ry="2.65203" fill="white" fill-opacity="0.43"/>
<ellipse rx="2.67037" ry="2.87671" transform="matrix(0.292432 0.956286 -0.968557 0.248792 158.414 388.442)" fill="white"/>
<ellipse rx="5.60982" ry="5.49138" transform="matrix(0.814056 -0.580786 0.647361 0.762183 1611.71 397.92)" fill="white"/>
<ellipse rx="5.39376" ry="5.70374" transform="matrix(0.454011 -0.890996 0.919328 0.393492 679.549 76.8302)" fill="white" fill-opacity="0.43"/>
<ellipse rx="5.39376" ry="5.70374" transform="matrix(0.454011 -0.890996 0.919328 0.393492 577.443 126.791)" fill="white"/>
<ellipse rx="5.39376" ry="5.70374" transform="matrix(0.454011 -0.890996 0.919328 0.393492 732.649 210.783)" fill="white" fill-opacity="0.43"/>
<ellipse rx="2.69688" ry="2.85187" transform="matrix(0.454011 -0.890996 0.919328 0.393492 884.437 44.5196)" fill="white"/>
<ellipse rx="2.69688" ry="2.85187" transform="matrix(0.454011 -0.890996 0.919328 0.393492 668.328 180.327)" fill="white"/>
<ellipse rx="2.69688" ry="2.85187" transform="matrix(0.454011 -0.890996 0.919328 0.393492 783.023 118.191)" fill="white"/>
<ellipse rx="2.69688" ry="2.85187" transform="matrix(0.454011 -0.890996 0.919328 0.393492 575.727 23.6114)" fill="white" fill-opacity="0.43"/>
<ellipse rx="2.69688" ry="2.85187" transform="matrix(0.454011 -0.890996 0.919328 0.393492 555.391 213.942)" fill="white"/>
<ellipse rx="5.77494" ry="5.31746" transform="matrix(0.988741 0.149639 -0.177318 0.984154 939.507 195.97)" fill="white" fill-opacity="0.43"/>
<ellipse rx="5.77494" ry="5.31746" transform="matrix(0.988741 0.149639 -0.177318 0.984154 859.465 119.346)" fill="white"/>
<ellipse rx="5.77494" ry="5.31746" transform="matrix(0.988741 0.149639 -0.177318 0.984154 813.104 278.981)" fill="white" fill-opacity="0.43"/>
<ellipse rx="5.77494" ry="5.31746" transform="matrix(0.988741 0.149639 -0.177318 0.984154 1102.06 107.675)" fill="white"/>
<ellipse rx="2.88747" ry="2.65873" transform="matrix(0.988741 0.149639 -0.177318 0.984154 1028.75 368.064)" fill="white"/>
<ellipse rx="2.88747" ry="2.65873" transform="matrix(0.988741 0.149639 -0.177318 0.984154 827.747 213.999)" fill="white"/>
<ellipse rx="2.88747" ry="2.65873" transform="matrix(0.988741 0.149639 -0.177318 0.984154 1017.95 167.522)" fill="white" fill-opacity="0.43"/>
<ellipse rx="2.88747" ry="2.65873" transform="matrix(0.988741 0.149639 -0.177318 0.984154 923.976 298.45)" fill="white"/>
<ellipse rx="2.88747" ry="2.65873" transform="matrix(0.988741 0.149639 -0.177318 0.984154 1062.8 244.195)" fill="white"/>
<ellipse rx="2.88747" ry="2.65873" transform="matrix(0.988741 0.149639 -0.177318 0.984154 967.404 89.9852)" fill="white" fill-opacity="0.43"/>
<ellipse rx="2.88747" ry="2.65873" transform="matrix(0.988741 0.149639 -0.177318 0.984154 761.948 123.402)" fill="white"/>
<ellipse rx="5.31052" ry="5.78133" transform="matrix(0.123159 0.992387 -0.99461 0.103684 1420.54 211.779)" fill="white" fill-opacity="0.43"/>
<ellipse rx="5.31052" ry="5.78133" transform="matrix(0.123159 0.992387 -0.99461 0.103684 1479.08 120.265)" fill="white"/>
<ellipse rx="5.31052" ry="5.78133" transform="matrix(0.123159 0.992387 -0.99461 0.103684 1298.86 123.037)" fill="white" fill-opacity="0.43"/>
<ellipse rx="5.31052" ry="5.78133" transform="matrix(0.123159 0.992387 -0.99461 0.103684 1557.65 330.942)" fill="white"/>
<ellipse rx="2.65526" ry="2.89066" transform="matrix(0.123159 0.992387 -0.99461 0.103684 1264.32 337.5)" fill="white"/>
<ellipse rx="2.65526" ry="2.89066" transform="matrix(0.123159 0.992387 -0.99461 0.103684 1371.07 118.178)" fill="white"/>
<ellipse rx="2.65526" ry="2.89066" transform="matrix(0.123159 0.992387 -0.99461 0.103684 1471.84 273.16)" fill="white" fill-opacity="0.43"/>
<ellipse rx="2.65526" ry="2.89066" transform="matrix(0.123159 0.992387 -0.99461 0.103684 1308.74 226.103)" fill="white"/>
<ellipse rx="2.65526" ry="2.89066" transform="matrix(0.123159 0.992387 -0.99461 0.103684 1403.63 333.653)" fill="white"/>
<ellipse rx="2.65526" ry="2.89066" transform="matrix(0.123159 0.992387 -0.99461 0.103684 1539.4 207.397)" fill="white" fill-opacity="0.43"/>
<ellipse rx="5.72107" ry="5.37538" transform="matrix(-0.936942 0.349485 -0.405844 -0.913942 1130.98 234.786)" fill="#FFF2C9"/>
<ellipse rx="5.72107" ry="5.37538" transform="matrix(-0.936942 0.349485 -0.405844 -0.913942 1242.92 261.749)" fill="white"/>
<ellipse rx="5.72107" ry="5.37538" transform="matrix(-0.936942 0.349485 -0.405844 -0.913942 1191.38 103.454)" fill="white" fill-opacity="0.43"/>
<ellipse rx="5.72107" ry="5.37538" transform="matrix(-0.936942 0.349485 -0.405844 -0.913942 1042.79 387.942)" fill="white"/>
<ellipse rx="2.86054" ry="2.68769" transform="matrix(-0.936942 0.349485 -0.405844 -0.913942 956.733 130.849)" fill="white"/>
<ellipse rx="2.86054" ry="2.68769" transform="matrix(-0.936942 0.349485 -0.405844 -0.913942 1215.96 165.865)" fill="white"/>
<ellipse rx="2.86054" ry="2.68769" transform="matrix(-0.936942 0.349485 -0.405844 -0.913942 1080.33 296.626)" fill="white" fill-opacity="0.43"/>
<ellipse rx="2.86054" ry="2.68769" transform="matrix(-0.936942 0.349485 -0.405844 -0.913942 1085.76 139.987)" fill="white"/>
<ellipse rx="2.86054" ry="2.68769" transform="matrix(-0.936942 0.349485 -0.405844 -0.913942 998.372 252.753)" fill="white"/>
<ellipse rx="2.86054" ry="2.68769" transform="matrix(-0.936942 0.349485 -0.405844 -0.913942 1167.66 338.498)" fill="white" fill-opacity="0.43"/>
<ellipse rx="2.86054" ry="2.68769" transform="matrix(-0.936942 0.349485 -0.405844 -0.913942 1323.73 211.564)" fill="white"/>
<ellipse rx="5.78581" ry="5.30563" transform="matrix(0.998698 0.051015 -0.0606998 0.998156 1640.94 107.682)" fill="white" fill-opacity="0.43"/>
<ellipse rx="5.78581" ry="5.30563" transform="matrix(0.998698 0.051015 -0.0606998 0.998156 1525.04 202.694)" fill="white" fill-opacity="0.43"/>
<ellipse rx="2.89291" ry="2.65282" transform="matrix(0.998698 0.051015 -0.0606998 0.998156 1749.9 269.96)" fill="white"/>
<ellipse rx="2.89291" ry="2.65282" transform="matrix(0.998698 0.051015 -0.0606998 0.998156 1531.95 136.644)" fill="white"/>
<ellipse rx="2.89291" ry="2.65282" transform="matrix(0.998698 0.051015 -0.0606998 0.998156 1715.59 71.6515)" fill="white" fill-opacity="0.43"/>
<ellipse rx="2.89291" ry="2.65282" transform="matrix(0.998698 0.051015 -0.0606998 0.998156 1637.55 211.098)" fill="white"/>
<ellipse rx="2.89291" ry="2.65282" transform="matrix(0.998698 0.051015 -0.0606998 0.998156 1769.19 143.451)" fill="white"/>
<ellipse rx="2.89291" ry="2.65282" transform="matrix(0.998698 0.051015 -0.0606998 0.998156 1455.89 53.0738)" fill="white"/>
<ellipse rx="5.32756" ry="5.76563" transform="matrix(0.234494 0.972118 -0.980083 0.198586 1617.01 373.16)" fill="white" fill-opacity="0.43"/>
<ellipse rx="5.32756" ry="5.76563" transform="matrix(0.234494 0.972118 -0.980083 0.198586 1664.83 276.555)" fill="white"/>
<ellipse rx="5.32756" ry="5.76563" transform="matrix(0.234494 0.972118 -0.980083 0.198586 1485.9 296.513)" fill="white" fill-opacity="0.43"/>
<ellipse rx="2.66378" ry="2.88281" transform="matrix(0.234494 0.972118 -0.980083 0.198586 1557.17 284.791)" fill="white"/>
<ellipse rx="2.66378" ry="2.88281" transform="matrix(0.234494 0.972118 -0.980083 0.198586 1675 429.309)" fill="white" fill-opacity="0.43"/>
<ellipse rx="2.66378" ry="2.88281" transform="matrix(0.234494 0.972118 -0.980083 0.198586 1507.44 398.076)" fill="white"/>
<ellipse rx="2.66378" ry="2.88281" transform="matrix(0.234494 0.972118 -0.980083 0.198586 1734.72 357.455)" fill="white" fill-opacity="0.43"/>
<ellipse rx="2.66378" ry="2.88281" transform="matrix(0.234494 0.972118 -0.980083 0.198586 1624.44 195.109)" fill="white"/>
<ellipse rx="5.42038" ry="5.67845" transform="matrix(-0.515104 0.857128 -0.892705 -0.450642 1375.3 430.428)" fill="white" fill-opacity="0.43"/>
<ellipse rx="2.71019" ry="2.83923" transform="matrix(-0.515104 0.857128 -0.892705 -0.450642 1552.4 438.079)" fill="white"/>
<ellipse rx="5.76309" ry="5.3303" transform="matrix(-0.977703 -0.209992 0.247724 -0.96883 1167.83 432.603)" fill="white" fill-opacity="0.43"/>
<ellipse rx="5.76309" ry="5.3303" transform="matrix(-0.977703 -0.209992 0.247724 -0.96883 1299.97 357.479)" fill="white" fill-opacity="0.43"/>
<ellipse rx="2.88155" ry="2.66515" transform="matrix(-0.977703 -0.209992 0.247724 -0.96883 1091.27 255.452)" fill="white"/>
<ellipse rx="2.88155" ry="2.66515" transform="matrix(-0.977703 -0.209992 0.247724 -0.96883 1280.65 421.426)" fill="white"/>
<ellipse rx="2.88155" ry="2.66515" transform="matrix(-0.977703 -0.209992 0.247724 -0.96883 1190.76 331.299)" fill="white"/>
<ellipse rx="2.88155" ry="2.66515" transform="matrix(-0.977703 -0.209992 0.247724 -0.96883 1048.31 376.972)" fill="white"/>
<ellipse rx="5.31661" ry="5.77572" transform="matrix(0.171628 0.985162 -0.989462 0.144795 295.816 103.369)" fill="white" fill-opacity="0.43"/>
<ellipse rx="5.31661" ry="5.77572" transform="matrix(0.171628 0.985162 -0.989462 0.144795 438.644 216.75)" fill="white"/>
<ellipse rx="2.65831" ry="2.88786" transform="matrix(0.171628 0.985162 -0.989462 0.144795 145.936 235.412)" fill="white"/>
<ellipse rx="2.65831" ry="2.88786" transform="matrix(0.171628 0.985162 -0.989462 0.144795 350.085 162.567)" fill="white" fill-opacity="0.43"/>
<ellipse rx="2.65831" ry="2.88786" transform="matrix(0.171628 0.985162 -0.989462 0.144795 184.837 122.296)" fill="white"/>
<ellipse rx="2.65831" ry="2.88786" transform="matrix(0.171628 0.985162 -0.989462 0.144795 284.916 225.815)" fill="white"/>
<ellipse rx="2.65831" ry="2.88786" transform="matrix(0.171628 0.985162 -0.989462 0.144795 414.341 94.081)" fill="white" fill-opacity="0.43"/>
<ellipse rx="5.70565" ry="5.39175" transform="matrix(-0.921292 0.388872 -0.448999 -0.893532 7.67752 138.313)" fill="white" fill-opacity="0.43"/>
<ellipse rx="5.70565" ry="5.39175" transform="matrix(-0.921292 0.388872 -0.448999 -0.893532 120.835 160.625)" fill="white"/>
<ellipse rx="2.85283" ry="2.69587" transform="matrix(-0.921292 0.388872 -0.448999 -0.893532 89.1901 65.9476)" fill="white"/>
<ellipse rx="2.85283" ry="2.69587" transform="matrix(-0.921292 0.388872 -0.448999 -0.893532 49.4235 240.401)" fill="white" fill-opacity="0.43"/>
<ellipse rx="2.85283" ry="2.69587" transform="matrix(-0.921292 0.388872 -0.448999 -0.893532 199.098 107.152)" fill="white"/>
<ellipse rx="5.51479" ry="5.58681" transform="matrix(0.684448 -0.729062 0.785221 0.619216 1597.89 281.651)" fill="white" fill-opacity="0.43"/>
<ellipse rx="5.51479" ry="5.58681" transform="matrix(0.684448 -0.729062 0.785221 0.619216 1484.85 304.468)" fill="white"/>
<ellipse rx="5.51479" ry="5.58681" transform="matrix(0.684448 -0.729062 0.785221 0.619216 1609.52 423.773)" fill="white" fill-opacity="0.43"/>
<ellipse rx="5.51479" ry="5.58681" transform="matrix(0.684448 -0.729062 0.785221 0.619216 1600.13 108.486)" fill="white"/>
<ellipse rx="2.75739" ry="2.79341" transform="matrix(0.684448 -0.729062 0.785221 0.619216 1804.68 301.281)" fill="white"/>
<ellipse rx="2.75739" ry="2.79341" transform="matrix(0.684448 -0.729062 0.785221 0.619216 1556.58 378.518)" fill="white"/>
<ellipse rx="2.75739" ry="2.79341" transform="matrix(0.684448 -0.729062 0.785221 0.619216 1612.17 205.448)" fill="white" fill-opacity="0.43"/>
<ellipse rx="2.75739" ry="2.79341" transform="matrix(0.684448 -0.729062 0.785221 0.619216 1685.32 347.101)" fill="white"/>
<ellipse rx="2.75739" ry="2.79341" transform="matrix(0.684448 -0.729062 0.785221 0.619216 1706.95 210.213)" fill="white"/>
<ellipse rx="2.75739" ry="2.79341" transform="matrix(0.684448 -0.729062 0.785221 0.619216 1513.62 204.701)" fill="white" fill-opacity="0.43"/>
<ellipse rx="2.75739" ry="2.79341" transform="matrix(0.684448 -0.729062 0.785221 0.619216 1437.93 382.917)" fill="white"/>
<ellipse rx="5.70362" ry="5.3939" transform="matrix(0.919199 0.393793 -0.454338 0.890829 1758.58 367.138)" fill="white"/>
<ellipse rx="2.85181" ry="2.69695" transform="matrix(0.919199 0.393793 -0.454338 0.890829 1700.13 450.417)" fill="white"/>
<ellipse rx="2.85181" ry="2.69695" transform="matrix(0.919199 0.393793 -0.454338 0.890829 1871.15 365.603)" fill="white" fill-opacity="0.43"/>
<ellipse rx="2.85181" ry="2.69695" transform="matrix(0.919199 0.393793 -0.454338 0.890829 1663.5 346.897)" fill="white"/>
<ellipse rx="5.5056" ry="5.59587" transform="matrix(-0.670192 -0.742188 0.796735 -0.604329 1364.8 204.17)" fill="white" fill-opacity="0.43"/>
<ellipse rx="5.5056" ry="5.59587" transform="matrix(-0.670192 -0.742188 0.796735 -0.604329 1370.33 310.131)" fill="white"/>
<ellipse rx="5.5056" ry="5.59587" transform="matrix(-0.670192 -0.742188 0.796735 -0.604329 1519.62 217.556)" fill="white" fill-opacity="0.43"/>
<ellipse rx="5.5056" ry="5.59587" transform="matrix(-0.670192 -0.742188 0.796735 -0.604329 1178.93 173.034)" fill="white"/>
<ellipse rx="2.7528" ry="2.79793" transform="matrix(-0.670192 -0.742188 0.796735 -0.604329 1462.04 257.786)" fill="white"/>
<ellipse rx="2.7528" ry="2.79793" transform="matrix(-0.670192 -0.742188 0.796735 -0.604329 1285.24 178.458)" fill="white" fill-opacity="0.43"/>
<ellipse rx="2.7528" ry="2.79793" transform="matrix(-0.670192 -0.742188 0.796735 -0.604329 1449.9 136.184)" fill="white"/>
<ellipse rx="2.7528" ry="2.79793" transform="matrix(-0.670192 -0.742188 0.796735 -0.604329 1306.3 93.6308)" fill="white"/>
<ellipse rx="2.7528" ry="2.79793" transform="matrix(-0.670192 -0.742188 0.796735 -0.604329 1267.87 267.368)" fill="white" fill-opacity="0.43"/>
<ellipse rx="2.7528" ry="2.79793" transform="matrix(-0.670192 -0.742188 0.796735 -0.604329 1446.82 365.717)" fill="white"/>
<ellipse rx="5.46559" ry="5.63495" transform="matrix(0.603271 -0.797536 0.844036 0.536287 1483.76 73.3675)" fill="white"/>
<ellipse rx="5.46559" ry="5.63495" transform="matrix(0.603271 -0.797536 0.844036 0.536287 1621.31 180.124)" fill="white" fill-opacity="0.43"/>
<ellipse rx="2.7328" ry="2.81747" transform="matrix(0.603271 -0.797536 0.844036 0.536287 1801.49 39.6752)" fill="white"/>
<ellipse rx="2.7328" ry="2.81747" transform="matrix(0.603271 -0.797536 0.844036 0.536287 1563.51 140.171)" fill="white"/>
<ellipse rx="2.7328" ry="2.81747" transform="matrix(0.603271 -0.797536 0.844036 0.536287 1687.99 96.6347)" fill="white"/>
<ellipse rx="2.7328" ry="2.81747" transform="matrix(0.603271 -0.797536 0.844036 0.536287 1446 155.869)" fill="white"/>
<ellipse rx="5.76025" ry="5.33337" transform="matrix(0.97503 -0.222074 0.261698 0.96515 1803.67 163.51)" fill="white" fill-opacity="0.43"/>
<ellipse rx="2.88013" ry="2.66669" transform="matrix(0.97503 -0.222074 0.261698 0.96515 1789.03 98.5259)" fill="white"/>
<ellipse rx="2.88013" ry="2.66669" transform="matrix(0.97503 -0.222074 0.261698 0.96515 1689.46 39.2232)" fill="white"/>
<ellipse rx="5.42601" ry="5.67307" transform="matrix(0.527025 0.84985 -0.886886 0.461988 1796.45 263.733)" fill="white" fill-opacity="0.43"/>
<ellipse rx="2.71301" ry="2.83654" transform="matrix(0.527025 0.84985 -0.886886 0.461988 1860.77 233.275)" fill="white"/>
<ellipse rx="2.71301" ry="2.83654" transform="matrix(0.527025 0.84985 -0.886886 0.461988 1849.7 354.963)" fill="white"/>
<ellipse rx="2.73013" ry="2.82006" transform="matrix(0.593666 0.804711 -0.850019 0.526751 650.373 140.573)" fill="white"/>
<ellipse rx="2.73013" ry="2.82006" transform="matrix(0.593666 0.804711 -0.850019 0.526751 633.483 22.9852)" fill="white"/>
<ellipse rx="2.73013" ry="2.82006" transform="matrix(0.593666 0.804711 -0.850019 0.526751 771.923 78.0589)" fill="white"/>
<ellipse rx="5.51118" ry="5.59037" transform="matrix(-0.678897 0.734234 -0.789771 -0.613402 480.304 106.102)" fill="white" fill-opacity="0.43"/>
<ellipse rx="5.51118" ry="5.59037" transform="matrix(-0.678897 0.734234 -0.789771 -0.613402 593.15 82.5075)" fill="white"/>
<ellipse rx="5.51118" ry="5.59037" transform="matrix(-0.678897 0.734234 -0.789771 -0.613402 479.483 279.275)" fill="white"/>
<ellipse rx="2.75559" ry="2.79519" transform="matrix(-0.678897 0.734234 -0.789771 -0.613402 273.359 87.8941)" fill="white"/>
<ellipse rx="2.75559" ry="2.79519" transform="matrix(-0.678897 0.734234 -0.789771 -0.613402 520.826 8.95125)" fill="white"/>
<ellipse rx="2.75559" ry="2.79519" transform="matrix(-0.678897 0.734234 -0.789771 -0.613402 466.648 182.401)" fill="white" fill-opacity="0.43"/>
<ellipse rx="2.75559" ry="2.79519" transform="matrix(-0.678897 0.734234 -0.789771 -0.613402 392.339 41.2564)" fill="white"/>
<ellipse rx="2.75559" ry="2.79519" transform="matrix(-0.678897 0.734234 -0.789771 -0.613402 371.836 178.287)" fill="white"/>
<ellipse rx="2.75559" ry="2.79519" transform="matrix(-0.678897 0.734234 -0.789771 -0.613402 565.2 182.468)" fill="white" fill-opacity="0.43"/>
<ellipse rx="2.75559" ry="2.79519" transform="matrix(-0.678897 0.734234 -0.789771 -0.613402 639.431 3.73787)" fill="white"/>
<ellipse rx="5.7076" ry="5.38968" transform="matrix(-0.923293 -0.384096 0.443806 -0.896123 364.025 426.158)" fill="white" fill-opacity="0.43"/>
<ellipse rx="2.8538" ry="2.69484" transform="matrix(-0.923293 -0.384096 0.443806 -0.896123 180.984 288.848)" fill="white"/>
<ellipse rx="2.8538" ry="2.69484" transform="matrix(-0.923293 -0.384096 0.443806 -0.896123 262.461 380.992)" fill="white"/>
<ellipse rx="2.8538" ry="2.69484" transform="matrix(-0.923293 -0.384096 0.443806 -0.896123 113.04 400.379)" fill="white"/>
<ellipse rx="5.31576" ry="5.7765" transform="matrix(0.165746 -0.986169 0.990181 0.139791 345.628 236.739)" fill="white" fill-opacity="0.43"/>
<ellipse rx="5.31576" ry="5.7765" transform="matrix(0.165746 -0.986169 0.990181 0.139791 262.895 310.926)" fill="white"/>
<ellipse rx="5.31576" ry="5.7765" transform="matrix(0.165746 -0.986169 0.990181 0.139791 437.561 351.684)" fill="white" fill-opacity="0.43"/>
<ellipse rx="5.31576" ry="5.7765" transform="matrix(0.165746 -0.986169 0.990181 0.139791 247.537 88.7274)" fill="white"/>
<ellipse rx="2.65788" ry="2.88825" transform="matrix(0.165746 -0.986169 0.990181 0.139791 532.422 153.096)" fill="white"/>
<ellipse rx="2.65788" ry="2.88825" transform="matrix(0.165746 -0.986169 0.990181 0.139791 366.505 338.97)" fill="white"/>
<ellipse rx="2.65788" ry="2.88825" transform="matrix(0.165746 -0.986169 0.990181 0.139791 313.741 165.156)" fill="white" fill-opacity="0.43"/>
<ellipse rx="2.65788" ry="2.88825" transform="matrix(0.165746 -0.986169 0.990181 0.139791 457.604 249.864)" fill="white"/>
<ellipse rx="2.65788" ry="2.88825" transform="matrix(0.165746 -0.986169 0.990181 0.139791 396.909 123.23)" fill="white"/>
<ellipse rx="2.65788" ry="2.88825" transform="matrix(0.165746 -0.986169 0.990181 0.139791 229.692 212.323)" fill="white" fill-opacity="0.43"/>
<ellipse rx="2.65788" ry="2.88825" transform="matrix(0.165746 -0.986169 0.990181 0.139791 268.372 400.248)" fill="white"/>
<ellipse rx="5.43078" ry="5.66851" transform="matrix(-0.536872 -0.843664 0.881913 -0.471413 36.9846 328.399)" fill="white" fill-opacity="0.43"/>
<ellipse rx="5.54326" ry="5.55856" transform="matrix(0.726433 -0.687238 0.747777 0.66395 141.506 164.121)" fill="white" fill-opacity="0.43"/>
<ellipse rx="5.54326" ry="5.55856" transform="matrix(0.726433 -0.687238 0.747777 0.66395 27.197 180.788)" fill="white"/>
<ellipse rx="5.54326" ry="5.55856" transform="matrix(0.726433 -0.687238 0.747777 0.66395 143.969 306.625)" fill="white" fill-opacity="0.43"/>
<ellipse rx="2.77163" ry="2.77928" transform="matrix(0.726433 -0.687238 0.747777 0.66395 346.675 194.899)" fill="white"/>
<ellipse rx="2.77163" ry="2.77928" transform="matrix(0.726433 -0.687238 0.747777 0.66395 94.0258 258.588)" fill="white"/>
<ellipse rx="2.77163" ry="2.77928" transform="matrix(0.726433 -0.687238 0.747777 0.66395 160.669 88.8238)" fill="white" fill-opacity="0.43"/>
<ellipse rx="2.77163" ry="2.77928" transform="matrix(0.726433 -0.687238 0.747777 0.66395 224.571 234.184)" fill="white"/>
<ellipse rx="2.77163" ry="2.77928" transform="matrix(0.726433 -0.687238 0.747777 0.66395 254.97 98.7042)" fill="white"/>
<ellipse rx="2.77163" ry="2.77928" transform="matrix(0.726433 -0.687238 0.747777 0.66395 62.3341 82.7501)" fill="white" fill-opacity="0.43"/>
<ellipse rx="2.69416" ry="2.85445" transform="matrix(-0.440332 0.897835 -0.924613 -0.380907 1817.58 154.479)" fill="white"/>
<ellipse rx="5.77701" ry="5.31522" transform="matrix(-0.990646 -0.136454 0.16182 -0.98682 1841.36 79.3308)" fill="white"/>
<ellipse rx="5.77701" ry="5.31522" transform="matrix(-0.990646 -0.136454 0.16182 -0.98682 1598.98 94.218)" fill="white"/>
<ellipse rx="2.8885" ry="2.65761" transform="matrix(-0.990646 -0.136454 0.16182 -0.98682 1733.9 110.12)" fill="white" fill-opacity="0.43"/>
<ellipse rx="5.31226" ry="5.77973" transform="matrix(-0.138779 -0.990323 0.993143 -0.116905 1221.8 86.6343)" fill="white"/>
<ellipse rx="5.31226" ry="5.77973" transform="matrix(-0.138779 -0.990323 0.993143 -0.116905 1401.96 81.4707)" fill="white" fill-opacity="0.43"/>
<ellipse rx="2.65613" ry="2.88986" transform="matrix(-0.138779 -0.990323 0.993143 -0.116905 1329.83 87.2866)" fill="white"/>
<ellipse rx="2.65613" ry="2.88986" transform="matrix(-0.138779 -0.990323 0.993143 -0.116905 1254.05 171.074)" fill="white"/>
<ellipse rx="5.71627" ry="5.38049" transform="matrix(0.932106 -0.362186 0.419841 0.907598 1509.74 99.625)" fill="white" fill-opacity="0.43"/>
<ellipse rx="2.85813" ry="2.69024" transform="matrix(0.932106 -0.362186 0.419841 0.907598 1743.92 69.1199)" fill="white"/>
<ellipse rx="2.85813" ry="2.69024" transform="matrix(0.932106 -0.362186 0.419841 0.907598 1484.17 37.5466)" fill="white"/>
<ellipse rx="2.85813" ry="2.69024" transform="matrix(0.932106 -0.362186 0.419841 0.907598 1614.77 61.6936)" fill="white"/>
<ellipse rx="5.78646" ry="5.30493" transform="matrix(-0.999287 -0.0377523 0.0449303 -0.99899 1060.15 101.364)" fill="white" fill-opacity="0.43"/>
<ellipse rx="5.78646" ry="5.30493" transform="matrix(-0.999287 -0.0377523 0.0449303 -0.99899 1149.81 168.454)" fill="white"/>
<ellipse rx="5.78646" ry="5.30493" transform="matrix(-0.999287 -0.0377523 0.0449303 -0.99899 910.585 207.193)" fill="white"/>
<ellipse rx="2.89323" ry="2.65246" transform="matrix(-0.999287 -0.0377523 0.0449303 -0.99899 1168.67 70.9588)" fill="white"/>
<ellipse rx="2.89323" ry="2.65246" transform="matrix(-0.999287 -0.0377523 0.0449303 -0.99899 986.08 138.381)" fill="white" fill-opacity="0.43"/>
<ellipse rx="2.89323" ry="2.65246" transform="matrix(-0.999287 -0.0377523 0.0449303 -0.99899 931.356 67.3001)" fill="white"/>
<ellipse rx="2.89323" ry="2.65246" transform="matrix(-0.999287 -0.0377523 0.0449303 -0.99899 1046.59 209.678)" fill="white" fill-opacity="0.43"/>
<ellipse rx="2.89323" ry="2.65246" transform="matrix(-0.999287 -0.0377523 0.0449303 -0.99899 1246.05 153.511)" fill="white"/>
<ellipse rx="2.89323" ry="2.65246" transform="matrix(-0.999287 -0.0377523 0.0449303 -0.99899 1492.88 61.1687)" fill="white"/>
</mask>
<g mask="url(#mask0)">
<rect width="2036" height="481" transform="matrix(-1 0 0 1 1913.07 -22)" fill="url(#paint0_linear)"/>
</g>
<defs>
<linearGradient id="paint0_linear" x1="1018" y1="56" x2="1018" y2="1063" gradientUnits="userSpaceOnUse">
<stop stop-color="#C4C4C4" stop-opacity="0"/>
<stop offset="1" stop-color="#C4C4C4"/>
</linearGradient>
</defs>
</svg>
