<svg width="1875" height="1026" viewBox="0 0 1875 1026" fill="none" xmlns="http://www.w3.org/2000/svg">
<g opacity="0.4">
<ellipse rx="5.32575" ry="5.7673" transform="matrix(-0.225323 0.974284 -0.981648 -0.1907 1659.7 725.939)" fill="white" fill-opacity="0.43"/>
<ellipse rx="5.32575" ry="5.7673" transform="matrix(-0.225323 0.974284 -0.981648 -0.1907 1746.83 656.117)" fill="white"/>
<ellipse rx="5.32575" ry="5.7673" transform="matrix(-0.225323 0.974284 -0.981648 -0.1907 1574.93 606.457)" fill="white" fill-opacity="0.43"/>
<ellipse rx="2.66287" ry="2.88365" transform="matrix(-0.225323 0.974284 -0.981648 -0.1907 1468.08 799.864)" fill="white"/>
<ellipse rx="2.66287" ry="2.88365" transform="matrix(-0.225323 0.974284 -0.981648 -0.1907 1645.1 622.799)" fill="white"/>
<ellipse rx="2.66287" ry="2.88365" transform="matrix(-0.225323 0.974284 -0.981648 -0.1907 1687.16 799.047)" fill="white" fill-opacity="0.43"/>
<ellipse rx="2.66287" ry="2.88365" transform="matrix(-0.225323 0.974284 -0.981648 -0.1907 1548.7 707.088)" fill="#FFF2C9"/>
<ellipse rx="2.66287" ry="2.88365" transform="matrix(-0.225323 0.974284 -0.981648 -0.1907 1773.95 756.27)" fill="white" fill-opacity="0.43"/>
<ellipse rx="2.66287" ry="2.88365" transform="matrix(-0.225323 0.974284 -0.981648 -0.1907 1746.82 566.653)" fill="white"/>
<ellipse rx="5.78533" ry="5.30616" transform="matrix(-0.998259 0.05899 -0.0701761 -0.997535 1377.08 663.745)" fill="white" fill-opacity="0.43"/>
<ellipse rx="5.78533" ry="5.30616" transform="matrix(-0.998259 0.05899 -0.0701761 -0.997535 1473.95 721.803)" fill="white"/>
<ellipse rx="5.78533" ry="5.30616" transform="matrix(-0.998259 0.05899 -0.0701761 -0.997535 1479.73 556.694)" fill="white" fill-opacity="0.43"/>
<ellipse rx="5.78533" ry="5.30616" transform="matrix(-0.998259 0.05899 -0.0701761 -0.997535 1240.51 783.433)" fill="white"/>
<ellipse rx="2.89266" ry="2.65308" transform="matrix(-0.998259 0.05899 -0.0701761 -0.997535 1247.7 514.597)" fill="white"/>
<ellipse rx="2.89266" ry="2.65308" transform="matrix(-0.998259 0.05899 -0.0701761 -0.997535 1481.5 623.028)" fill="white"/>
<ellipse rx="2.89266" ry="2.65308" transform="matrix(-0.998259 0.05899 -0.0701761 -0.997535 1307.68 707.711)" fill="white" fill-opacity="0.43"/>
<ellipse rx="2.89266" ry="2.65308" transform="matrix(-0.998259 0.05899 -0.0701761 -0.997535 1366.93 560.701)" fill="white"/>
<ellipse rx="2.89266" ry="2.65308" transform="matrix(-0.998259 0.05899 -0.0701761 -0.997535 1245.09 642.312)" fill="white"/>
<ellipse rx="2.89266" ry="2.65308" transform="matrix(-0.998259 0.05899 -0.0701761 -0.997535 1376.05 772.766)" fill="white" fill-opacity="0.43"/>
<ellipse rx="2.89266" ry="2.65308" transform="matrix(-0.998259 0.05899 -0.0701761 -0.997535 1567.94 697.647)" fill="white"/>
<ellipse rx="5.36037" ry="5.73514" transform="matrix(-0.361364 -0.932425 0.950883 -0.309551 904.595 748.016)" fill="white" fill-opacity="0.43"/>
<ellipse rx="5.36037" ry="5.73514" transform="matrix(-0.361364 -0.932425 0.950883 -0.309551 1045.01 809.247)" fill="white" fill-opacity="0.43"/>
<ellipse rx="5.36037" ry="5.73514" transform="matrix(-0.361364 -0.932425 0.950883 -0.309551 741.649 660.344)" fill="white"/>
<ellipse rx="2.68018" ry="2.86757" transform="matrix(-0.361364 -0.932425 0.950883 -0.309551 1025.76 593.182)" fill="white"/>
<ellipse rx="2.68018" ry="2.86757" transform="matrix(-0.361364 -0.932425 0.950883 -0.309551 975.876 828.94)" fill="white"/>
<ellipse rx="2.68018" ry="2.86757" transform="matrix(-0.361364 -0.932425 0.950883 -0.309551 839.482 698.854)" fill="white" fill-opacity="0.43"/>
<ellipse rx="2.68018" ry="2.86757" transform="matrix(-0.361364 -0.932425 0.950883 -0.309551 1009.97 710.896)" fill="white"/>
<ellipse rx="2.68018" ry="2.86757" transform="matrix(-0.361364 -0.932425 0.950883 -0.309551 891.006 625.791)" fill="white"/>
<ellipse rx="2.68018" ry="2.86757" transform="matrix(-0.361364 -0.932425 0.950883 -0.309551 789.896 776.91)" fill="white" fill-opacity="0.43"/>
<ellipse rx="5.63121" ry="5.46944" transform="matrix(0.83967 -0.543097 0.610097 0.792327 1180.99 665.606)" fill="white" fill-opacity="0.43"/>
<ellipse rx="5.63121" ry="5.46944" transform="matrix(0.83967 -0.543097 0.610097 0.792327 1065.29 662.536)" fill="white"/>
<ellipse rx="5.63121" ry="5.46944" transform="matrix(0.83967 -0.543097 0.610097 0.792327 1154.55 806.052)" fill="white" fill-opacity="0.43"/>
<ellipse rx="5.63121" ry="5.46944" transform="matrix(0.83967 -0.543097 0.610097 0.792327 1229.12 498.144)" fill="white"/>
<ellipse rx="2.81561" ry="2.73472" transform="matrix(0.83967 -0.543097 0.610097 0.792327 1376.36 730.752)" fill="white"/>
<ellipse rx="2.81561" ry="2.73472" transform="matrix(0.83967 -0.543097 0.610097 0.792327 1115.2 750.352)" fill="white"/>
<ellipse rx="2.81561" ry="2.73472" transform="matrix(0.83967 -0.543097 0.610097 0.792327 1215.06 594.876)" fill="white" fill-opacity="0.43"/>
<ellipse rx="2.81561" ry="2.73472" transform="matrix(0.83967 -0.543097 0.610097 0.792327 1248.42 748.582)" fill="white"/>
<ellipse rx="2.81561" ry="2.73472" transform="matrix(0.83967 -0.543097 0.610097 0.792327 1305.73 620.629)" fill="white"/>
<ellipse rx="2.81561" ry="2.73472" transform="matrix(0.83967 -0.543097 0.610097 0.792327 1119.67 572.181)" fill="white" fill-opacity="0.43"/>
<ellipse rx="2.81561" ry="2.73472" transform="matrix(0.83967 -0.543097 0.610097 0.792327 998.951 728.165)" fill="white"/>
<ellipse rx="5.77361" ry="5.31891" transform="matrix(-0.987509 0.157563 -0.186613 -0.982434 805.048 778.515)" fill="white" fill-opacity="0.43"/>
<ellipse rx="2.8868" ry="2.65945" transform="matrix(-0.987509 0.157563 -0.186613 -0.982434 569.417 759.581)" fill="white"/>
<ellipse rx="2.8868" ry="2.65945" transform="matrix(-0.987509 0.157563 -0.186613 -0.982434 693.37 793.641)" fill="white"/>
<ellipse rx="5.3971" ry="5.70058" transform="matrix(-0.462175 -0.886789 0.916062 -0.401038 673.412 631.517)" fill="white" fill-opacity="0.43"/>
<ellipse rx="5.3971" ry="5.70058" transform="matrix(-0.462175 -0.886789 0.916062 -0.401038 650.659 735.528)" fill="white"/>
<ellipse rx="5.3971" ry="5.70058" transform="matrix(-0.462175 -0.886789 0.916062 -0.401038 820.027 679.017)" fill="white" fill-opacity="0.43"/>
<ellipse rx="2.69855" ry="2.85029" transform="matrix(-0.462175 -0.886789 0.916062 -0.401038 776.326 465.962)" fill="white"/>
<ellipse rx="2.69855" ry="2.85029" transform="matrix(-0.462175 -0.886789 0.916062 -0.401038 753.502 705.2)" fill="white"/>
<ellipse rx="2.69855" ry="2.85029" transform="matrix(-0.462175 -0.886789 0.916062 -0.401038 603.066 588.838)" fill="white" fill-opacity="0.43"/>
<ellipse rx="2.69855" ry="2.85029" transform="matrix(-0.462175 -0.886789 0.916062 -0.401038 646.009 511.257)" fill="white"/>
<ellipse rx="2.69855" ry="2.85029" transform="matrix(-0.462175 -0.886789 0.916062 -0.401038 562.618 671.205)" fill="white" fill-opacity="0.43"/>
<ellipse rx="2.69855" ry="2.85029" transform="matrix(-0.462175 -0.886789 0.916062 -0.401038 710.092 806.497)" fill="white"/>
<ellipse rx="5.3413" ry="5.7529" transform="matrix(0.294646 -0.955607 0.968059 0.250725 818.819 401.268)" fill="white" fill-opacity="0.43"/>
<ellipse rx="5.3413" ry="5.7529" transform="matrix(0.294646 -0.955607 0.968059 0.250725 726.81 465.625)" fill="white"/>
<ellipse rx="5.3413" ry="5.7529" transform="matrix(0.294646 -0.955607 0.968059 0.250725 894.73 525.653)" fill="white" fill-opacity="0.43"/>
<ellipse rx="5.3413" ry="5.7529" transform="matrix(0.294646 -0.955607 0.968059 0.250725 741.213 243.373)" fill="white"/>
<ellipse rx="2.67065" ry="2.87645" transform="matrix(0.294646 -0.955607 0.968059 0.250725 1015.37 339.182)" fill="white"/>
<ellipse rx="2.67065" ry="2.87645" transform="matrix(0.294646 -0.955607 0.968059 0.250725 825.906 505.07)" fill="white"/>
<ellipse rx="2.67065" ry="2.87645" transform="matrix(0.294646 -0.955607 0.968059 0.250725 796.724 326.648)" fill="white" fill-opacity="0.43"/>
<ellipse rx="2.67065" ry="2.87645" transform="matrix(0.294646 -0.955607 0.968059 0.250725 928.206 426.842)" fill="white"/>
<ellipse rx="2.67065" ry="2.87645" transform="matrix(0.294646 -0.955607 0.968059 0.250725 884.862 294.358)" fill="white"/>
<ellipse rx="2.67065" ry="2.87645" transform="matrix(0.294646 -0.955607 0.968059 0.250725 707.015 364.043)" fill="white" fill-opacity="0.43"/>
<ellipse rx="2.67065" ry="2.87645" transform="matrix(0.294646 -0.955607 0.968059 0.250725 720.335 554.892)" fill="white"/>
<ellipse rx="5.78724" ry="5.30407" transform="matrix(0.999998 0.00197257 -0.00234832 0.999997 1096.3 480.545)" fill="white" fill-opacity="0.43"/>
<ellipse rx="5.78724" ry="5.30407" transform="matrix(0.999998 0.00197257 -0.00234832 0.999997 1003.85 416.716)" fill="white"/>
<ellipse rx="5.78724" ry="5.30407" transform="matrix(0.999998 0.00197257 -0.00234832 0.999997 986.106 581.106)" fill="white" fill-opacity="0.43"/>
<ellipse rx="5.78724" ry="5.30407" transform="matrix(0.999998 0.00197257 -0.00234832 0.999997 1241.24 369.445)" fill="white"/>
<ellipse rx="2.89362" ry="2.65204" transform="matrix(0.999998 0.00197257 -0.00234832 0.999997 1214.57 637.249)" fill="white"/>
<ellipse rx="2.89362" ry="2.65204" transform="matrix(0.999998 0.00197257 -0.00234832 0.999997 989.156 514.812)" fill="white"/>
<ellipse rx="2.89362" ry="2.65204" transform="matrix(0.999998 0.00197257 -0.00234832 0.999997 1168.73 440.908)" fill="white" fill-opacity="0.43"/>
<ellipse rx="2.89362" ry="2.65204" transform="matrix(0.999998 0.00197257 -0.00234832 0.999997 1098.95 583.979)" fill="white"/>
<ellipse rx="2.89362" ry="2.65204" transform="matrix(0.999998 0.00197257 -0.00234832 0.999997 1226.45 509.974)" fill="#FFF2C9"/>
<ellipse rx="2.89362" ry="2.65204" transform="matrix(0.999998 0.00197257 -0.00234832 0.999997 1105.24 371.828)" fill="white" fill-opacity="0.43"/>
<ellipse rx="2.89362" ry="2.65204" transform="matrix(0.999998 0.00197257 -0.00234832 0.999997 908.319 435.09)" fill="white"/>
<ellipse cx="517.739" cy="242.131" rx="5.78725" ry="5.30407" fill="white" fill-opacity="0.43"/>
<ellipse cx="425.145" cy="178.481" rx="5.78725" ry="5.30407" fill="white"/>
<ellipse cx="407.78" cy="342.908" rx="5.78725" ry="5.30407" fill="white" fill-opacity="0.43"/>
<ellipse cx="662.42" cy="130.744" rx="5.78725" ry="5.30407" fill="white"/>
<ellipse cx="636.377" cy="398.6" rx="2.89362" ry="2.65203" fill="white"/>
<ellipse cx="410.677" cy="276.608" rx="2.89362" ry="2.65203" fill="white"/>
<ellipse cx="590.08" cy="202.35" rx="2.89362" ry="2.65203" fill="white" fill-opacity="0.43"/>
<ellipse cx="520.633" cy="345.559" rx="2.89362" ry="2.65203" fill="white"/>
<ellipse cx="647.953" cy="271.302" rx="2.89362" ry="2.65203" fill="white"/>
<ellipse cx="526.421" cy="133.396" rx="2.89362" ry="2.65203" fill="white" fill-opacity="0.43"/>
<ellipse cx="329.655" cy="197.045" rx="2.89362" ry="2.65203" fill="white"/>
<ellipse rx="5.34073" ry="5.75343" transform="matrix(0.292432 0.956286 -0.968557 0.248792 509.955 508.419)" fill="white" fill-opacity="0.43"/>
<ellipse rx="5.34073" ry="5.75343" transform="matrix(0.292432 0.956286 -0.968557 0.248792 551.84 409.524)" fill="white"/>
<ellipse rx="5.34073" ry="5.75343" transform="matrix(0.292432 0.956286 -0.968557 0.248792 374.405 438.577)" fill="white" fill-opacity="0.43"/>
<ellipse rx="5.34073" ry="5.75343" transform="matrix(0.292432 0.956286 -0.968557 0.248792 666.026 606.041)" fill="white"/>
<ellipse rx="2.67037" ry="2.87671" transform="matrix(0.292432 0.956286 -0.968557 0.248792 377.585 655.344)" fill="white"/>
<ellipse rx="2.67037" ry="2.87671" transform="matrix(0.292432 0.956286 -0.968557 0.248792 444.842 423.238)" fill="white"/>
<ellipse rx="2.67037" ry="2.87671" transform="matrix(0.292432 0.956286 -0.968557 0.248792 571.276 561.523)" fill="white" fill-opacity="0.43"/>
<ellipse rx="2.67037" ry="2.87671" transform="matrix(0.292432 0.956286 -0.968557 0.248792 402.075 538.886)" fill="white"/>
<ellipse rx="2.67037" ry="2.87671" transform="matrix(0.292432 0.956286 -0.968557 0.248792 514.446 631.205)" fill="white"/>
<ellipse rx="2.67037" ry="2.87671" transform="matrix(0.292432 0.956286 -0.968557 0.248792 626.539 486.735)" fill="white" fill-opacity="0.43"/>
<ellipse rx="2.67037" ry="2.87671" transform="matrix(0.292432 0.956286 -0.968557 0.248792 506.563 330.265)" fill="white"/>
<ellipse rx="5.65927" ry="5.44041" transform="matrix(-0.871714 0.490014 -0.55616 -0.831075 734.118 775.971)" fill="white" fill-opacity="0.43"/>
<ellipse rx="2.82963" ry="2.7202" transform="matrix(-0.871714 0.490014 -0.55616 -0.831075 636.404 827.785)" fill="white"/>
<ellipse rx="5.56922" ry="5.53255" transform="matrix(-0.762191 -0.647352 0.711005 -0.703187 552.6 683.843)" fill="white" fill-opacity="0.43"/>
<ellipse rx="5.56922" ry="5.53255" transform="matrix(-0.762191 -0.647352 0.711005 -0.703187 573.313 788.213)" fill="white"/>
<ellipse rx="5.56922" ry="5.53255" transform="matrix(-0.762191 -0.647352 0.711005 -0.703187 707.99 678.425)" fill="white" fill-opacity="0.43"/>
<ellipse rx="5.56922" ry="5.53255" transform="matrix(-0.762191 -0.647352 0.711005 -0.703187 363.874 675.411)" fill="white"/>
<ellipse rx="2.78461" ry="2.76627" transform="matrix(-0.762191 -0.647352 0.711005 -0.703187 581.628 495.169)" fill="white"/>
<ellipse rx="2.78461" ry="2.76627" transform="matrix(-0.762191 -0.647352 0.711005 -0.703187 656.7 725.253)" fill="white"/>
<ellipse rx="2.78461" ry="2.76627" transform="matrix(-0.762191 -0.647352 0.711005 -0.703187 470.041 667.956)" fill="white" fill-opacity="0.43"/>
<ellipse rx="2.78461" ry="2.76627" transform="matrix(-0.762191 -0.647352 0.711005 -0.703187 627.188 606.179)" fill="white"/>
<ellipse rx="2.78461" ry="2.76627" transform="matrix(-0.762191 -0.647352 0.711005 -0.703187 478.727 581.328)" fill="white"/>
<ellipse rx="2.78461" ry="2.76627" transform="matrix(-0.762191 -0.647352 0.711005 -0.703187 465.593 758.19)" fill="white" fill-opacity="0.43"/>
<ellipse rx="5.32531" ry="5.76771" transform="matrix(-0.223053 -0.974806 0.982025 -0.18875 372.63 798.146)" fill="white" fill-opacity="0.43"/>
<ellipse rx="5.32531" ry="5.76771" transform="matrix(-0.223053 -0.974806 0.982025 -0.18875 223.991 691.229)" fill="white"/>
<ellipse rx="2.66265" ry="2.88385" transform="matrix(-0.223053 -0.974806 0.982025 -0.18875 515.369 659.613)" fill="white"/>
<ellipse rx="2.66265" ry="2.88385" transform="matrix(-0.223053 -0.974806 0.982025 -0.18875 315.304 741.422)" fill="white" fill-opacity="0.43"/>
<ellipse rx="2.66265" ry="2.88385" transform="matrix(-0.223053 -0.974806 0.982025 -0.18875 482.485 774.323)" fill="white"/>
<ellipse rx="2.66265" ry="2.88385" transform="matrix(-0.223053 -0.974806 0.982025 -0.18875 377.058 675.36)" fill="white"/>
<ellipse rx="2.66265" ry="2.88385" transform="matrix(-0.223053 -0.974806 0.982025 -0.18875 254.74 812.677)" fill="white" fill-opacity="0.43"/>
<ellipse rx="5.31465" ry="5.77753" transform="matrix(0.157654 0.987494 -0.991127 0.132916 1263.37 174.493)" fill="white" fill-opacity="0.43"/>
<ellipse rx="5.31465" ry="5.77753" transform="matrix(0.157654 0.987494 -0.991127 0.132916 1404.56 289.571)" fill="white"/>
<ellipse rx="2.65732" ry="2.88877" transform="matrix(0.157654 0.987494 -0.991127 0.132916 1111.62 304.732)" fill="white"/>
<ellipse rx="2.65732" ry="2.88877" transform="matrix(0.157654 0.987494 -0.991127 0.132916 1316.79 234.335)" fill="white" fill-opacity="0.43"/>
<ellipse rx="2.65732" ry="2.88877" transform="matrix(0.157654 0.987494 -0.991127 0.132916 1152.12 192.09)" fill="white"/>
<ellipse rx="2.65732" ry="2.88877" transform="matrix(0.157654 0.987494 -0.991127 0.132916 1250.72 296.798)" fill="white"/>
<ellipse rx="2.65732" ry="2.88877" transform="matrix(0.157654 0.987494 -0.991127 0.132916 1382.01 166.621)" fill="white" fill-opacity="0.43"/>
<ellipse rx="5.71025" ry="5.38687" transform="matrix(-0.926 0.377524 -0.436642 -0.899635 974.752 205.987)" fill="white" fill-opacity="0.43"/>
<ellipse rx="5.71025" ry="5.38687" transform="matrix(-0.926 0.377524 -0.436642 -0.899635 1087.58 229.649)" fill="white"/>
<ellipse rx="5.71025" ry="5.38687" transform="matrix(-0.926 0.377524 -0.436642 -0.899635 891.959 361.652)" fill="white"/>
<ellipse rx="2.85512" ry="2.69344" transform="matrix(-0.926 0.377524 -0.436642 -0.899635 796.972 107.218)" fill="white"/>
<ellipse rx="2.85512" ry="2.69344" transform="matrix(-0.926 0.377524 -0.436642 -0.899635 1057.29 134.606)" fill="white"/>
<ellipse rx="2.85512" ry="2.69344" transform="matrix(-0.926 0.377524 -0.436642 -0.899635 926.301 269.282)" fill="white" fill-opacity="0.43"/>
<ellipse rx="2.85512" ry="2.69344" transform="matrix(-0.926 0.377524 -0.436642 -0.899635 926.246 112.564)" fill="white"/>
<ellipse rx="2.85512" ry="2.69344" transform="matrix(-0.926 0.377524 -0.436642 -0.899635 842.842 227.838)" fill="white"/>
<ellipse rx="2.85512" ry="2.69344" transform="matrix(-0.926 0.377524 -0.436642 -0.899635 1015.04 308.569)" fill="white" fill-opacity="0.43"/>
<ellipse rx="2.85512" ry="2.69344" transform="matrix(-0.926 0.377524 -0.436642 -0.899635 1166.6 177.118)" fill="white"/>
<ellipse rx="5.50757" ry="5.59393" transform="matrix(-0.673274 -0.739393 0.794293 -0.607535 563.484 435.204)" fill="white" fill-opacity="0.43"/>
<ellipse rx="5.50757" ry="5.59393" transform="matrix(-0.673274 -0.739393 0.794293 -0.607535 569.495 541.142)" fill="white"/>
<ellipse rx="5.50757" ry="5.59393" transform="matrix(-0.673274 -0.739393 0.794293 -0.607535 718.362 448.004)" fill="white" fill-opacity="0.43"/>
<ellipse rx="5.50757" ry="5.59393" transform="matrix(-0.673274 -0.739393 0.794293 -0.607535 377.475 404.766)" fill="white"/>
<ellipse rx="2.75378" ry="2.79697" transform="matrix(-0.673274 -0.739393 0.794293 -0.607535 618.545 251.466)" fill="white"/>
<ellipse rx="2.75378" ry="2.79697" transform="matrix(-0.673274 -0.739393 0.794293 -0.607535 660.966 488.451)" fill="white"/>
<ellipse rx="2.75378" ry="2.79697" transform="matrix(-0.673274 -0.739393 0.794293 -0.607535 483.811 409.79)" fill="white" fill-opacity="0.43"/>
<ellipse rx="2.75378" ry="2.79697" transform="matrix(-0.673274 -0.739393 0.794293 -0.607535 648.272 366.896)" fill="white"/>
<ellipse rx="2.75378" ry="2.79697" transform="matrix(-0.673274 -0.739393 0.794293 -0.607535 504.49 324.885)" fill="white"/>
<ellipse rx="2.75378" ry="2.79697" transform="matrix(-0.673274 -0.739393 0.794293 -0.607535 466.832 498.765)" fill="white" fill-opacity="0.43"/>
<ellipse rx="2.75378" ry="2.79697" transform="matrix(-0.673274 -0.739393 0.794293 -0.607535 646.232 596.44)" fill="white"/>
<ellipse rx="5.46371" ry="5.63677" transform="matrix(0.599897 -0.800078 0.846159 0.532931 791.538 270.06)" fill="white" fill-opacity="0.43"/>
<ellipse rx="5.46371" ry="5.63677" transform="matrix(0.599897 -0.800078 0.846159 0.532931 681.863 303.954)" fill="white"/>
<ellipse rx="5.46371" ry="5.63677" transform="matrix(0.599897 -0.800078 0.846159 0.532931 819.886 410.191)" fill="white" fill-opacity="0.43"/>
<ellipse rx="2.73186" ry="2.81839" transform="matrix(0.599897 -0.800078 0.846159 0.532931 999.434 269.065)" fill="white"/>
<ellipse rx="2.73186" ry="2.81839" transform="matrix(0.599897 -0.800078 0.846159 0.532931 761.907 370.456)" fill="white"/>
<ellipse rx="2.73186" ry="2.81839" transform="matrix(0.599897 -0.800078 0.846159 0.532931 796.738 192.886)" fill="white" fill-opacity="0.43"/>
<ellipse rx="2.73186" ry="2.81839" transform="matrix(0.599897 -0.800078 0.846159 0.532931 886.188 326.451)" fill="white"/>
<ellipse rx="2.73186" ry="2.81839" transform="matrix(0.599897 -0.800078 0.846159 0.532931 891.519 188.225)" fill="white"/>
<ellipse rx="2.73186" ry="2.81839" transform="matrix(0.599897 -0.800078 0.846159 0.532931 698.676 201.92)" fill="white" fill-opacity="0.43"/>
<ellipse rx="2.73186" ry="2.81839" transform="matrix(0.599897 -0.800078 0.846159 0.532931 644.475 386.595)" fill="white"/>
<ellipse rx="5.66911" ry="5.43015" transform="matrix(-0.882574 0.470172 -0.535579 -0.844485 441.847 633.224)" fill="white" fill-opacity="0.43"/>
<ellipse rx="5.66911" ry="5.43015" transform="matrix(-0.882574 0.470172 -0.535579 -0.844485 556.801 645.605)" fill="white"/>
<ellipse rx="5.66911" ry="5.43015" transform="matrix(-0.882574 0.470172 -0.535579 -0.844485 481.653 495.452)" fill="white" fill-opacity="0.43"/>
<ellipse rx="5.66911" ry="5.43015" transform="matrix(-0.882574 0.470172 -0.535579 -0.844485 377.837 796.159)" fill="white"/>
<ellipse rx="2.83456" ry="2.71507" transform="matrix(-0.882574 0.470172 -0.535579 -0.844485 253.487 552.588)" fill="white"/>
<ellipse rx="2.83456" ry="2.71507" transform="matrix(-0.882574 0.470172 -0.535579 -0.844485 401.116 700.935)" fill="white" fill-opacity="0.43"/>
<ellipse rx="2.83456" ry="2.71507" transform="matrix(-0.882574 0.470172 -0.535579 -0.844485 382.635 545.137)" fill="white"/>
<ellipse rx="2.83456" ry="2.71507" transform="matrix(-0.882574 0.470172 -0.535579 -0.844485 313.275 667.975)" fill="white"/>
<ellipse rx="2.83456" ry="2.71507" transform="matrix(-0.882574 0.470172 -0.535579 -0.844485 493.959 731.227)" fill="white" fill-opacity="0.43"/>
<ellipse rx="2.83456" ry="2.71507" transform="matrix(-0.882574 0.470172 -0.535579 -0.844485 629.181 585.575)" fill="white"/>
<ellipse rx="5.55785" ry="5.54397" transform="matrix(-0.746805 -0.665043 0.727442 -0.686169 302.565 399.419)" fill="white" fill-opacity="0.43"/>
<ellipse rx="5.55785" ry="5.54397" transform="matrix(-0.746805 -0.665043 0.727442 -0.686169 320.58 504.207)" fill="white"/>
<ellipse rx="5.55785" ry="5.54397" transform="matrix(-0.746805 -0.665043 0.727442 -0.686169 458.057 397.369)" fill="white" fill-opacity="0.43"/>
<ellipse rx="5.55785" ry="5.54397" transform="matrix(-0.746805 -0.665043 0.727442 -0.686169 114.11 386.899)" fill="white"/>
<ellipse rx="2.77893" ry="2.77199" transform="matrix(-0.746805 -0.665043 0.727442 -0.686169 336.453 211.425)" fill="white"/>
<ellipse rx="2.77893" ry="2.77199" transform="matrix(-0.746805 -0.665043 0.727442 -0.686169 405.567 443.072)" fill="white"/>
<ellipse rx="2.77893" ry="2.77199" transform="matrix(-0.746805 -0.665043 0.727442 -0.686169 220.439 381.746)" fill="white" fill-opacity="0.43"/>
<ellipse rx="2.77893" ry="2.77199" transform="matrix(-0.746805 -0.665043 0.727442 -0.686169 379.133 323.39)" fill="white"/>
<ellipse rx="2.77893" ry="2.77199" transform="matrix(-0.746805 -0.665043 0.727442 -0.686169 231.357 295.332)" fill="white"/>
<ellipse rx="2.77893" ry="2.77199" transform="matrix(-0.746805 -0.665043 0.727442 -0.686169 213.665 471.858)" fill="white" fill-opacity="0.43"/>
<ellipse rx="2.77893" ry="2.77199" transform="matrix(-0.746805 -0.665043 0.727442 -0.686169 403.183 551.88)" fill="white"/>
<ellipse rx="5.30719" ry="5.78438" transform="matrix(-0.0857861 -0.996314 0.997395 -0.0721377 351.826 137.24)" fill="white" fill-opacity="0.43"/>
<ellipse rx="5.30719" ry="5.78438" transform="matrix(-0.0857861 -0.996314 0.997395 -0.0721377 289.877 226.848)" fill="#FFF2C9"/>
<ellipse rx="5.30719" ry="5.78438" transform="matrix(-0.0857861 -0.996314 0.997395 -0.0721377 470.092 229.776)" fill="white" fill-opacity="0.43"/>
<ellipse rx="2.6536" ry="2.89219" transform="matrix(-0.0857861 -0.996314 0.997395 -0.0721377 397.75 232.349)" fill="white"/>
<ellipse rx="2.6536" ry="2.89219" transform="matrix(-0.0857861 -0.996314 0.997395 -0.0721377 464.102 126.46)" fill="white"/>
<ellipse rx="2.6536" ry="2.89219" transform="matrix(-0.0857861 -0.996314 0.997395 -0.0721377 232.874 137.862)" fill="white" fill-opacity="0.43"/>
<ellipse rx="2.6536" ry="2.89219" transform="matrix(-0.0857861 -0.996314 0.997395 -0.0721377 317.579 312.635)" fill="white"/>
<ellipse rx="5.73194" ry="5.36379" transform="matrix(0.947739 -0.319047 0.372004 0.928231 642.08 123.402)" fill="white" fill-opacity="0.43"/>
<ellipse rx="5.73194" ry="5.36379" transform="matrix(0.947739 -0.319047 0.372004 0.928231 531.22 92.9157)" fill="white"/>
<ellipse rx="5.73194" ry="5.36379" transform="matrix(0.947739 -0.319047 0.372004 0.928231 576.78 252.745)" fill="white" fill-opacity="0.43"/>
<ellipse rx="2.86597" ry="2.68189" transform="matrix(0.947739 -0.319047 0.372004 0.928231 812.311 232.787)" fill="white"/>
<ellipse rx="2.86597" ry="2.68189" transform="matrix(0.947739 -0.319047 0.372004 0.928231 554.553 189.595)" fill="white"/>
<ellipse rx="2.86597" ry="2.68189" transform="matrix(0.947739 -0.319047 0.372004 0.928231 683.706 219.574)" fill="white"/>
<ellipse rx="2.86597" ry="2.68189" transform="matrix(0.947739 -0.319047 0.372004 0.928231 775.288 109.639)" fill="white"/>
<ellipse rx="2.86597" ry="2.68189" transform="matrix(0.947739 -0.319047 0.372004 0.928231 448.571 140.516)" fill="white"/>
<ellipse cx="169.587" cy="369.429" rx="5.78725" ry="5.30407" fill="white" fill-opacity="0.43"/>
<ellipse cx="76.9907" cy="305.78" rx="5.78725" ry="5.30407" fill="white"/>
<ellipse cx="59.629" cy="470.206" rx="5.78725" ry="5.30407" fill="white" fill-opacity="0.43"/>
<ellipse cx="314.266" cy="258.042" rx="5.78725" ry="5.30407" fill="white"/>
<ellipse cx="288.228" cy="525.899" rx="2.89362" ry="2.65203" fill="white"/>
<ellipse cx="62.5209" cy="403.904" rx="2.89362" ry="2.65203" fill="white"/>
<ellipse cx="241.926" cy="329.648" rx="2.89362" ry="2.65203" fill="white" fill-opacity="0.43"/>
<ellipse cx="172.479" cy="472.858" rx="2.89362" ry="2.65203" fill="white"/>
<ellipse cx="299.799" cy="398.6" rx="2.89362" ry="2.65203" fill="white"/>
<ellipse cx="178.27" cy="260.695" rx="2.89362" ry="2.65203" fill="white" fill-opacity="0.43"/>
<ellipse rx="5.34073" ry="5.75343" transform="matrix(0.292432 0.956286 -0.968557 0.248792 161.806 635.716)" fill="white" fill-opacity="0.43"/>
<ellipse rx="5.34073" ry="5.75343" transform="matrix(0.292432 0.956286 -0.968557 0.248792 203.684 536.823)" fill="white"/>
<ellipse rx="5.34073" ry="5.75343" transform="matrix(0.292432 0.956286 -0.968557 0.248792 26.2537 565.875)" fill="white" fill-opacity="0.43"/>
<ellipse rx="5.34073" ry="5.75343" transform="matrix(0.292432 0.956286 -0.968557 0.248792 317.872 733.338)" fill="white"/>
<ellipse rx="2.67037" ry="2.87671" transform="matrix(0.292432 0.956286 -0.968557 0.248792 29.434 782.642)" fill="white"/>
<ellipse rx="2.67037" ry="2.87671" transform="matrix(0.292432 0.956286 -0.968557 0.248792 96.6882 550.534)" fill="white"/>
<ellipse rx="2.67037" ry="2.87671" transform="matrix(0.292432 0.956286 -0.968557 0.248792 223.122 688.82)" fill="white" fill-opacity="0.43"/>
<ellipse rx="2.67037" ry="2.87671" transform="matrix(0.292432 0.956286 -0.968557 0.248792 53.9213 666.181)" fill="white"/>
<ellipse rx="2.67037" ry="2.87671" transform="matrix(0.292432 0.956286 -0.968557 0.248792 166.292 758.502)" fill="white"/>
<ellipse rx="2.67037" ry="2.87671" transform="matrix(0.292432 0.956286 -0.968557 0.248792 278.383 614.033)" fill="white" fill-opacity="0.43"/>
<ellipse rx="2.67037" ry="2.87671" transform="matrix(0.292432 0.956286 -0.968557 0.248792 158.414 457.563)" fill="white"/>
<ellipse rx="5.56922" ry="5.53255" transform="matrix(-0.762191 -0.647352 0.711005 -0.703187 204.449 811.141)" fill="white" fill-opacity="0.43"/>
<ellipse rx="5.56922" ry="5.53255" transform="matrix(-0.762191 -0.647352 0.711005 -0.703187 359.841 805.724)" fill="white" fill-opacity="0.43"/>
<ellipse rx="5.56922" ry="5.53255" transform="matrix(-0.762191 -0.647352 0.711005 -0.703187 15.723 802.708)" fill="white"/>
<ellipse rx="2.78461" ry="2.76627" transform="matrix(-0.762191 -0.647352 0.711005 -0.703187 233.474 622.467)" fill="white"/>
<ellipse rx="2.78461" ry="2.76627" transform="matrix(-0.762191 -0.647352 0.711005 -0.703187 121.887 795.254)" fill="white" fill-opacity="0.43"/>
<ellipse rx="2.78461" ry="2.76627" transform="matrix(-0.762191 -0.647352 0.711005 -0.703187 279.031 733.475)" fill="white"/>
<ellipse rx="2.78461" ry="2.76627" transform="matrix(-0.762191 -0.647352 0.711005 -0.703187 130.578 708.626)" fill="white"/>
<ellipse rx="2.66265" ry="2.88385" transform="matrix(-0.223053 -0.974806 0.982025 -0.18875 167.218 786.911)" fill="white"/>
<ellipse rx="2.66265" ry="2.88385" transform="matrix(-0.223053 -0.974806 0.982025 -0.18875 28.9044 802.656)" fill="white"/>
<ellipse rx="5.57256" ry="5.52919" transform="matrix(0.766632 0.642087 -0.706074 0.708138 1459.22 743.37)" fill="white"/>
<ellipse rx="2.78628" ry="2.76459" transform="matrix(0.766632 0.642087 -0.706074 0.708138 1376.31 806.86)" fill="white"/>
<ellipse rx="2.78628" ry="2.76459" transform="matrix(0.766632 0.642087 -0.706074 0.708138 1567.16 772.706)" fill="white" fill-opacity="0.43"/>
<ellipse rx="2.78628" ry="2.76459" transform="matrix(0.766632 0.642087 -0.706074 0.708138 1375.07 698.036)" fill="white"/>
<ellipse rx="5.60982" ry="5.49138" transform="matrix(0.814056 -0.580786 0.647361 0.762183 1572.19 636.387)" fill="white" fill-opacity="0.43"/>
<ellipse rx="5.60982" ry="5.49138" transform="matrix(0.814056 -0.580786 0.647361 0.762183 1456.47 638.291)" fill="white"/>
<ellipse rx="5.60982" ry="5.49138" transform="matrix(0.814056 -0.580786 0.647361 0.762183 1552.97 777.815)" fill="white" fill-opacity="0.43"/>
<ellipse rx="5.60982" ry="5.49138" transform="matrix(0.814056 -0.580786 0.647361 0.762183 1611.71 467.041)" fill="white"/>
<ellipse rx="2.80491" ry="2.74569" transform="matrix(0.814056 -0.580786 0.647361 0.762183 1770.68 693.067)" fill="white"/>
<ellipse rx="2.80491" ry="2.74569" transform="matrix(0.814056 -0.580786 0.647361 0.762183 1510.81 723.867)" fill="white"/>
<ellipse rx="2.80491" ry="2.74569" transform="matrix(0.814056 -0.580786 0.647361 0.762183 1602.61 564.269)" fill="white" fill-opacity="0.43"/>
<ellipse rx="2.80491" ry="2.74569" transform="matrix(0.814056 -0.580786 0.647361 0.762183 1643.79 716.374)" fill="white"/>
<ellipse rx="2.80491" ry="2.74569" transform="matrix(0.814056 -0.580786 0.647361 0.762183 1694.49 586.099)" fill="white"/>
<ellipse rx="2.80491" ry="2.74569" transform="matrix(0.814056 -0.580786 0.647361 0.762183 1506.17 545.699)" fill="white" fill-opacity="0.43"/>
<ellipse rx="2.80491" ry="2.74569" transform="matrix(0.814056 -0.580786 0.647361 0.762183 1393.56 706.699)" fill="white"/>
<ellipse rx="5.62148" ry="5.47945" transform="matrix(0.828149 0.560507 -0.627419 0.778682 1711.29 749.28)" fill="white"/>
<ellipse rx="2.81074" ry="2.73972" transform="matrix(0.828149 0.560507 -0.627419 0.778682 1636.05 820.339)" fill="white"/>
<ellipse rx="2.81074" ry="2.73972" transform="matrix(0.828149 0.560507 -0.627419 0.778682 1821.98 768.153)" fill="white" fill-opacity="0.43"/>
<ellipse rx="2.81074" ry="2.73972" transform="matrix(0.828149 0.560507 -0.627419 0.778682 1622.45 712.225)" fill="white"/>
<ellipse rx="5.39376" ry="5.70374" transform="matrix(0.454011 -0.890996 0.919328 0.393492 679.549 145.951)" fill="white" fill-opacity="0.43"/>
<ellipse rx="5.39376" ry="5.70374" transform="matrix(0.454011 -0.890996 0.919328 0.393492 577.443 195.912)" fill="white"/>
<ellipse rx="5.39376" ry="5.70374" transform="matrix(0.454011 -0.890996 0.919328 0.393492 732.649 279.903)" fill="white" fill-opacity="0.43"/>
<ellipse rx="2.69688" ry="2.85187" transform="matrix(0.454011 -0.890996 0.919328 0.393492 884.437 113.64)" fill="white"/>
<ellipse rx="2.69688" ry="2.85187" transform="matrix(0.454011 -0.890996 0.919328 0.393492 668.328 249.447)" fill="white"/>
<ellipse rx="2.69688" ry="2.85187" transform="matrix(0.454011 -0.890996 0.919328 0.393492 783.023 187.312)" fill="white"/>
<ellipse rx="2.69688" ry="2.85187" transform="matrix(0.454011 -0.890996 0.919328 0.393492 575.727 92.732)" fill="white" fill-opacity="0.43"/>
<ellipse rx="2.69688" ry="2.85187" transform="matrix(0.454011 -0.890996 0.919328 0.393492 555.391 283.063)" fill="white"/>
<ellipse rx="5.77494" ry="5.31746" transform="matrix(0.988741 0.149639 -0.177318 0.984154 939.506 265.091)" fill="white" fill-opacity="0.43"/>
<ellipse rx="5.77494" ry="5.31746" transform="matrix(0.988741 0.149639 -0.177318 0.984154 859.465 188.467)" fill="white"/>
<ellipse rx="5.77494" ry="5.31746" transform="matrix(0.988741 0.149639 -0.177318 0.984154 813.105 348.102)" fill="white" fill-opacity="0.43"/>
<ellipse rx="5.77494" ry="5.31746" transform="matrix(0.988741 0.149639 -0.177318 0.984154 1102.06 176.796)" fill="white"/>
<ellipse rx="2.88747" ry="2.65873" transform="matrix(0.988741 0.149639 -0.177318 0.984154 1028.75 437.185)" fill="white"/>
<ellipse rx="2.88747" ry="2.65873" transform="matrix(0.988741 0.149639 -0.177318 0.984154 827.747 283.119)" fill="white"/>
<ellipse rx="2.88747" ry="2.65873" transform="matrix(0.988741 0.149639 -0.177318 0.984154 1017.95 236.643)" fill="white" fill-opacity="0.43"/>
<ellipse rx="2.88747" ry="2.65873" transform="matrix(0.988741 0.149639 -0.177318 0.984154 923.976 367.571)" fill="white"/>
<ellipse rx="2.88747" ry="2.65873" transform="matrix(0.988741 0.149639 -0.177318 0.984154 1062.8 313.315)" fill="white"/>
<ellipse rx="2.88747" ry="2.65873" transform="matrix(0.988741 0.149639 -0.177318 0.984154 967.404 159.106)" fill="white" fill-opacity="0.43"/>
<ellipse rx="2.88747" ry="2.65873" transform="matrix(0.988741 0.149639 -0.177318 0.984154 761.948 192.523)" fill="white"/>
<ellipse rx="5.31052" ry="5.78133" transform="matrix(0.123159 0.992387 -0.99461 0.103684 1420.54 280.899)" fill="white" fill-opacity="0.43"/>
<ellipse rx="5.31052" ry="5.78133" transform="matrix(0.123159 0.992387 -0.99461 0.103684 1479.08 189.386)" fill="white"/>
<ellipse rx="5.31052" ry="5.78133" transform="matrix(0.123159 0.992387 -0.99461 0.103684 1298.86 192.157)" fill="white" fill-opacity="0.43"/>
<ellipse rx="5.31052" ry="5.78133" transform="matrix(0.123159 0.992387 -0.99461 0.103684 1557.65 400.063)" fill="white"/>
<ellipse rx="2.65526" ry="2.89066" transform="matrix(0.123159 0.992387 -0.99461 0.103684 1264.32 406.621)" fill="white"/>
<ellipse rx="2.65526" ry="2.89066" transform="matrix(0.123159 0.992387 -0.99461 0.103684 1371.07 187.299)" fill="white"/>
<ellipse rx="2.65526" ry="2.89066" transform="matrix(0.123159 0.992387 -0.99461 0.103684 1471.84 342.28)" fill="white" fill-opacity="0.43"/>
<ellipse rx="2.65526" ry="2.89066" transform="matrix(0.123159 0.992387 -0.99461 0.103684 1308.74 295.223)" fill="white"/>
<ellipse rx="2.65526" ry="2.89066" transform="matrix(0.123159 0.992387 -0.99461 0.103684 1403.63 402.773)" fill="white"/>
<ellipse rx="2.65526" ry="2.89066" transform="matrix(0.123159 0.992387 -0.99461 0.103684 1539.4 276.517)" fill="white" fill-opacity="0.43"/>
<ellipse rx="5.72107" ry="5.37538" transform="matrix(-0.936942 0.349485 -0.405844 -0.913942 1130.98 303.906)" fill="#FFF2C9"/>
<ellipse rx="5.72107" ry="5.37538" transform="matrix(-0.936942 0.349485 -0.405844 -0.913942 1242.92 330.869)" fill="white"/>
<ellipse rx="5.72107" ry="5.37538" transform="matrix(-0.936942 0.349485 -0.405844 -0.913942 1191.38 172.574)" fill="white" fill-opacity="0.43"/>
<ellipse rx="5.72107" ry="5.37538" transform="matrix(-0.936942 0.349485 -0.405844 -0.913942 1042.79 457.062)" fill="white"/>
<ellipse rx="2.86054" ry="2.68769" transform="matrix(-0.936942 0.349485 -0.405844 -0.913942 956.733 199.969)" fill="white"/>
<ellipse rx="2.86054" ry="2.68769" transform="matrix(-0.936942 0.349485 -0.405844 -0.913942 1215.96 234.985)" fill="white"/>
<ellipse rx="2.86054" ry="2.68769" transform="matrix(-0.936942 0.349485 -0.405844 -0.913942 1080.33 365.746)" fill="white" fill-opacity="0.43"/>
<ellipse rx="2.86054" ry="2.68769" transform="matrix(-0.936942 0.349485 -0.405844 -0.913942 1085.76 209.108)" fill="white"/>
<ellipse rx="2.86054" ry="2.68769" transform="matrix(-0.936942 0.349485 -0.405844 -0.913942 998.372 321.874)" fill="white"/>
<ellipse rx="2.86054" ry="2.68769" transform="matrix(-0.936942 0.349485 -0.405844 -0.913942 1167.66 407.619)" fill="white" fill-opacity="0.43"/>
<ellipse rx="2.86054" ry="2.68769" transform="matrix(-0.936942 0.349485 -0.405844 -0.913942 1323.73 280.685)" fill="white"/>
<ellipse rx="5.78581" ry="5.30563" transform="matrix(0.998698 0.051015 -0.0606998 0.998156 1640.94 176.803)" fill="white" fill-opacity="0.43"/>
<ellipse rx="5.78581" ry="5.30563" transform="matrix(0.998698 0.051015 -0.0606998 0.998156 1525.04 271.814)" fill="white" fill-opacity="0.43"/>
<ellipse rx="2.89291" ry="2.65282" transform="matrix(0.998698 0.051015 -0.0606998 0.998156 1749.9 339.08)" fill="white"/>
<ellipse rx="2.89291" ry="2.65282" transform="matrix(0.998698 0.051015 -0.0606998 0.998156 1531.95 205.764)" fill="white"/>
<ellipse rx="2.89291" ry="2.65282" transform="matrix(0.998698 0.051015 -0.0606998 0.998156 1715.59 140.772)" fill="white" fill-opacity="0.43"/>
<ellipse rx="2.89291" ry="2.65282" transform="matrix(0.998698 0.051015 -0.0606998 0.998156 1637.55 280.219)" fill="white"/>
<ellipse rx="2.89291" ry="2.65282" transform="matrix(0.998698 0.051015 -0.0606998 0.998156 1769.19 212.572)" fill="white"/>
<ellipse rx="2.89291" ry="2.65282" transform="matrix(0.998698 0.051015 -0.0606998 0.998156 1455.89 122.194)" fill="white"/>
<ellipse rx="5.32756" ry="5.76563" transform="matrix(0.234494 0.972118 -0.980083 0.198586 1617.01 442.281)" fill="white" fill-opacity="0.43"/>
<ellipse rx="5.32756" ry="5.76563" transform="matrix(0.234494 0.972118 -0.980083 0.198586 1664.83 345.676)" fill="white"/>
<ellipse rx="5.32756" ry="5.76563" transform="matrix(0.234494 0.972118 -0.980083 0.198586 1485.9 365.634)" fill="white" fill-opacity="0.43"/>
<ellipse rx="5.32756" ry="5.76563" transform="matrix(0.234494 0.972118 -0.980083 0.198586 1766.91 547.712)" fill="white"/>
<ellipse rx="2.66378" ry="2.88281" transform="matrix(0.234494 0.972118 -0.980083 0.198586 1475.92 582.227)" fill="white"/>
<ellipse rx="2.66378" ry="2.88281" transform="matrix(0.234494 0.972118 -0.980083 0.198586 1557.17 353.912)" fill="white"/>
<ellipse rx="2.66378" ry="2.88281" transform="matrix(0.234494 0.972118 -0.980083 0.198586 1675 498.43)" fill="white" fill-opacity="0.43"/>
<ellipse rx="2.66378" ry="2.88281" transform="matrix(0.234494 0.972118 -0.980083 0.198586 1507.44 467.196)" fill="white"/>
<ellipse rx="2.66378" ry="2.88281" transform="matrix(0.234494 0.972118 -0.980083 0.198586 1614.03 565.105)" fill="white"/>
<ellipse rx="2.66378" ry="2.88281" transform="matrix(0.234494 0.972118 -0.980083 0.198586 1734.72 426.576)" fill="white" fill-opacity="0.43"/>
<ellipse rx="2.66378" ry="2.88281" transform="matrix(0.234494 0.972118 -0.980083 0.198586 1624.44 264.23)" fill="white"/>
<ellipse rx="5.42038" ry="5.67845" transform="matrix(-0.515104 0.857128 -0.892705 -0.450642 1418.57 636.442)" fill="white" fill-opacity="0.43"/>
<ellipse rx="5.42038" ry="5.67845" transform="matrix(-0.515104 0.857128 -0.892705 -0.450642 1524.07 592.815)" fill="white"/>
<ellipse rx="5.42038" ry="5.67845" transform="matrix(-0.515104 0.857128 -0.892705 -0.450642 1375.3 499.548)" fill="white" fill-opacity="0.43"/>
<ellipse rx="5.42038" ry="5.67845" transform="matrix(-0.515104 0.857128 -0.892705 -0.450642 1455.22 806.329)" fill="white"/>
<ellipse rx="2.71019" ry="2.83923" transform="matrix(-0.515104 0.857128 -0.892705 -0.450642 1211.79 656.194)" fill="white"/>
<ellipse rx="2.71019" ry="2.83923" transform="matrix(-0.515104 0.857128 -0.892705 -0.450642 1437.27 533.858)" fill="white"/>
<ellipse rx="2.71019" ry="2.83923" transform="matrix(-0.515104 0.857128 -0.892705 -0.450642 1421.69 713.708)" fill="white" fill-opacity="0.43"/>
<ellipse rx="2.71019" ry="2.83923" transform="matrix(-0.515104 0.857128 -0.892705 -0.450642 1318.33 588.865)" fill="white"/>
<ellipse rx="2.71019" ry="2.83923" transform="matrix(-0.515104 0.857128 -0.892705 -0.450642 1327.87 726.902)" fill="white"/>
<ellipse rx="2.71019" ry="2.83923" transform="matrix(-0.515104 0.857128 -0.892705 -0.450642 1518.3 695.869)" fill="white" fill-opacity="0.43"/>
<ellipse rx="2.71019" ry="2.83923" transform="matrix(-0.515104 0.857128 -0.892705 -0.450642 1552.4 507.199)" fill="white"/>
<ellipse rx="5.76309" ry="5.3303" transform="matrix(-0.977703 -0.209992 0.247724 -0.96883 1167.83 501.723)" fill="white" fill-opacity="0.43"/>
<ellipse rx="5.76309" ry="5.3303" transform="matrix(-0.977703 -0.209992 0.247724 -0.96883 1242.14 583.058)" fill="white"/>
<ellipse rx="5.76309" ry="5.3303" transform="matrix(-0.977703 -0.209992 0.247724 -0.96883 1299.97 426.6)" fill="white" fill-opacity="0.43"/>
<ellipse rx="5.76309" ry="5.3303" transform="matrix(-0.977703 -0.209992 0.247724 -0.96883 999.232 579.917)" fill="#FFF2C9"/>
<ellipse rx="2.88155" ry="2.66515" transform="matrix(-0.977703 -0.209992 0.247724 -0.96883 1091.27 324.573)" fill="white"/>
<ellipse rx="2.88155" ry="2.66515" transform="matrix(-0.977703 -0.209992 0.247724 -0.96883 1280.65 490.546)" fill="white"/>
<ellipse rx="2.88155" ry="2.66515" transform="matrix(-0.977703 -0.209992 0.247724 -0.96883 1087.49 525.327)" fill="white" fill-opacity="0.43"/>
<ellipse rx="2.88155" ry="2.66515" transform="matrix(-0.977703 -0.209992 0.247724 -0.96883 1190.76 400.419)" fill="white"/>
<ellipse rx="2.88155" ry="2.66515" transform="matrix(-0.977703 -0.209992 0.247724 -0.96883 1048.31 446.092)" fill="white"/>
<ellipse rx="2.88155" ry="2.66515" transform="matrix(-0.977703 -0.209992 0.247724 -0.96883 1132.3 605.772)" fill="white" fill-opacity="0.43"/>
<ellipse rx="2.88155" ry="2.66515" transform="matrix(-0.977703 -0.209992 0.247724 -0.96883 1339.73 584.951)" fill="white"/>
<ellipse rx="5.31661" ry="5.77572" transform="matrix(0.171628 0.985162 -0.989462 0.144795 295.816 172.49)" fill="white" fill-opacity="0.43"/>
<ellipse rx="5.31661" ry="5.77572" transform="matrix(0.171628 0.985162 -0.989462 0.144795 438.644 285.871)" fill="white"/>
<ellipse rx="2.65831" ry="2.88786" transform="matrix(0.171628 0.985162 -0.989462 0.144795 145.936 304.533)" fill="white"/>
<ellipse rx="2.65831" ry="2.88786" transform="matrix(0.171628 0.985162 -0.989462 0.144795 350.085 231.687)" fill="white" fill-opacity="0.43"/>
<ellipse rx="2.65831" ry="2.88786" transform="matrix(0.171628 0.985162 -0.989462 0.144795 184.837 191.416)" fill="white"/>
<ellipse rx="2.65831" ry="2.88786" transform="matrix(0.171628 0.985162 -0.989462 0.144795 284.916 294.936)" fill="white"/>
<ellipse rx="2.65831" ry="2.88786" transform="matrix(0.171628 0.985162 -0.989462 0.144795 414.341 163.202)" fill="white" fill-opacity="0.43"/>
<ellipse rx="5.70565" ry="5.39175" transform="matrix(-0.921292 0.388872 -0.448999 -0.893532 7.67746 207.433)" fill="white" fill-opacity="0.43"/>
<ellipse rx="5.70565" ry="5.39175" transform="matrix(-0.921292 0.388872 -0.448999 -0.893532 120.835 229.745)" fill="white"/>
<ellipse rx="2.85283" ry="2.69587" transform="matrix(-0.921292 0.388872 -0.448999 -0.893532 89.19 135.068)" fill="white"/>
<ellipse rx="2.85283" ry="2.69587" transform="matrix(-0.921292 0.388872 -0.448999 -0.893532 49.4234 309.521)" fill="white" fill-opacity="0.43"/>
<ellipse rx="2.85283" ry="2.69587" transform="matrix(-0.921292 0.388872 -0.448999 -0.893532 199.098 176.273)" fill="white"/>
<ellipse rx="5.52898" ry="5.57277" transform="matrix(0.705764 -0.708447 0.766908 0.641757 1668.37 679.254)" fill="white"/>
<ellipse rx="2.76449" ry="2.78639" transform="matrix(0.705764 -0.708447 0.766908 0.641757 1677.28 776.496)" fill="white" fill-opacity="0.43"/>
<ellipse rx="2.76449" ry="2.78639" transform="matrix(0.705764 -0.708447 0.766908 0.641757 1771.87 783.818)" fill="white"/>
<ellipse rx="2.76449" ry="2.78639" transform="matrix(0.705764 -0.708447 0.766908 0.641757 1578.8 773.09)" fill="white" fill-opacity="0.43"/>
<ellipse rx="2.87198" ry="2.67545" transform="matrix(-0.959474 0.281796 -0.330052 -0.943963 1828.25 824.926)" fill="white"/>
<ellipse rx="5.4552" ry="5.64501" transform="matrix(-0.584369 -0.811488 0.85564 -0.517572 1730.95 635.671)" fill="white"/>
<ellipse rx="2.7276" ry="2.8225" transform="matrix(-0.584369 -0.811488 0.85564 -0.517572 1836 651.565)" fill="white" fill-opacity="0.43"/>
<ellipse rx="2.7276" ry="2.8225" transform="matrix(-0.584369 -0.811488 0.85564 -0.517572 1866.91 569.316)" fill="white"/>
<ellipse rx="2.7276" ry="2.8225" transform="matrix(-0.584369 -0.811488 0.85564 -0.517572 1808.28 738.242)" fill="white" fill-opacity="0.43"/>
<ellipse rx="5.51479" ry="5.58681" transform="matrix(0.684448 -0.729062 0.785221 0.619216 1597.89 350.772)" fill="white" fill-opacity="0.43"/>
<ellipse rx="5.51479" ry="5.58681" transform="matrix(0.684448 -0.729062 0.785221 0.619216 1484.85 373.588)" fill="white"/>
<ellipse rx="5.51479" ry="5.58681" transform="matrix(0.684448 -0.729062 0.785221 0.619216 1609.52 492.893)" fill="white" fill-opacity="0.43"/>
<ellipse rx="5.51479" ry="5.58681" transform="matrix(0.684448 -0.729062 0.785221 0.619216 1600.13 177.607)" fill="white"/>
<ellipse rx="2.75739" ry="2.79341" transform="matrix(0.684448 -0.729062 0.785221 0.619216 1804.68 370.402)" fill="white"/>
<ellipse rx="2.75739" ry="2.79341" transform="matrix(0.684448 -0.729062 0.785221 0.619216 1556.58 447.638)" fill="white"/>
<ellipse rx="2.75739" ry="2.79341" transform="matrix(0.684448 -0.729062 0.785221 0.619216 1612.17 274.569)" fill="white" fill-opacity="0.43"/>
<ellipse rx="2.75739" ry="2.79341" transform="matrix(0.684448 -0.729062 0.785221 0.619216 1685.32 416.221)" fill="white"/>
<ellipse rx="2.75739" ry="2.79341" transform="matrix(0.684448 -0.729062 0.785221 0.619216 1706.95 279.333)" fill="white"/>
<ellipse rx="2.75739" ry="2.79341" transform="matrix(0.684448 -0.729062 0.785221 0.619216 1513.62 273.822)" fill="white" fill-opacity="0.43"/>
<ellipse rx="2.75739" ry="2.79341" transform="matrix(0.684448 -0.729062 0.785221 0.619216 1437.93 452.037)" fill="white"/>
<ellipse rx="5.70362" ry="5.3939" transform="matrix(0.919199 0.393793 -0.454338 0.890829 1813.05 529.856)" fill="white" fill-opacity="0.43"/>
<ellipse rx="5.70362" ry="5.3939" transform="matrix(0.919199 0.393793 -0.454338 0.890829 1758.58 436.259)" fill="white"/>
<ellipse rx="5.70362" ry="5.3939" transform="matrix(0.919199 0.393793 -0.454338 0.890829 1666.88 578.479)" fill="white" fill-opacity="0.43"/>
<ellipse rx="2.85181" ry="2.69695" transform="matrix(0.919199 0.393793 -0.454338 0.890829 1848.24 717.651)" fill="white"/>
<ellipse rx="2.85181" ry="2.69695" transform="matrix(0.919199 0.393793 -0.454338 0.890829 1700.13 519.537)" fill="white"/>
<ellipse rx="2.85181" ry="2.69695" transform="matrix(0.919199 0.393793 -0.454338 0.890829 1767.89 624.679)" fill="white"/>
<ellipse rx="2.85181" ry="2.69695" transform="matrix(0.919199 0.393793 -0.454338 0.890829 1871.15 434.724)" fill="white" fill-opacity="0.43"/>
<ellipse rx="2.85181" ry="2.69695" transform="matrix(0.919199 0.393793 -0.454338 0.890829 1663.5 416.017)" fill="white"/>
<ellipse rx="5.5056" ry="5.59587" transform="matrix(-0.670192 -0.742188 0.796735 -0.604329 1364.8 273.29)" fill="white" fill-opacity="0.43"/>
<ellipse rx="5.5056" ry="5.59587" transform="matrix(-0.670192 -0.742188 0.796735 -0.604329 1370.33 379.251)" fill="white"/>
<ellipse rx="5.5056" ry="5.59587" transform="matrix(-0.670192 -0.742188 0.796735 -0.604329 1519.62 286.677)" fill="white" fill-opacity="0.43"/>
<ellipse rx="5.5056" ry="5.59587" transform="matrix(-0.670192 -0.742188 0.796735 -0.604329 1178.93 242.155)" fill="white"/>
<ellipse rx="2.7528" ry="2.79793" transform="matrix(-0.670192 -0.742188 0.796735 -0.604329 1462.04 326.906)" fill="white"/>
<ellipse rx="2.7528" ry="2.79793" transform="matrix(-0.670192 -0.742188 0.796735 -0.604329 1285.24 247.579)" fill="white" fill-opacity="0.43"/>
<ellipse rx="2.7528" ry="2.79793" transform="matrix(-0.670192 -0.742188 0.796735 -0.604329 1449.9 205.304)" fill="white"/>
<ellipse rx="2.7528" ry="2.79793" transform="matrix(-0.670192 -0.742188 0.796735 -0.604329 1306.3 162.751)" fill="white"/>
<ellipse rx="2.7528" ry="2.79793" transform="matrix(-0.670192 -0.742188 0.796735 -0.604329 1267.87 336.488)" fill="white" fill-opacity="0.43"/>
<ellipse rx="2.7528" ry="2.79793" transform="matrix(-0.670192 -0.742188 0.796735 -0.604329 1446.82 434.837)" fill="white"/>
<ellipse rx="5.46559" ry="5.63495" transform="matrix(0.603271 -0.797536 0.844036 0.536287 1483.76 142.488)" fill="white"/>
<ellipse rx="5.46559" ry="5.63495" transform="matrix(0.603271 -0.797536 0.844036 0.536287 1621.31 249.244)" fill="white" fill-opacity="0.43"/>
<ellipse rx="2.7328" ry="2.81747" transform="matrix(0.603271 -0.797536 0.844036 0.536287 1801.49 108.796)" fill="white"/>
<ellipse rx="2.7328" ry="2.81747" transform="matrix(0.603271 -0.797536 0.844036 0.536287 1563.51 209.291)" fill="white"/>
<ellipse rx="2.7328" ry="2.81747" transform="matrix(0.603271 -0.797536 0.844036 0.536287 1687.99 165.755)" fill="white"/>
<ellipse rx="2.7328" ry="2.81747" transform="matrix(0.603271 -0.797536 0.844036 0.536287 1446 224.99)" fill="white"/>
<ellipse rx="5.76025" ry="5.33337" transform="matrix(0.97503 -0.222074 0.261698 0.96515 1803.67 232.631)" fill="white" fill-opacity="0.43"/>
<ellipse rx="2.88013" ry="2.66669" transform="matrix(0.97503 -0.222074 0.261698 0.96515 1789.03 167.647)" fill="white"/>
<ellipse rx="2.88013" ry="2.66669" transform="matrix(0.97503 -0.222074 0.261698 0.96515 1689.46 108.344)" fill="white"/>
<ellipse rx="5.42601" ry="5.67307" transform="matrix(0.527025 0.84985 -0.886886 0.461988 1796.45 332.854)" fill="white" fill-opacity="0.43"/>
<ellipse rx="2.71301" ry="2.83654" transform="matrix(0.527025 0.84985 -0.886886 0.461988 1856.58 542.519)" fill="white"/>
<ellipse rx="2.71301" ry="2.83654" transform="matrix(0.527025 0.84985 -0.886886 0.461988 1860.77 302.396)" fill="white"/>
<ellipse rx="2.71301" ry="2.83654" transform="matrix(0.527025 0.84985 -0.886886 0.461988 1849.7 424.083)" fill="white"/>
<ellipse rx="2.73013" ry="2.82006" transform="matrix(0.593666 0.804711 -0.850019 0.526751 650.373 209.693)" fill="white"/>
<ellipse rx="2.73013" ry="2.82006" transform="matrix(0.593666 0.804711 -0.850019 0.526751 633.483 92.1058)" fill="white"/>
<ellipse rx="2.73013" ry="2.82006" transform="matrix(0.593666 0.804711 -0.850019 0.526751 771.923 147.18)" fill="white"/>
<ellipse rx="5.51118" ry="5.59037" transform="matrix(-0.678897 0.734234 -0.789771 -0.613402 480.304 175.222)" fill="white" fill-opacity="0.43"/>
<ellipse rx="5.51118" ry="5.59037" transform="matrix(-0.678897 0.734234 -0.789771 -0.613402 593.15 151.628)" fill="white"/>
<ellipse rx="5.51118" ry="5.59037" transform="matrix(-0.678897 0.734234 -0.789771 -0.613402 479.483 348.395)" fill="white"/>
<ellipse rx="2.75559" ry="2.79519" transform="matrix(-0.678897 0.734234 -0.789771 -0.613402 273.359 157.015)" fill="white"/>
<ellipse rx="2.75559" ry="2.79519" transform="matrix(-0.678897 0.734234 -0.789771 -0.613402 520.826 78.0719)" fill="white"/>
<ellipse rx="2.75559" ry="2.79519" transform="matrix(-0.678897 0.734234 -0.789771 -0.613402 466.648 251.522)" fill="white" fill-opacity="0.43"/>
<ellipse rx="2.75559" ry="2.79519" transform="matrix(-0.678897 0.734234 -0.789771 -0.613402 392.339 110.377)" fill="white"/>
<ellipse rx="2.75559" ry="2.79519" transform="matrix(-0.678897 0.734234 -0.789771 -0.613402 371.836 247.407)" fill="white"/>
<ellipse rx="2.75559" ry="2.79519" transform="matrix(-0.678897 0.734234 -0.789771 -0.613402 565.201 251.588)" fill="white" fill-opacity="0.43"/>
<ellipse rx="2.75559" ry="2.79519" transform="matrix(-0.678897 0.734234 -0.789771 -0.613402 639.431 72.8585)" fill="white"/>
<ellipse rx="5.7076" ry="5.38968" transform="matrix(-0.923293 -0.384096 0.443806 -0.896123 218.454 545.391)" fill="white" fill-opacity="0.43"/>
<ellipse rx="5.7076" ry="5.38968" transform="matrix(-0.923293 -0.384096 0.443806 -0.896123 274.067 638.425)" fill="white"/>
<ellipse rx="5.7076" ry="5.38968" transform="matrix(-0.923293 -0.384096 0.443806 -0.896123 364.025 495.278)" fill="white" fill-opacity="0.43"/>
<ellipse rx="5.7076" ry="5.38968" transform="matrix(-0.923293 -0.384096 0.443806 -0.896123 36.474 592.011)" fill="white"/>
<ellipse rx="2.8538" ry="2.69484" transform="matrix(-0.923293 -0.384096 0.443806 -0.896123 180.984 357.969)" fill="white"/>
<ellipse rx="2.8538" ry="2.69484" transform="matrix(-0.923293 -0.384096 0.443806 -0.896123 331.493 554.552)" fill="white"/>
<ellipse rx="2.8538" ry="2.69484" transform="matrix(-0.923293 -0.384096 0.443806 -0.896123 134.637 554.211)" fill="white" fill-opacity="0.43"/>
<ellipse rx="2.8538" ry="2.69484" transform="matrix(-0.923293 -0.384096 0.443806 -0.896123 262.461 450.113)" fill="white"/>
<ellipse rx="2.8538" ry="2.69484" transform="matrix(-0.923293 -0.384096 0.443806 -0.896123 113.04 469.5)" fill="white"/>
<ellipse rx="2.8538" ry="2.69484" transform="matrix(-0.923293 -0.384096 0.443806 -0.896123 161.511 641.114)" fill="white" fill-opacity="0.43"/>
<ellipse rx="2.8538" ry="2.69484" transform="matrix(-0.923293 -0.384096 0.443806 -0.896123 369.392 657.692)" fill="white"/>
<ellipse rx="5.31576" ry="5.7765" transform="matrix(0.165746 -0.986169 0.990181 0.139791 345.628 305.86)" fill="white" fill-opacity="0.43"/>
<ellipse rx="5.31576" ry="5.7765" transform="matrix(0.165746 -0.986169 0.990181 0.139791 262.895 380.046)" fill="white"/>
<ellipse rx="5.31576" ry="5.7765" transform="matrix(0.165746 -0.986169 0.990181 0.139791 437.561 420.805)" fill="white" fill-opacity="0.43"/>
<ellipse rx="5.31576" ry="5.7765" transform="matrix(0.165746 -0.986169 0.990181 0.139791 247.537 157.848)" fill="white"/>
<ellipse rx="2.65788" ry="2.88825" transform="matrix(0.165746 -0.986169 0.990181 0.139791 532.422 222.216)" fill="white"/>
<ellipse rx="2.65788" ry="2.88825" transform="matrix(0.165746 -0.986169 0.990181 0.139791 366.505 408.09)" fill="white"/>
<ellipse rx="2.65788" ry="2.88825" transform="matrix(0.165746 -0.986169 0.990181 0.139791 313.741 234.277)" fill="white" fill-opacity="0.43"/>
<ellipse rx="2.65788" ry="2.88825" transform="matrix(0.165746 -0.986169 0.990181 0.139791 457.604 318.985)" fill="white"/>
<ellipse rx="2.65788" ry="2.88825" transform="matrix(0.165746 -0.986169 0.990181 0.139791 396.909 192.351)" fill="white"/>
<ellipse rx="2.65788" ry="2.88825" transform="matrix(0.165746 -0.986169 0.990181 0.139791 229.691 281.443)" fill="white" fill-opacity="0.43"/>
<ellipse rx="2.65788" ry="2.88825" transform="matrix(0.165746 -0.986169 0.990181 0.139791 268.372 469.369)" fill="white"/>
<ellipse rx="5.46049" ry="5.63989" transform="matrix(-0.594074 0.804411 -0.849769 -0.527155 202.716 772.178)" fill="white" fill-opacity="0.43"/>
<ellipse rx="5.46049" ry="5.63989" transform="matrix(-0.594074 0.804411 -0.849769 -0.527155 312.131 737.573)" fill="white"/>
<ellipse rx="5.46049" ry="5.63989" transform="matrix(-0.594074 0.804411 -0.849769 -0.527155 173.29 632.23)" fill="white" fill-opacity="0.43"/>
<ellipse rx="2.73024" ry="2.81995" transform="matrix(-0.594074 0.804411 -0.849769 -0.527155 231.581 671.591)" fill="white"/>
<ellipse rx="2.73024" ry="2.81995" transform="matrix(-0.594074 0.804411 -0.849769 -0.527155 107.636 716.397)" fill="white"/>
<ellipse rx="2.73024" ry="2.81995" transform="matrix(-0.594074 0.804411 -0.849769 -0.527155 348.88 654.692)" fill="white"/>
<ellipse rx="5.74075" ry="5.35435" transform="matrix(-0.95636 -0.29219 0.341814 -0.939768 32.3506 704.229)" fill="white"/>
<ellipse rx="5.74075" ry="5.35435" transform="matrix(-0.95636 -0.29219 0.341814 -0.939768 105.555 553.274)" fill="white" fill-opacity="0.43"/>
<ellipse rx="2.87038" ry="2.67718" transform="matrix(-0.95636 -0.29219 0.341814 -0.939768 79.932 615.334)" fill="white"/>
<ellipse rx="2.87038" ry="2.67718" transform="matrix(-0.95636 -0.29219 0.341814 -0.939768 129.342 714.295)" fill="#FFF2C9"/>
<ellipse rx="5.32575" ry="5.7673" transform="matrix(-0.225323 0.974284 -0.981648 -0.1907 1738.83 947.117)" fill="white"/>
<ellipse rx="5.32575" ry="5.7673" transform="matrix(-0.225323 0.974284 -0.981648 -0.1907 1566.93 897.457)" fill="white" fill-opacity="0.43"/>
<ellipse rx="2.66287" ry="2.88365" transform="matrix(-0.225323 0.974284 -0.981648 -0.1907 1637.1 913.799)" fill="white"/>
<ellipse rx="2.66287" ry="2.88365" transform="matrix(-0.225323 0.974284 -0.981648 -0.1907 1738.82 857.653)" fill="white"/>
<ellipse rx="5.78533" ry="5.30616" transform="matrix(-0.998259 0.05899 -0.0701761 -0.997535 1369.08 954.745)" fill="white" fill-opacity="0.43"/>
<ellipse rx="5.78533" ry="5.30616" transform="matrix(-0.998259 0.05899 -0.0701761 -0.997535 1471.73 847.694)" fill="white" fill-opacity="0.43"/>
<ellipse rx="2.89266" ry="2.65308" transform="matrix(-0.998259 0.05899 -0.0701761 -0.997535 1473.5 914.028)" fill="white"/>
<ellipse rx="2.89266" ry="2.65308" transform="matrix(-0.998259 0.05899 -0.0701761 -0.997535 1299.68 998.711)" fill="white" fill-opacity="0.43"/>
<ellipse rx="2.89266" ry="2.65308" transform="matrix(-0.998259 0.05899 -0.0701761 -0.997535 1358.93 851.701)" fill="white"/>
<ellipse rx="5.36037" ry="5.73514" transform="matrix(-0.361364 -0.932425 0.950883 -0.309551 733.649 951.343)" fill="white"/>
<ellipse rx="2.68018" ry="2.86757" transform="matrix(-0.361364 -0.932425 0.950883 -0.309551 1017.76 884.182)" fill="white"/>
<ellipse rx="2.68018" ry="2.86757" transform="matrix(-0.361364 -0.932425 0.950883 -0.309551 831.482 989.854)" fill="white" fill-opacity="0.43"/>
<ellipse rx="2.68018" ry="2.86757" transform="matrix(-0.361364 -0.932425 0.950883 -0.309551 1001.97 1001.9)" fill="white"/>
<ellipse rx="2.68018" ry="2.86757" transform="matrix(-0.361364 -0.932425 0.950883 -0.309551 883.006 916.791)" fill="white"/>
<ellipse rx="5.63121" ry="5.46944" transform="matrix(0.83967 -0.543097 0.610097 0.792327 1057.29 953.536)" fill="white"/>
<ellipse rx="2.81561" ry="2.73472" transform="matrix(0.83967 -0.543097 0.610097 0.792327 1368.36 1021.75)" fill="white"/>
<ellipse rx="2.81561" ry="2.73472" transform="matrix(0.83967 -0.543097 0.610097 0.792327 1207.06 885.876)" fill="white" fill-opacity="0.43"/>
<ellipse rx="2.81561" ry="2.73472" transform="matrix(0.83967 -0.543097 0.610097 0.792327 1111.67 863.181)" fill="white" fill-opacity="0.43"/>
<ellipse rx="5.3971" ry="5.70058" transform="matrix(-0.462175 -0.886789 0.916062 -0.401038 665.412 922.517)" fill="white" fill-opacity="0.43"/>
<ellipse rx="5.3971" ry="5.70058" transform="matrix(-0.462175 -0.886789 0.916062 -0.401038 812.027 970.017)" fill="white" fill-opacity="0.43"/>
<ellipse rx="2.69855" ry="2.85029" transform="matrix(-0.462175 -0.886789 0.916062 -0.401038 745.502 996.2)" fill="white"/>
<ellipse rx="2.69855" ry="2.85029" transform="matrix(-0.462175 -0.886789 0.916062 -0.401038 595.066 879.838)" fill="white" fill-opacity="0.43"/>
<ellipse rx="2.69855" ry="2.85029" transform="matrix(-0.462175 -0.886789 0.916062 -0.401038 554.618 962.205)" fill="white" fill-opacity="0.43"/>
<ellipse rx="2.67065" ry="2.87645" transform="matrix(0.294646 -0.955607 0.968059 0.250725 712.335 845.892)" fill="white"/>
<ellipse rx="5.78724" ry="5.30407" transform="matrix(0.999998 0.00197257 -0.00234832 0.999997 978.106 872.106)" fill="white" fill-opacity="0.43"/>
<ellipse rx="2.89362" ry="2.65204" transform="matrix(0.999998 0.00197257 -0.00234832 0.999997 1090.95 874.979)" fill="white"/>
<ellipse rx="5.34073" ry="5.75343" transform="matrix(0.292432 0.956286 -0.968557 0.248792 658.026 897.041)" fill="white"/>
<ellipse rx="2.67037" ry="2.87671" transform="matrix(0.292432 0.956286 -0.968557 0.248792 563.276 852.522)" fill="white" fill-opacity="0.43"/>
<ellipse rx="2.67037" ry="2.87671" transform="matrix(0.292432 0.956286 -0.968557 0.248792 394.075 829.885)" fill="white"/>
<ellipse rx="2.67037" ry="2.87671" transform="matrix(0.292432 0.956286 -0.968557 0.248792 506.446 922.204)" fill="white"/>
<ellipse rx="5.56922" ry="5.53255" transform="matrix(-0.762191 -0.647352 0.711005 -0.703187 544.6 974.843)" fill="white" fill-opacity="0.43"/>
<ellipse rx="5.56922" ry="5.53255" transform="matrix(-0.762191 -0.647352 0.711005 -0.703187 699.99 969.425)" fill="white" fill-opacity="0.43"/>
<ellipse rx="2.78461" ry="2.76627" transform="matrix(-0.762191 -0.647352 0.711005 -0.703187 462.041 958.956)" fill="white" fill-opacity="0.43"/>
<ellipse rx="2.78461" ry="2.76627" transform="matrix(-0.762191 -0.647352 0.711005 -0.703187 619.188 897.179)" fill="white"/>
<ellipse rx="2.78461" ry="2.76627" transform="matrix(-0.762191 -0.647352 0.711005 -0.703187 470.727 872.328)" fill="white"/>
<ellipse rx="2.66265" ry="2.88385" transform="matrix(-0.223053 -0.974806 0.982025 -0.18875 507.369 950.613)" fill="white"/>
<ellipse rx="5.50757" ry="5.59393" transform="matrix(-0.673274 -0.739393 0.794293 -0.607535 561.495 832.142)" fill="white"/>
<ellipse rx="2.75378" ry="2.79697" transform="matrix(-0.673274 -0.739393 0.794293 -0.607535 638.232 887.44)" fill="white"/>
<ellipse rx="5.66911" ry="5.43015" transform="matrix(-0.882574 0.470172 -0.535579 -0.844485 433.847 924.224)" fill="white" fill-opacity="0.43"/>
<ellipse rx="5.66911" ry="5.43015" transform="matrix(-0.882574 0.470172 -0.535579 -0.844485 548.801 936.605)" fill="white"/>
<ellipse rx="2.83456" ry="2.71507" transform="matrix(-0.882574 0.470172 -0.535579 -0.844485 245.487 843.588)" fill="white"/>
<ellipse rx="2.83456" ry="2.71507" transform="matrix(-0.882574 0.470172 -0.535579 -0.844485 374.635 836.137)" fill="white"/>
<ellipse rx="2.83456" ry="2.71507" transform="matrix(-0.882574 0.470172 -0.535579 -0.844485 485.959 1022.23)" fill="white" fill-opacity="0.43"/>
<ellipse rx="2.83456" ry="2.71507" transform="matrix(-0.882574 0.470172 -0.535579 -0.844485 621.181 876.575)" fill="white"/>
<ellipse rx="2.77893" ry="2.77199" transform="matrix(-0.746805 -0.665043 0.727442 -0.686169 395.183 842.879)" fill="white"/>
<ellipse rx="5.34073" ry="5.75343" transform="matrix(0.292432 0.956286 -0.968557 0.248792 153.806 926.716)" fill="white" fill-opacity="0.43"/>
<ellipse rx="5.34073" ry="5.75343" transform="matrix(0.292432 0.956286 -0.968557 0.248792 195.684 827.823)" fill="white"/>
<ellipse rx="5.34073" ry="5.75343" transform="matrix(0.292432 0.956286 -0.968557 0.248792 18.2537 856.875)" fill="white" fill-opacity="0.43"/>
<ellipse rx="2.67037" ry="2.87671" transform="matrix(0.292432 0.956286 -0.968557 0.248792 88.6882 841.534)" fill="white"/>
<ellipse rx="2.67037" ry="2.87671" transform="matrix(0.292432 0.956286 -0.968557 0.248792 45.9213 957.181)" fill="white"/>
<ellipse rx="2.67037" ry="2.87671" transform="matrix(0.292432 0.956286 -0.968557 0.248792 270.383 905.033)" fill="white" fill-opacity="0.43"/>
<ellipse rx="2.78461" ry="2.76627" transform="matrix(-0.762191 -0.647352 0.711005 -0.703187 225.474 913.467)" fill="white"/>
<ellipse rx="2.78461" ry="2.76627" transform="matrix(-0.762191 -0.647352 0.711005 -0.703187 122.578 999.626)" fill="white"/>
<ellipse rx="2.78628" ry="2.76459" transform="matrix(0.766632 0.642087 -0.706074 0.708138 1367.07 989.036)" fill="white"/>
<ellipse rx="5.60982" ry="5.49138" transform="matrix(0.814056 -0.580786 0.647361 0.762183 1564.19 927.387)" fill="white" fill-opacity="0.43"/>
<ellipse rx="5.60982" ry="5.49138" transform="matrix(0.814056 -0.580786 0.647361 0.762183 1448.47 929.291)" fill="white"/>
<ellipse rx="2.80491" ry="2.74569" transform="matrix(0.814056 -0.580786 0.647361 0.762183 1762.68 984.067)" fill="white"/>
<ellipse rx="2.80491" ry="2.74569" transform="matrix(0.814056 -0.580786 0.647361 0.762183 1594.61 855.269)" fill="white" fill-opacity="0.43"/>
<ellipse rx="2.80491" ry="2.74569" transform="matrix(0.814056 -0.580786 0.647361 0.762183 1686.49 877.099)" fill="white"/>
<ellipse rx="2.80491" ry="2.74569" transform="matrix(0.814056 -0.580786 0.647361 0.762183 1498.17 836.699)" fill="white" fill-opacity="0.43"/>
<ellipse rx="2.80491" ry="2.74569" transform="matrix(0.814056 -0.580786 0.647361 0.762183 1385.56 997.699)" fill="white"/>
<ellipse rx="2.81074" ry="2.73972" transform="matrix(0.828149 0.560507 -0.627419 0.778682 1614.45 1003.23)" fill="white"/>
<ellipse rx="5.32756" ry="5.76563" transform="matrix(0.234494 0.972118 -0.980083 0.198586 1758.91 838.712)" fill="white"/>
<ellipse rx="2.66378" ry="2.88281" transform="matrix(0.234494 0.972118 -0.980083 0.198586 1467.92 873.227)" fill="white"/>
<ellipse rx="2.66378" ry="2.88281" transform="matrix(0.234494 0.972118 -0.980083 0.198586 1606.03 856.105)" fill="white"/>
<ellipse rx="5.42038" ry="5.67845" transform="matrix(-0.515104 0.857128 -0.892705 -0.450642 1410.57 927.441)" fill="white" fill-opacity="0.43"/>
<ellipse rx="5.42038" ry="5.67845" transform="matrix(-0.515104 0.857128 -0.892705 -0.450642 1516.07 883.815)" fill="white"/>
<ellipse rx="2.71019" ry="2.83923" transform="matrix(-0.515104 0.857128 -0.892705 -0.450642 1429.27 824.858)" fill="white"/>
<ellipse rx="2.71019" ry="2.83923" transform="matrix(-0.515104 0.857128 -0.892705 -0.450642 1413.69 1004.71)" fill="white" fill-opacity="0.43"/>
<ellipse rx="2.71019" ry="2.83923" transform="matrix(-0.515104 0.857128 -0.892705 -0.450642 1310.33 879.865)" fill="white"/>
<ellipse rx="2.71019" ry="2.83923" transform="matrix(-0.515104 0.857128 -0.892705 -0.450642 1510.3 986.869)" fill="white" fill-opacity="0.43"/>
<ellipse rx="5.76309" ry="5.3303" transform="matrix(-0.977703 -0.209992 0.247724 -0.96883 1234.14 874.058)" fill="white"/>
<ellipse rx="5.76309" ry="5.3303" transform="matrix(-0.977703 -0.209992 0.247724 -0.96883 991.232 870.916)" fill="#FFF2C9"/>
<ellipse rx="2.88155" ry="2.66515" transform="matrix(-0.977703 -0.209992 0.247724 -0.96883 1124.3 896.772)" fill="white" fill-opacity="0.43"/>
<ellipse rx="2.88155" ry="2.66515" transform="matrix(-0.977703 -0.209992 0.247724 -0.96883 1331.73 875.951)" fill="white"/>
<ellipse rx="5.52898" ry="5.57277" transform="matrix(0.705764 -0.708447 0.766908 0.641757 1660.37 970.254)" fill="white"/>
<ellipse rx="5.4552" ry="5.64501" transform="matrix(-0.584369 -0.811488 0.85564 -0.517572 1722.95 926.671)" fill="white"/>
<ellipse rx="2.7276" ry="2.8225" transform="matrix(-0.584369 -0.811488 0.85564 -0.517572 1828 942.565)" fill="white" fill-opacity="0.43"/>
<ellipse rx="2.7276" ry="2.8225" transform="matrix(-0.584369 -0.811488 0.85564 -0.517572 1858.91 860.316)" fill="white"/>
<ellipse rx="5.70362" ry="5.3939" transform="matrix(0.919199 0.393793 -0.454338 0.890829 1658.88 869.478)" fill="white" fill-opacity="0.43"/>
<ellipse rx="2.85181" ry="2.69695" transform="matrix(0.919199 0.393793 -0.454338 0.890829 1759.89 915.679)" fill="white"/>
<ellipse rx="2.71301" ry="2.83654" transform="matrix(0.527025 0.84985 -0.886886 0.461988 1848.58 833.518)" fill="white"/>
<ellipse rx="5.7076" ry="5.38968" transform="matrix(-0.923293 -0.384096 0.443806 -0.896123 210.454 836.391)" fill="white" fill-opacity="0.43"/>
<ellipse rx="5.7076" ry="5.38968" transform="matrix(-0.923293 -0.384096 0.443806 -0.896123 28.474 883.01)" fill="white"/>
<ellipse rx="2.8538" ry="2.69484" transform="matrix(-0.923293 -0.384096 0.443806 -0.896123 323.493 845.552)" fill="white"/>
<ellipse rx="2.8538" ry="2.69484" transform="matrix(-0.923293 -0.384096 0.443806 -0.896123 126.637 845.211)" fill="white" fill-opacity="0.43"/>
<ellipse rx="2.8538" ry="2.69484" transform="matrix(-0.923293 -0.384096 0.443806 -0.896123 153.511 932.114)" fill="white" fill-opacity="0.43"/>
<ellipse rx="5.46049" ry="5.63989" transform="matrix(-0.594074 0.804411 -0.849769 -0.527155 165.29 923.23)" fill="white" fill-opacity="0.43"/>
<ellipse rx="2.73024" ry="2.81995" transform="matrix(-0.594074 0.804411 -0.849769 -0.527155 99.6363 1007.4)" fill="white"/>
<ellipse rx="5.74075" ry="5.35435" transform="matrix(-0.95636 -0.29219 0.341814 -0.939768 24.3506 995.228)" fill="white"/>
<ellipse rx="5.74075" ry="5.35435" transform="matrix(-0.95636 -0.29219 0.341814 -0.939768 97.5555 844.274)" fill="white" fill-opacity="0.43"/>
<ellipse rx="2.87038" ry="2.67718" transform="matrix(-0.95636 -0.29219 0.341814 -0.939768 71.932 906.333)" fill="white"/>
<ellipse rx="2.87038" ry="2.67718" transform="matrix(-0.95636 -0.29219 0.341814 -0.939768 121.342 1005.29)" fill="#FFF2C9"/>
<ellipse rx="5.43078" ry="5.66851" transform="matrix(-0.536872 -0.843664 0.881913 -0.471413 36.9847 397.519)" fill="white" fill-opacity="0.43"/>
<ellipse rx="5.54326" ry="5.55856" transform="matrix(0.726433 -0.687238 0.747777 0.66395 141.506 233.242)" fill="white" fill-opacity="0.43"/>
<ellipse rx="5.54326" ry="5.55856" transform="matrix(0.726433 -0.687238 0.747777 0.66395 27.1968 249.909)" fill="white"/>
<ellipse rx="5.54326" ry="5.55856" transform="matrix(0.726433 -0.687238 0.747777 0.66395 143.969 375.745)" fill="white" fill-opacity="0.43"/>
<ellipse rx="2.77163" ry="2.77928" transform="matrix(0.726433 -0.687238 0.747777 0.66395 346.675 264.02)" fill="white"/>
<ellipse rx="2.77163" ry="2.77928" transform="matrix(0.726433 -0.687238 0.747777 0.66395 94.0258 327.708)" fill="white"/>
<ellipse rx="2.77163" ry="2.77928" transform="matrix(0.726433 -0.687238 0.747777 0.66395 160.669 157.944)" fill="white" fill-opacity="0.43"/>
<ellipse rx="2.77163" ry="2.77928" transform="matrix(0.726433 -0.687238 0.747777 0.66395 224.571 303.304)" fill="white"/>
<ellipse rx="2.77163" ry="2.77928" transform="matrix(0.726433 -0.687238 0.747777 0.66395 254.97 167.825)" fill="white"/>
<ellipse rx="2.77163" ry="2.77928" transform="matrix(0.726433 -0.687238 0.747777 0.66395 62.3342 151.871)" fill="white" fill-opacity="0.43"/>
<ellipse rx="2.69416" ry="2.85445" transform="matrix(-0.440332 0.897835 -0.924613 -0.380907 1817.58 223.599)" fill="white"/>
<ellipse rx="5.77701" ry="5.31522" transform="matrix(-0.990646 -0.136454 0.16182 -0.98682 1841.36 148.451)" fill="white"/>
<ellipse rx="5.77701" ry="5.31522" transform="matrix(-0.990646 -0.136454 0.16182 -0.98682 1598.98 163.339)" fill="white"/>
<ellipse rx="2.8885" ry="2.65761" transform="matrix(-0.990646 -0.136454 0.16182 -0.98682 1733.9 179.24)" fill="white" fill-opacity="0.43"/>
<ellipse rx="5.31226" ry="5.77973" transform="matrix(-0.138779 -0.990323 0.993143 -0.116905 1221.8 155.755)" fill="white"/>
<ellipse rx="5.31226" ry="5.77973" transform="matrix(-0.138779 -0.990323 0.993143 -0.116905 1401.96 150.591)" fill="white" fill-opacity="0.43"/>
<ellipse rx="2.65613" ry="2.88986" transform="matrix(-0.138779 -0.990323 0.993143 -0.116905 1329.83 156.407)" fill="white"/>
<ellipse rx="2.65613" ry="2.88986" transform="matrix(-0.138779 -0.990323 0.993143 -0.116905 1254.05 240.195)" fill="white"/>
<ellipse rx="5.71627" ry="5.38049" transform="matrix(0.932106 -0.362186 0.419841 0.907598 1509.74 168.746)" fill="white" fill-opacity="0.43"/>
<ellipse rx="2.85813" ry="2.69024" transform="matrix(0.932106 -0.362186 0.419841 0.907598 1743.92 138.24)" fill="white"/>
<ellipse rx="2.85813" ry="2.69024" transform="matrix(0.932106 -0.362186 0.419841 0.907598 1484.17 106.667)" fill="white"/>
<ellipse rx="2.85813" ry="2.69024" transform="matrix(0.932106 -0.362186 0.419841 0.907598 1614.77 130.814)" fill="white"/>
<ellipse rx="5.78646" ry="5.30493" transform="matrix(-0.999287 -0.0377523 0.0449303 -0.99899 1060.15 170.484)" fill="white" fill-opacity="0.43"/>
<ellipse rx="5.78646" ry="5.30493" transform="matrix(-0.999287 -0.0377523 0.0449303 -0.99899 1149.81 237.574)" fill="white"/>
<ellipse rx="5.78646" ry="5.30493" transform="matrix(-0.999287 -0.0377523 0.0449303 -0.99899 910.585 276.314)" fill="white"/>
<ellipse rx="2.89323" ry="2.65246" transform="matrix(-0.999287 -0.0377523 0.0449303 -0.99899 1168.67 140.079)" fill="white"/>
<ellipse rx="2.89323" ry="2.65246" transform="matrix(-0.999287 -0.0377523 0.0449303 -0.99899 986.08 207.502)" fill="white" fill-opacity="0.43"/>
<ellipse rx="2.89323" ry="2.65246" transform="matrix(-0.999287 -0.0377523 0.0449303 -0.99899 931.356 136.421)" fill="white"/>
<ellipse rx="2.89323" ry="2.65246" transform="matrix(-0.999287 -0.0377523 0.0449303 -0.99899 1046.59 278.799)" fill="white" fill-opacity="0.43"/>
<ellipse rx="2.89323" ry="2.65246" transform="matrix(-0.999287 -0.0377523 0.0449303 -0.99899 1246.05 222.632)" fill="white"/>
<ellipse rx="2.89323" ry="2.65246" transform="matrix(-0.999287 -0.0377523 0.0449303 -0.99899 1492.88 130.289)" fill="white"/>
</g>
<g filter="url(#filter0_df)">
<path d="M592.054 138.339C501.799 379.783 661.138 479.726 561.688 558.107C462.238 636.488 402.694 548.713 258.166 595.122C113.637 641.53 237.045 519.734 293.407 377.996C349.77 236.258 682.308 -103.105 592.054 138.339Z" fill="url(#paint0_radial)" fill-opacity="0.4"/>
</g>
<defs>
<filter id="filter0_df" x="83" y="0.000488281" width="817.865" height="834.926" filterUnits="userSpaceOnUse" color-interpolation-filters="sRGB">
<feFlood flood-opacity="0" result="BackgroundImageFix"/>
<feColorMatrix in="SourceAlpha" type="matrix" values="0 0 0 0 0 0 0 0 0 0 0 0 0 0 0 0 0 0 127 0"/>
<feOffset dx="20" dy="20"/>
<feGaussianBlur stdDeviation="25"/>
<feColorMatrix type="matrix" values="0 0 0 0 0.568627 0 0 0 0 0.596078 0 0 0 0 0.72549 0 0 0 0.1 0"/>
<feBlend mode="normal" in2="BackgroundImageFix" result="effect1_dropShadow"/>
<feBlend mode="normal" in="SourceGraphic" in2="effect1_dropShadow" result="shape"/>
<feGaussianBlur stdDeviation="2" result="effect2_foregroundBlur"/>
</filter>
<radialGradient id="paint0_radial" cx="0" cy="0" r="1" gradientUnits="userSpaceOnUse" gradientTransform="translate(406.738 414.356) rotate(62.0719) scale(102.525 216.041)">
<stop stop-color="#EEA391"/>
<stop offset="0.502762" stop-color="#AF4448" stop-opacity="0.3"/>
<stop offset="1" stop-color="#AF4448" stop-opacity="0"/>
</radialGradient>
</defs>
</svg>
