<svg width="1893" height="1076" viewBox="0 0 1893 1076" fill="none" xmlns="http://www.w3.org/2000/svg">
<path d="M592.054 108.339C501.799 349.783 661.138 449.726 561.688 528.107C462.238 606.488 402.694 518.713 258.166 565.122C113.637 611.53 237.045 489.734 293.407 347.996C349.77 206.258 682.309 -133.105 592.054 108.339Z" fill="url(#paint0_radial)" fill-opacity="0.2"/>
<g opacity="0.4">
<ellipse rx="2.66287" ry="2.88365" transform="matrix(0.225323 0.974284 0.981648 -0.1907 423.986 769.864)" fill="white"/>
<ellipse rx="2.66287" ry="2.88365" transform="matrix(0.225323 0.974284 0.981648 -0.1907 204.914 769.047)" fill="white" fill-opacity="0.43"/>
<ellipse rx="2.66287" ry="2.88365" transform="matrix(0.225323 0.974284 0.981648 -0.1907 118.117 726.27)" fill="white" fill-opacity="0.43"/>
<ellipse rx="5.78533" ry="5.30616" transform="matrix(0.998259 0.05899 0.0701761 -0.997535 651.555 753.433)" fill="white"/>
<ellipse rx="2.89266" ry="2.65308" transform="matrix(0.998259 0.05899 0.0701761 -0.997535 516.024 742.766)" fill="white" fill-opacity="0.43"/>
<ellipse rx="5.36037" ry="5.73514" transform="matrix(0.361364 -0.932425 -0.950883 -0.309551 987.475 718.016)" fill="white" fill-opacity="0.43"/>
<ellipse rx="5.36037" ry="5.73514" transform="matrix(0.361364 -0.932425 -0.950883 -0.309551 847.055 779.247)" fill="white" fill-opacity="0.43"/>
<ellipse rx="2.68018" ry="2.86757" transform="matrix(0.361364 -0.932425 -0.950883 -0.309551 916.194 798.94)" fill="white"/>
<ellipse rx="2.68018" ry="2.86757" transform="matrix(0.361364 -0.932425 -0.950883 -0.309551 1102.17 746.91)" fill="white" fill-opacity="0.43"/>
<ellipse rx="5.63121" ry="5.46944" transform="matrix(-0.83967 -0.543097 -0.610097 0.792327 737.523 776.052)" fill="white" fill-opacity="0.43"/>
<ellipse rx="2.81561" ry="2.73472" transform="matrix(-0.83967 -0.543097 -0.610097 0.792327 776.867 720.352)" fill="white"/>
<ellipse rx="2.81561" ry="2.73472" transform="matrix(-0.83967 -0.543097 -0.610097 0.792327 643.649 718.582)" fill="white"/>
<ellipse rx="5.77361" ry="5.31891" transform="matrix(0.987509 0.157563 0.186613 -0.982434 1087.02 748.515)" fill="white" fill-opacity="0.43"/>
<ellipse rx="2.8868" ry="2.65945" transform="matrix(0.987509 0.157563 0.186613 -0.982434 1322.65 729.581)" fill="white"/>
<ellipse rx="2.8868" ry="2.65945" transform="matrix(0.987509 0.157563 0.186613 -0.982434 1198.7 763.641)" fill="white"/>
<ellipse rx="2.69855" ry="2.85029" transform="matrix(0.462175 -0.886789 -0.916062 -0.401038 1181.98 776.497)" fill="white"/>
<ellipse rx="2.67065" ry="2.87645" transform="matrix(-0.294646 -0.955607 -0.968059 0.250725 1049.28 958.442)" fill="white"/>
<ellipse rx="5.78724" ry="5.30407" transform="matrix(-0.999998 0.00197257 0.00234832 0.999997 973.636 948.315)" fill="white"/>
<ellipse rx="2.89362" ry="2.65204" transform="matrix(-0.999998 0.00197257 0.00234832 0.999997 1069.17 966.689)" fill="white"/>
<ellipse rx="5.65927" ry="5.44041" transform="matrix(0.871714 0.490014 0.55616 -0.831075 1157.95 745.971)" fill="white" fill-opacity="0.43"/>
<ellipse rx="2.82963" ry="2.7202" transform="matrix(0.871714 0.490014 0.55616 -0.831075 1255.67 797.785)" fill="white"/>
<ellipse rx="5.56922" ry="5.53255" transform="matrix(0.762191 -0.647352 -0.711005 -0.703187 1318.76 758.213)" fill="white"/>
<ellipse rx="2.78461" ry="2.76627" transform="matrix(0.762191 -0.647352 -0.711005 -0.703187 1426.48 728.19)" fill="white" fill-opacity="0.43"/>
<ellipse rx="5.32531" ry="5.76771" transform="matrix(0.223053 -0.974806 -0.982025 -0.18875 1519.44 768.146)" fill="white" fill-opacity="0.43"/>
<ellipse rx="2.66265" ry="2.88385" transform="matrix(0.223053 -0.974806 -0.982025 -0.18875 1576.77 711.422)" fill="white" fill-opacity="0.43"/>
<ellipse rx="2.66265" ry="2.88385" transform="matrix(0.223053 -0.974806 -0.982025 -0.18875 1409.59 744.323)" fill="white"/>
<ellipse rx="2.66265" ry="2.88385" transform="matrix(0.223053 -0.974806 -0.982025 -0.18875 1637.33 782.677)" fill="white" fill-opacity="0.43"/>
<ellipse rx="5.66911" ry="5.43015" transform="matrix(0.882574 0.470172 0.535579 -0.844485 1514.23 766.159)" fill="white"/>
<ellipse rx="2.67037" ry="2.87671" transform="matrix(-0.292432 0.956286 0.968557 0.248792 1862.64 752.642)" fill="white"/>
<ellipse rx="2.67037" ry="2.87671" transform="matrix(-0.292432 0.956286 0.968557 0.248792 1725.78 728.502)" fill="white"/>
<ellipse rx="5.56922" ry="5.53255" transform="matrix(0.762191 -0.647352 -0.711005 -0.703187 1687.62 781.141)" fill="white" fill-opacity="0.43"/>
<ellipse rx="5.56922" ry="5.53255" transform="matrix(0.762191 -0.647352 -0.711005 -0.703187 1532.23 775.724)" fill="white" fill-opacity="0.43"/>
<ellipse rx="5.56922" ry="5.53255" transform="matrix(0.762191 -0.647352 -0.711005 -0.703187 1876.35 772.708)" fill="white"/>
<ellipse rx="2.78461" ry="2.76627" transform="matrix(0.762191 -0.647352 -0.711005 -0.703187 1770.18 765.254)" fill="white" fill-opacity="0.43"/>
<ellipse rx="2.66265" ry="2.88385" transform="matrix(0.223053 -0.974806 -0.982025 -0.18875 1724.85 756.911)" fill="white"/>
<ellipse rx="2.66265" ry="2.88385" transform="matrix(0.223053 -0.974806 -0.982025 -0.18875 1863.17 772.656)" fill="white"/>
<ellipse rx="5.57256" ry="5.52919" transform="matrix(-0.766632 0.642087 0.706074 0.708138 432.85 713.37)" fill="white"/>
<ellipse rx="2.78628" ry="2.76459" transform="matrix(-0.766632 0.642087 0.706074 0.708138 515.756 776.86)" fill="white"/>
<ellipse rx="2.78628" ry="2.76459" transform="matrix(-0.766632 0.642087 0.706074 0.708138 324.906 742.706)" fill="white" fill-opacity="0.43"/>
<ellipse rx="5.60982" ry="5.49138" transform="matrix(-0.814056 -0.580786 -0.647361 0.762183 339.103 747.815)" fill="white" fill-opacity="0.43"/>
<ellipse rx="5.62148" ry="5.47945" transform="matrix(-0.828149 0.560507 0.627419 0.778682 180.78 719.28)" fill="white"/>
<ellipse rx="2.81074" ry="2.73972" transform="matrix(-0.828149 0.560507 0.627419 0.778682 256.018 790.339)" fill="white"/>
<ellipse rx="2.81074" ry="2.73972" transform="matrix(-0.828149 0.560507 0.627419 0.778682 70.0853 738.153)" fill="white" fill-opacity="0.43"/>
<ellipse rx="5.42038" ry="5.67845" transform="matrix(0.515104 0.857128 0.892705 -0.450642 436.851 776.329)" fill="white"/>
<ellipse rx="5.63121" ry="5.46944" transform="matrix(-0.83967 -0.543097 -0.610097 0.792327 55.0045 978.786)" fill="white"/>
<ellipse rx="2.88155" ry="2.66515" transform="matrix(0.977703 -0.209992 -0.247724 -0.96883 3.47751 971.187)" fill="white"/>
<ellipse rx="2.76449" ry="2.78639" transform="matrix(-0.705764 -0.708447 -0.766908 0.641757 214.786 746.496)" fill="white" fill-opacity="0.43"/>
<ellipse rx="2.76449" ry="2.78639" transform="matrix(-0.705764 -0.708447 -0.766908 0.641757 120.202 753.818)" fill="white"/>
<ellipse rx="2.76449" ry="2.78639" transform="matrix(-0.705764 -0.708447 -0.766908 0.641757 313.268 743.09)" fill="white" fill-opacity="0.43"/>
<ellipse rx="2.87198" ry="2.67545" transform="matrix(0.959474 0.281796 0.330052 -0.943963 63.8189 794.926)" fill="white"/>
<ellipse rx="2.7276" ry="2.8225" transform="matrix(0.584369 -0.811488 -0.85564 -0.517572 83.794 708.242)" fill="white" fill-opacity="0.43"/>
<ellipse rx="5.31465" ry="5.77753" transform="matrix(-0.157654 0.987494 0.991127 0.132916 976.622 852.272)" fill="white"/>
<ellipse rx="2.65732" ry="2.88877" transform="matrix(-0.157654 0.987494 0.991127 0.132916 1064.4 797.036)" fill="white" fill-opacity="0.43"/>
<ellipse rx="5.31052" ry="5.78133" transform="matrix(-0.123159 0.992387 0.99461 0.103684 960.646 843.6)" fill="white" fill-opacity="0.43"/>
<ellipse rx="2.65526" ry="2.89066" transform="matrix(-0.123159 0.992387 0.99461 0.103684 1116.87 969.321)" fill="white"/>
<ellipse rx="2.65526" ry="2.89066" transform="matrix(-0.123159 0.992387 0.99461 0.103684 909.343 904.981)" fill="white" fill-opacity="0.43"/>
<ellipse rx="2.65526" ry="2.89066" transform="matrix(-0.123159 0.992387 0.99461 0.103684 1072.44 857.924)" fill="white"/>
<ellipse rx="2.65526" ry="2.89066" transform="matrix(-0.123159 0.992387 0.99461 0.103684 977.552 995.474)" fill="white"/>
<ellipse rx="2.86054" ry="2.68769" transform="matrix(0.936942 0.349485 0.405844 -0.913942 1057.45 843.386)" fill="white"/>
<ellipse rx="5.32756" ry="5.76563" transform="matrix(-0.234494 0.972118 0.980083 0.198586 895.285 928.334)" fill="white" fill-opacity="0.43"/>
<ellipse rx="5.51479" ry="5.58681" transform="matrix(-0.684448 -0.729062 -0.785221 0.619216 896.334 936.289)" fill="white"/>
<ellipse rx="5.5056" ry="5.59587" transform="matrix(0.670192 -0.742188 -0.796735 -0.604329 1016.39 835.991)" fill="white" fill-opacity="0.43"/>
<ellipse rx="5.5056" ry="5.59587" transform="matrix(0.901022 0.433773 0.355204 -0.934789 1037.14 934.827)" fill="white"/>
<ellipse rx="2.7528" ry="2.79793" transform="matrix(0.670192 -0.742188 -0.796735 -0.604329 919.146 889.607)" fill="white"/>
<ellipse rx="2.7528" ry="2.79793" transform="matrix(0.670192 -0.742188 -0.796735 -0.604329 1095.95 810.279)" fill="white" fill-opacity="0.43"/>
<ellipse rx="2.7528" ry="2.79793" transform="matrix(0.670192 -0.742188 -0.796735 -0.604329 1014 1071.73)" fill="white" fill-opacity="0.43"/>
<ellipse rx="2.7528" ry="2.79793" transform="matrix(0.670192 -0.742188 -0.796735 -0.604329 1113.31 899.189)" fill="white" fill-opacity="0.43"/>
<ellipse rx="2.7328" ry="2.81747" transform="matrix(-0.603271 -0.797536 -0.844036 0.536287 935.181 787.69)" fill="white"/>
<ellipse rx="5.46049" ry="5.63989" transform="matrix(0.594074 0.804411 0.849769 -0.527155 1689.35 742.178)" fill="white" fill-opacity="0.43"/>
<ellipse rx="5.32575" ry="5.7673" transform="matrix(0.225323 0.974284 0.981648 -0.1907 153.237 917.117)" fill="white"/>
<ellipse rx="5.32575" ry="5.7673" transform="matrix(0.225323 0.974284 0.981648 -0.1907 325.142 867.457)" fill="white" fill-opacity="0.43"/>
<ellipse rx="2.66287" ry="2.88365" transform="matrix(0.225323 0.974284 0.981648 -0.1907 254.973 883.799)" fill="white"/>
<ellipse rx="2.66287" ry="2.88365" transform="matrix(0.225323 0.974284 0.981648 -0.1907 153.253 827.653)" fill="white"/>
<ellipse rx="5.78533" ry="5.30616" transform="matrix(0.998259 0.05899 0.0701761 -0.997535 522.993 924.745)" fill="white" fill-opacity="0.43"/>
<ellipse rx="5.78533" ry="5.30616" transform="matrix(0.998259 0.05899 0.0701761 -0.997535 420.339 817.694)" fill="white" fill-opacity="0.43"/>
<ellipse rx="2.89266" ry="2.65308" transform="matrix(0.998259 0.05899 0.0701761 -0.997535 418.569 884.028)" fill="white"/>
<ellipse rx="2.89266" ry="2.65308" transform="matrix(0.998259 0.05899 0.0701761 -0.997535 592.39 968.711)" fill="white" fill-opacity="0.43"/>
<ellipse rx="2.89266" ry="2.65308" transform="matrix(0.998259 0.05899 0.0701761 -0.997535 533.143 821.701)" fill="white"/>
<ellipse rx="5.36037" ry="5.73514" transform="matrix(0.361364 -0.932425 -0.950883 -0.309551 1158.42 921.343)" fill="white"/>
<ellipse rx="2.68018" ry="2.86757" transform="matrix(0.361364 -0.932425 -0.950883 -0.309551 874.309 854.182)" fill="white"/>
<ellipse rx="2.68018" ry="2.86757" transform="matrix(0.996479 0.08384 0.0289252 -0.999582 1033.98 1017.59)" fill="white" fill-opacity="0.43"/>
<ellipse rx="2.68018" ry="2.86757" transform="matrix(0.361364 -0.932425 -0.950883 -0.309551 890.1 971.895)" fill="white"/>
<ellipse rx="2.68018" ry="2.86757" transform="matrix(0.361364 -0.932425 -0.950883 -0.309551 1009.06 886.791)" fill="white"/>
<ellipse rx="5.63121" ry="5.46944" transform="matrix(-0.83967 -0.543097 -0.610097 0.792327 834.779 923.536)" fill="white"/>
<ellipse rx="2.81561" ry="2.73472" transform="matrix(-0.83967 -0.543097 -0.610097 0.792327 523.713 991.752)" fill="white"/>
<ellipse rx="2.81561" ry="2.73472" transform="matrix(-0.83967 -0.543097 -0.610097 0.792327 685.006 855.876)" fill="white" fill-opacity="0.43"/>
<ellipse rx="2.81561" ry="2.73472" transform="matrix(-0.83967 -0.543097 -0.610097 0.792327 780.395 833.181)" fill="white" fill-opacity="0.43"/>
<ellipse rx="5.3971" ry="5.70058" transform="matrix(0.462175 -0.886789 -0.916062 -0.401038 1226.66 892.517)" fill="white" fill-opacity="0.43"/>
<ellipse rx="5.3971" ry="5.70058" transform="matrix(0.981115 0.193428 0.126518 -0.991964 1058.5 1030.67)" fill="white" fill-opacity="0.43"/>
<ellipse rx="2.69855" ry="2.85029" transform="matrix(0.462175 -0.886789 -0.916062 -0.401038 1146.57 966.2)" fill="white"/>
<ellipse rx="2.69855" ry="2.85029" transform="matrix(0.462175 -0.886789 -0.916062 -0.401038 1297 849.838)" fill="white" fill-opacity="0.43"/>
<ellipse rx="2.69855" ry="2.85029" transform="matrix(0.462175 -0.886789 -0.916062 -0.401038 1337.45 932.205)" fill="white" fill-opacity="0.43"/>
<ellipse rx="2.67065" ry="2.87645" transform="matrix(-0.294646 -0.955607 -0.968059 0.250725 1179.73 815.892)" fill="white"/>
<ellipse rx="5.78724" ry="5.30407" transform="matrix(-0.999998 0.00197257 0.00234832 0.999997 943.964 1032.11)" fill="white" fill-opacity="0.43"/>
<ellipse rx="2.89362" ry="2.65204" transform="matrix(-0.999998 0.00197257 0.00234832 0.999997 801.118 844.979)" fill="white"/>
<ellipse rx="5.34073" ry="5.75343" transform="matrix(-0.292432 0.956286 0.968557 0.248792 1234.04 867.041)" fill="white"/>
<ellipse rx="2.67037" ry="2.87671" transform="matrix(-0.292432 0.956286 0.968557 0.248792 1328.79 822.522)" fill="white" fill-opacity="0.43"/>
<ellipse rx="2.67037" ry="2.87671" transform="matrix(-0.292432 0.956286 0.968557 0.248792 1497.99 799.885)" fill="white"/>
<ellipse rx="2.67037" ry="2.87671" transform="matrix(-0.292432 0.956286 0.968557 0.248792 1385.62 892.204)" fill="white"/>
<ellipse rx="5.56922" ry="5.53255" transform="matrix(0.762191 -0.647352 -0.711005 -0.703187 1347.47 944.843)" fill="white" fill-opacity="0.43"/>
<ellipse rx="5.56922" ry="5.53255" transform="matrix(0.762191 -0.647352 -0.711005 -0.703187 1192.08 939.425)" fill="white" fill-opacity="0.43"/>
<ellipse rx="2.78461" ry="2.76627" transform="matrix(0.762191 -0.647352 -0.711005 -0.703187 1430.03 928.956)" fill="white" fill-opacity="0.43"/>
<ellipse rx="2.78461" ry="2.76627" transform="matrix(0.762191 -0.647352 -0.711005 -0.703187 1272.88 867.179)" fill="white"/>
<ellipse rx="2.78461" ry="2.76627" transform="matrix(0.762191 -0.647352 -0.711005 -0.703187 1421.34 842.328)" fill="white"/>
<ellipse rx="2.66265" ry="2.88385" transform="matrix(0.223053 -0.974806 -0.982025 -0.18875 1384.7 920.613)" fill="white"/>
<ellipse rx="5.50757" ry="5.59393" transform="matrix(0.673274 -0.739393 -0.794293 -0.607535 1330.58 802.142)" fill="white"/>
<ellipse rx="2.75378" ry="2.79697" transform="matrix(0.673274 -0.739393 -0.794293 -0.607535 1253.84 857.44)" fill="white"/>
<ellipse rx="5.66911" ry="5.43015" transform="matrix(0.882574 0.470172 0.535579 -0.844485 1458.22 894.224)" fill="white" fill-opacity="0.43"/>
<ellipse rx="5.66911" ry="5.43015" transform="matrix(0.882574 0.470172 0.535579 -0.844485 1343.27 906.605)" fill="white"/>
<ellipse rx="2.83456" ry="2.71507" transform="matrix(0.882574 0.470172 0.535579 -0.844485 1646.58 813.588)" fill="white"/>
<ellipse rx="2.83456" ry="2.71507" transform="matrix(0.882574 0.470172 0.535579 -0.844485 1517.44 806.137)" fill="white"/>
<ellipse rx="2.83456" ry="2.71507" transform="matrix(0.882574 0.470172 0.535579 -0.844485 1406.11 992.227)" fill="white" fill-opacity="0.43"/>
<ellipse rx="2.83456" ry="2.71507" transform="matrix(0.882574 0.470172 0.535579 -0.844485 1270.89 846.575)" fill="white"/>
<ellipse rx="2.77893" ry="2.77199" transform="matrix(0.746805 -0.665043 -0.727442 -0.686169 1496.89 812.879)" fill="white"/>
<ellipse rx="5.34073" ry="5.75343" transform="matrix(-0.292432 0.956286 0.968557 0.248792 1738.26 896.716)" fill="white" fill-opacity="0.43"/>
<ellipse rx="5.34073" ry="5.75343" transform="matrix(-0.292432 0.956286 0.968557 0.248792 1696.39 797.823)" fill="white"/>
<ellipse rx="5.34073" ry="5.75343" transform="matrix(-0.292432 0.956286 0.968557 0.248792 1873.82 826.875)" fill="white" fill-opacity="0.43"/>
<ellipse rx="2.67037" ry="2.87671" transform="matrix(-0.292432 0.956286 0.968557 0.248792 1803.38 811.534)" fill="white"/>
<ellipse rx="2.67037" ry="2.87671" transform="matrix(-0.292432 0.956286 0.968557 0.248792 1846.15 927.181)" fill="white"/>
<ellipse rx="2.67037" ry="2.87671" transform="matrix(-0.292432 0.956286 0.968557 0.248792 1621.69 875.033)" fill="white" fill-opacity="0.43"/>
<ellipse rx="2.78461" ry="2.76627" transform="matrix(0.762191 -0.647352 -0.711005 -0.703187 1666.6 883.467)" fill="white"/>
<ellipse rx="2.78461" ry="2.76627" transform="matrix(0.762191 -0.647352 -0.711005 -0.703187 1769.49 969.626)" fill="white"/>
<ellipse rx="2.78628" ry="2.76459" transform="matrix(-0.766632 0.642087 0.706074 0.708138 525.002 959.036)" fill="white"/>
<ellipse rx="5.60982" ry="5.49138" transform="matrix(-0.814056 -0.580786 -0.647361 0.762183 327.877 897.387)" fill="white" fill-opacity="0.43"/>
<ellipse rx="5.60982" ry="5.49138" transform="matrix(-0.814056 -0.580786 -0.647361 0.762183 443.602 899.291)" fill="white"/>
<ellipse rx="2.80491" ry="2.74569" transform="matrix(-0.814056 -0.580786 -0.647361 0.762183 129.393 954.067)" fill="white"/>
<ellipse rx="2.80491" ry="2.74569" transform="matrix(-0.814056 -0.580786 -0.647361 0.762183 297.458 825.269)" fill="white" fill-opacity="0.43"/>
<ellipse rx="2.80491" ry="2.74569" transform="matrix(-0.814056 -0.580786 -0.647361 0.762183 205.575 847.099)" fill="white"/>
<ellipse rx="2.80491" ry="2.74569" transform="matrix(-0.814056 -0.580786 -0.647361 0.762183 393.905 806.699)" fill="white" fill-opacity="0.43"/>
<ellipse rx="2.80491" ry="2.74569" transform="matrix(-0.814056 -0.580786 -0.647361 0.762183 506.512 967.699)" fill="white"/>
<ellipse rx="2.81074" ry="2.73972" transform="matrix(-0.828149 0.560507 0.627419 0.778682 277.624 973.225)" fill="white"/>
<ellipse rx="5.32756" ry="5.76563" transform="matrix(-0.234494 0.972118 0.980083 0.198586 133.164 808.712)" fill="white"/>
<ellipse rx="2.66378" ry="2.88281" transform="matrix(-0.234494 0.972118 0.980083 0.198586 424.15 843.227)" fill="white"/>
<ellipse rx="2.66378" ry="2.88281" transform="matrix(-0.234494 0.972118 0.980083 0.198586 286.036 826.105)" fill="white"/>
<ellipse rx="5.42038" ry="5.67845" transform="matrix(0.515104 0.857128 0.892705 -0.450642 481.499 897.441)" fill="white" fill-opacity="0.43"/>
<ellipse rx="5.42038" ry="5.67845" transform="matrix(0.515104 0.857128 0.892705 -0.450642 376 853.815)" fill="white"/>
<ellipse rx="2.71019" ry="2.83923" transform="matrix(0.515104 0.857128 0.892705 -0.450642 462.801 794.858)" fill="white"/>
<ellipse rx="2.71019" ry="2.83923" transform="matrix(0.515104 0.857128 0.892705 -0.450642 478.382 974.708)" fill="white" fill-opacity="0.43"/>
<ellipse rx="2.71019" ry="2.83923" transform="matrix(0.515104 0.857128 0.892705 -0.450642 581.744 849.865)" fill="white"/>
<ellipse rx="2.71019" ry="2.83923" transform="matrix(0.515104 0.857128 0.892705 -0.450642 381.77 956.869)" fill="white" fill-opacity="0.43"/>
<ellipse rx="5.76309" ry="5.3303" transform="matrix(0.977703 -0.209992 -0.247724 -0.96883 657.934 844.058)" fill="white"/>
<ellipse rx="5.76309" ry="5.3303" transform="matrix(0.977703 -0.209992 -0.247724 -0.96883 900.838 840.916)" fill="#FFF2C9"/>
<ellipse rx="2.88155" ry="2.66515" transform="matrix(0.977703 -0.209992 -0.247724 -0.96883 767.765 866.772)" fill="white" fill-opacity="0.43"/>
<ellipse rx="2.88155" ry="2.66515" transform="matrix(0.977703 -0.209992 -0.247724 -0.96883 560.343 845.951)" fill="white"/>
<ellipse rx="5.52898" ry="5.57277" transform="matrix(-0.705764 -0.708447 -0.766908 0.641757 231.701 940.254)" fill="white"/>
<ellipse rx="5.4552" ry="5.64501" transform="matrix(0.584369 -0.811488 -0.85564 -0.517572 169.124 896.671)" fill="white"/>
<ellipse rx="2.7276" ry="2.8225" transform="matrix(0.584369 -0.811488 -0.85564 -0.517572 64.0677 912.565)" fill="white" fill-opacity="0.43"/>
<ellipse rx="2.7276" ry="2.8225" transform="matrix(0.584369 -0.811488 -0.85564 -0.517572 33.155 830.316)" fill="white"/>
<ellipse rx="5.70362" ry="5.3939" transform="matrix(-0.919199 0.393793 0.454338 0.890829 233.191 839.478)" fill="white" fill-opacity="0.43"/>
<ellipse rx="2.85181" ry="2.69695" transform="matrix(-0.919199 0.393793 0.454338 0.890829 132.179 885.679)" fill="white"/>
<ellipse rx="2.71301" ry="2.83654" transform="matrix(-0.527025 0.84985 0.886886 0.461988 43.491 803.518)" fill="white"/>
<ellipse rx="5.7076" ry="5.38968" transform="matrix(0.923293 -0.384096 -0.443806 -0.896123 1681.62 806.391)" fill="white" fill-opacity="0.43"/>
<ellipse rx="5.7076" ry="5.38968" transform="matrix(0.923293 -0.384096 -0.443806 -0.896123 1863.6 853.01)" fill="white"/>
<ellipse rx="2.8538" ry="2.69484" transform="matrix(0.923293 -0.384096 -0.443806 -0.896123 1568.58 815.552)" fill="white"/>
<ellipse rx="2.8538" ry="2.69484" transform="matrix(0.923293 -0.384096 -0.443806 -0.896123 1765.43 815.211)" fill="white" fill-opacity="0.43"/>
<ellipse rx="2.8538" ry="2.69484" transform="matrix(0.923293 -0.384096 -0.443806 -0.896123 1738.56 902.114)" fill="white" fill-opacity="0.43"/>
<ellipse rx="5.46049" ry="5.63989" transform="matrix(0.594074 0.804411 0.849769 -0.527155 1726.78 893.23)" fill="white" fill-opacity="0.43"/>
<ellipse rx="2.73024" ry="2.81995" transform="matrix(0.594074 0.804411 0.849769 -0.527155 1792.43 977.397)" fill="white"/>
<ellipse rx="5.74075" ry="5.35435" transform="matrix(0.95636 -0.29219 -0.341814 -0.939768 1867.72 965.228)" fill="white"/>
<ellipse rx="5.74075" ry="5.35435" transform="matrix(0.95636 -0.29219 -0.341814 -0.939768 1794.51 814.274)" fill="white" fill-opacity="0.43"/>
<ellipse rx="2.87038" ry="2.67718" transform="matrix(0.95636 -0.29219 -0.341814 -0.939768 1820.14 876.333)" fill="white"/>
<ellipse rx="2.87038" ry="2.67718" transform="matrix(0.95636 -0.29219 -0.341814 -0.939768 1770.73 975.294)" fill="#FFF2C9"/>
<mask id="mask0" mask-type="alpha" maskUnits="userSpaceOnUse" x="18" y="40" width="1873" height="673">
<ellipse rx="5.32575" ry="5.7673" transform="matrix(0.225323 0.974284 0.981648 -0.1907 232.374 695.939)" fill="white" fill-opacity="0.43"/>
<ellipse rx="5.32575" ry="5.7673" transform="matrix(0.225323 0.974284 0.981648 -0.1907 145.237 626.117)" fill="white"/>
<ellipse rx="5.32575" ry="5.7673" transform="matrix(0.225323 0.974284 0.981648 -0.1907 317.142 576.457)" fill="white" fill-opacity="0.43"/>
<ellipse rx="2.66287" ry="2.88365" transform="matrix(0.225323 0.974284 0.981648 -0.1907 246.973 592.799)" fill="white"/>
<ellipse rx="2.66287" ry="2.88365" transform="matrix(0.225323 0.974284 0.981648 -0.1907 343.373 677.088)" fill="#FFF2C9"/>
<ellipse rx="2.66287" ry="2.88365" transform="matrix(0.225323 0.974284 0.981648 -0.1907 145.253 536.653)" fill="white"/>
<ellipse rx="5.78533" ry="5.30616" transform="matrix(0.998259 0.05899 0.0701761 -0.997535 514.993 633.745)" fill="white" fill-opacity="0.43"/>
<ellipse rx="5.78533" ry="5.30616" transform="matrix(0.998259 0.05899 0.0701761 -0.997535 418.119 691.803)" fill="white"/>
<ellipse rx="5.78533" ry="5.30616" transform="matrix(0.998259 0.05899 0.0701761 -0.997535 412.339 526.694)" fill="white" fill-opacity="0.43"/>
<ellipse rx="2.89266" ry="2.65308" transform="matrix(0.998259 0.05899 0.0701761 -0.997535 644.372 484.597)" fill="white"/>
<ellipse rx="2.89266" ry="2.65308" transform="matrix(0.998259 0.05899 0.0701761 -0.997535 410.569 593.028)" fill="white"/>
<ellipse rx="2.89266" ry="2.65308" transform="matrix(0.998259 0.05899 0.0701761 -0.997535 584.39 677.711)" fill="white" fill-opacity="0.43"/>
<ellipse rx="2.89266" ry="2.65308" transform="matrix(0.998259 0.05899 0.0701761 -0.997535 525.143 530.701)" fill="white"/>
<ellipse rx="2.89266" ry="2.65308" transform="matrix(0.998259 0.05899 0.0701761 -0.997535 646.981 612.312)" fill="white"/>
<ellipse rx="2.89266" ry="2.65308" transform="matrix(0.998259 0.05899 0.0701761 -0.997535 324.133 667.647)" fill="white"/>
<ellipse rx="5.36037" ry="5.73514" transform="matrix(0.361364 -0.932425 -0.950883 -0.309551 1150.42 630.344)" fill="white"/>
<ellipse rx="2.68018" ry="2.86757" transform="matrix(0.361364 -0.932425 -0.950883 -0.309551 866.309 563.182)" fill="white"/>
<ellipse rx="2.68018" ry="2.86757" transform="matrix(0.361364 -0.932425 -0.950883 -0.309551 1052.59 668.854)" fill="white" fill-opacity="0.43"/>
<ellipse rx="2.68018" ry="2.86757" transform="matrix(0.361364 -0.932425 -0.950883 -0.309551 882.1 680.896)" fill="white"/>
<ellipse rx="2.68018" ry="2.86757" transform="matrix(0.361364 -0.932425 -0.950883 -0.309551 1001.06 595.791)" fill="white"/>
<ellipse rx="5.63121" ry="5.46944" transform="matrix(-0.83967 -0.543097 -0.610097 0.792327 711.082 635.606)" fill="white" fill-opacity="0.43"/>
<ellipse rx="5.63121" ry="5.46944" transform="matrix(-0.83967 -0.543097 -0.610097 0.792327 826.779 632.536)" fill="white"/>
<ellipse rx="5.63121" ry="5.46944" transform="matrix(-0.83967 -0.543097 -0.610097 0.792327 662.949 468.144)" fill="white"/>
<ellipse rx="2.81561" ry="2.73472" transform="matrix(-0.83967 -0.543097 -0.610097 0.792327 515.713 700.752)" fill="white"/>
<ellipse rx="2.81561" ry="2.73472" transform="matrix(-0.83967 -0.543097 -0.610097 0.792327 677.006 564.876)" fill="white" fill-opacity="0.43"/>
<ellipse rx="2.81561" ry="2.73472" transform="matrix(-0.83967 -0.543097 -0.610097 0.792327 586.34 590.629)" fill="white"/>
<ellipse rx="2.81561" ry="2.73472" transform="matrix(-0.83967 -0.543097 -0.610097 0.792327 772.395 542.181)" fill="white" fill-opacity="0.43"/>
<ellipse rx="2.81561" ry="2.73472" transform="matrix(-0.83967 -0.543097 -0.610097 0.792327 893.119 698.165)" fill="white"/>
<ellipse rx="5.3971" ry="5.70058" transform="matrix(0.462175 -0.886789 -0.916062 -0.401038 1218.66 601.517)" fill="white" fill-opacity="0.43"/>
<ellipse rx="5.3971" ry="5.70058" transform="matrix(0.462175 -0.886789 -0.916062 -0.401038 1241.41 705.528)" fill="white"/>
<ellipse rx="5.3971" ry="5.70058" transform="matrix(0.462175 -0.886789 -0.916062 -0.401038 1072.04 649.017)" fill="white" fill-opacity="0.43"/>
<ellipse rx="2.69855" ry="2.85029" transform="matrix(0.462175 -0.886789 -0.916062 -0.401038 1115.74 435.962)" fill="white"/>
<ellipse rx="2.69855" ry="2.85029" transform="matrix(0.462175 -0.886789 -0.916062 -0.401038 1138.57 675.2)" fill="white"/>
<ellipse rx="2.69855" ry="2.85029" transform="matrix(0.462175 -0.886789 -0.916062 -0.401038 1289 558.838)" fill="white" fill-opacity="0.43"/>
<ellipse rx="2.69855" ry="2.85029" transform="matrix(0.462175 -0.886789 -0.916062 -0.401038 1246.06 481.257)" fill="white"/>
<ellipse rx="2.69855" ry="2.85029" transform="matrix(0.462175 -0.886789 -0.916062 -0.401038 1329.45 641.205)" fill="white" fill-opacity="0.43"/>
<ellipse rx="5.3413" ry="5.7529" transform="matrix(-0.294646 -0.955607 -0.968059 0.250725 1073.25 371.268)" fill="white" fill-opacity="0.43"/>
<ellipse rx="5.3413" ry="5.7529" transform="matrix(-0.294646 -0.955607 -0.968059 0.250725 1165.26 435.625)" fill="white"/>
<ellipse rx="5.3413" ry="5.7529" transform="matrix(-0.294646 -0.955607 -0.968059 0.250725 997.339 495.653)" fill="white" fill-opacity="0.43"/>
<ellipse rx="5.3413" ry="5.7529" transform="matrix(-0.294646 -0.955607 -0.968059 0.250725 1150.86 213.373)" fill="white"/>
<ellipse rx="2.67065" ry="2.87645" transform="matrix(-0.294646 -0.955607 -0.968059 0.250725 876.696 309.182)" fill="white"/>
<ellipse rx="2.67065" ry="2.87645" transform="matrix(-0.294646 -0.955607 -0.968059 0.250725 1066.16 475.07)" fill="white"/>
<ellipse rx="2.67065" ry="2.87645" transform="matrix(-0.294646 -0.955607 -0.968059 0.250725 1095.35 296.648)" fill="white" fill-opacity="0.43"/>
<ellipse rx="2.67065" ry="2.87645" transform="matrix(-0.294646 -0.955607 -0.968059 0.250725 963.864 396.842)" fill="white"/>
<ellipse rx="2.67065" ry="2.87645" transform="matrix(-0.294646 -0.955607 -0.968059 0.250725 1007.21 264.358)" fill="white"/>
<ellipse rx="2.67065" ry="2.87645" transform="matrix(-0.294646 -0.955607 -0.968059 0.250725 1185.05 334.043)" fill="white" fill-opacity="0.43"/>
<ellipse rx="2.67065" ry="2.87645" transform="matrix(-0.294646 -0.955607 -0.968059 0.250725 1171.73 524.892)" fill="white"/>
<ellipse rx="5.78724" ry="5.30407" transform="matrix(-0.999998 0.00197257 0.00234832 0.999997 795.767 450.545)" fill="white" fill-opacity="0.43"/>
<ellipse rx="5.78724" ry="5.30407" transform="matrix(-0.999998 0.00197257 0.00234832 0.999997 888.217 386.716)" fill="white"/>
<ellipse rx="5.78724" ry="5.30407" transform="matrix(-0.999998 0.00197257 0.00234832 0.999997 905.964 551.106)" fill="white" fill-opacity="0.43"/>
<ellipse rx="5.78724" ry="5.30407" transform="matrix(-0.999998 0.00197257 0.00234832 0.999997 650.826 339.445)" fill="white"/>
<ellipse rx="2.89362" ry="2.65204" transform="matrix(-0.999998 0.00197257 0.00234832 0.999997 677.5 607.249)" fill="white"/>
<ellipse rx="2.89362" ry="2.65204" transform="matrix(-0.999998 0.00197257 0.00234832 0.999997 902.914 484.812)" fill="white"/>
<ellipse rx="2.89362" ry="2.65204" transform="matrix(-0.999998 0.00197257 0.00234832 0.999997 723.338 410.908)" fill="white" fill-opacity="0.43"/>
<ellipse rx="2.89362" ry="2.65204" transform="matrix(-0.999998 0.00197257 0.00234832 0.999997 793.118 553.979)" fill="white"/>
<ellipse rx="2.89362" ry="2.65204" transform="matrix(-0.999998 0.00197257 0.00234832 0.999997 665.623 479.974)" fill="#FFF2C9"/>
<ellipse rx="2.89362" ry="2.65204" transform="matrix(-0.999998 0.00197257 0.00234832 0.999997 786.832 341.828)" fill="white" fill-opacity="0.43"/>
<ellipse rx="2.89362" ry="2.65204" transform="matrix(-0.999998 0.00197257 0.00234832 0.999997 983.751 405.09)" fill="white"/>
<ellipse rx="5.78725" ry="5.30407" transform="matrix(-1 0 0 1 1374.33 212.131)" fill="white" fill-opacity="0.43"/>
<ellipse rx="5.78725" ry="5.30407" transform="matrix(-1 0 0 1 1466.93 148.481)" fill="white"/>
<ellipse rx="5.78725" ry="5.30407" transform="matrix(-1 0 0 1 1484.29 312.908)" fill="white" fill-opacity="0.43"/>
<ellipse rx="5.78725" ry="5.30407" transform="matrix(-1 0 0 1 1229.65 100.744)" fill="white"/>
<ellipse rx="2.89362" ry="2.65203" transform="matrix(-1 0 0 1 1255.69 368.6)" fill="white"/>
<ellipse rx="2.89362" ry="2.65203" transform="matrix(-1 0 0 1 1481.39 246.608)" fill="white"/>
<ellipse rx="2.89362" ry="2.65203" transform="matrix(-1 0 0 1 1301.99 172.35)" fill="white" fill-opacity="0.43"/>
<ellipse rx="2.89362" ry="2.65203" transform="matrix(-1 0 0 1 1371.44 315.559)" fill="white"/>
<ellipse rx="2.89362" ry="2.65203" transform="matrix(-1 0 0 1 1244.12 241.302)" fill="white"/>
<ellipse rx="2.89362" ry="2.65203" transform="matrix(-1 0 0 1 1365.65 103.396)" fill="white" fill-opacity="0.43"/>
<ellipse rx="2.89362" ry="2.65203" transform="matrix(-1 0 0 1 1562.42 167.045)" fill="white"/>
<ellipse rx="5.34073" ry="5.75343" transform="matrix(-0.292432 0.956286 0.968557 0.248792 1382.11 478.419)" fill="white" fill-opacity="0.43"/>
<ellipse rx="5.34073" ry="5.75343" transform="matrix(-0.292432 0.956286 0.968557 0.248792 1340.23 379.524)" fill="white"/>
<ellipse rx="5.34073" ry="5.75343" transform="matrix(-0.292432 0.956286 0.968557 0.248792 1517.66 408.577)" fill="white" fill-opacity="0.43"/>
<ellipse rx="5.34073" ry="5.75343" transform="matrix(-0.292432 0.956286 0.968557 0.248792 1226.04 576.041)" fill="white"/>
<ellipse rx="2.67037" ry="2.87671" transform="matrix(-0.292432 0.956286 0.968557 0.248792 1514.48 625.344)" fill="white"/>
<ellipse rx="2.67037" ry="2.87671" transform="matrix(-0.292432 0.956286 0.968557 0.248792 1447.23 393.238)" fill="white"/>
<ellipse rx="2.67037" ry="2.87671" transform="matrix(-0.292432 0.956286 0.968557 0.248792 1320.79 531.523)" fill="white" fill-opacity="0.43"/>
<ellipse rx="2.67037" ry="2.87671" transform="matrix(-0.292432 0.956286 0.968557 0.248792 1489.99 508.886)" fill="white"/>
<ellipse rx="2.67037" ry="2.87671" transform="matrix(-0.292432 0.956286 0.968557 0.248792 1377.62 601.205)" fill="white"/>
<ellipse rx="2.67037" ry="2.87671" transform="matrix(-0.292432 0.956286 0.968557 0.248792 1265.53 456.735)" fill="white" fill-opacity="0.43"/>
<ellipse rx="2.67037" ry="2.87671" transform="matrix(-0.292432 0.956286 0.968557 0.248792 1385.51 300.265)" fill="white"/>
<ellipse rx="5.56922" ry="5.53255" transform="matrix(0.762191 -0.647352 -0.711005 -0.703187 1339.47 653.843)" fill="white" fill-opacity="0.43"/>
<ellipse rx="5.56922" ry="5.53255" transform="matrix(0.762191 -0.647352 -0.711005 -0.703187 1184.08 648.425)" fill="white" fill-opacity="0.43"/>
<ellipse rx="5.56922" ry="5.53255" transform="matrix(0.762191 -0.647352 -0.711005 -0.703187 1528.2 645.411)" fill="white"/>
<ellipse rx="2.78461" ry="2.76627" transform="matrix(0.762191 -0.647352 -0.711005 -0.703187 1310.44 465.169)" fill="white"/>
<ellipse rx="2.78461" ry="2.76627" transform="matrix(0.762191 -0.647352 -0.711005 -0.703187 1235.37 695.253)" fill="white"/>
<ellipse rx="2.78461" ry="2.76627" transform="matrix(0.762191 -0.647352 -0.711005 -0.703187 1422.03 637.956)" fill="white" fill-opacity="0.43"/>
<ellipse rx="2.78461" ry="2.76627" transform="matrix(0.762191 -0.647352 -0.711005 -0.703187 1264.88 576.179)" fill="white"/>
<ellipse rx="2.78461" ry="2.76627" transform="matrix(0.762191 -0.647352 -0.711005 -0.703187 1413.34 551.328)" fill="white"/>
<ellipse rx="5.32531" ry="5.76771" transform="matrix(0.223053 -0.974806 -0.982025 -0.18875 1668.08 661.229)" fill="white"/>
<ellipse rx="2.66265" ry="2.88385" transform="matrix(0.223053 -0.974806 -0.982025 -0.18875 1376.7 629.613)" fill="white"/>
<ellipse rx="2.66265" ry="2.88385" transform="matrix(0.223053 -0.974806 -0.982025 -0.18875 1515.01 645.36)" fill="white"/>
<ellipse rx="5.31465" ry="5.77753" transform="matrix(-0.157654 0.987494 0.991127 0.132916 628.701 144.493)" fill="white" fill-opacity="0.43"/>
<ellipse rx="5.31465" ry="5.77753" transform="matrix(-0.157654 0.987494 0.991127 0.132916 487.506 259.571)" fill="white"/>
<ellipse rx="2.65732" ry="2.88877" transform="matrix(-0.157654 0.987494 0.991127 0.132916 780.451 274.732)" fill="white"/>
<ellipse rx="2.65732" ry="2.88877" transform="matrix(-0.157654 0.987494 0.991127 0.132916 575.282 204.335)" fill="white" fill-opacity="0.43"/>
<ellipse rx="2.65732" ry="2.88877" transform="matrix(-0.157654 0.987494 0.991127 0.132916 739.947 162.09)" fill="white"/>
<ellipse rx="2.65732" ry="2.88877" transform="matrix(-0.157654 0.987494 0.991127 0.132916 641.345 266.798)" fill="white"/>
<ellipse rx="2.65732" ry="2.88877" transform="matrix(-0.157654 0.987494 0.991127 0.132916 510.057 136.621)" fill="white" fill-opacity="0.43"/>
<ellipse rx="5.71025" ry="5.38687" transform="matrix(0.926 0.377524 0.436642 -0.899635 917.317 175.987)" fill="white" fill-opacity="0.43"/>
<ellipse rx="5.71025" ry="5.38687" transform="matrix(0.926 0.377524 0.436642 -0.899635 804.485 199.649)" fill="white"/>
<ellipse rx="5.71025" ry="5.38687" transform="matrix(0.926 0.377524 0.436642 -0.899635 1000.11 331.652)" fill="white"/>
<ellipse rx="2.85512" ry="2.69344" transform="matrix(0.926 0.377524 0.436642 -0.899635 1095.1 77.2182)" fill="white"/>
<ellipse rx="2.85512" ry="2.69344" transform="matrix(0.926 0.377524 0.436642 -0.899635 834.78 104.606)" fill="white"/>
<ellipse rx="2.85512" ry="2.69344" transform="matrix(0.926 0.377524 0.436642 -0.899635 965.769 239.282)" fill="white" fill-opacity="0.43"/>
<ellipse rx="2.85512" ry="2.69344" transform="matrix(0.926 0.377524 0.436642 -0.899635 965.824 82.5639)" fill="white"/>
<ellipse rx="2.85512" ry="2.69344" transform="matrix(0.926 0.377524 0.436642 -0.899635 1049.23 197.838)" fill="white"/>
<ellipse rx="2.85512" ry="2.69344" transform="matrix(0.926 0.377524 0.436642 -0.899635 877.027 278.569)" fill="white" fill-opacity="0.43"/>
<ellipse rx="2.85512" ry="2.69344" transform="matrix(0.926 0.377524 0.436642 -0.899635 725.472 147.118)" fill="white"/>
<ellipse rx="5.50757" ry="5.59393" transform="matrix(0.673274 -0.739393 -0.794293 -0.607535 1328.59 405.204)" fill="white" fill-opacity="0.43"/>
<ellipse rx="5.50757" ry="5.59393" transform="matrix(0.673274 -0.739393 -0.794293 -0.607535 1322.58 511.142)" fill="white"/>
<ellipse rx="5.50757" ry="5.59393" transform="matrix(0.673274 -0.739393 -0.794293 -0.607535 1173.71 418.004)" fill="white" fill-opacity="0.43"/>
<ellipse rx="5.50757" ry="5.59393" transform="matrix(0.673274 -0.739393 -0.794293 -0.607535 1514.59 374.766)" fill="white"/>
<ellipse rx="2.75378" ry="2.79697" transform="matrix(0.673274 -0.739393 -0.794293 -0.607535 1273.52 221.466)" fill="white"/>
<ellipse rx="2.75378" ry="2.79697" transform="matrix(0.673274 -0.739393 -0.794293 -0.607535 1231.1 458.451)" fill="white"/>
<ellipse rx="2.75378" ry="2.79697" transform="matrix(0.673274 -0.739393 -0.794293 -0.607535 1408.26 379.79)" fill="white" fill-opacity="0.43"/>
<ellipse rx="2.75378" ry="2.79697" transform="matrix(0.673274 -0.739393 -0.794293 -0.607535 1243.8 336.896)" fill="white"/>
<ellipse rx="2.75378" ry="2.79697" transform="matrix(0.673274 -0.739393 -0.794293 -0.607535 1387.58 294.885)" fill="white"/>
<ellipse rx="2.75378" ry="2.79697" transform="matrix(0.673274 -0.739393 -0.794293 -0.607535 1425.24 468.765)" fill="white" fill-opacity="0.43"/>
<ellipse rx="2.75378" ry="2.79697" transform="matrix(0.673274 -0.739393 -0.794293 -0.607535 1245.84 566.44)" fill="white"/>
<ellipse rx="5.46371" ry="5.63677" transform="matrix(-0.599897 -0.800078 -0.846159 0.532931 1100.53 240.06)" fill="white" fill-opacity="0.43"/>
<ellipse rx="5.46371" ry="5.63677" transform="matrix(-0.599897 -0.800078 -0.846159 0.532931 1210.21 273.954)" fill="white"/>
<ellipse rx="5.46371" ry="5.63677" transform="matrix(-0.599897 -0.800078 -0.846159 0.532931 1072.18 380.191)" fill="white" fill-opacity="0.43"/>
<ellipse rx="2.73186" ry="2.81839" transform="matrix(-0.599897 -0.800078 -0.846159 0.532931 892.635 239.065)" fill="white"/>
<ellipse rx="2.73186" ry="2.81839" transform="matrix(-0.599897 -0.800078 -0.846159 0.532931 1130.16 340.456)" fill="white"/>
<ellipse rx="2.73186" ry="2.81839" transform="matrix(-0.599897 -0.800078 -0.846159 0.532931 1095.33 162.886)" fill="white" fill-opacity="0.43"/>
<ellipse rx="2.73186" ry="2.81839" transform="matrix(-0.599897 -0.800078 -0.846159 0.532931 1005.88 296.451)" fill="white"/>
<ellipse rx="2.73186" ry="2.81839" transform="matrix(-0.599897 -0.800078 -0.846159 0.532931 1000.55 158.225)" fill="white"/>
<ellipse rx="2.73186" ry="2.81839" transform="matrix(-0.599897 -0.800078 -0.846159 0.532931 1193.39 171.92)" fill="white" fill-opacity="0.43"/>
<ellipse rx="2.73186" ry="2.81839" transform="matrix(-0.599897 -0.800078 -0.846159 0.532931 1247.59 356.595)" fill="white"/>
<ellipse rx="5.66911" ry="5.43015" transform="matrix(0.882574 0.470172 0.535579 -0.844485 1450.22 603.224)" fill="white" fill-opacity="0.43"/>
<ellipse rx="5.66911" ry="5.43015" transform="matrix(0.882574 0.470172 0.535579 -0.844485 1335.27 615.605)" fill="white"/>
<ellipse rx="5.66911" ry="5.43015" transform="matrix(0.882574 0.470172 0.535579 -0.844485 1410.42 465.452)" fill="white" fill-opacity="0.43"/>
<ellipse rx="2.83456" ry="2.71507" transform="matrix(0.882574 0.470172 0.535579 -0.844485 1638.58 522.588)" fill="white"/>
<ellipse rx="2.83456" ry="2.71507" transform="matrix(0.882574 0.470172 0.535579 -0.844485 1490.95 670.935)" fill="white" fill-opacity="0.43"/>
<ellipse rx="2.83456" ry="2.71507" transform="matrix(0.882574 0.470172 0.535579 -0.844485 1509.44 515.137)" fill="white"/>
<ellipse rx="2.83456" ry="2.71507" transform="matrix(0.882574 0.470172 0.535579 -0.844485 1578.8 637.975)" fill="white"/>
<ellipse rx="2.83456" ry="2.71507" transform="matrix(0.882574 0.470172 0.535579 -0.844485 1398.11 701.227)" fill="white" fill-opacity="0.43"/>
<ellipse rx="2.83456" ry="2.71507" transform="matrix(0.882574 0.470172 0.535579 -0.844485 1262.89 555.575)" fill="white"/>
<ellipse rx="5.55785" ry="5.54397" transform="matrix(0.746805 -0.665043 -0.727442 -0.686169 1589.5 369.419)" fill="white" fill-opacity="0.43"/>
<ellipse rx="5.55785" ry="5.54397" transform="matrix(0.746805 -0.665043 -0.727442 -0.686169 1571.49 474.207)" fill="white"/>
<ellipse rx="5.55785" ry="5.54397" transform="matrix(0.746805 -0.665043 -0.727442 -0.686169 1434.01 367.369)" fill="white" fill-opacity="0.43"/>
<ellipse rx="5.55785" ry="5.54397" transform="matrix(0.746805 -0.665043 -0.727442 -0.686169 1777.96 356.899)" fill="white"/>
<ellipse rx="2.77893" ry="2.77199" transform="matrix(0.746805 -0.665043 -0.727442 -0.686169 1555.62 181.425)" fill="white"/>
<ellipse rx="2.77893" ry="2.77199" transform="matrix(0.746805 -0.665043 -0.727442 -0.686169 1486.5 413.072)" fill="white"/>
<ellipse rx="2.77893" ry="2.77199" transform="matrix(0.746805 -0.665043 -0.727442 -0.686169 1671.63 351.746)" fill="white" fill-opacity="0.43"/>
<ellipse rx="2.77893" ry="2.77199" transform="matrix(0.746805 -0.665043 -0.727442 -0.686169 1512.94 293.39)" fill="white"/>
<ellipse rx="2.77893" ry="2.77199" transform="matrix(0.746805 -0.665043 -0.727442 -0.686169 1660.71 265.332)" fill="white"/>
<ellipse rx="2.77893" ry="2.77199" transform="matrix(0.746805 -0.665043 -0.727442 -0.686169 1678.4 441.858)" fill="white" fill-opacity="0.43"/>
<ellipse rx="2.77893" ry="2.77199" transform="matrix(0.746805 -0.665043 -0.727442 -0.686169 1488.89 521.88)" fill="white"/>
<ellipse rx="5.30719" ry="5.78438" transform="matrix(0.0857861 -0.996314 -0.997395 -0.0721377 1540.24 107.24)" fill="white" fill-opacity="0.43"/>
<ellipse rx="5.30719" ry="5.78438" transform="matrix(0.0857861 -0.996314 -0.997395 -0.0721377 1602.19 196.848)" fill="#FFF2C9"/>
<ellipse rx="5.30719" ry="5.78438" transform="matrix(0.0857861 -0.996314 -0.997395 -0.0721377 1421.98 199.776)" fill="white" fill-opacity="0.43"/>
<ellipse rx="2.6536" ry="2.89219" transform="matrix(0.0857861 -0.996314 -0.997395 -0.0721377 1494.32 202.349)" fill="white"/>
<ellipse rx="2.6536" ry="2.89219" transform="matrix(0.0857861 -0.996314 -0.997395 -0.0721377 1427.97 96.4596)" fill="white"/>
<ellipse rx="2.6536" ry="2.89219" transform="matrix(0.0857861 -0.996314 -0.997395 -0.0721377 1659.2 107.862)" fill="white" fill-opacity="0.43"/>
<ellipse rx="2.6536" ry="2.89219" transform="matrix(0.0857861 -0.996314 -0.997395 -0.0721377 1574.49 282.635)" fill="white"/>
<ellipse rx="5.73194" ry="5.36379" transform="matrix(-0.947739 -0.319047 -0.372004 0.928231 1249.99 93.4015)" fill="white" fill-opacity="0.43"/>
<ellipse rx="5.73194" ry="5.36379" transform="matrix(-0.947739 -0.319047 -0.372004 0.928231 1360.85 62.9157)" fill="white"/>
<ellipse rx="5.73194" ry="5.36379" transform="matrix(-0.947739 -0.319047 -0.372004 0.928231 1315.29 222.745)" fill="white" fill-opacity="0.43"/>
<ellipse rx="2.86597" ry="2.68189" transform="matrix(-0.947739 -0.319047 -0.372004 0.928231 1079.76 202.787)" fill="white"/>
<ellipse rx="2.86597" ry="2.68189" transform="matrix(-0.947739 -0.319047 -0.372004 0.928231 1337.52 159.595)" fill="white"/>
<ellipse rx="2.86597" ry="2.68189" transform="matrix(-0.947739 -0.319047 -0.372004 0.928231 1208.36 189.574)" fill="white"/>
<ellipse rx="2.86597" ry="2.68189" transform="matrix(-0.947739 -0.319047 -0.372004 0.928231 1116.78 79.6385)" fill="white"/>
<ellipse rx="2.86597" ry="2.68189" transform="matrix(-0.947739 -0.319047 -0.372004 0.928231 1443.5 110.516)" fill="white"/>
<ellipse rx="5.78725" ry="5.30407" transform="matrix(-1 0 0 1 1722.48 339.429)" fill="white" fill-opacity="0.43"/>
<ellipse rx="5.78725" ry="5.30407" transform="matrix(-1 0 0 1 1815.08 275.78)" fill="white"/>
<ellipse rx="5.78725" ry="5.30407" transform="matrix(-1 0 0 1 1832.44 440.206)" fill="white" fill-opacity="0.43"/>
<ellipse rx="5.78725" ry="5.30407" transform="matrix(-1 0 0 1 1577.8 228.042)" fill="white"/>
<ellipse rx="2.89362" ry="2.65203" transform="matrix(-1 0 0 1 1603.84 495.899)" fill="white"/>
<ellipse rx="2.89362" ry="2.65203" transform="matrix(-1 0 0 1 1829.55 373.903)" fill="white"/>
<ellipse rx="2.89362" ry="2.65203" transform="matrix(-1 0 0 1 1650.14 299.648)" fill="white" fill-opacity="0.43"/>
<ellipse rx="2.89362" ry="2.65203" transform="matrix(-1 0 0 1 1719.59 442.858)" fill="white"/>
<ellipse rx="2.89362" ry="2.65203" transform="matrix(-1 0 0 1 1592.27 368.6)" fill="white"/>
<ellipse rx="2.89362" ry="2.65203" transform="matrix(-1 0 0 1 1713.8 230.695)" fill="white" fill-opacity="0.43"/>
<ellipse rx="5.34073" ry="5.75343" transform="matrix(-0.292432 0.956286 0.968557 0.248792 1730.26 605.716)" fill="white" fill-opacity="0.43"/>
<ellipse rx="5.34073" ry="5.75343" transform="matrix(-0.292432 0.956286 0.968557 0.248792 1688.39 506.823)" fill="white"/>
<ellipse rx="5.34073" ry="5.75343" transform="matrix(-0.292432 0.956286 0.968557 0.248792 1865.82 535.875)" fill="white" fill-opacity="0.43"/>
<ellipse rx="5.34073" ry="5.75343" transform="matrix(-0.292432 0.956286 0.968557 0.248792 1574.2 703.338)" fill="white"/>
<ellipse rx="2.67037" ry="2.87671" transform="matrix(-0.292432 0.956286 0.968557 0.248792 1795.38 520.534)" fill="white"/>
<ellipse rx="2.67037" ry="2.87671" transform="matrix(-0.292432 0.956286 0.968557 0.248792 1668.95 658.82)" fill="white" fill-opacity="0.43"/>
<ellipse rx="2.67037" ry="2.87671" transform="matrix(-0.292432 0.956286 0.968557 0.248792 1838.15 636.181)" fill="white"/>
<ellipse rx="2.67037" ry="2.87671" transform="matrix(-0.292432 0.956286 0.968557 0.248792 1613.69 584.033)" fill="white" fill-opacity="0.43"/>
<ellipse rx="2.67037" ry="2.87671" transform="matrix(-0.292432 0.956286 0.968557 0.248792 1733.66 427.563)" fill="white"/>
<ellipse rx="2.78461" ry="2.76627" transform="matrix(0.762191 -0.647352 -0.711005 -0.703187 1658.6 592.467)" fill="white"/>
<ellipse rx="2.78461" ry="2.76627" transform="matrix(0.762191 -0.647352 -0.711005 -0.703187 1613.04 703.475)" fill="white"/>
<ellipse rx="2.78461" ry="2.76627" transform="matrix(0.762191 -0.647352 -0.711005 -0.703187 1761.49 678.626)" fill="white"/>
<ellipse rx="2.78628" ry="2.76459" transform="matrix(-0.766632 0.642087 0.706074 0.708138 517.002 668.036)" fill="white"/>
<ellipse rx="5.60982" ry="5.49138" transform="matrix(-0.814056 -0.580786 -0.647361 0.762183 319.877 606.387)" fill="white" fill-opacity="0.43"/>
<ellipse rx="5.60982" ry="5.49138" transform="matrix(-0.814056 -0.580786 -0.647361 0.762183 435.602 608.291)" fill="white"/>
<ellipse rx="5.60982" ry="5.49138" transform="matrix(-0.814056 -0.580786 -0.647361 0.762183 280.362 437.041)" fill="white"/>
<ellipse rx="2.80491" ry="2.74569" transform="matrix(-0.814056 -0.580786 -0.647361 0.762183 121.393 663.067)" fill="white"/>
<ellipse rx="2.80491" ry="2.74569" transform="matrix(-0.814056 -0.580786 -0.647361 0.762183 381.257 693.867)" fill="white"/>
<ellipse rx="2.80491" ry="2.74569" transform="matrix(-0.814056 -0.580786 -0.647361 0.762183 289.458 534.269)" fill="white" fill-opacity="0.43"/>
<ellipse rx="2.80491" ry="2.74569" transform="matrix(-0.814056 -0.580786 -0.647361 0.762183 248.275 686.374)" fill="white"/>
<ellipse rx="2.80491" ry="2.74569" transform="matrix(-0.814056 -0.580786 -0.647361 0.762183 197.575 556.099)" fill="white"/>
<ellipse rx="2.80491" ry="2.74569" transform="matrix(-0.814056 -0.580786 -0.647361 0.762183 385.905 515.699)" fill="white" fill-opacity="0.43"/>
<ellipse rx="2.80491" ry="2.74569" transform="matrix(-0.814056 -0.580786 -0.647361 0.762183 498.512 676.699)" fill="white"/>
<ellipse rx="2.81074" ry="2.73972" transform="matrix(-0.828149 0.560507 0.627419 0.778682 269.624 682.225)" fill="white"/>
<ellipse rx="5.39376" ry="5.70374" transform="matrix(-0.454011 -0.890996 -0.919328 0.393492 1212.52 115.951)" fill="white" fill-opacity="0.43"/>
<ellipse rx="5.39376" ry="5.70374" transform="matrix(-0.454011 -0.890996 -0.919328 0.393492 1314.63 165.912)" fill="white"/>
<ellipse rx="5.39376" ry="5.70374" transform="matrix(-0.454011 -0.890996 -0.919328 0.393492 1159.42 249.903)" fill="white" fill-opacity="0.43"/>
<ellipse rx="2.69688" ry="2.85187" transform="matrix(-0.454011 -0.890996 -0.919328 0.393492 1007.63 83.6402)" fill="white"/>
<ellipse rx="2.69688" ry="2.85187" transform="matrix(-0.454011 -0.890996 -0.919328 0.393492 1223.74 219.447)" fill="white"/>
<ellipse rx="2.69688" ry="2.85187" transform="matrix(-0.454011 -0.890996 -0.919328 0.393492 1109.05 157.312)" fill="white"/>
<ellipse rx="2.69688" ry="2.85187" transform="matrix(-0.454011 -0.890996 -0.919328 0.393492 1316.34 62.732)" fill="white" fill-opacity="0.43"/>
<ellipse rx="2.69688" ry="2.85187" transform="matrix(-0.454011 -0.890996 -0.919328 0.393492 1336.68 253.063)" fill="white"/>
<ellipse rx="5.77494" ry="5.31746" transform="matrix(-0.988741 0.149639 0.177318 0.984154 952.563 235.091)" fill="white" fill-opacity="0.43"/>
<ellipse rx="5.77494" ry="5.31746" transform="matrix(-0.988741 0.149639 0.177318 0.984154 1032.61 158.467)" fill="white"/>
<ellipse rx="5.77494" ry="5.31746" transform="matrix(-0.988741 0.149639 0.177318 0.984154 1078.97 318.102)" fill="white" fill-opacity="0.43"/>
<ellipse rx="5.77494" ry="5.31746" transform="matrix(-0.988741 0.149639 0.177318 0.984154 790.014 146.796)" fill="white"/>
<ellipse rx="2.88747" ry="2.65873" transform="matrix(-0.988741 0.149639 0.177318 0.984154 863.321 407.185)" fill="white"/>
<ellipse rx="2.88747" ry="2.65873" transform="matrix(-0.988741 0.149639 0.177318 0.984154 1064.32 253.119)" fill="white"/>
<ellipse rx="2.88747" ry="2.65873" transform="matrix(-0.988741 0.149639 0.177318 0.984154 874.118 206.643)" fill="white" fill-opacity="0.43"/>
<ellipse rx="2.88747" ry="2.65873" transform="matrix(-0.988741 0.149639 0.177318 0.984154 968.094 337.571)" fill="white"/>
<ellipse rx="2.88747" ry="2.65873" transform="matrix(-0.988741 0.149639 0.177318 0.984154 829.274 283.315)" fill="white"/>
<ellipse rx="2.88747" ry="2.65873" transform="matrix(-0.988741 0.149639 0.177318 0.984154 924.666 129.106)" fill="white" fill-opacity="0.43"/>
<ellipse rx="2.88747" ry="2.65873" transform="matrix(-0.988741 0.149639 0.177318 0.984154 1130.12 162.523)" fill="white"/>
<ellipse rx="5.31052" ry="5.78133" transform="matrix(-0.123159 0.992387 0.99461 0.103684 471.529 250.899)" fill="white" fill-opacity="0.43"/>
<ellipse rx="5.31052" ry="5.78133" transform="matrix(-0.123159 0.992387 0.99461 0.103684 412.99 159.386)" fill="white"/>
<ellipse rx="5.31052" ry="5.78133" transform="matrix(-0.123159 0.992387 0.99461 0.103684 593.208 162.157)" fill="white" fill-opacity="0.43"/>
<ellipse rx="5.31052" ry="5.78133" transform="matrix(-0.123159 0.992387 0.99461 0.103684 334.419 370.063)" fill="white"/>
<ellipse rx="2.65526" ry="2.89066" transform="matrix(-0.123159 0.992387 0.99461 0.103684 627.751 376.621)" fill="white"/>
<ellipse rx="2.65526" ry="2.89066" transform="matrix(-0.123159 0.992387 0.99461 0.103684 521 157.299)" fill="white"/>
<ellipse rx="2.65526" ry="2.89066" transform="matrix(-0.123159 0.992387 0.99461 0.103684 420.227 312.28)" fill="white" fill-opacity="0.43"/>
<ellipse rx="2.65526" ry="2.89066" transform="matrix(-0.123159 0.992387 0.99461 0.103684 583.327 265.223)" fill="white"/>
<ellipse rx="2.65526" ry="2.89066" transform="matrix(-0.123159 0.992387 0.99461 0.103684 488.436 372.773)" fill="white"/>
<ellipse rx="2.65526" ry="2.89066" transform="matrix(-0.123159 0.992387 0.99461 0.103684 352.665 246.517)" fill="white" fill-opacity="0.43"/>
<ellipse rx="5.72107" ry="5.37538" transform="matrix(0.936942 0.349485 0.405844 -0.913942 761.09 273.906)" fill="#FFF2C9"/>
<ellipse rx="5.72107" ry="5.37538" transform="matrix(0.936942 0.349485 0.405844 -0.913942 649.147 300.869)" fill="white"/>
<ellipse rx="5.72107" ry="5.37538" transform="matrix(0.936942 0.349485 0.405844 -0.913942 700.691 142.574)" fill="white" fill-opacity="0.43"/>
<ellipse rx="5.72107" ry="5.37538" transform="matrix(0.936942 0.349485 0.405844 -0.913942 849.283 427.062)" fill="white"/>
<ellipse rx="2.86054" ry="2.68769" transform="matrix(0.936942 0.349485 0.405844 -0.913942 935.337 169.969)" fill="white"/>
<ellipse rx="2.86054" ry="2.68769" transform="matrix(0.936942 0.349485 0.405844 -0.913942 676.107 204.985)" fill="white"/>
<ellipse rx="2.86054" ry="2.68769" transform="matrix(0.936942 0.349485 0.405844 -0.913942 811.736 335.746)" fill="white" fill-opacity="0.43"/>
<ellipse rx="2.86054" ry="2.68769" transform="matrix(0.936942 0.349485 0.405844 -0.913942 806.31 179.108)" fill="white"/>
<ellipse rx="2.86054" ry="2.68769" transform="matrix(0.936942 0.349485 0.405844 -0.913942 893.698 291.874)" fill="white"/>
<ellipse rx="2.86054" ry="2.68769" transform="matrix(0.936942 0.349485 0.405844 -0.913942 724.408 377.619)" fill="white" fill-opacity="0.43"/>
<ellipse rx="2.86054" ry="2.68769" transform="matrix(0.936942 0.349485 0.405844 -0.913942 568.337 250.685)" fill="white"/>
<ellipse rx="5.78581" ry="5.30563" transform="matrix(-0.998698 0.051015 0.0606998 0.998156 251.126 146.803)" fill="white" fill-opacity="0.43"/>
<ellipse rx="5.78581" ry="5.30563" transform="matrix(-0.998698 0.051015 0.0606998 0.998156 367.032 241.814)" fill="white" fill-opacity="0.43"/>
<ellipse rx="2.89291" ry="2.65282" transform="matrix(-0.998698 0.051015 0.0606998 0.998156 142.17 309.08)" fill="white"/>
<ellipse rx="2.89291" ry="2.65282" transform="matrix(-0.998698 0.051015 0.0606998 0.998156 360.117 175.764)" fill="white"/>
<ellipse rx="2.89291" ry="2.65282" transform="matrix(-0.998698 0.051015 0.0606998 0.998156 176.482 110.772)" fill="white" fill-opacity="0.43"/>
<ellipse rx="2.89291" ry="2.65282" transform="matrix(-0.998698 0.051015 0.0606998 0.998156 254.518 250.219)" fill="white"/>
<ellipse rx="2.89291" ry="2.65282" transform="matrix(-0.998698 0.051015 0.0606998 0.998156 122.884 182.572)" fill="white"/>
<ellipse rx="2.89291" ry="2.65282" transform="matrix(-0.998698 0.051015 0.0606998 0.998156 436.181 92.1944)" fill="white"/>
<ellipse rx="5.32756" ry="5.76563" transform="matrix(-0.234494 0.972118 0.980083 0.198586 275.064 412.281)" fill="white" fill-opacity="0.43"/>
<ellipse rx="5.32756" ry="5.76563" transform="matrix(-0.234494 0.972118 0.980083 0.198586 227.244 315.676)" fill="white"/>
<ellipse rx="5.32756" ry="5.76563" transform="matrix(-0.234494 0.972118 0.980083 0.198586 406.169 335.634)" fill="white" fill-opacity="0.43"/>
<ellipse rx="5.32756" ry="5.76563" transform="matrix(-0.234494 0.972118 0.980083 0.198586 125.164 517.712)" fill="white"/>
<ellipse rx="2.66378" ry="2.88281" transform="matrix(-0.234494 0.972118 0.980083 0.198586 416.15 552.227)" fill="white"/>
<ellipse rx="2.66378" ry="2.88281" transform="matrix(-0.234494 0.972118 0.980083 0.198586 334.904 323.912)" fill="white"/>
<ellipse rx="2.66378" ry="2.88281" transform="matrix(-0.234494 0.972118 0.980083 0.198586 217.068 468.43)" fill="white" fill-opacity="0.43"/>
<ellipse rx="2.66378" ry="2.88281" transform="matrix(-0.234494 0.972118 0.980083 0.198586 384.626 437.196)" fill="white"/>
<ellipse rx="2.66378" ry="2.88281" transform="matrix(-0.234494 0.972118 0.980083 0.198586 278.036 535.105)" fill="white"/>
<ellipse rx="2.66378" ry="2.88281" transform="matrix(-0.234494 0.972118 0.980083 0.198586 157.348 396.576)" fill="white" fill-opacity="0.43"/>
<ellipse rx="2.66378" ry="2.88281" transform="matrix(-0.234494 0.972118 0.980083 0.198586 267.632 234.23)" fill="white"/>
<ellipse rx="5.42038" ry="5.67845" transform="matrix(0.515104 0.857128 0.892705 -0.450642 473.499 606.442)" fill="white" fill-opacity="0.43"/>
<ellipse rx="5.42038" ry="5.67845" transform="matrix(0.515104 0.857128 0.892705 -0.450642 368 562.815)" fill="white"/>
<ellipse rx="5.42038" ry="5.67845" transform="matrix(0.515104 0.857128 0.892705 -0.450642 516.767 469.548)" fill="white" fill-opacity="0.43"/>
<ellipse rx="2.71019" ry="2.83923" transform="matrix(0.515104 0.857128 0.892705 -0.450642 680.28 626.194)" fill="white"/>
<ellipse rx="2.71019" ry="2.83923" transform="matrix(0.515104 0.857128 0.892705 -0.450642 454.801 503.858)" fill="white"/>
<ellipse rx="2.71019" ry="2.83923" transform="matrix(0.515104 0.857128 0.892705 -0.450642 470.382 683.708)" fill="white" fill-opacity="0.43"/>
<ellipse rx="2.71019" ry="2.83923" transform="matrix(0.515104 0.857128 0.892705 -0.450642 573.744 558.865)" fill="white"/>
<ellipse rx="2.71019" ry="2.83923" transform="matrix(0.515104 0.857128 0.892705 -0.450642 564.203 696.902)" fill="white"/>
<ellipse rx="2.71019" ry="2.83923" transform="matrix(0.515104 0.857128 0.892705 -0.450642 373.77 665.869)" fill="white" fill-opacity="0.43"/>
<ellipse rx="2.71019" ry="2.83923" transform="matrix(0.515104 0.857128 0.892705 -0.450642 339.671 477.199)" fill="white"/>
<ellipse rx="5.76309" ry="5.3303" transform="matrix(0.977703 -0.209992 -0.247724 -0.96883 724.243 471.723)" fill="white" fill-opacity="0.43"/>
<ellipse rx="5.76309" ry="5.3303" transform="matrix(0.977703 -0.209992 -0.247724 -0.96883 649.934 553.058)" fill="white"/>
<ellipse rx="5.76309" ry="5.3303" transform="matrix(0.977703 -0.209992 -0.247724 -0.96883 592.095 396.6)" fill="white" fill-opacity="0.43"/>
<ellipse rx="5.76309" ry="5.3303" transform="matrix(0.977703 -0.209992 -0.247724 -0.96883 892.838 549.917)" fill="#FFF2C9"/>
<ellipse rx="2.88155" ry="2.66515" transform="matrix(0.977703 -0.209992 -0.247724 -0.96883 800.801 294.573)" fill="white"/>
<ellipse rx="2.88155" ry="2.66515" transform="matrix(0.977703 -0.209992 -0.247724 -0.96883 611.422 460.546)" fill="white"/>
<ellipse rx="2.88155" ry="2.66515" transform="matrix(0.977703 -0.209992 -0.247724 -0.96883 804.58 495.327)" fill="white" fill-opacity="0.43"/>
<ellipse rx="2.88155" ry="2.66515" transform="matrix(0.977703 -0.209992 -0.247724 -0.96883 701.312 370.419)" fill="white"/>
<ellipse rx="2.88155" ry="2.66515" transform="matrix(0.977703 -0.209992 -0.247724 -0.96883 843.757 416.092)" fill="white"/>
<ellipse rx="2.88155" ry="2.66515" transform="matrix(0.977703 -0.209992 -0.247724 -0.96883 759.765 575.772)" fill="white" fill-opacity="0.43"/>
<ellipse rx="2.88155" ry="2.66515" transform="matrix(0.977703 -0.209992 -0.247724 -0.96883 552.343 554.951)" fill="white"/>
<ellipse rx="5.31661" ry="5.77572" transform="matrix(-0.171628 0.985162 0.989462 0.144795 1596.25 142.49)" fill="white" fill-opacity="0.43"/>
<ellipse rx="5.31661" ry="5.77572" transform="matrix(-0.171628 0.985162 0.989462 0.144795 1453.43 255.871)" fill="white"/>
<ellipse rx="2.65831" ry="2.88786" transform="matrix(-0.171628 0.985162 0.989462 0.144795 1746.13 274.533)" fill="white"/>
<ellipse rx="2.65831" ry="2.88786" transform="matrix(-0.171628 0.985162 0.989462 0.144795 1541.98 201.687)" fill="white" fill-opacity="0.43"/>
<ellipse rx="2.65831" ry="2.88786" transform="matrix(-0.171628 0.985162 0.989462 0.144795 1707.23 161.416)" fill="white"/>
<ellipse rx="2.65831" ry="2.88786" transform="matrix(-0.171628 0.985162 0.989462 0.144795 1607.15 264.936)" fill="white"/>
<ellipse rx="2.65831" ry="2.88786" transform="matrix(-0.171628 0.985162 0.989462 0.144795 1477.73 133.202)" fill="white" fill-opacity="0.43"/>
<ellipse rx="5.70565" ry="5.39175" transform="matrix(0.921292 0.388872 0.448999 -0.893532 1884.39 177.433)" fill="white" fill-opacity="0.43"/>
<ellipse rx="5.70565" ry="5.39175" transform="matrix(0.921292 0.388872 0.448999 -0.893532 1771.23 199.745)" fill="white"/>
<ellipse rx="2.85283" ry="2.69587" transform="matrix(0.921292 0.388872 0.448999 -0.893532 1802.88 105.068)" fill="white"/>
<ellipse rx="2.85283" ry="2.69587" transform="matrix(0.921292 0.388872 0.448999 -0.893532 1842.65 279.521)" fill="white" fill-opacity="0.43"/>
<ellipse rx="2.85283" ry="2.69587" transform="matrix(0.921292 0.388872 0.448999 -0.893532 1692.97 146.273)" fill="white"/>
<ellipse rx="5.52898" ry="5.57277" transform="matrix(-0.705764 -0.708447 -0.766908 0.641757 223.701 649.254)" fill="white"/>
<ellipse rx="5.4552" ry="5.64501" transform="matrix(0.584369 -0.811488 -0.85564 -0.517572 161.124 605.671)" fill="white"/>
<ellipse rx="2.7276" ry="2.8225" transform="matrix(0.584369 -0.811488 -0.85564 -0.517572 56.0677 621.565)" fill="white" fill-opacity="0.43"/>
<ellipse rx="2.7276" ry="2.8225" transform="matrix(0.584369 -0.811488 -0.85564 -0.517572 25.155 539.316)" fill="white"/>
<ellipse rx="5.51479" ry="5.58681" transform="matrix(-0.684448 -0.729062 -0.785221 0.619216 294.183 320.772)" fill="white" fill-opacity="0.43"/>
<ellipse rx="5.51479" ry="5.58681" transform="matrix(-0.684448 -0.729062 -0.785221 0.619216 407.217 343.588)" fill="white"/>
<ellipse rx="5.51479" ry="5.58681" transform="matrix(-0.684448 -0.729062 -0.785221 0.619216 282.546 462.893)" fill="white" fill-opacity="0.43"/>
<ellipse rx="5.51479" ry="5.58681" transform="matrix(-0.684448 -0.729062 -0.785221 0.619216 291.94 147.607)" fill="white"/>
<ellipse rx="2.75739" ry="2.79341" transform="matrix(-0.684448 -0.729062 -0.785221 0.619216 87.3872 340.402)" fill="white"/>
<ellipse rx="2.75739" ry="2.79341" transform="matrix(-0.684448 -0.729062 -0.785221 0.619216 335.494 417.638)" fill="white"/>
<ellipse rx="2.75739" ry="2.79341" transform="matrix(-0.684448 -0.729062 -0.785221 0.619216 279.9 244.569)" fill="white" fill-opacity="0.43"/>
<ellipse rx="2.75739" ry="2.79341" transform="matrix(-0.684448 -0.729062 -0.785221 0.619216 206.75 386.221)" fill="white"/>
<ellipse rx="2.75739" ry="2.79341" transform="matrix(-0.684448 -0.729062 -0.785221 0.619216 185.124 249.333)" fill="white"/>
<ellipse rx="2.75739" ry="2.79341" transform="matrix(-0.684448 -0.729062 -0.785221 0.619216 378.45 243.822)" fill="white" fill-opacity="0.43"/>
<ellipse rx="2.75739" ry="2.79341" transform="matrix(-0.684448 -0.729062 -0.785221 0.619216 454.143 422.037)" fill="white"/>
<ellipse rx="5.70362" ry="5.3939" transform="matrix(-0.919199 0.393793 0.454338 0.890829 79.0167 499.856)" fill="white" fill-opacity="0.43"/>
<ellipse rx="5.70362" ry="5.3939" transform="matrix(-0.919199 0.393793 0.454338 0.890829 133.494 406.259)" fill="white"/>
<ellipse rx="5.70362" ry="5.3939" transform="matrix(-0.919199 0.393793 0.454338 0.890829 225.191 548.479)" fill="white" fill-opacity="0.43"/>
<ellipse rx="2.85181" ry="2.69695" transform="matrix(-0.919199 0.393793 0.454338 0.890829 43.8327 687.651)" fill="white"/>
<ellipse rx="2.85181" ry="2.69695" transform="matrix(-0.919199 0.393793 0.454338 0.890829 191.937 489.537)" fill="white"/>
<ellipse rx="2.85181" ry="2.69695" transform="matrix(-0.919199 0.393793 0.454338 0.890829 124.179 594.679)" fill="white"/>
<ellipse rx="2.85181" ry="2.69695" transform="matrix(-0.919199 0.393793 0.454338 0.890829 20.9162 404.724)" fill="white" fill-opacity="0.43"/>
<ellipse rx="2.85181" ry="2.69695" transform="matrix(-0.919199 0.393793 0.454338 0.890829 228.572 386.017)" fill="white"/>
<ellipse rx="5.5056" ry="5.59587" transform="matrix(0.670192 -0.742188 -0.796735 -0.604329 527.269 243.29)" fill="white" fill-opacity="0.43"/>
<ellipse rx="5.5056" ry="5.59587" transform="matrix(0.670192 -0.742188 -0.796735 -0.604329 521.736 349.251)" fill="white"/>
<ellipse rx="5.5056" ry="5.59587" transform="matrix(0.670192 -0.742188 -0.796735 -0.604329 372.454 256.677)" fill="white" fill-opacity="0.43"/>
<ellipse rx="5.5056" ry="5.59587" transform="matrix(0.670192 -0.742188 -0.796735 -0.604329 713.139 212.155)" fill="white"/>
<ellipse rx="2.7528" ry="2.79793" transform="matrix(0.670192 -0.742188 -0.796735 -0.604329 430.03 296.906)" fill="white"/>
<ellipse rx="2.7528" ry="2.79793" transform="matrix(0.670192 -0.742188 -0.796735 -0.604329 606.833 217.579)" fill="white" fill-opacity="0.43"/>
<ellipse rx="2.7528" ry="2.79793" transform="matrix(0.670192 -0.742188 -0.796735 -0.604329 442.172 175.304)" fill="white"/>
<ellipse rx="2.7528" ry="2.79793" transform="matrix(0.670192 -0.742188 -0.796735 -0.604329 585.771 132.751)" fill="white"/>
<ellipse rx="2.7528" ry="2.79793" transform="matrix(0.670192 -0.742188 -0.796735 -0.604329 624.197 306.488)" fill="white" fill-opacity="0.43"/>
<ellipse rx="2.7528" ry="2.79793" transform="matrix(0.670192 -0.742188 -0.796735 -0.604329 445.249 404.837)" fill="white"/>
<ellipse rx="5.46559" ry="5.63495" transform="matrix(-0.603271 -0.797536 -0.844036 0.536287 408.306 112.488)" fill="white"/>
<ellipse rx="5.46559" ry="5.63495" transform="matrix(-0.603271 -0.797536 -0.844036 0.536287 270.758 219.244)" fill="white" fill-opacity="0.43"/>
<ellipse rx="2.7328" ry="2.81747" transform="matrix(-0.603271 -0.797536 -0.844036 0.536287 90.5754 78.7958)" fill="white"/>
<ellipse rx="2.7328" ry="2.81747" transform="matrix(-0.603271 -0.797536 -0.844036 0.536287 328.561 179.291)" fill="white"/>
<ellipse rx="2.7328" ry="2.81747" transform="matrix(-0.603271 -0.797536 -0.844036 0.536287 204.082 135.755)" fill="white"/>
<ellipse rx="2.7328" ry="2.81747" transform="matrix(-0.603271 -0.797536 -0.844036 0.536287 446.065 194.99)" fill="white"/>
<ellipse rx="5.76025" ry="5.33337" transform="matrix(-0.97503 -0.222074 -0.261698 0.96515 88.4028 202.631)" fill="white" fill-opacity="0.43"/>
<ellipse rx="2.88013" ry="2.66669" transform="matrix(-0.97503 -0.222074 -0.261698 0.96515 103.039 137.647)" fill="white"/>
<ellipse rx="2.88013" ry="2.66669" transform="matrix(-0.97503 -0.222074 -0.261698 0.96515 202.607 78.3438)" fill="white"/>
<ellipse rx="5.42601" ry="5.67307" transform="matrix(-0.527025 0.84985 0.886886 0.461988 95.6172 302.854)" fill="white" fill-opacity="0.43"/>
<ellipse rx="2.71301" ry="2.83654" transform="matrix(-0.527025 0.84985 0.886886 0.461988 35.491 512.519)" fill="white"/>
<ellipse rx="2.71301" ry="2.83654" transform="matrix(-0.527025 0.84985 0.886886 0.461988 31.2975 272.396)" fill="white"/>
<ellipse rx="2.71301" ry="2.83654" transform="matrix(-0.527025 0.84985 0.886886 0.461988 42.3727 394.083)" fill="white"/>
<ellipse rx="2.73013" ry="2.82006" transform="matrix(-0.593666 0.804711 0.850019 0.526751 1241.7 179.693)" fill="white"/>
<ellipse rx="2.73013" ry="2.82006" transform="matrix(-0.593666 0.804711 0.850019 0.526751 1258.59 62.1058)" fill="white"/>
<ellipse rx="2.73013" ry="2.82006" transform="matrix(-0.593666 0.804711 0.850019 0.526751 1120.15 117.18)" fill="white"/>
<ellipse rx="5.51118" ry="5.59037" transform="matrix(0.678897 0.734234 0.789771 -0.613402 1411.77 145.222)" fill="white" fill-opacity="0.43"/>
<ellipse rx="5.51118" ry="5.59037" transform="matrix(0.678897 0.734234 0.789771 -0.613402 1298.92 121.628)" fill="white"/>
<ellipse rx="5.51118" ry="5.59037" transform="matrix(0.678897 0.734234 0.789771 -0.613402 1412.59 318.395)" fill="white"/>
<ellipse rx="2.75559" ry="2.79519" transform="matrix(0.678897 0.734234 0.789771 -0.613402 1618.71 127.015)" fill="white"/>
<ellipse rx="2.75559" ry="2.79519" transform="matrix(0.678897 0.734234 0.789771 -0.613402 1371.24 48.0719)" fill="white"/>
<ellipse rx="2.75559" ry="2.79519" transform="matrix(0.678897 0.734234 0.789771 -0.613402 1425.42 221.522)" fill="white" fill-opacity="0.43"/>
<ellipse rx="2.75559" ry="2.79519" transform="matrix(0.678897 0.734234 0.789771 -0.613402 1499.73 80.377)" fill="white"/>
<ellipse rx="2.75559" ry="2.79519" transform="matrix(0.678897 0.734234 0.789771 -0.613402 1520.23 217.407)" fill="white"/>
<ellipse rx="2.75559" ry="2.79519" transform="matrix(0.678897 0.734234 0.789771 -0.613402 1326.87 221.588)" fill="white" fill-opacity="0.43"/>
<ellipse rx="2.75559" ry="2.79519" transform="matrix(0.678897 0.734234 0.789771 -0.613402 1252.64 42.8585)" fill="white"/>
<ellipse rx="5.7076" ry="5.38968" transform="matrix(0.923293 -0.384096 -0.443806 -0.896123 1673.62 515.391)" fill="white" fill-opacity="0.43"/>
<ellipse rx="5.7076" ry="5.38968" transform="matrix(0.923293 -0.384096 -0.443806 -0.896123 1618 608.425)" fill="white"/>
<ellipse rx="5.7076" ry="5.38968" transform="matrix(0.923293 -0.384096 -0.443806 -0.896123 1528.04 465.278)" fill="white" fill-opacity="0.43"/>
<ellipse rx="5.7076" ry="5.38968" transform="matrix(0.923293 -0.384096 -0.443806 -0.896123 1855.6 562.011)" fill="white"/>
<ellipse rx="2.8538" ry="2.69484" transform="matrix(0.923293 -0.384096 -0.443806 -0.896123 1711.09 327.969)" fill="white"/>
<ellipse rx="2.8538" ry="2.69484" transform="matrix(0.923293 -0.384096 -0.443806 -0.896123 1560.58 524.552)" fill="white"/>
<ellipse rx="2.8538" ry="2.69484" transform="matrix(0.923293 -0.384096 -0.443806 -0.896123 1757.43 524.211)" fill="white" fill-opacity="0.43"/>
<ellipse rx="2.8538" ry="2.69484" transform="matrix(0.923293 -0.384096 -0.443806 -0.896123 1629.61 420.113)" fill="white"/>
<ellipse rx="2.8538" ry="2.69484" transform="matrix(0.923293 -0.384096 -0.443806 -0.896123 1779.03 439.5)" fill="white"/>
<ellipse rx="2.8538" ry="2.69484" transform="matrix(0.923293 -0.384096 -0.443806 -0.896123 1730.56 611.114)" fill="white" fill-opacity="0.43"/>
<ellipse rx="2.8538" ry="2.69484" transform="matrix(0.923293 -0.384096 -0.443806 -0.896123 1522.68 627.692)" fill="white"/>
<ellipse rx="5.31576" ry="5.7765" transform="matrix(-0.165746 -0.986169 -0.990181 0.139791 1546.44 275.86)" fill="white" fill-opacity="0.43"/>
<ellipse rx="5.31576" ry="5.7765" transform="matrix(-0.165746 -0.986169 -0.990181 0.139791 1629.17 350.046)" fill="white"/>
<ellipse rx="5.31576" ry="5.7765" transform="matrix(-0.165746 -0.986169 -0.990181 0.139791 1454.51 390.805)" fill="white" fill-opacity="0.43"/>
<ellipse rx="5.31576" ry="5.7765" transform="matrix(-0.165746 -0.986169 -0.990181 0.139791 1644.53 127.848)" fill="white"/>
<ellipse rx="2.65788" ry="2.88825" transform="matrix(-0.165746 -0.986169 -0.990181 0.139791 1359.65 192.216)" fill="white"/>
<ellipse rx="2.65788" ry="2.88825" transform="matrix(-0.165746 -0.986169 -0.990181 0.139791 1525.56 378.09)" fill="white"/>
<ellipse rx="2.65788" ry="2.88825" transform="matrix(-0.165746 -0.986169 -0.990181 0.139791 1578.33 204.277)" fill="white" fill-opacity="0.43"/>
<ellipse rx="2.65788" ry="2.88825" transform="matrix(-0.165746 -0.986169 -0.990181 0.139791 1434.47 288.985)" fill="white"/>
<ellipse rx="2.65788" ry="2.88825" transform="matrix(-0.165746 -0.986169 -0.990181 0.139791 1495.16 162.351)" fill="white"/>
<ellipse rx="2.65788" ry="2.88825" transform="matrix(-0.165746 -0.986169 -0.990181 0.139791 1662.38 251.443)" fill="white" fill-opacity="0.43"/>
<ellipse rx="2.65788" ry="2.88825" transform="matrix(-0.165746 -0.986169 -0.990181 0.139791 1623.7 439.369)" fill="white"/>
<ellipse rx="5.46049" ry="5.63989" transform="matrix(0.594074 0.804411 0.849769 -0.527155 1579.94 707.573)" fill="white"/>
<ellipse rx="5.46049" ry="5.63989" transform="matrix(0.594074 0.804411 0.849769 -0.527155 1718.78 602.23)" fill="white" fill-opacity="0.43"/>
<ellipse rx="2.73024" ry="2.81995" transform="matrix(0.594074 0.804411 0.849769 -0.527155 1660.49 641.591)" fill="white"/>
<ellipse rx="2.73024" ry="2.81995" transform="matrix(0.594074 0.804411 0.849769 -0.527155 1784.43 686.397)" fill="white"/>
<ellipse rx="2.73024" ry="2.81995" transform="matrix(0.594074 0.804411 0.849769 -0.527155 1543.19 624.692)" fill="white"/>
<ellipse rx="5.74075" ry="5.35435" transform="matrix(0.95636 -0.29219 -0.341814 -0.939768 1859.72 674.229)" fill="white"/>
<ellipse rx="5.74075" ry="5.35435" transform="matrix(0.95636 -0.29219 -0.341814 -0.939768 1786.51 523.274)" fill="white" fill-opacity="0.43"/>
<ellipse rx="2.87038" ry="2.67718" transform="matrix(0.95636 -0.29219 -0.341814 -0.939768 1812.14 585.334)" fill="white"/>
<ellipse rx="2.87038" ry="2.67718" transform="matrix(0.95636 -0.29219 -0.341814 -0.939768 1762.73 684.295)" fill="#FFF2C9"/>
<ellipse rx="5.43078" ry="5.66851" transform="matrix(0.536872 -0.843664 -0.881913 -0.471413 1855.08 367.519)" fill="white" fill-opacity="0.43"/>
<ellipse rx="5.54326" ry="5.55856" transform="matrix(-0.726433 -0.687238 -0.747777 0.66395 1750.56 203.242)" fill="white" fill-opacity="0.43"/>
<ellipse rx="5.54326" ry="5.55856" transform="matrix(-0.726433 -0.687238 -0.747777 0.66395 1864.87 219.909)" fill="white"/>
<ellipse rx="5.54326" ry="5.55856" transform="matrix(-0.726433 -0.687238 -0.747777 0.66395 1748.1 345.745)" fill="white" fill-opacity="0.43"/>
<ellipse rx="2.77163" ry="2.77928" transform="matrix(-0.726433 -0.687238 -0.747777 0.66395 1545.39 234.02)" fill="white"/>
<ellipse rx="2.77163" ry="2.77928" transform="matrix(-0.726433 -0.687238 -0.747777 0.66395 1798.04 297.708)" fill="white"/>
<ellipse rx="2.77163" ry="2.77928" transform="matrix(-0.726433 -0.687238 -0.747777 0.66395 1731.4 127.944)" fill="white" fill-opacity="0.43"/>
<ellipse rx="2.77163" ry="2.77928" transform="matrix(-0.726433 -0.687238 -0.747777 0.66395 1667.5 273.304)" fill="white"/>
<ellipse rx="2.77163" ry="2.77928" transform="matrix(-0.726433 -0.687238 -0.747777 0.66395 1637.1 137.825)" fill="white"/>
<ellipse rx="2.77163" ry="2.77928" transform="matrix(-0.726433 -0.687238 -0.747777 0.66395 1829.74 121.871)" fill="white" fill-opacity="0.43"/>
<ellipse rx="2.69416" ry="2.85445" transform="matrix(0.440332 0.897835 0.924613 -0.380907 74.4936 193.599)" fill="white"/>
<ellipse rx="5.77701" ry="5.31522" transform="matrix(0.990646 -0.136454 -0.16182 -0.98682 50.7052 118.451)" fill="white"/>
<ellipse rx="5.77701" ry="5.31522" transform="matrix(0.990646 -0.136454 -0.16182 -0.98682 293.087 133.339)" fill="white"/>
<ellipse rx="2.8885" ry="2.65761" transform="matrix(0.990646 -0.136454 -0.16182 -0.98682 158.169 149.24)" fill="white" fill-opacity="0.43"/>
<ellipse rx="5.31226" ry="5.77973" transform="matrix(0.138779 -0.990323 -0.993143 -0.116905 670.271 125.755)" fill="white"/>
<ellipse rx="5.31226" ry="5.77973" transform="matrix(0.138779 -0.990323 -0.993143 -0.116905 490.113 120.591)" fill="white" fill-opacity="0.43"/>
<ellipse rx="2.65613" ry="2.88986" transform="matrix(0.138779 -0.990323 -0.993143 -0.116905 562.237 126.407)" fill="white"/>
<ellipse rx="2.65613" ry="2.88986" transform="matrix(0.138779 -0.990323 -0.993143 -0.116905 638.018 210.195)" fill="white"/>
<ellipse rx="5.71627" ry="5.38049" transform="matrix(-0.932106 -0.362186 -0.419841 0.907598 382.331 138.746)" fill="white" fill-opacity="0.43"/>
<ellipse rx="2.85813" ry="2.69024" transform="matrix(-0.932106 -0.362186 -0.419841 0.907598 148.147 108.24)" fill="white"/>
<ellipse rx="2.85813" ry="2.69024" transform="matrix(-0.932106 -0.362186 -0.419841 0.907598 407.903 76.6672)" fill="white"/>
<ellipse rx="2.85813" ry="2.69024" transform="matrix(-0.932106 -0.362186 -0.419841 0.907598 277.302 100.814)" fill="white"/>
<ellipse rx="5.78646" ry="5.30493" transform="matrix(0.999287 -0.0377523 -0.0449303 -0.99899 831.92 140.484)" fill="white" fill-opacity="0.43"/>
<ellipse rx="5.78646" ry="5.30493" transform="matrix(0.999287 -0.0377523 -0.0449303 -0.99899 742.26 207.574)" fill="white"/>
<ellipse rx="5.78646" ry="5.30493" transform="matrix(0.999287 -0.0377523 -0.0449303 -0.99899 981.484 246.314)" fill="white"/>
<ellipse rx="2.89323" ry="2.65246" transform="matrix(0.999287 -0.0377523 -0.0449303 -0.99899 723.396 110.079)" fill="white"/>
<ellipse rx="2.89323" ry="2.65246" transform="matrix(0.999287 -0.0377523 -0.0449303 -0.99899 905.99 177.502)" fill="white" fill-opacity="0.43"/>
<ellipse rx="2.89323" ry="2.65246" transform="matrix(0.999287 -0.0377523 -0.0449303 -0.99899 960.713 106.421)" fill="white"/>
<ellipse rx="2.89323" ry="2.65246" transform="matrix(0.999287 -0.0377523 -0.0449303 -0.99899 845.478 248.799)" fill="white" fill-opacity="0.43"/>
<ellipse rx="2.89323" ry="2.65246" transform="matrix(0.999287 -0.0377523 -0.0449303 -0.99899 646.018 192.632)" fill="white"/>
<ellipse rx="2.89323" ry="2.65246" transform="matrix(0.999287 -0.0377523 -0.0449303 -0.99899 399.189 100.289)" fill="white"/>
</mask>
<g mask="url(#mask0)">
<rect width="1917" height="755" transform="matrix(-1 0 0 1 1901.07 38)" fill="url(#paint1_linear)"/>
</g>
</g>
<defs>
<radialGradient id="paint0_radial" cx="0" cy="0" r="1" gradientUnits="userSpaceOnUse" gradientTransform="translate(406.738 384.356) rotate(62.0719) scale(102.525 216.041)">
<stop stop-color="#EEA391"/>
<stop offset="0.502762" stop-color="#AF4448" stop-opacity="0.3"/>
<stop offset="1" stop-color="#AF4448" stop-opacity="0"/>
</radialGradient>
<linearGradient id="paint1_linear" x1="958.5" y1="-440" x2="958.5" y2="603.5" gradientUnits="userSpaceOnUse">
<stop offset="0.241378" stop-color="#C4C4C4" stop-opacity="0"/>
<stop offset="1" stop-color="#C4C4C4"/>
</linearGradient>
</defs>
</svg>
