<svg width="1893" height="1037" viewBox="0 0 1893 1037" fill="none" xmlns="http://www.w3.org/2000/svg">
<g opacity="0.4">
<ellipse rx="5.32575" ry="5.7673" transform="matrix(0.225323 0.974284 0.981648 -0.1907 232.374 656.818)" fill="white" fill-opacity="0.43"/>
<ellipse rx="5.32575" ry="5.7673" transform="matrix(0.225323 0.974284 0.981648 -0.1907 145.238 586.996)" fill="white"/>
<ellipse rx="5.32575" ry="5.7673" transform="matrix(0.225323 0.974284 0.981648 -0.1907 317.142 537.336)" fill="white" fill-opacity="0.43"/>
<ellipse rx="2.66287" ry="2.88365" transform="matrix(0.225323 0.974284 0.981648 -0.1907 423.986 730.744)" fill="white"/>
<ellipse rx="2.66287" ry="2.88365" transform="matrix(0.225323 0.974284 0.981648 -0.1907 246.973 553.678)" fill="white"/>
<ellipse rx="2.66287" ry="2.88365" transform="matrix(0.225323 0.974284 0.981648 -0.1907 204.915 729.927)" fill="white" fill-opacity="0.43"/>
<ellipse rx="2.66287" ry="2.88365" transform="matrix(0.225323 0.974284 0.981648 -0.1907 343.373 637.967)" fill="#FFF2C9"/>
<ellipse rx="2.66287" ry="2.88365" transform="matrix(0.225323 0.974284 0.981648 -0.1907 118.117 687.149)" fill="white" fill-opacity="0.43"/>
<ellipse rx="2.66287" ry="2.88365" transform="matrix(0.225323 0.974284 0.981648 -0.1907 145.253 497.532)" fill="white"/>
<ellipse rx="5.78533" ry="5.30616" transform="matrix(0.998259 0.05899 0.0701761 -0.997535 514.994 594.625)" fill="white" fill-opacity="0.43"/>
<ellipse rx="5.78533" ry="5.30616" transform="matrix(0.998259 0.05899 0.0701761 -0.997535 418.12 652.682)" fill="white"/>
<ellipse rx="5.78533" ry="5.30616" transform="matrix(0.998259 0.05899 0.0701761 -0.997535 412.34 487.574)" fill="white" fill-opacity="0.43"/>
<ellipse rx="5.78533" ry="5.30616" transform="matrix(0.998259 0.05899 0.0701761 -0.997535 651.556 714.313)" fill="white"/>
<ellipse rx="2.89266" ry="2.65308" transform="matrix(0.998259 0.05899 0.0701761 -0.997535 410.569 553.907)" fill="white"/>
<ellipse rx="2.89266" ry="2.65308" transform="matrix(0.998259 0.05899 0.0701761 -0.997535 584.39 638.591)" fill="white" fill-opacity="0.43"/>
<ellipse rx="2.89266" ry="2.65308" transform="matrix(0.998259 0.05899 0.0701761 -0.997535 525.143 491.581)" fill="white"/>
<ellipse rx="2.89266" ry="2.65308" transform="matrix(0.998259 0.05899 0.0701761 -0.997535 646.981 573.192)" fill="white"/>
<ellipse rx="2.89266" ry="2.65308" transform="matrix(0.998259 0.05899 0.0701761 -0.997535 516.024 703.645)" fill="white" fill-opacity="0.43"/>
<ellipse rx="2.89266" ry="2.65308" transform="matrix(0.998259 0.05899 0.0701761 -0.997535 324.133 628.527)" fill="white"/>
<ellipse rx="5.36037" ry="5.73514" transform="matrix(0.361364 -0.932425 -0.950883 -0.309551 987.475 678.895)" fill="white" fill-opacity="0.43"/>
<ellipse rx="5.36037" ry="5.73514" transform="matrix(0.361364 -0.932425 -0.950883 -0.309551 847.056 740.126)" fill="white" fill-opacity="0.43"/>
<ellipse rx="5.36037" ry="5.73514" transform="matrix(0.361364 -0.932425 -0.950883 -0.309551 1150.42 591.223)" fill="white"/>
<ellipse rx="2.68018" ry="2.86757" transform="matrix(0.361364 -0.932425 -0.950883 -0.309551 866.309 524.062)" fill="white"/>
<ellipse rx="2.68018" ry="2.86757" transform="matrix(0.361364 -0.932425 -0.950883 -0.309551 916.194 759.819)" fill="white"/>
<ellipse rx="2.68018" ry="2.86757" transform="matrix(0.361364 -0.932425 -0.950883 -0.309551 1052.59 629.733)" fill="white" fill-opacity="0.43"/>
<ellipse rx="2.68018" ry="2.86757" transform="matrix(0.361364 -0.932425 -0.950883 -0.309551 882.1 641.775)" fill="white"/>
<ellipse rx="2.68018" ry="2.86757" transform="matrix(0.361364 -0.932425 -0.950883 -0.309551 1001.06 556.671)" fill="white"/>
<ellipse rx="2.68018" ry="2.86757" transform="matrix(0.361364 -0.932425 -0.950883 -0.309551 1102.17 707.789)" fill="white" fill-opacity="0.43"/>
<ellipse rx="5.63121" ry="5.46944" transform="matrix(-0.83967 -0.543097 -0.610097 0.792327 711.083 596.486)" fill="white" fill-opacity="0.43"/>
<ellipse rx="5.63121" ry="5.46944" transform="matrix(-0.83967 -0.543097 -0.610097 0.792327 826.779 593.415)" fill="white"/>
<ellipse rx="5.63121" ry="5.46944" transform="matrix(-0.83967 -0.543097 -0.610097 0.792327 737.524 736.931)" fill="white" fill-opacity="0.43"/>
<ellipse rx="2.81561" ry="2.73472" transform="matrix(-0.83967 -0.543097 -0.610097 0.792327 515.713 661.631)" fill="white"/>
<ellipse rx="2.81561" ry="2.73472" transform="matrix(-0.83967 -0.543097 -0.610097 0.792327 776.867 681.232)" fill="white"/>
<ellipse rx="2.81561" ry="2.73472" transform="matrix(-0.83967 -0.543097 -0.610097 0.792327 677.006 525.756)" fill="white" fill-opacity="0.43"/>
<ellipse rx="2.81561" ry="2.73472" transform="matrix(-0.83967 -0.543097 -0.610097 0.792327 643.649 679.461)" fill="white"/>
<ellipse rx="2.81561" ry="2.73472" transform="matrix(-0.83967 -0.543097 -0.610097 0.792327 586.34 551.508)" fill="white"/>
<ellipse rx="2.81561" ry="2.73472" transform="matrix(-0.83967 -0.543097 -0.610097 0.792327 772.396 503.06)" fill="white" fill-opacity="0.43"/>
<ellipse rx="2.81561" ry="2.73472" transform="matrix(-0.83967 -0.543097 -0.610097 0.792327 893.119 659.045)" fill="white"/>
<ellipse rx="5.77361" ry="5.31891" transform="matrix(0.987509 0.157563 0.186613 -0.982434 1087.02 709.395)" fill="white" fill-opacity="0.43"/>
<ellipse rx="2.8868" ry="2.65945" transform="matrix(0.987509 0.157563 0.186613 -0.982434 1322.65 690.46)" fill="white"/>
<ellipse rx="2.8868" ry="2.65945" transform="matrix(0.987509 0.157563 0.186613 -0.982434 1198.7 724.52)" fill="white"/>
<ellipse rx="5.3971" ry="5.70058" transform="matrix(0.462175 -0.886789 -0.916062 -0.401038 1218.66 562.397)" fill="white" fill-opacity="0.43"/>
<ellipse rx="5.3971" ry="5.70058" transform="matrix(0.462175 -0.886789 -0.916062 -0.401038 1241.41 666.407)" fill="white"/>
<ellipse rx="5.3971" ry="5.70058" transform="matrix(0.462175 -0.886789 -0.916062 -0.401038 1072.04 609.896)" fill="white" fill-opacity="0.43"/>
<ellipse rx="2.69855" ry="2.85029" transform="matrix(0.462175 -0.886789 -0.916062 -0.401038 1138.57 636.08)" fill="white"/>
<ellipse rx="2.69855" ry="2.85029" transform="matrix(0.462175 -0.886789 -0.916062 -0.401038 1289 519.717)" fill="white" fill-opacity="0.43"/>
<ellipse rx="2.69855" ry="2.85029" transform="matrix(0.462175 -0.886789 -0.916062 -0.401038 1329.45 602.084)" fill="white" fill-opacity="0.43"/>
<ellipse rx="2.69855" ry="2.85029" transform="matrix(0.462175 -0.886789 -0.916062 -0.401038 1181.98 737.376)" fill="white"/>
<ellipse rx="2.67065" ry="2.87645" transform="matrix(-0.294646 -0.955607 -0.968059 0.250725 1171.73 485.772)" fill="white"/>
<ellipse rx="5.78724" ry="5.30407" transform="matrix(-0.999998 0.00197257 0.00234832 0.999997 905.964 511.985)" fill="white" fill-opacity="0.43"/>
<ellipse rx="2.89362" ry="2.65204" transform="matrix(-0.999998 0.00197257 0.00234832 0.999997 677.501 568.128)" fill="white"/>
<ellipse rx="2.89362" ry="2.65204" transform="matrix(-0.999998 0.00197257 0.00234832 0.999997 793.118 514.858)" fill="white"/>
<ellipse rx="2.67065" ry="2.87645" transform="matrix(-0.294646 -0.955607 -0.968059 0.250725 1049.28 919.321)" fill="white"/>
<ellipse rx="5.78724" ry="5.30407" transform="matrix(-0.999998 0.00197257 0.00234832 0.999997 973.636 909.195)" fill="white"/>
<ellipse rx="2.89362" ry="2.65204" transform="matrix(-0.999998 0.00197257 0.00234832 0.999997 1069.17 927.569)" fill="white"/>
<ellipse rx="5.34073" ry="5.75343" transform="matrix(-0.292432 0.956286 0.968557 0.248792 1226.04 536.921)" fill="white"/>
<ellipse rx="2.67037" ry="2.87671" transform="matrix(-0.292432 0.956286 0.968557 0.248792 1514.48 586.223)" fill="white"/>
<ellipse rx="2.67037" ry="2.87671" transform="matrix(-0.292432 0.956286 0.968557 0.248792 1320.79 492.402)" fill="white" fill-opacity="0.43"/>
<ellipse rx="2.67037" ry="2.87671" transform="matrix(-0.292432 0.956286 0.968557 0.248792 1489.99 469.765)" fill="white"/>
<ellipse rx="2.67037" ry="2.87671" transform="matrix(-0.292432 0.956286 0.968557 0.248792 1377.62 562.084)" fill="white"/>
<ellipse rx="5.65927" ry="5.44041" transform="matrix(0.871714 0.490014 0.55616 -0.831075 1157.95 706.85)" fill="white" fill-opacity="0.43"/>
<ellipse rx="2.82963" ry="2.7202" transform="matrix(0.871714 0.490014 0.55616 -0.831075 1255.67 758.664)" fill="white"/>
<ellipse rx="5.56922" ry="5.53255" transform="matrix(0.762191 -0.647352 -0.711005 -0.703187 1339.47 614.722)" fill="white" fill-opacity="0.43"/>
<ellipse rx="5.56922" ry="5.53255" transform="matrix(0.762191 -0.647352 -0.711005 -0.703187 1318.76 719.092)" fill="white"/>
<ellipse rx="5.56922" ry="5.53255" transform="matrix(0.762191 -0.647352 -0.711005 -0.703187 1184.08 609.305)" fill="white" fill-opacity="0.43"/>
<ellipse rx="5.56922" ry="5.53255" transform="matrix(0.762191 -0.647352 -0.711005 -0.703187 1528.2 606.29)" fill="white"/>
<ellipse rx="2.78461" ry="2.76627" transform="matrix(0.762191 -0.647352 -0.711005 -0.703187 1235.37 656.132)" fill="white"/>
<ellipse rx="2.78461" ry="2.76627" transform="matrix(0.762191 -0.647352 -0.711005 -0.703187 1422.03 598.836)" fill="white" fill-opacity="0.43"/>
<ellipse rx="2.78461" ry="2.76627" transform="matrix(0.762191 -0.647352 -0.711005 -0.703187 1264.88 537.059)" fill="white"/>
<ellipse rx="2.78461" ry="2.76627" transform="matrix(0.762191 -0.647352 -0.711005 -0.703187 1413.34 512.208)" fill="white"/>
<ellipse rx="2.78461" ry="2.76627" transform="matrix(0.762191 -0.647352 -0.711005 -0.703187 1426.48 689.069)" fill="white" fill-opacity="0.43"/>
<ellipse rx="5.32531" ry="5.76771" transform="matrix(0.223053 -0.974806 -0.982025 -0.18875 1519.44 729.026)" fill="white" fill-opacity="0.43"/>
<ellipse rx="5.32531" ry="5.76771" transform="matrix(0.223053 -0.974806 -0.982025 -0.18875 1668.08 622.108)" fill="white"/>
<ellipse rx="2.66265" ry="2.88385" transform="matrix(0.223053 -0.974806 -0.982025 -0.18875 1376.7 590.492)" fill="white"/>
<ellipse rx="2.66265" ry="2.88385" transform="matrix(0.223053 -0.974806 -0.982025 -0.18875 1576.77 672.301)" fill="white" fill-opacity="0.43"/>
<ellipse rx="2.66265" ry="2.88385" transform="matrix(0.223053 -0.974806 -0.982025 -0.18875 1409.59 705.202)" fill="white"/>
<ellipse rx="2.66265" ry="2.88385" transform="matrix(0.223053 -0.974806 -0.982025 -0.18875 1515.01 606.239)" fill="white"/>
<ellipse rx="2.66265" ry="2.88385" transform="matrix(0.223053 -0.974806 -0.982025 -0.18875 1637.33 743.557)" fill="white" fill-opacity="0.43"/>
<ellipse rx="5.50757" ry="5.59393" transform="matrix(0.673274 -0.739393 -0.794293 -0.607535 1322.58 472.021)" fill="white"/>
<ellipse rx="2.75378" ry="2.79697" transform="matrix(0.673274 -0.739393 -0.794293 -0.607535 1245.84 527.319)" fill="white"/>
<ellipse rx="5.66911" ry="5.43015" transform="matrix(0.882574 0.470172 0.535579 -0.844485 1450.22 564.104)" fill="white" fill-opacity="0.43"/>
<ellipse rx="5.66911" ry="5.43015" transform="matrix(0.882574 0.470172 0.535579 -0.844485 1335.27 576.485)" fill="white"/>
<ellipse rx="5.66911" ry="5.43015" transform="matrix(0.882574 0.470172 0.535579 -0.844485 1514.23 727.039)" fill="white"/>
<ellipse rx="2.83456" ry="2.71507" transform="matrix(0.882574 0.470172 0.535579 -0.844485 1638.58 483.468)" fill="white"/>
<ellipse rx="2.83456" ry="2.71507" transform="matrix(0.882574 0.470172 0.535579 -0.844485 1490.95 631.814)" fill="white" fill-opacity="0.43"/>
<ellipse rx="2.83456" ry="2.71507" transform="matrix(0.882574 0.470172 0.535579 -0.844485 1509.44 476.016)" fill="white"/>
<ellipse rx="2.83456" ry="2.71507" transform="matrix(0.882574 0.470172 0.535579 -0.844485 1578.8 598.854)" fill="white"/>
<ellipse rx="2.83456" ry="2.71507" transform="matrix(0.882574 0.470172 0.535579 -0.844485 1398.11 662.106)" fill="white" fill-opacity="0.43"/>
<ellipse rx="2.83456" ry="2.71507" transform="matrix(0.882574 0.470172 0.535579 -0.844485 1262.89 516.454)" fill="white"/>
<ellipse rx="2.77893" ry="2.77199" transform="matrix(0.746805 -0.665043 -0.727442 -0.686169 1488.89 482.759)" fill="white"/>
<ellipse rx="2.89362" ry="2.65203" transform="matrix(-1 0 0 1 1603.84 456.778)" fill="white"/>
<ellipse rx="5.34073" ry="5.75343" transform="matrix(-0.292432 0.956286 0.968557 0.248792 1730.26 566.596)" fill="white" fill-opacity="0.43"/>
<ellipse rx="5.34073" ry="5.75343" transform="matrix(-0.292432 0.956286 0.968557 0.248792 1688.39 467.703)" fill="white"/>
<ellipse rx="5.34073" ry="5.75343" transform="matrix(-0.292432 0.956286 0.968557 0.248792 1865.82 496.754)" fill="white" fill-opacity="0.43"/>
<ellipse rx="5.34073" ry="5.75343" transform="matrix(-0.292432 0.956286 0.968557 0.248792 1574.2 664.217)" fill="white"/>
<ellipse rx="2.67037" ry="2.87671" transform="matrix(-0.292432 0.956286 0.968557 0.248792 1862.64 713.521)" fill="white"/>
<ellipse rx="2.67037" ry="2.87671" transform="matrix(-0.292432 0.956286 0.968557 0.248792 1795.38 481.414)" fill="white"/>
<ellipse rx="2.67037" ry="2.87671" transform="matrix(-0.292432 0.956286 0.968557 0.248792 1668.95 619.699)" fill="white" fill-opacity="0.43"/>
<ellipse rx="2.67037" ry="2.87671" transform="matrix(-0.292432 0.956286 0.968557 0.248792 1838.15 597.061)" fill="white"/>
<ellipse rx="2.67037" ry="2.87671" transform="matrix(-0.292432 0.956286 0.968557 0.248792 1725.78 689.382)" fill="white"/>
<ellipse rx="2.67037" ry="2.87671" transform="matrix(-0.292432 0.956286 0.968557 0.248792 1613.69 544.912)" fill="white" fill-opacity="0.43"/>
<ellipse rx="5.56922" ry="5.53255" transform="matrix(0.762191 -0.647352 -0.711005 -0.703187 1687.62 742.02)" fill="white" fill-opacity="0.43"/>
<ellipse rx="5.56922" ry="5.53255" transform="matrix(0.762191 -0.647352 -0.711005 -0.703187 1532.23 736.603)" fill="white" fill-opacity="0.43"/>
<ellipse rx="5.56922" ry="5.53255" transform="matrix(0.762191 -0.647352 -0.711005 -0.703187 1876.35 733.587)" fill="white"/>
<ellipse rx="2.78461" ry="2.76627" transform="matrix(0.762191 -0.647352 -0.711005 -0.703187 1658.6 553.346)" fill="white"/>
<ellipse rx="2.78461" ry="2.76627" transform="matrix(0.762191 -0.647352 -0.711005 -0.703187 1770.18 726.133)" fill="white" fill-opacity="0.43"/>
<ellipse rx="2.78461" ry="2.76627" transform="matrix(0.762191 -0.647352 -0.711005 -0.703187 1613.04 664.355)" fill="white"/>
<ellipse rx="2.78461" ry="2.76627" transform="matrix(0.762191 -0.647352 -0.711005 -0.703187 1761.49 639.505)" fill="white"/>
<ellipse rx="2.66265" ry="2.88385" transform="matrix(0.223053 -0.974806 -0.982025 -0.18875 1724.85 717.791)" fill="white"/>
<ellipse rx="2.66265" ry="2.88385" transform="matrix(0.223053 -0.974806 -0.982025 -0.18875 1863.17 733.535)" fill="white"/>
<ellipse rx="5.57256" ry="5.52919" transform="matrix(-0.766632 0.642087 0.706074 0.708138 432.85 674.25)" fill="white"/>
<ellipse rx="2.78628" ry="2.76459" transform="matrix(-0.766632 0.642087 0.706074 0.708138 515.756 737.739)" fill="white"/>
<ellipse rx="2.78628" ry="2.76459" transform="matrix(-0.766632 0.642087 0.706074 0.708138 324.906 703.586)" fill="white" fill-opacity="0.43"/>
<ellipse rx="2.78628" ry="2.76459" transform="matrix(-0.766632 0.642087 0.706074 0.708138 517.002 628.915)" fill="white"/>
<ellipse rx="5.60982" ry="5.49138" transform="matrix(-0.814056 -0.580786 -0.647361 0.762183 319.877 567.267)" fill="white" fill-opacity="0.43"/>
<ellipse rx="5.60982" ry="5.49138" transform="matrix(-0.814056 -0.580786 -0.647361 0.762183 435.602 569.17)" fill="white"/>
<ellipse rx="5.60982" ry="5.49138" transform="matrix(-0.814056 -0.580786 -0.647361 0.762183 339.103 708.695)" fill="white" fill-opacity="0.43"/>
<ellipse rx="2.80491" ry="2.74569" transform="matrix(-0.814056 -0.580786 -0.647361 0.762183 121.394 623.946)" fill="white"/>
<ellipse rx="2.80491" ry="2.74569" transform="matrix(-0.814056 -0.580786 -0.647361 0.762183 381.258 654.746)" fill="white"/>
<ellipse rx="2.80491" ry="2.74569" transform="matrix(-0.814056 -0.580786 -0.647361 0.762183 289.458 495.149)" fill="white" fill-opacity="0.43"/>
<ellipse rx="2.80491" ry="2.74569" transform="matrix(-0.814056 -0.580786 -0.647361 0.762183 248.276 647.253)" fill="white"/>
<ellipse rx="2.80491" ry="2.74569" transform="matrix(-0.814056 -0.580786 -0.647361 0.762183 197.575 516.979)" fill="white"/>
<ellipse rx="2.80491" ry="2.74569" transform="matrix(-0.814056 -0.580786 -0.647361 0.762183 385.905 476.578)" fill="white" fill-opacity="0.43"/>
<ellipse rx="2.80491" ry="2.74569" transform="matrix(-0.814056 -0.580786 -0.647361 0.762183 498.512 637.578)" fill="white"/>
<ellipse rx="5.62148" ry="5.47945" transform="matrix(-0.828149 0.560507 0.627419 0.778682 180.781 680.159)" fill="white"/>
<ellipse rx="2.81074" ry="2.73972" transform="matrix(-0.828149 0.560507 0.627419 0.778682 256.018 751.218)" fill="white"/>
<ellipse rx="2.81074" ry="2.73972" transform="matrix(-0.828149 0.560507 0.627419 0.778682 70.0856 699.033)" fill="white" fill-opacity="0.43"/>
<ellipse rx="2.81074" ry="2.73972" transform="matrix(-0.828149 0.560507 0.627419 0.778682 269.624 643.105)" fill="white"/>
<ellipse rx="5.32756" ry="5.76563" transform="matrix(-0.234494 0.972118 0.980083 0.198586 125.164 478.592)" fill="white"/>
<ellipse rx="2.66378" ry="2.88281" transform="matrix(-0.234494 0.972118 0.980083 0.198586 416.15 513.107)" fill="white"/>
<ellipse rx="2.66378" ry="2.88281" transform="matrix(-0.234494 0.972118 0.980083 0.198586 278.036 495.984)" fill="white"/>
<ellipse rx="5.42038" ry="5.67845" transform="matrix(0.515104 0.857128 0.892705 -0.450642 473.499 567.321)" fill="white" fill-opacity="0.43"/>
<ellipse rx="5.42038" ry="5.67845" transform="matrix(0.515104 0.857128 0.892705 -0.450642 368 523.694)" fill="white"/>
<ellipse rx="5.42038" ry="5.67845" transform="matrix(0.515104 0.857128 0.892705 -0.450642 436.851 737.208)" fill="white"/>
<ellipse rx="2.71019" ry="2.83923" transform="matrix(0.515104 0.857128 0.892705 -0.450642 680.28 587.073)" fill="white"/>
<ellipse rx="2.71019" ry="2.83923" transform="matrix(0.515104 0.857128 0.892705 -0.450642 454.801 464.738)" fill="white"/>
<ellipse rx="2.71019" ry="2.83923" transform="matrix(0.515104 0.857128 0.892705 -0.450642 470.382 644.587)" fill="white" fill-opacity="0.43"/>
<ellipse rx="2.71019" ry="2.83923" transform="matrix(0.515104 0.857128 0.892705 -0.450642 573.744 519.745)" fill="white"/>
<ellipse rx="2.71019" ry="2.83923" transform="matrix(0.515104 0.857128 0.892705 -0.450642 564.203 657.781)" fill="white"/>
<ellipse rx="2.71019" ry="2.83923" transform="matrix(0.515104 0.857128 0.892705 -0.450642 373.77 626.748)" fill="white" fill-opacity="0.43"/>
<ellipse rx="5.76309" ry="5.3303" transform="matrix(0.977703 -0.209992 -0.247724 -0.96883 649.934 513.938)" fill="white"/>
<ellipse rx="5.76309" ry="5.3303" transform="matrix(0.977703 -0.209992 -0.247724 -0.96883 892.838 510.796)" fill="#FFF2C9"/>
<ellipse rx="5.63121" ry="5.46944" transform="matrix(-0.83967 -0.543097 -0.610097 0.792327 55.0046 939.665)" fill="white"/>
<ellipse rx="2.88155" ry="2.66515" transform="matrix(0.977703 -0.209992 -0.247724 -0.96883 3.47787 932.067)" fill="white"/>
<ellipse rx="2.88155" ry="2.66515" transform="matrix(0.977703 -0.209992 -0.247724 -0.96883 804.58 456.207)" fill="white" fill-opacity="0.43"/>
<ellipse rx="2.88155" ry="2.66515" transform="matrix(0.977703 -0.209992 -0.247724 -0.96883 759.765 536.652)" fill="white" fill-opacity="0.43"/>
<ellipse rx="2.88155" ry="2.66515" transform="matrix(0.977703 -0.209992 -0.247724 -0.96883 552.343 515.83)" fill="white"/>
<ellipse rx="5.52898" ry="5.57277" transform="matrix(-0.705764 -0.708447 -0.766908 0.641757 223.701 610.134)" fill="white"/>
<ellipse rx="2.76449" ry="2.78639" transform="matrix(-0.705764 -0.708447 -0.766908 0.641757 214.787 707.375)" fill="white" fill-opacity="0.43"/>
<ellipse rx="2.76449" ry="2.78639" transform="matrix(-0.705764 -0.708447 -0.766908 0.641757 120.202 714.697)" fill="white"/>
<ellipse rx="2.76449" ry="2.78639" transform="matrix(-0.705764 -0.708447 -0.766908 0.641757 313.268 703.97)" fill="white" fill-opacity="0.43"/>
<ellipse rx="2.87198" ry="2.67545" transform="matrix(0.959474 0.281796 0.330052 -0.943963 63.8193 755.806)" fill="white"/>
<ellipse rx="5.4552" ry="5.64501" transform="matrix(0.584369 -0.811488 -0.85564 -0.517572 161.124 566.551)" fill="white"/>
<ellipse rx="2.7276" ry="2.8225" transform="matrix(0.584369 -0.811488 -0.85564 -0.517572 56.068 582.445)" fill="white" fill-opacity="0.43"/>
<ellipse rx="2.7276" ry="2.8225" transform="matrix(0.584369 -0.811488 -0.85564 -0.517572 25.1552 500.195)" fill="white"/>
<ellipse rx="2.7276" ry="2.8225" transform="matrix(0.584369 -0.811488 -0.85564 -0.517572 83.7941 669.122)" fill="white" fill-opacity="0.43"/>
<ellipse rx="5.70362" ry="5.3939" transform="matrix(-0.919199 0.393793 0.454338 0.890829 79.017 460.736)" fill="white" fill-opacity="0.43"/>
<ellipse rx="5.70362" ry="5.3939" transform="matrix(-0.919199 0.393793 0.454338 0.890829 225.191 509.358)" fill="white" fill-opacity="0.43"/>
<ellipse rx="2.85181" ry="2.69695" transform="matrix(-0.919199 0.393793 0.454338 0.890829 43.833 648.53)" fill="white"/>
<ellipse rx="2.85181" ry="2.69695" transform="matrix(-0.919199 0.393793 0.454338 0.890829 124.179 555.559)" fill="white"/>
<ellipse rx="5.31465" ry="5.77753" transform="matrix(-0.157654 0.987494 0.991127 0.132916 976.622 813.151)" fill="white"/>
<ellipse rx="2.65732" ry="2.88877" transform="matrix(-0.157654 0.987494 0.991127 0.132916 1064.4 757.915)" fill="white" fill-opacity="0.43"/>
<ellipse rx="5.31052" ry="5.78133" transform="matrix(-0.123159 0.992387 0.99461 0.103684 960.646 804.479)" fill="white" fill-opacity="0.43"/>
<ellipse rx="2.65526" ry="2.89066" transform="matrix(-0.123159 0.992387 0.99461 0.103684 1116.87 930.201)" fill="white"/>
<ellipse rx="2.65526" ry="2.89066" transform="matrix(-0.123159 0.992387 0.99461 0.103684 909.343 865.861)" fill="white" fill-opacity="0.43"/>
<ellipse rx="2.65526" ry="2.89066" transform="matrix(-0.123159 0.992387 0.99461 0.103684 1072.44 818.803)" fill="white"/>
<ellipse rx="2.65526" ry="2.89066" transform="matrix(-0.123159 0.992387 0.99461 0.103684 977.552 956.353)" fill="white"/>
<ellipse rx="2.86054" ry="2.68769" transform="matrix(0.936942 0.349485 0.405844 -0.913942 1057.45 804.265)" fill="white"/>
<ellipse rx="5.32756" ry="5.76563" transform="matrix(-0.234494 0.972118 0.980083 0.198586 895.286 889.214)" fill="white" fill-opacity="0.43"/>
<ellipse rx="5.51479" ry="5.58681" transform="matrix(-0.684448 -0.729062 -0.785221 0.619216 896.334 897.168)" fill="white"/>
<ellipse rx="5.5056" ry="5.59587" transform="matrix(0.670192 -0.742188 -0.796735 -0.604329 1016.39 796.87)" fill="white" fill-opacity="0.43"/>
<ellipse rx="5.5056" ry="5.59587" transform="matrix(0.901022 0.433773 0.355204 -0.934789 1037.14 895.706)" fill="white"/>
<ellipse rx="2.7528" ry="2.79793" transform="matrix(0.670192 -0.742188 -0.796735 -0.604329 919.146 850.486)" fill="white"/>
<ellipse rx="2.7528" ry="2.79793" transform="matrix(0.670192 -0.742188 -0.796735 -0.604329 1095.95 771.159)" fill="white" fill-opacity="0.43"/>
<ellipse rx="2.7528" ry="2.79793" transform="matrix(0.670192 -0.742188 -0.796735 -0.604329 1014 1032.61)" fill="white" fill-opacity="0.43"/>
<ellipse rx="2.7528" ry="2.79793" transform="matrix(0.670192 -0.742188 -0.796735 -0.604329 1113.31 860.068)" fill="white" fill-opacity="0.43"/>
<ellipse rx="2.7328" ry="2.81747" transform="matrix(-0.603271 -0.797536 -0.844036 0.536287 935.182 748.57)" fill="white"/>
<ellipse rx="2.71301" ry="2.83654" transform="matrix(-0.527025 0.84985 0.886886 0.461988 35.4911 473.398)" fill="white"/>
<ellipse rx="5.7076" ry="5.38968" transform="matrix(0.923293 -0.384096 -0.443806 -0.896123 1673.62 476.271)" fill="white" fill-opacity="0.43"/>
<ellipse rx="5.7076" ry="5.38968" transform="matrix(0.923293 -0.384096 -0.443806 -0.896123 1618 569.305)" fill="white"/>
<ellipse rx="5.7076" ry="5.38968" transform="matrix(0.923293 -0.384096 -0.443806 -0.896123 1855.6 522.89)" fill="white"/>
<ellipse rx="2.8538" ry="2.69484" transform="matrix(0.923293 -0.384096 -0.443806 -0.896123 1560.58 485.432)" fill="white"/>
<ellipse rx="2.8538" ry="2.69484" transform="matrix(0.923293 -0.384096 -0.443806 -0.896123 1757.43 485.091)" fill="white" fill-opacity="0.43"/>
<ellipse rx="2.8538" ry="2.69484" transform="matrix(0.923293 -0.384096 -0.443806 -0.896123 1730.56 571.994)" fill="white" fill-opacity="0.43"/>
<ellipse rx="2.8538" ry="2.69484" transform="matrix(0.923293 -0.384096 -0.443806 -0.896123 1522.68 588.571)" fill="white"/>
<ellipse rx="5.46049" ry="5.63989" transform="matrix(0.594074 0.804411 0.849769 -0.527155 1689.35 703.058)" fill="white" fill-opacity="0.43"/>
<ellipse rx="5.46049" ry="5.63989" transform="matrix(0.594074 0.804411 0.849769 -0.527155 1579.94 668.452)" fill="white"/>
<ellipse rx="5.46049" ry="5.63989" transform="matrix(0.594074 0.804411 0.849769 -0.527155 1718.78 563.11)" fill="white" fill-opacity="0.43"/>
<ellipse rx="2.73024" ry="2.81995" transform="matrix(0.594074 0.804411 0.849769 -0.527155 1660.49 602.47)" fill="white"/>
<ellipse rx="2.73024" ry="2.81995" transform="matrix(0.594074 0.804411 0.849769 -0.527155 1784.43 647.277)" fill="white"/>
<ellipse rx="2.73024" ry="2.81995" transform="matrix(0.594074 0.804411 0.849769 -0.527155 1543.19 585.572)" fill="white"/>
<ellipse rx="5.74075" ry="5.35435" transform="matrix(0.95636 -0.29219 -0.341814 -0.939768 1859.72 635.108)" fill="white"/>
<ellipse rx="5.74075" ry="5.35435" transform="matrix(0.95636 -0.29219 -0.341814 -0.939768 1786.51 484.153)" fill="white" fill-opacity="0.43"/>
<ellipse rx="2.87038" ry="2.67718" transform="matrix(0.95636 -0.29219 -0.341814 -0.939768 1812.14 546.213)" fill="white"/>
<ellipse rx="2.87038" ry="2.67718" transform="matrix(0.95636 -0.29219 -0.341814 -0.939768 1762.73 645.174)" fill="#FFF2C9"/>
<ellipse rx="5.32575" ry="5.7673" transform="matrix(0.225323 0.974284 0.981648 -0.1907 153.238 877.996)" fill="white"/>
<ellipse rx="5.32575" ry="5.7673" transform="matrix(0.225323 0.974284 0.981648 -0.1907 325.142 828.336)" fill="white" fill-opacity="0.43"/>
<ellipse rx="2.66287" ry="2.88365" transform="matrix(0.225323 0.974284 0.981648 -0.1907 254.973 844.678)" fill="white"/>
<ellipse rx="2.66287" ry="2.88365" transform="matrix(0.225323 0.974284 0.981648 -0.1907 153.253 788.532)" fill="white"/>
<ellipse rx="5.78533" ry="5.30616" transform="matrix(0.998259 0.05899 0.0701761 -0.997535 522.994 885.625)" fill="white" fill-opacity="0.43"/>
<ellipse rx="5.78533" ry="5.30616" transform="matrix(0.998259 0.05899 0.0701761 -0.997535 420.34 778.573)" fill="white" fill-opacity="0.43"/>
<ellipse rx="2.89266" ry="2.65308" transform="matrix(0.998259 0.05899 0.0701761 -0.997535 418.569 844.907)" fill="white"/>
<ellipse rx="2.89266" ry="2.65308" transform="matrix(0.998259 0.05899 0.0701761 -0.997535 592.39 929.59)" fill="white" fill-opacity="0.43"/>
<ellipse rx="2.89266" ry="2.65308" transform="matrix(0.998259 0.05899 0.0701761 -0.997535 533.143 782.58)" fill="white"/>
<ellipse rx="5.36037" ry="5.73514" transform="matrix(0.361364 -0.932425 -0.950883 -0.309551 1158.42 882.223)" fill="white"/>
<ellipse rx="2.68018" ry="2.86757" transform="matrix(0.361364 -0.932425 -0.950883 -0.309551 874.309 815.062)" fill="white"/>
<ellipse rx="2.68018" ry="2.86757" transform="matrix(0.996479 0.08384 0.0289252 -0.999582 1033.98 978.471)" fill="white" fill-opacity="0.43"/>
<ellipse rx="2.68018" ry="2.86757" transform="matrix(0.361364 -0.932425 -0.950883 -0.309551 890.1 932.775)" fill="white"/>
<ellipse rx="2.68018" ry="2.86757" transform="matrix(0.361364 -0.932425 -0.950883 -0.309551 1009.06 847.67)" fill="white"/>
<ellipse rx="5.63121" ry="5.46944" transform="matrix(-0.83967 -0.543097 -0.610097 0.792327 834.779 884.415)" fill="white"/>
<ellipse rx="2.81561" ry="2.73472" transform="matrix(-0.83967 -0.543097 -0.610097 0.792327 523.713 952.631)" fill="white"/>
<ellipse rx="2.81561" ry="2.73472" transform="matrix(-0.83967 -0.543097 -0.610097 0.792327 685.006 816.755)" fill="white" fill-opacity="0.43"/>
<ellipse rx="2.81561" ry="2.73472" transform="matrix(-0.83967 -0.543097 -0.610097 0.792327 780.396 794.06)" fill="white" fill-opacity="0.43"/>
<ellipse rx="5.3971" ry="5.70058" transform="matrix(0.462175 -0.886789 -0.916062 -0.401038 1226.66 853.396)" fill="white" fill-opacity="0.43"/>
<ellipse rx="5.3971" ry="5.70058" transform="matrix(0.981115 0.193428 0.126518 -0.991964 1058.5 991.544)" fill="white" fill-opacity="0.43"/>
<ellipse rx="2.69855" ry="2.85029" transform="matrix(0.462175 -0.886789 -0.916062 -0.401038 1146.57 927.08)" fill="white"/>
<ellipse rx="2.69855" ry="2.85029" transform="matrix(0.462175 -0.886789 -0.916062 -0.401038 1297 810.717)" fill="white" fill-opacity="0.43"/>
<ellipse rx="2.69855" ry="2.85029" transform="matrix(0.462175 -0.886789 -0.916062 -0.401038 1337.45 893.084)" fill="white" fill-opacity="0.43"/>
<ellipse rx="2.67065" ry="2.87645" transform="matrix(-0.294646 -0.955607 -0.968059 0.250725 1179.73 776.772)" fill="white"/>
<ellipse rx="5.78724" ry="5.30407" transform="matrix(-0.999998 0.00197257 0.00234832 0.999997 943.964 992.985)" fill="white" fill-opacity="0.43"/>
<ellipse rx="2.89362" ry="2.65204" transform="matrix(-0.999998 0.00197257 0.00234832 0.999997 801.118 805.858)" fill="white"/>
<ellipse rx="5.34073" ry="5.75343" transform="matrix(-0.292432 0.956286 0.968557 0.248792 1234.04 827.92)" fill="white"/>
<ellipse rx="2.67037" ry="2.87671" transform="matrix(-0.292432 0.956286 0.968557 0.248792 1328.79 783.402)" fill="white" fill-opacity="0.43"/>
<ellipse rx="2.67037" ry="2.87671" transform="matrix(-0.292432 0.956286 0.968557 0.248792 1497.99 760.764)" fill="white"/>
<ellipse rx="2.67037" ry="2.87671" transform="matrix(-0.292432 0.956286 0.968557 0.248792 1385.62 853.084)" fill="white"/>
<ellipse rx="5.56922" ry="5.53255" transform="matrix(0.762191 -0.647352 -0.711005 -0.703187 1347.47 905.722)" fill="white" fill-opacity="0.43"/>
<ellipse rx="5.56922" ry="5.53255" transform="matrix(0.762191 -0.647352 -0.711005 -0.703187 1192.08 900.305)" fill="white" fill-opacity="0.43"/>
<ellipse rx="2.78461" ry="2.76627" transform="matrix(0.762191 -0.647352 -0.711005 -0.703187 1430.03 889.836)" fill="white" fill-opacity="0.43"/>
<ellipse rx="2.78461" ry="2.76627" transform="matrix(0.762191 -0.647352 -0.711005 -0.703187 1272.88 828.058)" fill="white"/>
<ellipse rx="2.78461" ry="2.76627" transform="matrix(0.762191 -0.647352 -0.711005 -0.703187 1421.34 803.207)" fill="white"/>
<ellipse rx="2.66265" ry="2.88385" transform="matrix(0.223053 -0.974806 -0.982025 -0.18875 1384.7 881.492)" fill="white"/>
<ellipse rx="5.50757" ry="5.59393" transform="matrix(0.673274 -0.739393 -0.794293 -0.607535 1330.58 763.021)" fill="white"/>
<ellipse rx="2.75378" ry="2.79697" transform="matrix(0.673274 -0.739393 -0.794293 -0.607535 1253.84 818.319)" fill="white"/>
<ellipse rx="5.66911" ry="5.43015" transform="matrix(0.882574 0.470172 0.535579 -0.844485 1458.22 855.104)" fill="white" fill-opacity="0.43"/>
<ellipse rx="5.66911" ry="5.43015" transform="matrix(0.882574 0.470172 0.535579 -0.844485 1343.27 867.484)" fill="white"/>
<ellipse rx="2.83456" ry="2.71507" transform="matrix(0.882574 0.470172 0.535579 -0.844485 1646.58 774.467)" fill="white"/>
<ellipse rx="2.83456" ry="2.71507" transform="matrix(0.882574 0.470172 0.535579 -0.844485 1517.44 767.016)" fill="white"/>
<ellipse rx="2.83456" ry="2.71507" transform="matrix(0.882574 0.470172 0.535579 -0.844485 1406.11 953.106)" fill="white" fill-opacity="0.43"/>
<ellipse rx="2.83456" ry="2.71507" transform="matrix(0.882574 0.470172 0.535579 -0.844485 1270.89 807.454)" fill="white"/>
<ellipse rx="2.77893" ry="2.77199" transform="matrix(0.746805 -0.665043 -0.727442 -0.686169 1496.89 773.759)" fill="white"/>
<ellipse rx="5.34073" ry="5.75343" transform="matrix(-0.292432 0.956286 0.968557 0.248792 1738.26 857.596)" fill="white" fill-opacity="0.43"/>
<ellipse rx="5.34073" ry="5.75343" transform="matrix(-0.292432 0.956286 0.968557 0.248792 1696.39 758.702)" fill="white"/>
<ellipse rx="5.34073" ry="5.75343" transform="matrix(-0.292432 0.956286 0.968557 0.248792 1873.82 787.754)" fill="white" fill-opacity="0.43"/>
<ellipse rx="2.67037" ry="2.87671" transform="matrix(-0.292432 0.956286 0.968557 0.248792 1803.38 772.414)" fill="white"/>
<ellipse rx="2.67037" ry="2.87671" transform="matrix(-0.292432 0.956286 0.968557 0.248792 1846.15 888.061)" fill="white"/>
<ellipse rx="2.67037" ry="2.87671" transform="matrix(-0.292432 0.956286 0.968557 0.248792 1621.69 835.912)" fill="white" fill-opacity="0.43"/>
<ellipse rx="2.78461" ry="2.76627" transform="matrix(0.762191 -0.647352 -0.711005 -0.703187 1666.6 844.346)" fill="white"/>
<ellipse rx="2.78461" ry="2.76627" transform="matrix(0.762191 -0.647352 -0.711005 -0.703187 1769.49 930.505)" fill="white"/>
<ellipse rx="2.78628" ry="2.76459" transform="matrix(-0.766632 0.642087 0.706074 0.708138 525.002 919.915)" fill="white"/>
<ellipse rx="5.60982" ry="5.49138" transform="matrix(-0.814056 -0.580786 -0.647361 0.762183 327.877 858.266)" fill="white" fill-opacity="0.43"/>
<ellipse rx="5.60982" ry="5.49138" transform="matrix(-0.814056 -0.580786 -0.647361 0.762183 443.602 860.17)" fill="white"/>
<ellipse rx="2.80491" ry="2.74569" transform="matrix(-0.814056 -0.580786 -0.647361 0.762183 129.394 914.946)" fill="white"/>
<ellipse rx="2.80491" ry="2.74569" transform="matrix(-0.814056 -0.580786 -0.647361 0.762183 297.458 786.149)" fill="white" fill-opacity="0.43"/>
<ellipse rx="2.80491" ry="2.74569" transform="matrix(-0.814056 -0.580786 -0.647361 0.762183 205.575 807.979)" fill="white"/>
<ellipse rx="2.80491" ry="2.74569" transform="matrix(-0.814056 -0.580786 -0.647361 0.762183 393.905 767.578)" fill="white" fill-opacity="0.43"/>
<ellipse rx="2.80491" ry="2.74569" transform="matrix(-0.814056 -0.580786 -0.647361 0.762183 506.512 928.578)" fill="white"/>
<ellipse rx="2.81074" ry="2.73972" transform="matrix(-0.828149 0.560507 0.627419 0.778682 277.624 934.105)" fill="white"/>
<ellipse rx="5.32756" ry="5.76563" transform="matrix(-0.234494 0.972118 0.980083 0.198586 133.164 769.592)" fill="white"/>
<ellipse rx="2.66378" ry="2.88281" transform="matrix(-0.234494 0.972118 0.980083 0.198586 424.15 804.106)" fill="white"/>
<ellipse rx="2.66378" ry="2.88281" transform="matrix(-0.234494 0.972118 0.980083 0.198586 286.036 786.984)" fill="white"/>
<ellipse rx="5.42038" ry="5.67845" transform="matrix(0.515104 0.857128 0.892705 -0.450642 481.499 858.32)" fill="white" fill-opacity="0.43"/>
<ellipse rx="5.42038" ry="5.67845" transform="matrix(0.515104 0.857128 0.892705 -0.450642 376 814.694)" fill="white"/>
<ellipse rx="2.71019" ry="2.83923" transform="matrix(0.515104 0.857128 0.892705 -0.450642 462.801 755.737)" fill="white"/>
<ellipse rx="2.71019" ry="2.83923" transform="matrix(0.515104 0.857128 0.892705 -0.450642 478.382 935.587)" fill="white" fill-opacity="0.43"/>
<ellipse rx="2.71019" ry="2.83923" transform="matrix(0.515104 0.857128 0.892705 -0.450642 581.744 810.745)" fill="white"/>
<ellipse rx="2.71019" ry="2.83923" transform="matrix(0.515104 0.857128 0.892705 -0.450642 381.77 917.748)" fill="white" fill-opacity="0.43"/>
<ellipse rx="5.76309" ry="5.3303" transform="matrix(0.977703 -0.209992 -0.247724 -0.96883 657.934 804.938)" fill="white"/>
<ellipse rx="5.76309" ry="5.3303" transform="matrix(0.977703 -0.209992 -0.247724 -0.96883 900.838 801.796)" fill="#FFF2C9"/>
<ellipse rx="2.88155" ry="2.66515" transform="matrix(0.977703 -0.209992 -0.247724 -0.96883 767.765 827.652)" fill="white" fill-opacity="0.43"/>
<ellipse rx="2.88155" ry="2.66515" transform="matrix(0.977703 -0.209992 -0.247724 -0.96883 560.343 806.83)" fill="white"/>
<ellipse rx="5.52898" ry="5.57277" transform="matrix(-0.705764 -0.708447 -0.766908 0.641757 231.701 901.133)" fill="white"/>
<ellipse rx="5.4552" ry="5.64501" transform="matrix(0.584369 -0.811488 -0.85564 -0.517572 169.124 857.551)" fill="white"/>
<ellipse rx="2.7276" ry="2.8225" transform="matrix(0.584369 -0.811488 -0.85564 -0.517572 64.068 873.444)" fill="white" fill-opacity="0.43"/>
<ellipse rx="2.7276" ry="2.8225" transform="matrix(0.584369 -0.811488 -0.85564 -0.517572 33.1552 791.195)" fill="white"/>
<ellipse rx="5.70362" ry="5.3939" transform="matrix(-0.919199 0.393793 0.454338 0.890829 233.191 800.358)" fill="white" fill-opacity="0.43"/>
<ellipse rx="2.85181" ry="2.69695" transform="matrix(-0.919199 0.393793 0.454338 0.890829 132.179 846.558)" fill="white"/>
<ellipse rx="2.71301" ry="2.83654" transform="matrix(-0.527025 0.84985 0.886886 0.461988 43.4911 764.398)" fill="white"/>
<ellipse rx="5.7076" ry="5.38968" transform="matrix(0.923293 -0.384096 -0.443806 -0.896123 1681.62 767.27)" fill="white" fill-opacity="0.43"/>
<ellipse rx="5.7076" ry="5.38968" transform="matrix(0.923293 -0.384096 -0.443806 -0.896123 1863.6 813.89)" fill="white"/>
<ellipse rx="2.8538" ry="2.69484" transform="matrix(0.923293 -0.384096 -0.443806 -0.896123 1568.58 776.431)" fill="white"/>
<ellipse rx="2.8538" ry="2.69484" transform="matrix(0.923293 -0.384096 -0.443806 -0.896123 1765.43 776.091)" fill="white" fill-opacity="0.43"/>
<ellipse rx="2.8538" ry="2.69484" transform="matrix(0.923293 -0.384096 -0.443806 -0.896123 1738.56 862.993)" fill="white" fill-opacity="0.43"/>
<ellipse rx="5.46049" ry="5.63989" transform="matrix(0.594074 0.804411 0.849769 -0.527155 1726.78 854.11)" fill="white" fill-opacity="0.43"/>
<ellipse rx="2.73024" ry="2.81995" transform="matrix(0.594074 0.804411 0.849769 -0.527155 1792.43 938.276)" fill="white"/>
<ellipse rx="5.74075" ry="5.35435" transform="matrix(0.95636 -0.29219 -0.341814 -0.939768 1867.72 926.108)" fill="white"/>
<ellipse rx="5.74075" ry="5.35435" transform="matrix(0.95636 -0.29219 -0.341814 -0.939768 1794.51 775.153)" fill="white" fill-opacity="0.43"/>
<ellipse rx="2.87038" ry="2.67718" transform="matrix(0.95636 -0.29219 -0.341814 -0.939768 1820.14 837.213)" fill="white"/>
<ellipse rx="2.87038" ry="2.67718" transform="matrix(0.95636 -0.29219 -0.341814 -0.939768 1770.73 936.174)" fill="#FFF2C9"/>
</g>
<mask id="mask0" mask-type="alpha" maskUnits="userSpaceOnUse" x="18" y="1" width="1873" height="461">
<ellipse rx="2.89266" ry="2.65308" transform="matrix(0.998259 0.05899 0.0701761 -0.997535 644.372 445.477)" fill="white"/>
<ellipse rx="5.63121" ry="5.46944" transform="matrix(-0.83967 -0.543097 -0.610097 0.792327 662.949 429.024)" fill="white"/>
<ellipse rx="2.69855" ry="2.85029" transform="matrix(0.462175 -0.886789 -0.916062 -0.401038 1115.74 396.842)" fill="white"/>
<ellipse rx="2.69855" ry="2.85029" transform="matrix(0.462175 -0.886789 -0.916062 -0.401038 1246.06 442.136)" fill="white"/>
<ellipse rx="5.3413" ry="5.7529" transform="matrix(-0.294646 -0.955607 -0.968059 0.250725 1073.25 332.147)" fill="white" fill-opacity="0.43"/>
<ellipse rx="5.3413" ry="5.7529" transform="matrix(-0.294646 -0.955607 -0.968059 0.250725 1165.26 396.505)" fill="white"/>
<ellipse rx="5.3413" ry="5.7529" transform="matrix(-0.294646 -0.955607 -0.968059 0.250725 997.339 456.532)" fill="white" fill-opacity="0.43"/>
<ellipse rx="5.3413" ry="5.7529" transform="matrix(-0.294646 -0.955607 -0.968059 0.250725 1150.86 174.253)" fill="white"/>
<ellipse rx="2.67065" ry="2.87645" transform="matrix(-0.294646 -0.955607 -0.968059 0.250725 876.696 270.061)" fill="white"/>
<ellipse rx="2.67065" ry="2.87645" transform="matrix(-0.294646 -0.955607 -0.968059 0.250725 1066.16 435.949)" fill="white"/>
<ellipse rx="2.67065" ry="2.87645" transform="matrix(-0.294646 -0.955607 -0.968059 0.250725 1095.35 257.528)" fill="white" fill-opacity="0.43"/>
<ellipse rx="2.67065" ry="2.87645" transform="matrix(-0.294646 -0.955607 -0.968059 0.250725 963.864 357.721)" fill="white"/>
<ellipse rx="2.67065" ry="2.87645" transform="matrix(-0.294646 -0.955607 -0.968059 0.250725 1007.21 225.237)" fill="white"/>
<ellipse rx="2.67065" ry="2.87645" transform="matrix(-0.294646 -0.955607 -0.968059 0.250725 1185.05 294.922)" fill="white" fill-opacity="0.43"/>
<ellipse rx="5.78724" ry="5.30407" transform="matrix(-0.999998 0.00197257 0.00234832 0.999997 795.767 411.425)" fill="white" fill-opacity="0.43"/>
<ellipse rx="5.78724" ry="5.30407" transform="matrix(-0.999998 0.00197257 0.00234832 0.999997 888.217 347.595)" fill="white"/>
<ellipse rx="5.78724" ry="5.30407" transform="matrix(-0.999998 0.00197257 0.00234832 0.999997 650.826 300.325)" fill="white"/>
<ellipse rx="2.89362" ry="2.65204" transform="matrix(-0.999998 0.00197257 0.00234832 0.999997 902.914 445.691)" fill="white"/>
<ellipse rx="2.89362" ry="2.65204" transform="matrix(-0.999998 0.00197257 0.00234832 0.999997 723.338 371.787)" fill="white" fill-opacity="0.43"/>
<ellipse rx="2.89362" ry="2.65204" transform="matrix(-0.999998 0.00197257 0.00234832 0.999997 665.623 440.854)" fill="#FFF2C9"/>
<ellipse rx="2.89362" ry="2.65204" transform="matrix(-0.999998 0.00197257 0.00234832 0.999997 786.832 302.708)" fill="white" fill-opacity="0.43"/>
<ellipse rx="2.89362" ry="2.65204" transform="matrix(-0.999998 0.00197257 0.00234832 0.999997 983.751 365.969)" fill="white"/>
<ellipse rx="5.78725" ry="5.30407" transform="matrix(-1 0 0 1 1374.33 173.011)" fill="white" fill-opacity="0.43"/>
<ellipse rx="5.78725" ry="5.30407" transform="matrix(-1 0 0 1 1466.93 109.361)" fill="white"/>
<ellipse rx="5.78725" ry="5.30407" transform="matrix(-1 0 0 1 1484.29 273.787)" fill="white" fill-opacity="0.43"/>
<ellipse rx="5.78725" ry="5.30407" transform="matrix(-1 0 0 1 1229.65 61.6239)" fill="white"/>
<ellipse rx="2.89362" ry="2.65203" transform="matrix(-1 0 0 1 1255.69 329.48)" fill="white"/>
<ellipse rx="2.89362" ry="2.65203" transform="matrix(-1 0 0 1 1481.39 207.487)" fill="white"/>
<ellipse rx="2.89362" ry="2.65203" transform="matrix(-1 0 0 1 1301.99 133.229)" fill="white" fill-opacity="0.43"/>
<ellipse rx="2.89362" ry="2.65203" transform="matrix(-1 0 0 1 1371.44 276.439)" fill="white"/>
<ellipse rx="2.89362" ry="2.65203" transform="matrix(-1 0 0 1 1244.12 202.182)" fill="white"/>
<ellipse rx="2.89362" ry="2.65203" transform="matrix(-1 0 0 1 1365.65 64.2756)" fill="white" fill-opacity="0.43"/>
<ellipse rx="2.89362" ry="2.65203" transform="matrix(-1 0 0 1 1562.42 127.924)" fill="white"/>
<ellipse rx="5.34073" ry="5.75343" transform="matrix(-0.292432 0.956286 0.968557 0.248792 1382.12 439.297)" fill="white" fill-opacity="0.43"/>
<ellipse rx="5.34073" ry="5.75343" transform="matrix(-0.292432 0.956286 0.968557 0.248792 1340.23 340.403)" fill="white"/>
<ellipse rx="5.34073" ry="5.75343" transform="matrix(-0.292432 0.956286 0.968557 0.248792 1517.66 369.456)" fill="white" fill-opacity="0.43"/>
<ellipse rx="2.67037" ry="2.87671" transform="matrix(-0.292432 0.956286 0.968557 0.248792 1447.23 354.117)" fill="white"/>
<ellipse rx="2.67037" ry="2.87671" transform="matrix(-0.292432 0.956286 0.968557 0.248792 1265.53 417.614)" fill="white" fill-opacity="0.43"/>
<ellipse rx="2.67037" ry="2.87671" transform="matrix(-0.292432 0.956286 0.968557 0.248792 1385.51 261.144)" fill="white"/>
<ellipse rx="2.78461" ry="2.76627" transform="matrix(0.762191 -0.647352 -0.711005 -0.703187 1310.44 426.049)" fill="white"/>
<ellipse rx="5.31465" ry="5.77753" transform="matrix(-0.157654 0.987494 0.991127 0.132916 628.701 105.372)" fill="white" fill-opacity="0.43"/>
<ellipse rx="5.31465" ry="5.77753" transform="matrix(-0.157654 0.987494 0.991127 0.132916 487.506 220.451)" fill="white"/>
<ellipse rx="2.65732" ry="2.88877" transform="matrix(-0.157654 0.987494 0.991127 0.132916 780.451 235.612)" fill="white"/>
<ellipse rx="2.65732" ry="2.88877" transform="matrix(-0.157654 0.987494 0.991127 0.132916 575.282 165.215)" fill="white" fill-opacity="0.43"/>
<ellipse rx="2.65732" ry="2.88877" transform="matrix(-0.157654 0.987494 0.991127 0.132916 739.948 122.969)" fill="white"/>
<ellipse rx="2.65732" ry="2.88877" transform="matrix(-0.157654 0.987494 0.991127 0.132916 641.345 227.677)" fill="white"/>
<ellipse rx="2.65732" ry="2.88877" transform="matrix(-0.157654 0.987494 0.991127 0.132916 510.057 97.5007)" fill="white" fill-opacity="0.43"/>
<ellipse rx="5.71025" ry="5.38687" transform="matrix(0.926 0.377524 0.436642 -0.899635 917.317 136.867)" fill="white" fill-opacity="0.43"/>
<ellipse rx="5.71025" ry="5.38687" transform="matrix(0.926 0.377524 0.436642 -0.899635 804.485 160.528)" fill="white"/>
<ellipse rx="5.71025" ry="5.38687" transform="matrix(0.926 0.377524 0.436642 -0.899635 1000.11 292.531)" fill="white"/>
<ellipse rx="2.85512" ry="2.69344" transform="matrix(0.926 0.377524 0.436642 -0.899635 1095.1 38.0976)" fill="white"/>
<ellipse rx="2.85512" ry="2.69344" transform="matrix(0.926 0.377524 0.436642 -0.899635 834.78 65.4858)" fill="white"/>
<ellipse rx="2.85512" ry="2.69344" transform="matrix(0.926 0.377524 0.436642 -0.899635 965.769 200.162)" fill="white" fill-opacity="0.43"/>
<ellipse rx="2.85512" ry="2.69344" transform="matrix(0.926 0.377524 0.436642 -0.899635 965.824 43.4433)" fill="white"/>
<ellipse rx="2.85512" ry="2.69344" transform="matrix(0.926 0.377524 0.436642 -0.899635 1049.23 158.717)" fill="white"/>
<ellipse rx="2.85512" ry="2.69344" transform="matrix(0.926 0.377524 0.436642 -0.899635 877.028 239.448)" fill="white" fill-opacity="0.43"/>
<ellipse rx="2.85512" ry="2.69344" transform="matrix(0.926 0.377524 0.436642 -0.899635 725.472 107.997)" fill="white"/>
<ellipse rx="5.50757" ry="5.59393" transform="matrix(0.673274 -0.739393 -0.794293 -0.607535 1328.59 366.083)" fill="white" fill-opacity="0.43"/>
<ellipse rx="5.50757" ry="5.59393" transform="matrix(0.673274 -0.739393 -0.794293 -0.607535 1173.71 378.883)" fill="white" fill-opacity="0.43"/>
<ellipse rx="5.50757" ry="5.59393" transform="matrix(0.673274 -0.739393 -0.794293 -0.607535 1514.59 335.645)" fill="white"/>
<ellipse rx="2.75378" ry="2.79697" transform="matrix(0.673274 -0.739393 -0.794293 -0.607535 1273.53 182.346)" fill="white"/>
<ellipse rx="2.75378" ry="2.79697" transform="matrix(0.673274 -0.739393 -0.794293 -0.607535 1231.1 419.331)" fill="white"/>
<ellipse rx="2.75378" ry="2.79697" transform="matrix(0.673274 -0.739393 -0.794293 -0.607535 1408.26 340.669)" fill="white" fill-opacity="0.43"/>
<ellipse rx="2.75378" ry="2.79697" transform="matrix(0.673274 -0.739393 -0.794293 -0.607535 1243.8 297.776)" fill="white"/>
<ellipse rx="2.75378" ry="2.79697" transform="matrix(0.673274 -0.739393 -0.794293 -0.607535 1387.58 255.764)" fill="white"/>
<ellipse rx="2.75378" ry="2.79697" transform="matrix(0.673274 -0.739393 -0.794293 -0.607535 1425.24 429.644)" fill="white" fill-opacity="0.43"/>
<ellipse rx="5.46371" ry="5.63677" transform="matrix(-0.599897 -0.800078 -0.846159 0.532931 1100.53 200.939)" fill="white" fill-opacity="0.43"/>
<ellipse rx="5.46371" ry="5.63677" transform="matrix(-0.599897 -0.800078 -0.846159 0.532931 1210.21 234.833)" fill="white"/>
<ellipse rx="5.46371" ry="5.63677" transform="matrix(-0.599897 -0.800078 -0.846159 0.532931 1072.18 341.071)" fill="white" fill-opacity="0.43"/>
<ellipse rx="2.73186" ry="2.81839" transform="matrix(-0.599897 -0.800078 -0.846159 0.532931 892.635 199.944)" fill="white"/>
<ellipse rx="2.73186" ry="2.81839" transform="matrix(-0.599897 -0.800078 -0.846159 0.532931 1130.16 301.336)" fill="white"/>
<ellipse rx="2.73186" ry="2.81839" transform="matrix(-0.599897 -0.800078 -0.846159 0.532931 1095.33 123.766)" fill="white" fill-opacity="0.43"/>
<ellipse rx="2.73186" ry="2.81839" transform="matrix(-0.599897 -0.800078 -0.846159 0.532931 1005.88 257.33)" fill="white"/>
<ellipse rx="2.73186" ry="2.81839" transform="matrix(-0.599897 -0.800078 -0.846159 0.532931 1000.55 119.104)" fill="white"/>
<ellipse rx="2.73186" ry="2.81839" transform="matrix(-0.599897 -0.800078 -0.846159 0.532931 1193.39 132.799)" fill="white" fill-opacity="0.43"/>
<ellipse rx="2.73186" ry="2.81839" transform="matrix(-0.599897 -0.800078 -0.846159 0.532931 1247.6 317.475)" fill="white"/>
<ellipse rx="5.66911" ry="5.43015" transform="matrix(0.882574 0.470172 0.535579 -0.844485 1410.42 426.332)" fill="white" fill-opacity="0.43"/>
<ellipse rx="5.55785" ry="5.54397" transform="matrix(0.746805 -0.665043 -0.727442 -0.686169 1589.5 330.299)" fill="white" fill-opacity="0.43"/>
<ellipse rx="5.55785" ry="5.54397" transform="matrix(0.746805 -0.665043 -0.727442 -0.686169 1571.49 435.086)" fill="white"/>
<ellipse rx="5.55785" ry="5.54397" transform="matrix(0.746805 -0.665043 -0.727442 -0.686169 1434.01 328.248)" fill="white" fill-opacity="0.43"/>
<ellipse rx="5.55785" ry="5.54397" transform="matrix(0.746805 -0.665043 -0.727442 -0.686169 1777.96 317.778)" fill="white"/>
<ellipse rx="2.77893" ry="2.77199" transform="matrix(0.746805 -0.665043 -0.727442 -0.686169 1555.62 142.304)" fill="white"/>
<ellipse rx="2.77893" ry="2.77199" transform="matrix(0.746805 -0.665043 -0.727442 -0.686169 1486.5 373.951)" fill="white"/>
<ellipse rx="2.77893" ry="2.77199" transform="matrix(0.746805 -0.665043 -0.727442 -0.686169 1671.63 312.625)" fill="white" fill-opacity="0.43"/>
<ellipse rx="2.77893" ry="2.77199" transform="matrix(0.746805 -0.665043 -0.727442 -0.686169 1512.94 254.269)" fill="white"/>
<ellipse rx="2.77893" ry="2.77199" transform="matrix(0.746805 -0.665043 -0.727442 -0.686169 1660.71 226.212)" fill="white"/>
<ellipse rx="2.77893" ry="2.77199" transform="matrix(0.746805 -0.665043 -0.727442 -0.686169 1678.4 402.737)" fill="white" fill-opacity="0.43"/>
<ellipse rx="5.30719" ry="5.78438" transform="matrix(0.0857861 -0.996314 -0.997395 -0.0721377 1540.24 68.1193)" fill="white" fill-opacity="0.43"/>
<ellipse rx="5.30719" ry="5.78438" transform="matrix(0.0857861 -0.996314 -0.997395 -0.0721377 1602.19 157.728)" fill="#FFF2C9"/>
<ellipse rx="5.30719" ry="5.78438" transform="matrix(0.0857861 -0.996314 -0.997395 -0.0721377 1421.98 160.655)" fill="white" fill-opacity="0.43"/>
<ellipse rx="2.6536" ry="2.89219" transform="matrix(0.0857861 -0.996314 -0.997395 -0.0721377 1494.32 163.229)" fill="white"/>
<ellipse rx="2.6536" ry="2.89219" transform="matrix(0.0857861 -0.996314 -0.997395 -0.0721377 1427.97 57.339)" fill="white"/>
<ellipse rx="2.6536" ry="2.89219" transform="matrix(0.0857861 -0.996314 -0.997395 -0.0721377 1659.2 68.7418)" fill="white" fill-opacity="0.43"/>
<ellipse rx="2.6536" ry="2.89219" transform="matrix(0.0857861 -0.996314 -0.997395 -0.0721377 1574.49 243.514)" fill="white"/>
<ellipse rx="5.73194" ry="5.36379" transform="matrix(-0.947739 -0.319047 -0.372004 0.928231 1249.99 54.2809)" fill="white" fill-opacity="0.43"/>
<ellipse rx="5.73194" ry="5.36379" transform="matrix(-0.947739 -0.319047 -0.372004 0.928231 1360.85 23.7951)" fill="white"/>
<ellipse rx="5.73194" ry="5.36379" transform="matrix(-0.947739 -0.319047 -0.372004 0.928231 1315.29 183.624)" fill="white" fill-opacity="0.43"/>
<ellipse rx="2.86597" ry="2.68189" transform="matrix(-0.947739 -0.319047 -0.372004 0.928231 1079.76 163.667)" fill="white"/>
<ellipse rx="2.86597" ry="2.68189" transform="matrix(-0.947739 -0.319047 -0.372004 0.928231 1337.52 120.474)" fill="white"/>
<ellipse rx="2.86597" ry="2.68189" transform="matrix(-0.947739 -0.319047 -0.372004 0.928231 1208.36 150.453)" fill="white"/>
<ellipse rx="2.86597" ry="2.68189" transform="matrix(-0.947739 -0.319047 -0.372004 0.928231 1116.78 40.5179)" fill="white"/>
<ellipse rx="2.86597" ry="2.68189" transform="matrix(-0.947739 -0.319047 -0.372004 0.928231 1443.5 71.3953)" fill="white"/>
<ellipse rx="5.78725" ry="5.30407" transform="matrix(-1 0 0 1 1722.48 300.308)" fill="white" fill-opacity="0.43"/>
<ellipse rx="5.78725" ry="5.30407" transform="matrix(-1 0 0 1 1815.08 236.659)" fill="white"/>
<ellipse rx="5.78725" ry="5.30407" transform="matrix(-1 0 0 1 1832.44 401.085)" fill="white" fill-opacity="0.43"/>
<ellipse rx="5.78725" ry="5.30407" transform="matrix(-1 0 0 1 1577.8 188.921)" fill="white"/>
<ellipse rx="2.89362" ry="2.65203" transform="matrix(-1 0 0 1 1829.55 334.783)" fill="white"/>
<ellipse rx="2.89362" ry="2.65203" transform="matrix(-1 0 0 1 1650.14 260.527)" fill="white" fill-opacity="0.43"/>
<ellipse rx="2.89362" ry="2.65203" transform="matrix(-1 0 0 1 1719.59 403.737)" fill="white"/>
<ellipse rx="2.89362" ry="2.65203" transform="matrix(-1 0 0 1 1592.27 329.48)" fill="white"/>
<ellipse rx="2.89362" ry="2.65203" transform="matrix(-1 0 0 1 1713.8 191.574)" fill="white" fill-opacity="0.43"/>
<ellipse rx="2.67037" ry="2.87671" transform="matrix(-0.292432 0.956286 0.968557 0.248792 1733.66 388.442)" fill="white"/>
<ellipse rx="5.60982" ry="5.49138" transform="matrix(-0.814056 -0.580786 -0.647361 0.762183 280.362 397.92)" fill="white"/>
<ellipse rx="5.39376" ry="5.70374" transform="matrix(-0.454011 -0.890996 -0.919328 0.393492 1212.52 76.8302)" fill="white" fill-opacity="0.43"/>
<ellipse rx="5.39376" ry="5.70374" transform="matrix(-0.454011 -0.890996 -0.919328 0.393492 1314.63 126.791)" fill="white"/>
<ellipse rx="5.39376" ry="5.70374" transform="matrix(-0.454011 -0.890996 -0.919328 0.393492 1159.42 210.783)" fill="white" fill-opacity="0.43"/>
<ellipse rx="2.69688" ry="2.85187" transform="matrix(-0.454011 -0.890996 -0.919328 0.393492 1007.63 44.5196)" fill="white"/>
<ellipse rx="2.69688" ry="2.85187" transform="matrix(-0.454011 -0.890996 -0.919328 0.393492 1223.74 180.327)" fill="white"/>
<ellipse rx="2.69688" ry="2.85187" transform="matrix(-0.454011 -0.890996 -0.919328 0.393492 1109.05 118.191)" fill="white"/>
<ellipse rx="2.69688" ry="2.85187" transform="matrix(-0.454011 -0.890996 -0.919328 0.393492 1316.34 23.6114)" fill="white" fill-opacity="0.43"/>
<ellipse rx="2.69688" ry="2.85187" transform="matrix(-0.454011 -0.890996 -0.919328 0.393492 1336.68 213.942)" fill="white"/>
<ellipse rx="5.77494" ry="5.31746" transform="matrix(-0.988741 0.149639 0.177318 0.984154 952.563 195.97)" fill="white" fill-opacity="0.43"/>
<ellipse rx="5.77494" ry="5.31746" transform="matrix(-0.988741 0.149639 0.177318 0.984154 1032.61 119.346)" fill="white"/>
<ellipse rx="5.77494" ry="5.31746" transform="matrix(-0.988741 0.149639 0.177318 0.984154 1078.97 278.981)" fill="white" fill-opacity="0.43"/>
<ellipse rx="5.77494" ry="5.31746" transform="matrix(-0.988741 0.149639 0.177318 0.984154 790.014 107.675)" fill="white"/>
<ellipse rx="2.88747" ry="2.65873" transform="matrix(-0.988741 0.149639 0.177318 0.984154 863.321 368.064)" fill="white"/>
<ellipse rx="2.88747" ry="2.65873" transform="matrix(-0.988741 0.149639 0.177318 0.984154 1064.32 213.999)" fill="white"/>
<ellipse rx="2.88747" ry="2.65873" transform="matrix(-0.988741 0.149639 0.177318 0.984154 874.118 167.522)" fill="white" fill-opacity="0.43"/>
<ellipse rx="2.88747" ry="2.65873" transform="matrix(-0.988741 0.149639 0.177318 0.984154 968.094 298.45)" fill="white"/>
<ellipse rx="2.88747" ry="2.65873" transform="matrix(-0.988741 0.149639 0.177318 0.984154 829.274 244.195)" fill="white"/>
<ellipse rx="2.88747" ry="2.65873" transform="matrix(-0.988741 0.149639 0.177318 0.984154 924.666 89.9852)" fill="white" fill-opacity="0.43"/>
<ellipse rx="2.88747" ry="2.65873" transform="matrix(-0.988741 0.149639 0.177318 0.984154 1130.12 123.402)" fill="white"/>
<ellipse rx="5.31052" ry="5.78133" transform="matrix(-0.123159 0.992387 0.99461 0.103684 471.529 211.779)" fill="white" fill-opacity="0.43"/>
<ellipse rx="5.31052" ry="5.78133" transform="matrix(-0.123159 0.992387 0.99461 0.103684 412.99 120.265)" fill="white"/>
<ellipse rx="5.31052" ry="5.78133" transform="matrix(-0.123159 0.992387 0.99461 0.103684 593.208 123.037)" fill="white" fill-opacity="0.43"/>
<ellipse rx="5.31052" ry="5.78133" transform="matrix(-0.123159 0.992387 0.99461 0.103684 334.419 330.942)" fill="white"/>
<ellipse rx="2.65526" ry="2.89066" transform="matrix(-0.123159 0.992387 0.99461 0.103684 627.751 337.5)" fill="white"/>
<ellipse rx="2.65526" ry="2.89066" transform="matrix(-0.123159 0.992387 0.99461 0.103684 521 118.178)" fill="white"/>
<ellipse rx="2.65526" ry="2.89066" transform="matrix(-0.123159 0.992387 0.99461 0.103684 420.227 273.16)" fill="white" fill-opacity="0.43"/>
<ellipse rx="2.65526" ry="2.89066" transform="matrix(-0.123159 0.992387 0.99461 0.103684 583.327 226.103)" fill="white"/>
<ellipse rx="2.65526" ry="2.89066" transform="matrix(-0.123159 0.992387 0.99461 0.103684 488.436 333.653)" fill="white"/>
<ellipse rx="2.65526" ry="2.89066" transform="matrix(-0.123159 0.992387 0.99461 0.103684 352.666 207.397)" fill="white" fill-opacity="0.43"/>
<ellipse rx="5.72107" ry="5.37538" transform="matrix(0.936942 0.349485 0.405844 -0.913942 761.09 234.786)" fill="#FFF2C9"/>
<ellipse rx="5.72107" ry="5.37538" transform="matrix(0.936942 0.349485 0.405844 -0.913942 649.147 261.749)" fill="white"/>
<ellipse rx="5.72107" ry="5.37538" transform="matrix(0.936942 0.349485 0.405844 -0.913942 700.692 103.454)" fill="white" fill-opacity="0.43"/>
<ellipse rx="5.72107" ry="5.37538" transform="matrix(0.936942 0.349485 0.405844 -0.913942 849.284 387.942)" fill="white"/>
<ellipse rx="2.86054" ry="2.68769" transform="matrix(0.936942 0.349485 0.405844 -0.913942 935.337 130.849)" fill="white"/>
<ellipse rx="2.86054" ry="2.68769" transform="matrix(0.936942 0.349485 0.405844 -0.913942 676.108 165.865)" fill="white"/>
<ellipse rx="2.86054" ry="2.68769" transform="matrix(0.936942 0.349485 0.405844 -0.913942 811.736 296.626)" fill="white" fill-opacity="0.43"/>
<ellipse rx="2.86054" ry="2.68769" transform="matrix(0.936942 0.349485 0.405844 -0.913942 806.31 139.987)" fill="white"/>
<ellipse rx="2.86054" ry="2.68769" transform="matrix(0.936942 0.349485 0.405844 -0.913942 893.698 252.753)" fill="white"/>
<ellipse rx="2.86054" ry="2.68769" transform="matrix(0.936942 0.349485 0.405844 -0.913942 724.408 338.498)" fill="white" fill-opacity="0.43"/>
<ellipse rx="2.86054" ry="2.68769" transform="matrix(0.936942 0.349485 0.405844 -0.913942 568.337 211.564)" fill="white"/>
<ellipse rx="5.78581" ry="5.30563" transform="matrix(-0.998698 0.051015 0.0606998 0.998156 251.126 107.682)" fill="white" fill-opacity="0.43"/>
<ellipse rx="5.78581" ry="5.30563" transform="matrix(-0.998698 0.051015 0.0606998 0.998156 367.032 202.694)" fill="white" fill-opacity="0.43"/>
<ellipse rx="2.89291" ry="2.65282" transform="matrix(-0.998698 0.051015 0.0606998 0.998156 142.17 269.96)" fill="white"/>
<ellipse rx="2.89291" ry="2.65282" transform="matrix(-0.998698 0.051015 0.0606998 0.998156 360.117 136.644)" fill="white"/>
<ellipse rx="2.89291" ry="2.65282" transform="matrix(-0.998698 0.051015 0.0606998 0.998156 176.482 71.6515)" fill="white" fill-opacity="0.43"/>
<ellipse rx="2.89291" ry="2.65282" transform="matrix(-0.998698 0.051015 0.0606998 0.998156 254.518 211.098)" fill="white"/>
<ellipse rx="2.89291" ry="2.65282" transform="matrix(-0.998698 0.051015 0.0606998 0.998156 122.884 143.451)" fill="white"/>
<ellipse rx="2.89291" ry="2.65282" transform="matrix(-0.998698 0.051015 0.0606998 0.998156 436.181 53.0738)" fill="white"/>
<ellipse rx="5.32756" ry="5.76563" transform="matrix(-0.234494 0.972118 0.980083 0.198586 275.065 373.16)" fill="white" fill-opacity="0.43"/>
<ellipse rx="5.32756" ry="5.76563" transform="matrix(-0.234494 0.972118 0.980083 0.198586 227.244 276.555)" fill="white"/>
<ellipse rx="5.32756" ry="5.76563" transform="matrix(-0.234494 0.972118 0.980083 0.198586 406.169 296.513)" fill="white" fill-opacity="0.43"/>
<ellipse rx="2.66378" ry="2.88281" transform="matrix(-0.234494 0.972118 0.980083 0.198586 334.904 284.791)" fill="white"/>
<ellipse rx="2.66378" ry="2.88281" transform="matrix(-0.234494 0.972118 0.980083 0.198586 217.068 429.309)" fill="white" fill-opacity="0.43"/>
<ellipse rx="2.66378" ry="2.88281" transform="matrix(-0.234494 0.972118 0.980083 0.198586 384.626 398.076)" fill="white"/>
<ellipse rx="2.66378" ry="2.88281" transform="matrix(-0.234494 0.972118 0.980083 0.198586 157.348 357.455)" fill="white" fill-opacity="0.43"/>
<ellipse rx="2.66378" ry="2.88281" transform="matrix(-0.234494 0.972118 0.980083 0.198586 267.632 195.109)" fill="white"/>
<ellipse rx="5.42038" ry="5.67845" transform="matrix(0.515104 0.857128 0.892705 -0.450642 516.767 430.428)" fill="white" fill-opacity="0.43"/>
<ellipse rx="2.71019" ry="2.83923" transform="matrix(0.515104 0.857128 0.892705 -0.450642 339.671 438.079)" fill="white"/>
<ellipse rx="5.76309" ry="5.3303" transform="matrix(0.977703 -0.209992 -0.247724 -0.96883 724.243 432.603)" fill="white" fill-opacity="0.43"/>
<ellipse rx="5.76309" ry="5.3303" transform="matrix(0.977703 -0.209992 -0.247724 -0.96883 592.095 357.479)" fill="white" fill-opacity="0.43"/>
<ellipse rx="2.88155" ry="2.66515" transform="matrix(0.977703 -0.209992 -0.247724 -0.96883 800.801 255.452)" fill="white"/>
<ellipse rx="2.88155" ry="2.66515" transform="matrix(0.977703 -0.209992 -0.247724 -0.96883 611.423 421.426)" fill="white"/>
<ellipse rx="2.88155" ry="2.66515" transform="matrix(0.977703 -0.209992 -0.247724 -0.96883 701.312 331.299)" fill="white"/>
<ellipse rx="2.88155" ry="2.66515" transform="matrix(0.977703 -0.209992 -0.247724 -0.96883 843.757 376.972)" fill="white"/>
<ellipse rx="5.31661" ry="5.77572" transform="matrix(-0.171628 0.985162 0.989462 0.144795 1596.25 103.369)" fill="white" fill-opacity="0.43"/>
<ellipse rx="5.31661" ry="5.77572" transform="matrix(-0.171628 0.985162 0.989462 0.144795 1453.43 216.75)" fill="white"/>
<ellipse rx="2.65831" ry="2.88786" transform="matrix(-0.171628 0.985162 0.989462 0.144795 1746.13 235.412)" fill="white"/>
<ellipse rx="2.65831" ry="2.88786" transform="matrix(-0.171628 0.985162 0.989462 0.144795 1541.98 162.567)" fill="white" fill-opacity="0.43"/>
<ellipse rx="2.65831" ry="2.88786" transform="matrix(-0.171628 0.985162 0.989462 0.144795 1707.23 122.296)" fill="white"/>
<ellipse rx="2.65831" ry="2.88786" transform="matrix(-0.171628 0.985162 0.989462 0.144795 1607.15 225.815)" fill="white"/>
<ellipse rx="2.65831" ry="2.88786" transform="matrix(-0.171628 0.985162 0.989462 0.144795 1477.73 94.081)" fill="white" fill-opacity="0.43"/>
<ellipse rx="5.70565" ry="5.39175" transform="matrix(0.921292 0.388872 0.448999 -0.893532 1884.39 138.313)" fill="white" fill-opacity="0.43"/>
<ellipse rx="5.70565" ry="5.39175" transform="matrix(0.921292 0.388872 0.448999 -0.893532 1771.23 160.625)" fill="white"/>
<ellipse rx="2.85283" ry="2.69587" transform="matrix(0.921292 0.388872 0.448999 -0.893532 1802.88 65.9476)" fill="white"/>
<ellipse rx="2.85283" ry="2.69587" transform="matrix(0.921292 0.388872 0.448999 -0.893532 1842.65 240.401)" fill="white" fill-opacity="0.43"/>
<ellipse rx="2.85283" ry="2.69587" transform="matrix(0.921292 0.388872 0.448999 -0.893532 1692.97 107.152)" fill="white"/>
<ellipse rx="5.51479" ry="5.58681" transform="matrix(-0.684448 -0.729062 -0.785221 0.619216 294.183 281.651)" fill="white" fill-opacity="0.43"/>
<ellipse rx="5.51479" ry="5.58681" transform="matrix(-0.684448 -0.729062 -0.785221 0.619216 407.217 304.468)" fill="white"/>
<ellipse rx="5.51479" ry="5.58681" transform="matrix(-0.684448 -0.729062 -0.785221 0.619216 282.546 423.773)" fill="white" fill-opacity="0.43"/>
<ellipse rx="5.51479" ry="5.58681" transform="matrix(-0.684448 -0.729062 -0.785221 0.619216 291.94 108.486)" fill="white"/>
<ellipse rx="2.75739" ry="2.79341" transform="matrix(-0.684448 -0.729062 -0.785221 0.619216 87.3873 301.281)" fill="white"/>
<ellipse rx="2.75739" ry="2.79341" transform="matrix(-0.684448 -0.729062 -0.785221 0.619216 335.494 378.518)" fill="white"/>
<ellipse rx="2.75739" ry="2.79341" transform="matrix(-0.684448 -0.729062 -0.785221 0.619216 279.9 205.448)" fill="white" fill-opacity="0.43"/>
<ellipse rx="2.75739" ry="2.79341" transform="matrix(-0.684448 -0.729062 -0.785221 0.619216 206.75 347.101)" fill="white"/>
<ellipse rx="2.75739" ry="2.79341" transform="matrix(-0.684448 -0.729062 -0.785221 0.619216 185.124 210.213)" fill="white"/>
<ellipse rx="2.75739" ry="2.79341" transform="matrix(-0.684448 -0.729062 -0.785221 0.619216 378.45 204.701)" fill="white" fill-opacity="0.43"/>
<ellipse rx="2.75739" ry="2.79341" transform="matrix(-0.684448 -0.729062 -0.785221 0.619216 454.143 382.917)" fill="white"/>
<ellipse rx="5.70362" ry="5.3939" transform="matrix(-0.919199 0.393793 0.454338 0.890829 133.494 367.138)" fill="white"/>
<ellipse rx="2.85181" ry="2.69695" transform="matrix(-0.919199 0.393793 0.454338 0.890829 191.937 450.417)" fill="white"/>
<ellipse rx="2.85181" ry="2.69695" transform="matrix(-0.919199 0.393793 0.454338 0.890829 20.9164 365.603)" fill="white" fill-opacity="0.43"/>
<ellipse rx="2.85181" ry="2.69695" transform="matrix(-0.919199 0.393793 0.454338 0.890829 228.572 346.897)" fill="white"/>
<ellipse rx="5.5056" ry="5.59587" transform="matrix(0.670192 -0.742188 -0.796735 -0.604329 527.269 204.17)" fill="white" fill-opacity="0.43"/>
<ellipse rx="5.5056" ry="5.59587" transform="matrix(0.670192 -0.742188 -0.796735 -0.604329 521.736 310.131)" fill="white"/>
<ellipse rx="5.5056" ry="5.59587" transform="matrix(0.670192 -0.742188 -0.796735 -0.604329 372.454 217.556)" fill="white" fill-opacity="0.43"/>
<ellipse rx="5.5056" ry="5.59587" transform="matrix(0.670192 -0.742188 -0.796735 -0.604329 713.139 173.034)" fill="white"/>
<ellipse rx="2.7528" ry="2.79793" transform="matrix(0.670192 -0.742188 -0.796735 -0.604329 430.03 257.786)" fill="white"/>
<ellipse rx="2.7528" ry="2.79793" transform="matrix(0.670192 -0.742188 -0.796735 -0.604329 606.833 178.458)" fill="white" fill-opacity="0.43"/>
<ellipse rx="2.7528" ry="2.79793" transform="matrix(0.670192 -0.742188 -0.796735 -0.604329 442.172 136.184)" fill="white"/>
<ellipse rx="2.7528" ry="2.79793" transform="matrix(0.670192 -0.742188 -0.796735 -0.604329 585.771 93.6308)" fill="white"/>
<ellipse rx="2.7528" ry="2.79793" transform="matrix(0.670192 -0.742188 -0.796735 -0.604329 624.197 267.368)" fill="white" fill-opacity="0.43"/>
<ellipse rx="2.7528" ry="2.79793" transform="matrix(0.670192 -0.742188 -0.796735 -0.604329 445.249 365.717)" fill="white"/>
<ellipse rx="5.46559" ry="5.63495" transform="matrix(-0.603271 -0.797536 -0.844036 0.536287 408.306 73.3675)" fill="white"/>
<ellipse rx="5.46559" ry="5.63495" transform="matrix(-0.603271 -0.797536 -0.844036 0.536287 270.758 180.124)" fill="white" fill-opacity="0.43"/>
<ellipse rx="2.7328" ry="2.81747" transform="matrix(-0.603271 -0.797536 -0.844036 0.536287 90.5754 39.6752)" fill="white"/>
<ellipse rx="2.7328" ry="2.81747" transform="matrix(-0.603271 -0.797536 -0.844036 0.536287 328.561 140.171)" fill="white"/>
<ellipse rx="2.7328" ry="2.81747" transform="matrix(-0.603271 -0.797536 -0.844036 0.536287 204.082 96.6347)" fill="white"/>
<ellipse rx="2.7328" ry="2.81747" transform="matrix(-0.603271 -0.797536 -0.844036 0.536287 446.065 155.869)" fill="white"/>
<ellipse rx="5.76025" ry="5.33337" transform="matrix(-0.97503 -0.222074 -0.261698 0.96515 88.4029 163.51)" fill="white" fill-opacity="0.43"/>
<ellipse rx="2.88013" ry="2.66669" transform="matrix(-0.97503 -0.222074 -0.261698 0.96515 103.039 98.5259)" fill="white"/>
<ellipse rx="2.88013" ry="2.66669" transform="matrix(-0.97503 -0.222074 -0.261698 0.96515 202.607 39.2232)" fill="white"/>
<ellipse rx="5.42601" ry="5.67307" transform="matrix(-0.527025 0.84985 0.886886 0.461988 95.6173 263.733)" fill="white" fill-opacity="0.43"/>
<ellipse rx="2.71301" ry="2.83654" transform="matrix(-0.527025 0.84985 0.886886 0.461988 31.2978 233.275)" fill="white"/>
<ellipse rx="2.71301" ry="2.83654" transform="matrix(-0.527025 0.84985 0.886886 0.461988 42.373 354.963)" fill="white"/>
<ellipse rx="2.73013" ry="2.82006" transform="matrix(-0.593666 0.804711 0.850019 0.526751 1241.7 140.573)" fill="white"/>
<ellipse rx="2.73013" ry="2.82006" transform="matrix(-0.593666 0.804711 0.850019 0.526751 1258.59 22.9852)" fill="white"/>
<ellipse rx="2.73013" ry="2.82006" transform="matrix(-0.593666 0.804711 0.850019 0.526751 1120.15 78.0589)" fill="white"/>
<ellipse rx="5.51118" ry="5.59037" transform="matrix(0.678897 0.734234 0.789771 -0.613402 1411.77 106.102)" fill="white" fill-opacity="0.43"/>
<ellipse rx="5.51118" ry="5.59037" transform="matrix(0.678897 0.734234 0.789771 -0.613402 1298.92 82.5075)" fill="white"/>
<ellipse rx="5.51118" ry="5.59037" transform="matrix(0.678897 0.734234 0.789771 -0.613402 1412.59 279.275)" fill="white"/>
<ellipse rx="2.75559" ry="2.79519" transform="matrix(0.678897 0.734234 0.789771 -0.613402 1618.71 87.8941)" fill="white"/>
<ellipse rx="2.75559" ry="2.79519" transform="matrix(0.678897 0.734234 0.789771 -0.613402 1371.24 8.95125)" fill="white"/>
<ellipse rx="2.75559" ry="2.79519" transform="matrix(0.678897 0.734234 0.789771 -0.613402 1425.42 182.401)" fill="white" fill-opacity="0.43"/>
<ellipse rx="2.75559" ry="2.79519" transform="matrix(0.678897 0.734234 0.789771 -0.613402 1499.73 41.2564)" fill="white"/>
<ellipse rx="2.75559" ry="2.79519" transform="matrix(0.678897 0.734234 0.789771 -0.613402 1520.23 178.287)" fill="white"/>
<ellipse rx="2.75559" ry="2.79519" transform="matrix(0.678897 0.734234 0.789771 -0.613402 1326.87 182.468)" fill="white" fill-opacity="0.43"/>
<ellipse rx="2.75559" ry="2.79519" transform="matrix(0.678897 0.734234 0.789771 -0.613402 1252.64 3.73787)" fill="white"/>
<ellipse rx="5.7076" ry="5.38968" transform="matrix(0.923293 -0.384096 -0.443806 -0.896123 1528.05 426.158)" fill="white" fill-opacity="0.43"/>
<ellipse rx="2.8538" ry="2.69484" transform="matrix(0.923293 -0.384096 -0.443806 -0.896123 1711.09 288.848)" fill="white"/>
<ellipse rx="2.8538" ry="2.69484" transform="matrix(0.923293 -0.384096 -0.443806 -0.896123 1629.61 380.992)" fill="white"/>
<ellipse rx="2.8538" ry="2.69484" transform="matrix(0.923293 -0.384096 -0.443806 -0.896123 1779.03 400.379)" fill="white"/>
<ellipse rx="5.31576" ry="5.7765" transform="matrix(-0.165746 -0.986169 -0.990181 0.139791 1546.44 236.739)" fill="white" fill-opacity="0.43"/>
<ellipse rx="5.31576" ry="5.7765" transform="matrix(-0.165746 -0.986169 -0.990181 0.139791 1629.18 310.926)" fill="white"/>
<ellipse rx="5.31576" ry="5.7765" transform="matrix(-0.165746 -0.986169 -0.990181 0.139791 1454.51 351.684)" fill="white" fill-opacity="0.43"/>
<ellipse rx="5.31576" ry="5.7765" transform="matrix(-0.165746 -0.986169 -0.990181 0.139791 1644.53 88.7274)" fill="white"/>
<ellipse rx="2.65788" ry="2.88825" transform="matrix(-0.165746 -0.986169 -0.990181 0.139791 1359.65 153.096)" fill="white"/>
<ellipse rx="2.65788" ry="2.88825" transform="matrix(-0.165746 -0.986169 -0.990181 0.139791 1525.56 338.97)" fill="white"/>
<ellipse rx="2.65788" ry="2.88825" transform="matrix(-0.165746 -0.986169 -0.990181 0.139791 1578.33 165.156)" fill="white" fill-opacity="0.43"/>
<ellipse rx="2.65788" ry="2.88825" transform="matrix(-0.165746 -0.986169 -0.990181 0.139791 1434.47 249.864)" fill="white"/>
<ellipse rx="2.65788" ry="2.88825" transform="matrix(-0.165746 -0.986169 -0.990181 0.139791 1495.16 123.23)" fill="white"/>
<ellipse rx="2.65788" ry="2.88825" transform="matrix(-0.165746 -0.986169 -0.990181 0.139791 1662.38 212.323)" fill="white" fill-opacity="0.43"/>
<ellipse rx="2.65788" ry="2.88825" transform="matrix(-0.165746 -0.986169 -0.990181 0.139791 1623.7 400.248)" fill="white"/>
<ellipse rx="5.43078" ry="5.66851" transform="matrix(0.536872 -0.843664 -0.881913 -0.471413 1855.09 328.399)" fill="white" fill-opacity="0.43"/>
<ellipse rx="5.54326" ry="5.55856" transform="matrix(-0.726433 -0.687238 -0.747777 0.66395 1750.56 164.121)" fill="white" fill-opacity="0.43"/>
<ellipse rx="5.54326" ry="5.55856" transform="matrix(-0.726433 -0.687238 -0.747777 0.66395 1864.87 180.788)" fill="white"/>
<ellipse rx="5.54326" ry="5.55856" transform="matrix(-0.726433 -0.687238 -0.747777 0.66395 1748.1 306.625)" fill="white" fill-opacity="0.43"/>
<ellipse rx="2.77163" ry="2.77928" transform="matrix(-0.726433 -0.687238 -0.747777 0.66395 1545.4 194.899)" fill="white"/>
<ellipse rx="2.77163" ry="2.77928" transform="matrix(-0.726433 -0.687238 -0.747777 0.66395 1798.04 258.588)" fill="white"/>
<ellipse rx="2.77163" ry="2.77928" transform="matrix(-0.726433 -0.687238 -0.747777 0.66395 1731.4 88.8238)" fill="white" fill-opacity="0.43"/>
<ellipse rx="2.77163" ry="2.77928" transform="matrix(-0.726433 -0.687238 -0.747777 0.66395 1667.5 234.184)" fill="white"/>
<ellipse rx="2.77163" ry="2.77928" transform="matrix(-0.726433 -0.687238 -0.747777 0.66395 1637.1 98.7042)" fill="white"/>
<ellipse rx="2.77163" ry="2.77928" transform="matrix(-0.726433 -0.687238 -0.747777 0.66395 1829.74 82.7501)" fill="white" fill-opacity="0.43"/>
<ellipse rx="2.69416" ry="2.85445" transform="matrix(0.440332 0.897835 0.924613 -0.380907 74.4936 154.479)" fill="white"/>
<ellipse rx="5.77701" ry="5.31522" transform="matrix(0.990646 -0.136454 -0.16182 -0.98682 50.7052 79.3308)" fill="white"/>
<ellipse rx="5.77701" ry="5.31522" transform="matrix(0.990646 -0.136454 -0.16182 -0.98682 293.087 94.218)" fill="white"/>
<ellipse rx="2.8885" ry="2.65761" transform="matrix(0.990646 -0.136454 -0.16182 -0.98682 158.169 110.12)" fill="white" fill-opacity="0.43"/>
<ellipse rx="5.31226" ry="5.77973" transform="matrix(0.138779 -0.990323 -0.993143 -0.116905 670.271 86.6343)" fill="white"/>
<ellipse rx="5.31226" ry="5.77973" transform="matrix(0.138779 -0.990323 -0.993143 -0.116905 490.113 81.4707)" fill="white" fill-opacity="0.43"/>
<ellipse rx="2.65613" ry="2.88986" transform="matrix(0.138779 -0.990323 -0.993143 -0.116905 562.237 87.2866)" fill="white"/>
<ellipse rx="2.65613" ry="2.88986" transform="matrix(0.138779 -0.990323 -0.993143 -0.116905 638.018 171.074)" fill="white"/>
<ellipse rx="5.71627" ry="5.38049" transform="matrix(-0.932106 -0.362186 -0.419841 0.907598 382.331 99.625)" fill="white" fill-opacity="0.43"/>
<ellipse rx="2.85813" ry="2.69024" transform="matrix(-0.932106 -0.362186 -0.419841 0.907598 148.147 69.1199)" fill="white"/>
<ellipse rx="2.85813" ry="2.69024" transform="matrix(-0.932106 -0.362186 -0.419841 0.907598 407.903 37.5466)" fill="white"/>
<ellipse rx="2.85813" ry="2.69024" transform="matrix(-0.932106 -0.362186 -0.419841 0.907598 277.302 61.6936)" fill="white"/>
<ellipse rx="5.78646" ry="5.30493" transform="matrix(0.999287 -0.0377523 -0.0449303 -0.99899 831.92 101.364)" fill="white" fill-opacity="0.43"/>
<ellipse rx="5.78646" ry="5.30493" transform="matrix(0.999287 -0.0377523 -0.0449303 -0.99899 742.26 168.454)" fill="white"/>
<ellipse rx="5.78646" ry="5.30493" transform="matrix(0.999287 -0.0377523 -0.0449303 -0.99899 981.484 207.193)" fill="white"/>
<ellipse rx="2.89323" ry="2.65246" transform="matrix(0.999287 -0.0377523 -0.0449303 -0.99899 723.396 70.9588)" fill="white"/>
<ellipse rx="2.89323" ry="2.65246" transform="matrix(0.999287 -0.0377523 -0.0449303 -0.99899 905.99 138.381)" fill="white" fill-opacity="0.43"/>
<ellipse rx="2.89323" ry="2.65246" transform="matrix(0.999287 -0.0377523 -0.0449303 -0.99899 960.713 67.3001)" fill="white"/>
<ellipse rx="2.89323" ry="2.65246" transform="matrix(0.999287 -0.0377523 -0.0449303 -0.99899 845.479 209.678)" fill="white" fill-opacity="0.43"/>
<ellipse rx="2.89323" ry="2.65246" transform="matrix(0.999287 -0.0377523 -0.0449303 -0.99899 646.019 153.511)" fill="white"/>
<ellipse rx="2.89323" ry="2.65246" transform="matrix(0.999287 -0.0377523 -0.0449303 -0.99899 399.189 61.1687)" fill="white"/>
</mask>
<g mask="url(#mask0)">
<rect x="-21" y="-22" width="2036" height="481" fill="url(#paint0_linear)"/>
</g>
<defs>
<linearGradient id="paint0_linear" x1="997" y1="34" x2="997" y2="1041" gradientUnits="userSpaceOnUse">
<stop stop-color="#C4C4C4" stop-opacity="0"/>
<stop offset="1" stop-color="#C4C4C4"/>
</linearGradient>
</defs>
</svg>
