<svg width="57" height="104" viewBox="0 0 57 104" fill="none" xmlns="http://www.w3.org/2000/svg">
<g opacity="0.2">
<path d="M50.9906 9.19159C50.9906 9.6058 51.3263 9.94159 51.7406 9.94159C52.1548 9.94159 52.4906 9.6058 52.4906 9.19159L50.9906 9.19159ZM52.4906 1.00002C52.4906 0.585812 52.1548 0.250025 51.7406 0.250025C51.3263 0.250025 50.9906 0.585812 50.9906 1.00002L52.4906 1.00002ZM52.4906 9.19159L52.4906 1.00002L50.9906 1.00002L50.9906 9.19159L52.4906 9.19159Z" fill="#0058FF"/>
<path d="M47.8084 4.50952C47.3942 4.50952 47.0584 4.84531 47.0584 5.25952C47.0584 5.67373 47.3942 6.00952 47.8084 6.00952L47.8084 4.50952ZM56 6.00952C56.4142 6.00952 56.75 5.67374 56.75 5.25952C56.75 4.84531 56.4142 4.50952 56 4.50952L56 6.00952ZM47.8084 6.00952L56 6.00952L56 4.50952L47.8084 4.50952L47.8084 6.00952Z" fill="#0058FF"/>
</g>
<g opacity="0.2">
<path d="M50.9906 24.7946C50.9906 25.2088 51.3263 25.5446 51.7406 25.5446C52.1548 25.5446 52.4906 25.2088 52.4906 24.7946L50.9906 24.7946ZM52.4906 16.603C52.4906 16.1888 52.1548 15.853 51.7406 15.853C51.3263 15.853 50.9906 16.1888 50.9906 16.603L52.4906 16.603ZM52.4906 24.7946L52.4906 16.603L50.9906 16.603L50.9906 24.7946L52.4906 24.7946Z" fill="#0058FF"/>
<path d="M47.8084 20.1125C47.3942 20.1125 47.0584 20.4483 47.0584 20.8625C47.0584 21.2767 47.3942 21.6125 47.8084 21.6125L47.8084 20.1125ZM56 21.6125C56.4142 21.6125 56.75 21.2767 56.75 20.8625C56.75 20.4483 56.4142 20.1125 56 20.1125L56 21.6125ZM47.8084 21.6125L56 21.6125L56 20.1125L47.8084 20.1125L47.8084 21.6125Z" fill="#0058FF"/>
</g>
<g opacity="0.2">
<path d="M35.3874 24.7946C35.3874 25.2088 35.7231 25.5446 36.1374 25.5446C36.5516 25.5446 36.8874 25.2088 36.8874 24.7946L35.3874 24.7946ZM36.8874 16.603C36.8874 16.1888 36.5516 15.853 36.1374 15.853C35.7231 15.853 35.3874 16.1888 35.3874 16.603L36.8874 16.603ZM36.8874 24.7946L36.8874 16.603L35.3874 16.603L35.3874 24.7946L36.8874 24.7946Z" fill="#0058FF"/>
<path d="M32.2057 20.1125C31.7915 20.1125 31.4557 20.4483 31.4557 20.8625C31.4557 21.2767 31.7915 21.6125 32.2057 21.6125L32.2057 20.1125ZM40.3973 21.6125C40.8115 21.6125 41.1473 21.2767 41.1473 20.8625C41.1473 20.4483 40.8115 20.1125 40.3973 20.1125L40.3973 21.6125ZM32.2057 21.6125L40.3973 21.6125L40.3973 20.1125L32.2057 20.1125L32.2057 21.6125Z" fill="#0058FF"/>
</g>
<g opacity="0.2">
<path d="M50.9906 40.3975C50.9906 40.8117 51.3263 41.1475 51.7406 41.1475C52.1548 41.1475 52.4906 40.8117 52.4906 40.3975L50.9906 40.3975ZM52.4906 32.2059C52.4906 31.7917 52.1548 31.4559 51.7406 31.4559C51.3263 31.4559 50.9906 31.7917 50.9906 32.2059L52.4906 32.2059ZM52.4906 40.3975L52.4906 32.2059L50.9906 32.2059L50.9906 40.3975L52.4906 40.3975Z" fill="#0058FF"/>
<path d="M47.8084 35.7155C47.3942 35.7155 47.0584 36.0512 47.0584 36.4655C47.0584 36.8797 47.3942 37.2155 47.8084 37.2155L47.8084 35.7155ZM56 37.2155C56.4142 37.2155 56.75 36.8797 56.75 36.4655C56.75 36.0512 56.4142 35.7155 56 35.7155L56 37.2155ZM47.8084 37.2155L56 37.2155L56 35.7155L47.8084 35.7155L47.8084 37.2155Z" fill="#0058FF"/>
</g>
<g opacity="0.2">
<path d="M35.3874 40.3974C35.3874 40.8116 35.7231 41.1474 36.1374 41.1474C36.5516 41.1474 36.8874 40.8116 36.8874 40.3974L35.3874 40.3974ZM36.8874 32.2059C36.8874 31.7917 36.5516 31.4559 36.1374 31.4559C35.7231 31.4559 35.3874 31.7917 35.3874 32.2059L36.8874 32.2059ZM36.8874 40.3974L36.8874 32.2059L35.3874 32.2059L35.3874 40.3974L36.8874 40.3974Z" fill="#0058FF"/>
<path d="M32.2057 35.7154C31.7915 35.7154 31.4557 36.0512 31.4557 36.4654C31.4557 36.8796 31.7915 37.2154 32.2057 37.2154L32.2057 35.7154ZM40.3973 37.2154C40.8115 37.2154 41.1473 36.8796 41.1473 36.4654C41.1473 36.0512 40.8115 35.7154 40.3973 35.7154L40.3973 37.2154ZM32.2057 37.2154L40.3973 37.2154L40.3973 35.7154L32.2057 35.7154L32.2057 37.2154Z" fill="#0058FF"/>
</g>
<g opacity="0.2">
<path d="M19.7846 24.7946C19.7846 25.2088 20.1204 25.5446 20.5346 25.5446C20.9489 25.5446 21.2846 25.2088 21.2846 24.7946L19.7846 24.7946ZM21.2846 16.603C21.2846 16.1888 20.9489 15.853 20.5346 15.853C20.1204 15.853 19.7846 16.1888 19.7846 16.603L21.2846 16.603ZM21.2846 24.7946L21.2846 16.603L19.7846 16.603L19.7846 24.7946L21.2846 24.7946Z" fill="#0058FF"/>
<path d="M16.6028 20.1125C16.1886 20.1125 15.8528 20.4483 15.8528 20.8625C15.8528 21.2768 16.1886 21.6125 16.6028 21.6125L16.6028 20.1125ZM24.7943 21.6125C25.2086 21.6125 25.5443 21.2768 25.5443 20.8626C25.5443 20.4483 25.2086 20.1125 24.7943 20.1125L24.7943 21.6125ZM16.6028 21.6125L24.7943 21.6125L24.7943 20.1125L16.6028 20.1125L16.6028 21.6125Z" fill="#0058FF"/>
</g>
<g opacity="0.2">
<path d="M19.7846 40.3975C19.7846 40.8117 20.1204 41.1475 20.5346 41.1475C20.9489 41.1475 21.2846 40.8117 21.2846 40.3975L19.7846 40.3975ZM21.2846 32.2059C21.2846 31.7917 20.9489 31.4559 20.5346 31.4559C20.1204 31.4559 19.7846 31.7917 19.7846 32.2059L21.2846 32.2059ZM21.2846 40.3975L21.2846 32.2059L19.7846 32.2059L19.7846 40.3975L21.2846 40.3975Z" fill="#0058FF"/>
<path d="M16.6028 35.7155C16.1886 35.7155 15.8528 36.0513 15.8528 36.4655C15.8528 36.8797 16.1886 37.2155 16.6028 37.2155L16.6028 35.7155ZM24.7943 37.2155C25.2086 37.2155 25.5443 36.8797 25.5443 36.4655C25.5443 36.0513 25.2086 35.7155 24.7943 35.7155L24.7943 37.2155ZM16.6028 37.2155L24.7943 37.2155L24.7943 35.7155L16.6028 35.7155L16.6028 37.2155Z" fill="#0058FF"/>
</g>
<g opacity="0.2">
<path d="M35.3874 56.0005C35.3874 56.4147 35.7231 56.7505 36.1374 56.7505C36.5516 56.7505 36.8874 56.4147 36.8874 56.0005L35.3874 56.0005ZM36.8874 47.809C36.8874 47.3947 36.5516 47.059 36.1374 47.059C35.7231 47.059 35.3874 47.3947 35.3874 47.809L36.8874 47.809ZM36.8874 56.0005L36.8874 47.809L35.3874 47.809L35.3874 56.0005L36.8874 56.0005Z" fill="#0058FF"/>
<path d="M32.2057 51.3185C31.7915 51.3185 31.4557 51.6542 31.4557 52.0685C31.4557 52.4827 31.7915 52.8185 32.2057 52.8185L32.2057 51.3185ZM40.3973 52.8185C40.8115 52.8185 41.1473 52.4827 41.1473 52.0685C41.1473 51.6542 40.8115 51.3185 40.3973 51.3185L40.3973 52.8185ZM32.2057 52.8185L40.3973 52.8185L40.3973 51.3185L32.2057 51.3185L32.2057 52.8185Z" fill="#0058FF"/>
</g>
<g opacity="0.2">
<path d="M19.7846 56.0005C19.7846 56.4147 20.1204 56.7505 20.5346 56.7505C20.9488 56.7505 21.2846 56.4147 21.2846 56.0005L19.7846 56.0005ZM21.2846 47.8089C21.2846 47.3947 20.9488 47.0589 20.5346 47.0589C20.1204 47.0589 19.7846 47.3947 19.7846 47.8089L21.2846 47.8089ZM21.2846 56.0005L21.2846 47.8089L19.7846 47.8089L19.7846 56.0005L21.2846 56.0005Z" fill="#0058FF"/>
<path d="M16.6028 51.3185C16.1886 51.3185 15.8528 51.6542 15.8528 52.0685C15.8528 52.4827 16.1886 52.8185 16.6028 52.8185L16.6028 51.3185ZM24.7943 52.8185C25.2086 52.8185 25.5443 52.4827 25.5443 52.0685C25.5443 51.6542 25.2086 51.3185 24.7943 51.3185L24.7943 52.8185ZM16.6028 52.8185L24.7943 52.8185L24.7943 51.3185L16.6028 51.3185L16.6028 52.8185Z" fill="#0058FF"/>
</g>
<g opacity="0.2">
<path d="M35.3874 71.6035C35.3874 72.0177 35.7231 72.3535 36.1374 72.3535C36.5516 72.3535 36.8874 72.0177 36.8874 71.6035L35.3874 71.6035ZM36.8874 63.4119C36.8874 62.9977 36.5516 62.6619 36.1374 62.6619C35.7231 62.6619 35.3874 62.9977 35.3874 63.4119L36.8874 63.4119ZM36.8874 71.6035L36.8874 63.4119L35.3874 63.4119L35.3874 71.6035L36.8874 71.6035Z" fill="#0058FF"/>
<path d="M32.2057 66.9215C31.7915 66.9215 31.4557 67.2573 31.4557 67.6715C31.4557 68.0857 31.7915 68.4215 32.2057 68.4215L32.2057 66.9215ZM40.3973 68.4215C40.8115 68.4215 41.1473 68.0857 41.1473 67.6715C41.1473 67.2573 40.8115 66.9215 40.3973 66.9215L40.3973 68.4215ZM32.2057 68.4215L40.3973 68.4215L40.3973 66.9215L32.2057 66.9215L32.2057 68.4215Z" fill="#0058FF"/>
</g>
<g opacity="0.2">
<path d="M19.7846 71.6035C19.7846 72.0177 20.1204 72.3535 20.5346 72.3535C20.9488 72.3535 21.2846 72.0177 21.2846 71.6035L19.7846 71.6035ZM21.2846 63.4119C21.2846 62.9977 20.9488 62.6619 20.5346 62.6619C20.1204 62.6619 19.7846 62.9977 19.7846 63.4119L21.2846 63.4119ZM21.2846 71.6035L21.2846 63.4119L19.7846 63.4119L19.7846 71.6035L21.2846 71.6035Z" fill="#0058FF"/>
<path d="M16.6028 66.9214C16.1886 66.9214 15.8528 67.2572 15.8528 67.6714C15.8528 68.0857 16.1886 68.4214 16.6028 68.4214L16.6028 66.9214ZM24.7943 68.4214C25.2085 68.4214 25.5443 68.0857 25.5443 67.6714C25.5443 67.2572 25.2085 66.9214 24.7943 66.9214L24.7943 68.4214ZM16.6028 68.4214L24.7943 68.4214L24.7943 66.9214L16.6028 66.9214L16.6028 68.4214Z" fill="#0058FF"/>
</g>
<g opacity="0.2">
<path d="M4.18169 40.3974C4.18169 40.8116 4.51747 41.1474 4.93169 41.1474C5.3459 41.1474 5.68169 40.8116 5.68169 40.3974L4.18169 40.3974ZM5.68169 32.2059C5.68169 31.7917 5.3459 31.4559 4.93169 31.4559C4.51747 31.4559 4.18169 31.7917 4.18169 32.2059L5.68169 32.2059ZM5.68169 40.3974L5.68169 32.2059L4.18169 32.2059L4.18169 40.3974L5.68169 40.3974Z" fill="#0058FF"/>
<path d="M1.00007 35.7154C0.585859 35.7154 0.250073 36.0512 0.250072 36.4654C0.250072 36.8796 0.585859 37.2154 1.00007 37.2154L1.00007 35.7154ZM9.19164 37.2154C9.60585 37.2154 9.94164 36.8796 9.94164 36.4654C9.94164 36.0512 9.60585 35.7154 9.19164 35.7154L9.19164 37.2154ZM1.00007 37.2154L9.19164 37.2154L9.19164 35.7154L1.00007 35.7154L1.00007 37.2154Z" fill="#0058FF"/>
</g>
<g opacity="0.2">
<path d="M4.18169 56.0005C4.18169 56.4147 4.51747 56.7505 4.93169 56.7505C5.3459 56.7505 5.68169 56.4147 5.68169 56.0005L4.18169 56.0005ZM5.68169 47.8089C5.68169 47.3947 5.3459 47.0589 4.93169 47.0589C4.51747 47.0589 4.18169 47.3947 4.18169 47.8089L5.68169 47.8089ZM5.68169 56.0005L5.68169 47.8089L4.18169 47.8089L4.18169 56.0005L5.68169 56.0005Z" fill="#0058FF"/>
<path d="M1.00007 51.3185C0.585859 51.3185 0.250073 51.6542 0.250072 52.0685C0.250072 52.4827 0.585859 52.8185 1.00007 52.8185L1.00007 51.3185ZM9.19164 52.8185C9.60585 52.8185 9.94164 52.4827 9.94164 52.0685C9.94164 51.6542 9.60585 51.3185 9.19164 51.3185L9.19164 52.8185ZM1.00007 52.8185L9.19164 52.8185L9.19164 51.3185L1.00007 51.3185L1.00007 52.8185Z" fill="#0058FF"/>
</g>
<g opacity="0.2">
<path d="M4.18169 71.6035C4.18169 72.0177 4.51747 72.3535 4.93169 72.3535C5.3459 72.3535 5.68169 72.0177 5.68169 71.6035L4.18169 71.6035ZM5.68169 63.4119C5.68169 62.9977 5.3459 62.6619 4.93169 62.6619C4.51747 62.6619 4.18169 62.9977 4.18169 63.4119L5.68169 63.4119ZM5.68169 71.6035L5.68169 63.4119L4.18169 63.4119L4.18169 71.6035L5.68169 71.6035Z" fill="#0058FF"/>
<path d="M1.00007 66.9214C0.585859 66.9214 0.250073 67.2572 0.250072 67.6714C0.250072 68.0857 0.585859 68.4214 1.00007 68.4214L1.00007 66.9214ZM9.19164 68.4214C9.60585 68.4214 9.94164 68.0857 9.94164 67.6714C9.94164 67.2572 9.60585 66.9214 9.19164 66.9214L9.19164 68.4214ZM1.00007 68.4214L9.19164 68.4214L9.19164 66.9214L1.00007 66.9214L1.00007 68.4214Z" fill="#0058FF"/>
</g>
<g opacity="0.2">
<path d="M19.7846 87.2065C19.7846 87.6207 20.1204 87.9565 20.5346 87.9565C20.9488 87.9565 21.2846 87.6207 21.2846 87.2065L19.7846 87.2065ZM21.2846 79.0149C21.2846 78.6007 20.9488 78.2649 20.5346 78.2649C20.1204 78.2649 19.7846 78.6007 19.7846 79.0149L21.2846 79.0149ZM21.2846 87.2065L21.2846 79.0149L19.7846 79.0149L19.7846 87.2065L21.2846 87.2065Z" fill="#0058FF"/>
<path d="M16.6028 82.5244C16.1886 82.5244 15.8528 82.8602 15.8528 83.2744C15.8528 83.6886 16.1886 84.0244 16.6028 84.0244L16.6028 82.5244ZM24.7943 84.0244C25.2085 84.0244 25.5443 83.6886 25.5443 83.2744C25.5443 82.8602 25.2085 82.5244 24.7943 82.5244L24.7943 84.0244ZM16.6028 84.0244L24.7943 84.0244L24.7943 82.5244L16.6028 82.5244L16.6028 84.0244Z" fill="#0058FF"/>
</g>
<g opacity="0.2">
<path d="M4.18168 87.2064C4.18168 87.6206 4.51747 87.9564 4.93168 87.9564C5.3459 87.9564 5.68168 87.6206 5.68168 87.2064L4.18168 87.2064ZM5.68168 79.0148C5.68168 78.6006 5.3459 78.2648 4.93168 78.2648C4.51747 78.2648 4.18168 78.6006 4.18168 79.0148L5.68168 79.0148ZM5.68168 87.2064L5.68168 79.0148L4.18168 79.0148L4.18168 87.2064L5.68168 87.2064Z" fill="#0058FF"/>
<path d="M1.00007 82.5243C0.585855 82.5243 0.250069 82.8601 0.250069 83.2743C0.250069 83.6886 0.585855 84.0243 1.00007 84.0243L1.00007 82.5243ZM9.19163 84.0243C9.60585 84.0243 9.94163 83.6886 9.94163 83.2743C9.94163 82.8601 9.60585 82.5243 9.19163 82.5243L9.19163 84.0243ZM1.00007 84.0243L9.19163 84.0243L9.19163 82.5243L1.00007 82.5243L1.00007 84.0243Z" fill="#0058FF"/>
</g>
<g opacity="0.2">
<path d="M4.18168 102.809C4.18168 103.224 4.51747 103.559 4.93168 103.559C5.3459 103.559 5.68168 103.224 5.68168 102.809L4.18168 102.809ZM5.68168 94.6179C5.68168 94.2036 5.3459 93.8679 4.93168 93.8679C4.51747 93.8679 4.18168 94.2036 4.18168 94.6179L5.68168 94.6179ZM5.68168 102.809L5.68168 94.6179L4.18168 94.6179L4.18168 102.809L5.68168 102.809Z" fill="#0058FF"/>
<path d="M1.00007 98.1274C0.585855 98.1274 0.250069 98.4632 0.250069 98.8774C0.250069 99.2916 0.585855 99.6274 1.00007 99.6274L1.00007 98.1274ZM9.19163 99.6274C9.60585 99.6274 9.94163 99.2916 9.94163 98.8774C9.94163 98.4632 9.60585 98.1274 9.19163 98.1274L9.19163 99.6274ZM1.00007 99.6274L9.19163 99.6274L9.19163 98.1274L1.00007 98.1274L1.00007 99.6274Z" fill="#0058FF"/>
</g>
</svg>
